<svg width="1280" height="360" viewBox="0 0 1280 360" fill="none" xmlns="http://www.w3.org/2000/svg">
<g clip-path="url(#clip0_621_32)">
<rect width="1280" height="360" fill="#FF7731"/>
<path d="M435.253 340.315C435.253 340.656 435.209 340.983 435.119 341.298C435.033 341.61 434.91 341.903 434.749 342.179C434.587 342.451 434.394 342.7 434.168 342.926C433.946 343.148 433.698 343.339 433.422 343.5C433.146 343.658 432.851 343.782 432.536 343.871C432.221 343.957 431.893 344 431.553 344C431.216 344 430.89 343.957 430.575 343.871C430.26 343.782 429.966 343.658 429.694 343.5C429.422 343.339 429.173 343.148 428.948 342.926C428.726 342.7 428.534 342.451 428.373 342.179C428.212 341.903 428.087 341.61 427.997 341.298C427.911 340.983 427.868 340.656 427.868 340.315C427.868 339.975 427.911 339.648 427.997 339.333C428.087 339.017 428.212 338.724 428.373 338.452C428.534 338.176 428.726 337.925 428.948 337.7C429.173 337.474 429.422 337.283 429.694 337.125C429.966 336.964 430.258 336.84 430.57 336.754C430.885 336.665 431.213 336.62 431.553 336.62C431.893 336.62 432.221 336.665 432.536 336.754C432.851 336.84 433.146 336.964 433.422 337.125C433.698 337.283 433.946 337.474 434.168 337.7C434.394 337.925 434.587 338.176 434.749 338.452C434.91 338.724 435.033 339.017 435.119 339.333C435.209 339.648 435.253 339.975 435.253 340.315ZM433.148 342.142C432.89 342.278 432.636 342.382 432.385 342.453C432.135 342.525 431.857 342.561 431.553 342.561C431.252 342.561 430.969 342.51 430.704 342.41C430.443 342.306 430.215 342.16 430.022 341.97C429.829 341.776 429.676 341.542 429.565 341.266C429.454 340.99 429.399 340.677 429.399 340.326C429.399 339.975 429.454 339.662 429.565 339.386C429.676 339.107 429.829 338.871 430.022 338.677C430.215 338.484 430.443 338.337 430.704 338.237C430.969 338.133 431.252 338.081 431.553 338.081C431.703 338.081 431.845 338.09 431.977 338.108C432.113 338.122 432.246 338.147 432.375 338.183C432.503 338.215 432.631 338.258 432.756 338.312C432.885 338.362 433.015 338.421 433.148 338.489V339.467C433.001 339.356 432.865 339.264 432.74 339.193C432.614 339.121 432.494 339.064 432.38 339.021C432.265 338.978 432.151 338.949 432.036 338.935C431.922 338.917 431.802 338.908 431.676 338.908C431.469 338.908 431.282 338.942 431.118 339.01C430.953 339.078 430.812 339.175 430.693 339.3C430.579 339.422 430.489 339.571 430.425 339.746C430.364 339.922 430.333 340.115 430.333 340.326C430.333 340.537 430.364 340.729 430.425 340.901C430.489 341.073 430.579 341.221 430.693 341.347C430.812 341.468 430.953 341.563 431.118 341.631C431.282 341.699 431.469 341.733 431.676 341.733C431.802 341.733 431.922 341.726 432.036 341.712C432.151 341.694 432.265 341.664 432.38 341.621C432.494 341.578 432.614 341.522 432.74 341.454C432.865 341.382 433.001 341.293 433.148 341.186V342.142ZM428.749 340.315C428.749 340.702 428.822 341.067 428.969 341.411C429.116 341.751 429.317 342.049 429.571 342.303C429.825 342.553 430.122 342.752 430.462 342.899C430.803 343.046 431.166 343.119 431.553 343.119C431.943 343.119 432.308 343.046 432.648 342.899C432.992 342.752 433.291 342.553 433.545 342.303C433.803 342.049 434.006 341.751 434.152 341.411C434.299 341.067 434.373 340.702 434.373 340.315C434.373 339.925 434.299 339.56 434.152 339.22C434.006 338.876 433.803 338.577 433.545 338.323C433.291 338.069 432.992 337.868 432.648 337.721C432.308 337.574 431.943 337.501 431.553 337.501C431.166 337.501 430.803 337.574 430.462 337.721C430.122 337.868 429.825 338.069 429.571 338.323C429.317 338.577 429.116 338.876 428.969 339.22C428.822 339.56 428.749 339.925 428.749 340.315ZM440.383 344V342.679C441.342 342.238 442.175 341.844 442.88 341.497C443.589 341.15 444.175 340.835 444.637 340.552C445.102 340.269 445.448 340.011 445.673 339.778C445.899 339.542 446.012 339.315 446.012 339.096C446.012 339.035 446.005 338.967 445.99 338.892C445.979 338.813 445.951 338.735 445.904 338.656C445.861 338.573 445.797 338.493 445.711 338.414C445.625 338.335 445.507 338.267 445.356 338.21C445.206 338.149 445.02 338.101 444.798 338.065C444.576 338.026 444.307 338.006 443.992 338.006C443.702 338.006 443.4 338.026 443.084 338.065C442.769 338.101 442.458 338.153 442.15 338.221C441.842 338.289 441.545 338.371 441.258 338.468C440.972 338.564 440.709 338.674 440.469 338.795V337.039C440.963 336.867 441.511 336.724 442.112 336.609C442.717 336.491 443.355 336.432 444.024 336.432C444.651 336.432 445.211 336.488 445.706 336.599C446.2 336.71 446.617 336.871 446.957 337.082C447.301 337.29 447.562 337.544 447.741 337.845C447.924 338.142 448.015 338.479 448.015 338.854C448.015 339.062 447.992 339.257 447.945 339.44C447.902 339.619 447.824 339.794 447.709 339.966C447.594 340.138 447.439 340.312 447.242 340.487C447.048 340.659 446.801 340.842 446.5 341.035C446.203 341.229 445.847 341.438 445.432 341.664C445.016 341.886 444.533 342.133 443.981 342.405H448.171V344H440.383ZM458.156 340.315C458.156 340.903 458.043 341.436 457.817 341.916C457.595 342.392 457.289 342.8 456.899 343.141C456.509 343.477 456.049 343.739 455.519 343.925C454.989 344.107 454.419 344.199 453.811 344.199C453.402 344.199 453.012 344.158 452.64 344.075C452.267 343.993 451.918 343.873 451.592 343.715C451.27 343.558 450.976 343.366 450.711 343.141C450.45 342.911 450.226 342.654 450.04 342.367C449.854 342.081 449.709 341.766 449.605 341.422C449.505 341.078 449.455 340.709 449.455 340.315C449.455 339.925 449.505 339.558 449.605 339.214C449.709 338.867 449.854 338.55 450.04 338.264C450.226 337.977 450.45 337.721 450.711 337.496C450.976 337.266 451.27 337.073 451.592 336.916C451.918 336.758 452.267 336.638 452.64 336.556C453.012 336.473 453.402 336.432 453.811 336.432C454.419 336.432 454.989 336.525 455.519 336.711C456.049 336.894 456.509 337.155 456.899 337.496C457.289 337.832 457.595 338.24 457.817 338.72C458.043 339.196 458.156 339.728 458.156 340.315ZM456.163 340.315C456.163 339.943 456.099 339.614 455.97 339.327C455.841 339.041 455.667 338.799 455.449 338.602C455.234 338.405 454.985 338.257 454.702 338.156C454.419 338.056 454.122 338.006 453.811 338.006C453.499 338.006 453.2 338.056 452.914 338.156C452.627 338.257 452.375 338.405 452.156 338.602C451.941 338.799 451.768 339.041 451.635 339.327C451.506 339.614 451.442 339.943 451.442 340.315C451.442 340.688 451.506 341.017 451.635 341.304C451.768 341.59 451.941 341.832 452.156 342.029C452.375 342.222 452.627 342.371 452.914 342.475C453.2 342.575 453.499 342.625 453.811 342.625C454.122 342.625 454.419 342.575 454.702 342.475C454.985 342.371 455.234 342.222 455.449 342.029C455.667 341.832 455.841 341.59 455.97 341.304C456.099 341.017 456.163 340.688 456.163 340.315ZM459.235 344V342.679C460.195 342.238 461.028 341.844 461.733 341.497C462.442 341.15 463.027 340.835 463.489 340.552C463.955 340.269 464.3 340.011 464.526 339.778C464.751 339.542 464.864 339.315 464.864 339.096C464.864 339.035 464.857 338.967 464.843 338.892C464.832 338.813 464.803 338.735 464.757 338.656C464.714 338.573 464.649 338.493 464.563 338.414C464.478 338.335 464.359 338.267 464.209 338.21C464.059 338.149 463.872 338.101 463.65 338.065C463.428 338.026 463.16 338.006 462.845 338.006C462.555 338.006 462.252 338.026 461.937 338.065C461.622 338.101 461.31 338.153 461.002 338.221C460.694 338.289 460.397 338.371 460.111 338.468C459.824 338.564 459.561 338.674 459.321 338.795V337.039C459.815 336.867 460.363 336.724 460.965 336.609C461.57 336.491 462.207 336.432 462.877 336.432C463.504 336.432 464.064 336.488 464.558 336.599C465.052 336.71 465.469 336.871 465.81 337.082C466.153 337.29 466.415 337.544 466.594 337.845C466.776 338.142 466.868 338.479 466.868 338.854C466.868 339.062 466.844 339.257 466.798 339.44C466.755 339.619 466.676 339.794 466.562 339.966C466.447 340.138 466.291 340.312 466.094 340.487C465.901 340.659 465.654 340.842 465.353 341.035C465.056 341.229 464.7 341.438 464.284 341.664C463.869 341.886 463.385 342.133 462.834 342.405H467.023V344H459.235ZM468.108 344V342.679C469.068 342.238 469.901 341.844 470.606 341.497C471.315 341.15 471.9 340.835 472.362 340.552C472.828 340.269 473.173 340.011 473.399 339.778C473.625 339.542 473.737 339.315 473.737 339.096C473.737 339.035 473.73 338.967 473.716 338.892C473.705 338.813 473.676 338.735 473.63 338.656C473.587 338.573 473.522 338.493 473.437 338.414C473.351 338.335 473.232 338.267 473.082 338.21C472.932 338.149 472.745 338.101 472.523 338.065C472.301 338.026 472.033 338.006 471.718 338.006C471.428 338.006 471.125 338.026 470.81 338.065C470.495 338.101 470.183 338.153 469.875 338.221C469.568 338.289 469.27 338.371 468.984 338.468C468.697 338.564 468.434 338.674 468.194 338.795V337.039C468.688 336.867 469.236 336.724 469.838 336.609C470.443 336.491 471.08 336.432 471.75 336.432C472.377 336.432 472.937 336.488 473.431 336.599C473.925 336.71 474.342 336.871 474.683 337.082C475.026 337.29 475.288 337.544 475.467 337.845C475.649 338.142 475.741 338.479 475.741 338.854C475.741 339.062 475.717 339.257 475.671 339.44C475.628 339.619 475.549 339.794 475.435 339.966C475.32 340.138 475.164 340.312 474.967 340.487C474.774 340.659 474.527 340.842 474.226 341.035C473.929 341.229 473.573 341.438 473.157 341.664C472.742 341.886 472.258 342.133 471.707 342.405H475.896V344H468.108ZM490.871 340.305C490.871 340.777 490.819 341.198 490.715 341.567C490.611 341.932 490.465 342.251 490.275 342.523C490.089 342.795 489.863 343.026 489.598 343.216C489.337 343.406 489.045 343.558 488.723 343.672C488.4 343.787 488.053 343.871 487.681 343.925C487.308 343.975 486.92 344 486.515 344H481.832V336.62H486.504C486.909 336.62 487.298 336.647 487.67 336.701C488.042 336.751 488.39 336.833 488.712 336.948C489.038 337.062 489.333 337.215 489.598 337.404C489.863 337.59 490.089 337.821 490.275 338.097C490.465 338.369 490.611 338.688 490.715 339.053C490.819 339.418 490.871 339.836 490.871 340.305ZM488.862 340.305C488.862 339.95 488.816 339.642 488.723 339.381C488.633 339.119 488.486 338.905 488.282 338.736C488.082 338.564 487.819 338.437 487.493 338.355C487.167 338.269 486.769 338.226 486.3 338.226H483.824V342.394H486.3C486.769 342.394 487.167 342.353 487.493 342.271C487.819 342.185 488.082 342.056 488.282 341.884C488.486 341.708 488.633 341.49 488.723 341.229C488.816 340.967 488.862 340.659 488.862 340.305ZM492.692 344V336.62H494.685V344H492.692ZM503.799 338.699C503.66 338.631 503.475 338.554 503.246 338.468C503.017 338.382 502.757 338.301 502.467 338.226C502.177 338.147 501.862 338.083 501.522 338.033C501.182 337.979 500.833 337.952 500.475 337.952C500.188 337.952 499.943 337.961 499.739 337.979C499.538 337.997 499.368 338.02 499.229 338.049C499.092 338.077 498.983 338.111 498.901 338.151C498.822 338.187 498.761 338.224 498.718 338.264C498.675 338.303 498.647 338.342 498.632 338.382C498.622 338.421 498.616 338.457 498.616 338.489C498.616 338.597 498.67 338.692 498.777 338.774C498.885 338.853 499.032 338.924 499.218 338.989C499.404 339.05 499.621 339.109 499.868 339.166C500.115 339.22 500.376 339.277 500.652 339.338C500.931 339.395 501.218 339.46 501.511 339.531C501.808 339.599 502.095 339.68 502.371 339.773C502.65 339.866 502.913 339.975 503.16 340.101C503.407 340.222 503.624 340.366 503.81 340.53C503.996 340.695 504.143 340.885 504.25 341.1C504.358 341.314 504.412 341.56 504.412 341.835C504.412 342.19 504.349 342.494 504.224 342.749C504.098 343.003 503.93 343.218 503.719 343.393C503.511 343.569 503.269 343.71 502.994 343.817C502.718 343.921 502.428 344.002 502.124 344.059C501.823 344.116 501.517 344.154 501.205 344.172C500.897 344.19 500.604 344.199 500.324 344.199C499.594 344.199 498.917 344.138 498.294 344.016C497.674 343.898 497.127 343.749 496.65 343.57V341.809C497.141 342.081 497.7 342.294 498.326 342.448C498.956 342.602 499.63 342.679 500.346 342.679C500.768 342.679 501.112 342.657 501.377 342.614C501.646 342.568 501.855 342.51 502.005 342.442C502.156 342.371 502.258 342.294 502.312 342.211C502.365 342.129 502.392 342.05 502.392 341.975C502.392 341.857 502.338 341.755 502.231 341.669C502.124 341.579 501.977 341.502 501.791 341.438C501.604 341.37 501.388 341.309 501.141 341.255C500.894 341.198 500.63 341.143 500.351 341.089C500.075 341.032 499.791 340.971 499.497 340.906C499.203 340.842 498.917 340.767 498.638 340.681C498.362 340.591 498.101 340.489 497.854 340.375C497.606 340.256 497.39 340.118 497.204 339.961C497.017 339.8 496.871 339.615 496.763 339.408C496.656 339.196 496.602 338.953 496.602 338.677C496.602 338.351 496.659 338.07 496.774 337.834C496.889 337.598 497.042 337.397 497.236 337.232C497.433 337.064 497.658 336.928 497.913 336.824C498.17 336.72 498.441 336.64 498.724 336.583C499.007 336.525 499.293 336.486 499.583 336.464C499.873 336.443 500.149 336.432 500.41 336.432C500.697 336.432 500.99 336.446 501.291 336.475C501.595 336.504 501.894 336.545 502.188 336.599C502.482 336.649 502.764 336.708 503.037 336.776C503.312 336.844 503.567 336.916 503.799 336.991V338.699ZM506.302 344V336.62H508.295V344H506.302ZM515.363 336.432C516.087 336.432 516.758 336.495 517.377 336.62C518 336.742 518.572 336.899 519.091 337.093V338.897C518.887 338.783 518.656 338.672 518.398 338.564C518.144 338.457 517.866 338.362 517.565 338.28C517.265 338.197 516.942 338.131 516.599 338.081C516.255 338.031 515.893 338.006 515.514 338.006C515.041 338.006 514.629 338.04 514.278 338.108C513.927 338.176 513.627 338.267 513.376 338.382C513.125 338.496 512.919 338.631 512.758 338.785C512.597 338.935 512.47 339.096 512.377 339.268C512.284 339.44 512.219 339.615 512.184 339.794C512.148 339.973 512.13 340.147 512.13 340.315C512.13 340.462 512.144 340.622 512.173 340.793C512.205 340.965 512.262 341.137 512.345 341.309C512.431 341.481 512.549 341.646 512.699 341.803C512.85 341.961 513.045 342.1 513.285 342.222C513.528 342.344 513.82 342.442 514.16 342.518C514.5 342.589 514.905 342.625 515.374 342.625C515.61 342.625 515.816 342.618 515.992 342.604C516.167 342.589 516.326 342.569 516.47 342.544C516.617 342.519 516.753 342.489 516.878 342.453C517.007 342.417 517.139 342.38 517.275 342.34V341.449H515.041V339.832H519.268V343.603C519.003 343.692 518.706 343.774 518.376 343.85C518.051 343.921 517.712 343.982 517.361 344.032C517.014 344.086 516.665 344.127 516.314 344.156C515.963 344.184 515.632 344.199 515.32 344.199C514.837 344.199 514.373 344.167 513.929 344.102C513.485 344.038 513.07 343.939 512.683 343.807C512.3 343.671 511.949 343.499 511.63 343.291C511.315 343.083 511.045 342.836 510.819 342.55C510.597 342.263 510.424 341.936 510.298 341.567C510.177 341.194 510.116 340.777 510.116 340.315C510.116 339.857 510.18 339.442 510.309 339.069C510.438 338.697 510.617 338.368 510.846 338.081C511.079 337.795 511.356 337.548 511.679 337.34C512.005 337.132 512.361 336.962 512.748 336.83C513.138 336.694 513.553 336.593 513.994 336.529C514.438 336.464 514.894 336.432 515.363 336.432ZM528.447 344V339.864C528.447 339.589 528.424 339.34 528.377 339.118C528.331 338.892 528.243 338.701 528.114 338.543C527.989 338.382 527.812 338.258 527.583 338.172C527.357 338.083 527.065 338.038 526.707 338.038C526.435 338.038 526.148 338.076 525.848 338.151C525.55 338.222 525.255 338.319 524.961 338.441C524.668 338.563 524.387 338.704 524.118 338.865C523.853 339.026 523.617 339.195 523.409 339.37V344H521.417V336.62H523.409V337.63C523.66 337.487 523.927 337.345 524.209 337.206C524.492 337.062 524.793 336.933 525.112 336.819C525.431 336.704 525.769 336.611 526.127 336.54C526.485 336.468 526.863 336.432 527.26 336.432C527.758 336.432 528.202 336.493 528.592 336.615C528.986 336.733 529.319 336.903 529.591 337.125C529.863 337.343 530.071 337.61 530.214 337.925C530.361 338.237 530.435 338.586 530.435 338.973V344H528.447ZM545.27 341.964C545.27 342.251 545.232 342.5 545.157 342.711C545.082 342.922 544.976 343.105 544.84 343.259C544.707 343.409 544.546 343.533 544.356 343.629C544.17 343.722 543.963 343.798 543.733 343.855C543.508 343.909 543.266 343.946 543.008 343.968C542.75 343.989 542.484 344 542.208 344H536.853V336.62H542.111C542.323 336.62 542.534 336.629 542.745 336.647C542.96 336.665 543.164 336.699 543.357 336.749C543.551 336.796 543.73 336.862 543.895 336.948C544.063 337.034 544.208 337.146 544.33 337.286C544.455 337.426 544.552 337.594 544.62 337.791C544.691 337.988 544.727 338.221 544.727 338.489C544.727 338.969 544.609 339.35 544.373 339.633C544.136 339.913 543.764 340.099 543.255 340.192C543.613 340.217 543.92 340.272 544.174 340.358C544.432 340.441 544.641 340.555 544.802 340.702C544.963 340.845 545.082 341.023 545.157 341.234C545.232 341.442 545.27 341.685 545.27 341.964ZM542.783 338.806C542.783 338.713 542.768 338.625 542.74 338.543C542.711 338.457 542.659 338.382 542.584 338.317C542.509 338.253 542.407 338.201 542.278 338.162C542.149 338.122 541.984 338.103 541.784 338.103H538.846V339.488H541.784C541.984 339.488 542.149 339.47 542.278 339.435C542.407 339.399 542.509 339.35 542.584 339.29C542.659 339.229 542.711 339.157 542.74 339.075C542.768 338.989 542.783 338.899 542.783 338.806ZM543.245 341.733C543.245 341.565 543.216 341.431 543.159 341.331C543.101 341.227 543.012 341.148 542.89 341.094C542.768 341.037 542.611 340.999 542.417 340.981C542.224 340.964 541.993 340.955 541.725 340.955H538.846V342.518H541.725C541.993 342.518 542.224 342.509 542.417 342.491C542.611 342.473 542.768 342.435 542.89 342.378C543.012 342.321 543.101 342.242 543.159 342.142C543.216 342.038 543.245 341.902 543.245 341.733ZM555.856 341.164C555.856 341.644 555.738 342.072 555.501 342.448C555.265 342.824 554.929 343.142 554.492 343.404C554.058 343.662 553.532 343.859 552.913 343.995C552.297 344.131 551.606 344.199 550.839 344.199C550.503 344.199 550.148 344.184 549.776 344.156C549.407 344.131 549.045 344.093 548.691 344.043C548.34 343.996 548.011 343.943 547.703 343.882C547.395 343.817 547.135 343.748 546.924 343.672V341.921C547.153 342.018 547.407 342.109 547.687 342.195C547.969 342.281 548.276 342.358 548.605 342.426C548.934 342.491 549.287 342.543 549.663 342.582C550.043 342.618 550.444 342.636 550.866 342.636C551.264 342.636 551.613 342.612 551.914 342.566C552.218 342.519 552.481 342.457 552.703 342.378C552.925 342.299 553.11 342.21 553.256 342.109C553.403 342.006 553.521 341.9 553.611 341.792C553.7 341.681 553.763 341.572 553.799 341.465C553.838 341.357 553.858 341.257 553.858 341.164V340.514C553.493 340.783 553.058 341.005 552.553 341.18C552.048 341.352 551.473 341.438 550.829 341.438C550.08 341.438 549.455 341.366 548.954 341.223C548.456 341.076 548.057 340.867 547.756 340.595C547.456 340.319 547.241 339.984 547.112 339.59C546.986 339.196 546.924 338.752 546.924 338.258V336.62H548.927V338.06C548.927 338.35 548.965 338.607 549.04 338.833C549.119 339.059 549.241 339.248 549.405 339.402C549.574 339.553 549.79 339.667 550.055 339.746C550.32 339.825 550.641 339.864 551.017 339.864C551.335 339.864 551.636 339.825 551.919 339.746C552.205 339.667 552.469 339.563 552.708 339.435C552.948 339.306 553.165 339.159 553.358 338.994C553.552 338.829 553.718 338.661 553.858 338.489V336.62H555.856V341.164ZM562.301 344V336.62H569.772V338.194H564.348V339.413H569.493V340.987H564.348V342.426H569.848V344H562.301ZM576.728 344H574.408L570.675 336.62H572.898L575.584 342.174L578.264 336.62H580.488L576.728 344ZM590.741 340.305C590.741 340.777 590.689 341.198 590.585 341.567C590.482 341.932 590.335 342.251 590.145 342.523C589.959 342.795 589.733 343.026 589.468 343.216C589.207 343.406 588.915 343.558 588.593 343.672C588.271 343.787 587.923 343.871 587.551 343.925C587.178 343.975 586.79 344 586.385 344H581.702V336.62H586.375C586.779 336.62 587.168 336.647 587.54 336.701C587.912 336.751 588.26 336.833 588.582 336.948C588.908 337.062 589.203 337.215 589.468 337.404C589.733 337.59 589.959 337.821 590.145 338.097C590.335 338.369 590.482 338.688 590.585 339.053C590.689 339.418 590.741 339.836 590.741 340.305ZM588.732 340.305C588.732 339.95 588.686 339.642 588.593 339.381C588.503 339.119 588.356 338.905 588.152 338.736C587.952 338.564 587.689 338.437 587.363 338.355C587.037 338.269 586.639 338.226 586.17 338.226H583.694V342.394H586.17C586.639 342.394 587.037 342.353 587.363 342.271C587.689 342.185 587.952 342.056 588.152 341.884C588.356 341.708 588.503 341.49 588.593 341.229C588.686 340.967 588.732 340.659 588.732 340.305ZM602.112 340.315C602.112 340.949 601.995 341.51 601.763 341.997C601.53 342.48 601.197 342.885 600.764 343.21C600.33 343.536 599.804 343.783 599.185 343.952C598.569 344.116 597.876 344.199 597.106 344.199C596.336 344.199 595.64 344.116 595.017 343.952C594.397 343.783 593.869 343.536 593.432 343.21C592.995 342.885 592.659 342.48 592.422 341.997C592.186 341.51 592.068 340.949 592.068 340.315C592.068 339.682 592.186 339.123 592.422 338.64C592.659 338.153 592.995 337.746 593.432 337.42C593.869 337.095 594.397 336.849 595.017 336.685C595.64 336.516 596.336 336.432 597.106 336.432C597.876 336.432 598.569 336.516 599.185 336.685C599.804 336.849 600.33 337.095 600.764 337.42C601.197 337.746 601.53 338.153 601.763 338.64C601.995 339.123 602.112 339.682 602.112 340.315ZM600.098 340.315C600.098 340.04 600.053 339.766 599.963 339.494C599.877 339.218 599.722 338.971 599.496 338.752C599.274 338.534 598.97 338.357 598.583 338.221C598.196 338.085 597.704 338.017 597.106 338.017C596.705 338.017 596.352 338.049 596.048 338.113C595.743 338.174 595.48 338.26 595.258 338.371C595.036 338.482 594.85 338.613 594.7 338.763C594.549 338.91 594.429 339.069 594.34 339.241C594.25 339.41 594.186 339.587 594.146 339.773C594.111 339.956 594.093 340.136 594.093 340.315C594.093 340.498 594.111 340.682 594.146 340.869C594.186 341.055 594.25 341.234 594.34 341.406C594.429 341.574 594.549 341.732 594.7 341.878C594.85 342.025 595.036 342.154 595.258 342.265C595.48 342.373 595.743 342.458 596.048 342.523C596.352 342.584 596.705 342.614 597.106 342.614C597.704 342.614 598.196 342.546 598.583 342.41C598.97 342.274 599.274 342.097 599.496 341.878C599.722 341.66 599.877 341.415 599.963 341.143C600.053 340.867 600.098 340.591 600.098 340.315ZM610.937 344C610.901 343.599 610.804 343.248 610.646 342.947C610.489 342.643 610.29 342.382 610.05 342.163C609.814 341.945 609.545 341.764 609.245 341.621C608.947 341.477 608.641 341.365 608.326 341.282C608.011 341.196 607.696 341.137 607.381 341.105C607.069 341.069 606.779 341.051 606.511 341.051H605.92V344H603.927V336.62H605.92V339.467H606.328C606.604 339.467 606.892 339.445 607.193 339.402C607.494 339.359 607.791 339.291 608.084 339.198C608.382 339.105 608.666 338.985 608.938 338.838C609.211 338.692 609.454 338.513 609.669 338.301C609.884 338.09 610.063 337.847 610.206 337.571C610.349 337.292 610.439 336.975 610.475 336.62H612.505C612.469 337.01 612.39 337.363 612.269 337.678C612.15 337.993 612.002 338.276 611.823 338.527C611.647 338.774 611.45 338.991 611.232 339.177C611.014 339.363 610.79 339.524 610.561 339.66C610.331 339.793 610.102 339.904 609.873 339.993C609.647 340.079 609.436 340.145 609.239 340.192C609.49 340.231 609.75 340.294 610.018 340.38C610.29 340.462 610.559 340.573 610.824 340.713C611.089 340.849 611.341 341.017 611.581 341.218C611.825 341.418 612.043 341.653 612.236 341.921C612.43 342.19 612.591 342.496 612.72 342.84C612.849 343.184 612.931 343.57 612.967 344H610.937ZM614.68 344V336.62H616.673V344H614.68ZM620.98 336.62V337.431C621.156 337.32 621.346 337.206 621.55 337.087C621.757 336.969 621.981 336.862 622.221 336.765C622.465 336.668 622.724 336.59 623 336.529C623.279 336.464 623.58 336.432 623.902 336.432C624.217 336.432 624.493 336.466 624.729 336.534C624.966 336.599 625.17 336.685 625.342 336.792C625.517 336.896 625.666 337.014 625.788 337.146C625.909 337.275 626.015 337.404 626.104 337.533C626.359 337.368 626.609 337.218 626.856 337.082C627.104 336.946 627.352 336.83 627.603 336.733C627.854 336.636 628.11 336.563 628.371 336.513C628.632 336.459 628.905 336.432 629.188 336.432C629.639 336.432 630.042 336.495 630.396 336.62C630.754 336.745 631.057 336.917 631.304 337.136C631.551 337.354 631.739 337.612 631.868 337.909C632 338.203 632.066 338.518 632.066 338.854V344H630.074V339.139C630.074 338.942 630.043 338.772 629.982 338.629C629.922 338.486 629.839 338.369 629.735 338.28C629.635 338.19 629.515 338.124 629.375 338.081C629.239 338.038 629.094 338.017 628.94 338.017C628.224 338.017 627.408 338.339 626.491 338.983C626.502 339.044 626.509 339.116 626.513 339.198C626.52 339.281 626.523 339.363 626.523 339.445V344H624.531V339.096C624.531 338.899 624.5 338.733 624.439 338.597C624.379 338.457 624.294 338.344 624.187 338.258C624.083 338.172 623.961 338.111 623.822 338.076C623.686 338.036 623.541 338.017 623.387 338.017C623.201 338.017 623.004 338.043 622.796 338.097C622.592 338.151 622.384 338.226 622.173 338.323C621.965 338.419 621.759 338.534 621.555 338.667C621.355 338.799 621.163 338.942 620.98 339.096V344H618.988V336.62H620.98ZM643.899 340.315C643.899 340.949 643.783 341.51 643.55 341.997C643.317 342.48 642.984 342.885 642.551 343.21C642.118 343.536 641.591 343.783 640.972 343.952C640.356 344.116 639.663 344.199 638.893 344.199C638.123 344.199 637.427 344.116 636.804 343.952C636.184 343.783 635.656 343.536 635.219 343.21C634.782 342.885 634.446 342.48 634.209 341.997C633.973 341.51 633.855 340.949 633.855 340.315C633.855 339.682 633.973 339.123 634.209 338.64C634.446 338.153 634.782 337.746 635.219 337.42C635.656 337.095 636.184 336.849 636.804 336.685C637.427 336.516 638.123 336.432 638.893 336.432C639.663 336.432 640.356 336.516 640.972 336.685C641.591 336.849 642.118 337.095 642.551 337.42C642.984 337.746 643.317 338.153 643.55 338.64C643.783 339.123 643.899 339.682 643.899 340.315ZM641.885 340.315C641.885 340.04 641.84 339.766 641.75 339.494C641.665 339.218 641.509 338.971 641.283 338.752C641.061 338.534 640.757 338.357 640.37 338.221C639.983 338.085 639.491 338.017 638.893 338.017C638.492 338.017 638.139 338.049 637.835 338.113C637.531 338.174 637.267 338.26 637.045 338.371C636.823 338.482 636.637 338.613 636.487 338.763C636.336 338.91 636.216 339.069 636.127 339.241C636.037 339.41 635.973 339.587 635.934 339.773C635.898 339.956 635.88 340.136 635.88 340.315C635.88 340.498 635.898 340.682 635.934 340.869C635.973 341.055 636.037 341.234 636.127 341.406C636.216 341.574 636.336 341.732 636.487 341.878C636.637 342.025 636.823 342.154 637.045 342.265C637.267 342.373 637.531 342.458 637.835 342.523C638.139 342.584 638.492 342.614 638.893 342.614C639.491 342.614 639.983 342.546 640.37 342.41C640.757 342.274 641.061 342.097 641.283 341.878C641.509 341.66 641.665 341.415 641.75 341.143C641.84 340.867 641.885 340.591 641.885 340.315ZM650.559 344H648.239L644.506 336.62H646.729L649.415 342.174L652.095 336.62H654.319L650.559 344ZM667.961 339.139C667.961 339.508 667.908 339.848 667.8 340.16C667.693 340.468 667.519 340.734 667.279 340.96C667.043 341.182 666.735 341.356 666.355 341.481C665.976 341.606 665.514 341.669 664.97 341.669H661.661V344H659.668V336.62H664.97C665.514 336.62 665.976 336.683 666.355 336.808C666.735 336.93 667.043 337.104 667.279 337.329C667.519 337.551 667.693 337.816 667.8 338.124C667.908 338.432 667.961 338.77 667.961 339.139ZM665.947 339.171C665.947 339 665.922 338.853 665.872 338.731C665.826 338.606 665.747 338.504 665.636 338.425C665.525 338.346 665.38 338.289 665.201 338.253C665.022 338.214 664.801 338.194 664.54 338.194H661.661V340.095H664.54C664.801 340.095 665.022 340.081 665.201 340.052C665.38 340.02 665.525 339.968 665.636 339.896C665.747 339.821 665.826 339.725 665.872 339.606C665.922 339.488 665.947 339.343 665.947 339.171ZM675.873 344V343.275C675.619 343.415 675.345 343.538 675.051 343.646C674.761 343.753 674.459 343.844 674.144 343.919C673.828 343.995 673.503 344.05 673.166 344.086C672.833 344.125 672.496 344.145 672.156 344.145C671.759 344.145 671.374 344.107 671.001 344.032C670.633 343.957 670.305 343.835 670.019 343.667C669.732 343.499 669.501 343.278 669.326 343.006C669.154 342.734 669.068 342.401 669.068 342.007C669.068 341.51 669.204 341.096 669.476 340.767C669.748 340.434 670.164 340.161 670.722 339.95C671.281 339.739 671.986 339.576 672.838 339.461C673.694 339.347 674.706 339.257 675.873 339.193V339.037C675.873 338.915 675.841 338.795 675.776 338.677C675.712 338.556 675.594 338.45 675.422 338.36C675.254 338.267 675.021 338.192 674.724 338.135C674.43 338.077 674.054 338.049 673.596 338.049C673.234 338.049 672.876 338.069 672.521 338.108C672.171 338.144 671.83 338.194 671.501 338.258C671.175 338.323 670.865 338.398 670.572 338.484C670.278 338.57 670.011 338.659 669.771 338.752V336.98C670.022 336.916 670.303 336.853 670.615 336.792C670.926 336.731 671.25 336.679 671.587 336.636C671.924 336.59 672.264 336.554 672.607 336.529C672.951 336.5 673.281 336.486 673.596 336.486C674.215 336.486 674.786 336.538 675.309 336.642C675.832 336.742 676.281 336.899 676.657 337.114C677.037 337.329 677.332 337.601 677.543 337.931C677.758 338.26 677.866 338.652 677.866 339.107V344H675.873ZM675.873 340.632C675.107 340.661 674.455 340.702 673.918 340.756C673.384 340.81 672.94 340.872 672.586 340.944C672.231 341.015 671.952 341.092 671.748 341.175C671.548 341.257 671.397 341.341 671.297 341.427C671.197 341.513 671.134 341.599 671.109 341.685C671.087 341.771 671.077 341.85 671.077 341.921C671.077 342.007 671.1 342.091 671.146 342.174C671.193 342.253 671.274 342.322 671.388 342.383C671.506 342.444 671.662 342.493 671.855 342.528C672.049 342.564 672.292 342.582 672.586 342.582C672.912 342.582 673.23 342.557 673.542 342.507C673.854 342.457 674.149 342.389 674.428 342.303C674.708 342.213 674.969 342.109 675.212 341.991C675.459 341.869 675.68 341.741 675.873 341.604V340.632ZM685.095 344H682.775L679.042 336.62H681.266L683.951 342.174L686.631 336.62H688.855L685.095 344ZM698.19 343.635C697.585 343.835 696.98 343.979 696.375 344.064C695.773 344.154 695.157 344.199 694.527 344.199C693.721 344.199 693.003 344.113 692.373 343.941C691.746 343.765 691.218 343.513 690.789 343.184C690.359 342.854 690.031 342.451 689.806 341.975C689.58 341.499 689.467 340.96 689.467 340.358C689.467 339.8 689.58 339.282 689.806 338.806C690.035 338.326 690.357 337.911 690.772 337.56C691.191 337.206 691.696 336.93 692.287 336.733C692.878 336.532 693.537 336.432 694.264 336.432C694.933 336.432 695.546 336.523 696.101 336.706C696.659 336.885 697.137 337.152 697.535 337.506C697.936 337.861 698.245 338.298 698.464 338.817C698.686 339.336 698.797 339.934 698.797 340.611V341.105H691.524C691.589 341.338 691.694 341.551 691.841 341.744C691.992 341.938 692.194 342.102 692.448 342.238C692.702 342.374 693.014 342.48 693.383 342.555C693.755 342.63 694.199 342.668 694.715 342.668C695.08 342.668 695.438 342.646 695.789 342.604C696.14 342.557 696.468 342.498 696.772 342.426C697.076 342.351 697.35 342.269 697.594 342.179C697.841 342.09 698.04 342 698.19 341.911V343.635ZM696.815 339.644C696.797 339.461 696.742 339.273 696.648 339.08C696.559 338.883 696.416 338.706 696.219 338.548C696.022 338.391 695.764 338.262 695.445 338.162C695.127 338.058 694.729 338.006 694.253 338.006C693.805 338.006 693.419 338.061 693.093 338.172C692.767 338.283 692.493 338.421 692.271 338.586C692.053 338.751 691.882 338.928 691.761 339.118C691.639 339.307 691.56 339.483 691.524 339.644H696.815ZM702.6 340.842C702.6 341.15 702.628 341.402 702.686 341.599C702.743 341.792 702.836 341.946 702.965 342.061C703.094 342.176 703.26 342.254 703.464 342.297C703.672 342.34 703.926 342.362 704.227 342.362H708.008V344H703.819C703.239 344 702.745 343.953 702.336 343.86C701.932 343.764 701.601 343.617 701.343 343.42C701.085 343.219 700.897 342.967 700.779 342.663C700.664 342.358 700.607 341.997 700.607 341.578V336.62H702.6V340.842ZM720.002 344V343.275C719.748 343.415 719.474 343.538 719.18 343.646C718.89 343.753 718.588 343.844 718.272 343.919C717.957 343.995 717.632 344.05 717.295 344.086C716.962 344.125 716.625 344.145 716.285 344.145C715.888 344.145 715.503 344.107 715.13 344.032C714.762 343.957 714.434 343.835 714.147 343.667C713.861 343.499 713.63 343.278 713.455 343.006C713.283 342.734 713.197 342.401 713.197 342.007C713.197 341.51 713.333 341.096 713.605 340.767C713.877 340.434 714.292 340.161 714.851 339.95C715.41 339.739 716.115 339.576 716.967 339.461C717.823 339.347 718.835 339.257 720.002 339.193V339.037C720.002 338.915 719.97 338.795 719.905 338.677C719.841 338.556 719.723 338.45 719.551 338.36C719.382 338.267 719.15 338.192 718.853 338.135C718.559 338.077 718.183 338.049 717.725 338.049C717.363 338.049 717.005 338.069 716.65 338.108C716.299 338.144 715.959 338.194 715.63 338.258C715.304 338.323 714.994 338.398 714.701 338.484C714.407 338.57 714.14 338.659 713.9 338.752V336.98C714.151 336.916 714.432 336.853 714.744 336.792C715.055 336.731 715.379 336.679 715.716 336.636C716.052 336.59 716.393 336.554 716.736 336.529C717.08 336.5 717.41 336.486 717.725 336.486C718.344 336.486 718.915 336.538 719.438 336.642C719.961 336.742 720.41 336.899 720.786 337.114C721.166 337.329 721.461 337.601 721.672 337.931C721.887 338.26 721.995 338.652 721.995 339.107V344H720.002ZM720.002 340.632C719.236 340.661 718.584 340.702 718.047 340.756C717.513 340.81 717.069 340.872 716.715 340.944C716.36 341.015 716.081 341.092 715.877 341.175C715.676 341.257 715.526 341.341 715.426 341.427C715.326 341.513 715.263 341.599 715.238 341.685C715.216 341.771 715.206 341.85 715.206 341.921C715.206 342.007 715.229 342.091 715.275 342.174C715.322 342.253 715.403 342.322 715.517 342.383C715.635 342.444 715.791 342.493 715.984 342.528C716.178 342.564 716.421 342.582 716.715 342.582C717.041 342.582 717.359 342.557 717.671 342.507C717.982 342.457 718.278 342.389 718.557 342.303C718.836 342.213 719.098 342.109 719.341 341.991C719.588 341.869 719.809 341.741 720.002 341.604V340.632ZM731.281 344C731.245 343.599 731.149 343.248 730.991 342.947C730.834 342.643 730.635 342.382 730.395 342.163C730.159 341.945 729.89 341.764 729.589 341.621C729.292 341.477 728.986 341.365 728.671 341.282C728.356 341.196 728.041 341.137 727.726 341.105C727.414 341.069 727.124 341.051 726.855 341.051H726.265V344H724.272V336.62H726.265V339.467H726.673C726.949 339.467 727.237 339.445 727.538 339.402C727.838 339.359 728.136 339.291 728.429 339.198C728.726 339.105 729.011 338.985 729.283 338.838C729.555 338.692 729.799 338.513 730.014 338.301C730.229 338.09 730.408 337.847 730.551 337.571C730.694 337.292 730.784 336.975 730.819 336.62H732.85C732.814 337.01 732.735 337.363 732.613 337.678C732.495 337.993 732.347 338.276 732.167 338.527C731.992 338.774 731.795 338.991 731.577 339.177C731.358 339.363 731.134 339.524 730.905 339.66C730.676 339.793 730.447 339.904 730.218 339.993C729.992 340.079 729.781 340.145 729.584 340.192C729.835 340.231 730.094 340.294 730.363 340.38C730.635 340.462 730.903 340.573 731.168 340.713C731.433 340.849 731.686 341.017 731.926 341.218C732.169 341.418 732.388 341.653 732.581 341.921C732.774 342.19 732.936 342.496 733.064 342.84C733.193 343.184 733.276 343.57 733.312 344H731.281ZM741.282 344V343.275C741.028 343.415 740.754 343.538 740.46 343.646C740.17 343.753 739.868 343.844 739.553 343.919C739.238 343.995 738.912 344.05 738.575 344.086C738.242 344.125 737.906 344.145 737.565 344.145C737.168 344.145 736.783 344.107 736.411 344.032C736.042 343.957 735.714 343.835 735.428 343.667C735.141 343.499 734.91 343.278 734.735 343.006C734.563 342.734 734.477 342.401 734.477 342.007C734.477 341.51 734.613 341.096 734.885 340.767C735.157 340.434 735.573 340.161 736.131 339.95C736.69 339.739 737.395 339.576 738.248 339.461C739.103 339.347 740.115 339.257 741.282 339.193V339.037C741.282 338.915 741.25 338.795 741.186 338.677C741.121 338.556 741.003 338.45 740.831 338.36C740.663 338.267 740.43 338.192 740.133 338.135C739.839 338.077 739.463 338.049 739.005 338.049C738.643 338.049 738.285 338.069 737.931 338.108C737.58 338.144 737.24 338.194 736.91 338.258C736.584 338.323 736.275 338.398 735.981 338.484C735.687 338.57 735.421 338.659 735.181 338.752V336.98C735.431 336.916 735.712 336.853 736.024 336.792C736.335 336.731 736.66 336.679 736.996 336.636C737.333 336.59 737.673 336.554 738.017 336.529C738.36 336.5 738.69 336.486 739.005 336.486C739.624 336.486 740.195 336.538 740.718 336.642C741.241 336.742 741.69 336.899 742.066 337.114C742.446 337.329 742.741 337.601 742.953 337.931C743.167 338.26 743.275 338.652 743.275 339.107V344H741.282ZM741.282 340.632C740.516 340.661 739.864 340.702 739.327 340.756C738.794 340.81 738.35 340.872 737.995 340.944C737.641 341.015 737.361 341.092 737.157 341.175C736.957 341.257 736.806 341.341 736.706 341.427C736.606 341.513 736.543 341.599 736.518 341.685C736.497 341.771 736.486 341.85 736.486 341.921C736.486 342.007 736.509 342.091 736.556 342.174C736.602 342.253 736.683 342.322 736.797 342.383C736.916 342.444 737.071 342.493 737.265 342.528C737.458 342.564 737.701 342.582 737.995 342.582C738.321 342.582 738.64 342.557 738.951 342.507C739.263 342.457 739.558 342.389 739.837 342.303C740.117 342.213 740.378 342.109 740.622 341.991C740.869 341.869 741.089 341.741 741.282 341.604V340.632ZM757.82 343.495C757.562 343.603 757.302 343.699 757.041 343.785C756.78 343.871 756.509 343.944 756.23 344.005C755.951 344.07 755.655 344.118 755.344 344.15C755.036 344.183 754.705 344.199 754.35 344.199C753.598 344.199 752.905 344.118 752.271 343.957C751.641 343.796 751.097 343.554 750.639 343.232C750.184 342.906 749.829 342.501 749.575 342.018C749.321 341.531 749.194 340.964 749.194 340.315C749.194 339.667 749.321 339.102 749.575 338.618C749.829 338.131 750.184 337.727 750.639 337.404C751.097 337.078 751.641 336.835 752.271 336.674C752.905 336.513 753.598 336.432 754.35 336.432C754.705 336.432 755.036 336.448 755.344 336.48C755.655 336.513 755.951 336.561 756.23 336.625C756.509 336.686 756.78 336.76 757.041 336.846C757.302 336.932 757.562 337.028 757.82 337.136V338.93C757.616 338.819 757.401 338.709 757.175 338.602C756.95 338.491 756.701 338.393 756.429 338.307C756.157 338.217 755.858 338.146 755.532 338.092C755.206 338.035 754.839 338.006 754.431 338.006C753.804 338.006 753.283 338.07 752.868 338.199C752.456 338.328 752.126 338.5 751.879 338.715C751.632 338.93 751.459 339.177 751.358 339.456C751.258 339.732 751.208 340.018 751.208 340.315C751.208 340.512 751.229 340.708 751.272 340.901C751.315 341.091 751.387 341.271 751.487 341.443C751.588 341.612 751.718 341.767 751.879 341.911C752.041 342.054 752.241 342.177 752.481 342.281C752.721 342.385 753 342.467 753.319 342.528C753.641 342.586 754.012 342.614 754.431 342.614C754.839 342.614 755.206 342.589 755.532 342.539C755.858 342.485 756.157 342.416 756.429 342.33C756.701 342.244 756.95 342.147 757.175 342.04C757.401 341.929 757.616 341.816 757.82 341.701V343.495ZM765.022 341.271C765.022 341.762 764.942 342.185 764.781 342.539C764.623 342.894 764.39 343.185 764.083 343.415C763.778 343.644 763.404 343.814 762.96 343.925C762.516 344.032 762.009 344.086 761.44 344.086C761.171 344.086 760.896 344.072 760.613 344.043C760.33 344.018 760.058 343.986 759.796 343.946C759.535 343.907 759.293 343.866 759.071 343.823C758.853 343.776 758.67 343.733 758.523 343.694V341.964C758.674 342.025 758.839 342.088 759.018 342.152C759.197 342.213 759.395 342.269 759.614 342.319C759.836 342.369 760.079 342.41 760.344 342.442C760.613 342.475 760.908 342.491 761.23 342.491C761.578 342.491 761.866 342.453 762.095 342.378C762.328 342.299 762.514 342.192 762.654 342.056C762.793 341.916 762.892 341.753 762.949 341.567C763.007 341.381 763.035 341.177 763.035 340.955V336.62H765.022V341.271ZM778.219 338.699C778.08 338.631 777.895 338.554 777.666 338.468C777.437 338.382 777.177 338.301 776.887 338.226C776.597 338.147 776.282 338.083 775.942 338.033C775.602 337.979 775.253 337.952 774.895 337.952C774.608 337.952 774.363 337.961 774.159 337.979C773.958 337.997 773.788 338.02 773.648 338.049C773.512 338.077 773.403 338.111 773.321 338.151C773.242 338.187 773.181 338.224 773.138 338.264C773.095 338.303 773.067 338.342 773.052 338.382C773.042 338.421 773.036 338.457 773.036 338.489C773.036 338.597 773.09 338.692 773.197 338.774C773.305 338.853 773.451 338.924 773.638 338.989C773.824 339.05 774.041 339.109 774.288 339.166C774.535 339.22 774.796 339.277 775.072 339.338C775.351 339.395 775.638 339.46 775.931 339.531C776.228 339.599 776.515 339.68 776.791 339.773C777.07 339.866 777.333 339.975 777.58 340.101C777.827 340.222 778.044 340.366 778.23 340.53C778.416 340.695 778.563 340.885 778.67 341.1C778.778 341.314 778.832 341.56 778.832 341.835C778.832 342.19 778.769 342.494 778.644 342.749C778.518 343.003 778.35 343.218 778.139 343.393C777.931 343.569 777.689 343.71 777.414 343.817C777.138 343.921 776.848 344.002 776.543 344.059C776.243 344.116 775.937 344.154 775.625 344.172C775.317 344.19 775.023 344.199 774.744 344.199C774.014 344.199 773.337 344.138 772.714 344.016C772.094 343.898 771.547 343.749 771.07 343.57V341.809C771.561 342.081 772.119 342.294 772.746 342.448C773.376 342.602 774.049 342.679 774.766 342.679C775.188 342.679 775.532 342.657 775.797 342.614C776.065 342.568 776.275 342.51 776.425 342.442C776.576 342.371 776.678 342.294 776.731 342.211C776.785 342.129 776.812 342.05 776.812 341.975C776.812 341.857 776.758 341.755 776.651 341.669C776.543 341.579 776.397 341.502 776.21 341.438C776.024 341.37 775.808 341.309 775.561 341.255C775.313 341.198 775.05 341.143 774.771 341.089C774.495 341.032 774.211 340.971 773.917 340.906C773.623 340.842 773.337 340.767 773.058 340.681C772.782 340.591 772.521 340.489 772.273 340.375C772.026 340.256 771.81 340.118 771.624 339.961C771.437 339.8 771.291 339.615 771.183 339.408C771.076 339.196 771.022 338.953 771.022 338.677C771.022 338.351 771.079 338.07 771.194 337.834C771.308 337.598 771.462 337.397 771.656 337.232C771.853 337.064 772.078 336.928 772.333 336.824C772.59 336.72 772.861 336.64 773.144 336.583C773.426 336.525 773.713 336.486 774.003 336.464C774.293 336.443 774.569 336.432 774.83 336.432C775.117 336.432 775.41 336.446 775.711 336.475C776.015 336.504 776.314 336.545 776.608 336.599C776.902 336.649 777.184 336.708 777.457 336.776C777.732 336.844 777.986 336.916 778.219 336.991V338.699ZM788.951 343.635C788.346 343.835 787.74 343.979 787.135 344.064C786.534 344.154 785.918 344.199 785.288 344.199C784.482 344.199 783.764 344.113 783.134 343.941C782.507 343.765 781.979 343.513 781.549 343.184C781.12 342.854 780.792 342.451 780.566 341.975C780.341 341.499 780.228 340.96 780.228 340.358C780.228 339.8 780.341 339.282 780.566 338.806C780.796 338.326 781.118 337.911 781.533 337.56C781.952 337.206 782.457 336.93 783.048 336.733C783.639 336.532 784.298 336.432 785.024 336.432C785.694 336.432 786.306 336.523 786.861 336.706C787.42 336.885 787.898 337.152 788.295 337.506C788.696 337.861 789.006 338.298 789.225 338.817C789.447 339.336 789.558 339.934 789.558 340.611V341.105H782.285C782.35 341.338 782.455 341.551 782.602 341.744C782.752 341.938 782.955 342.102 783.209 342.238C783.463 342.374 783.775 342.48 784.144 342.555C784.516 342.63 784.96 342.668 785.476 342.668C785.841 342.668 786.199 342.646 786.55 342.604C786.901 342.557 787.228 342.498 787.533 342.426C787.837 342.351 788.111 342.269 788.354 342.179C788.602 342.09 788.8 342 788.951 341.911V343.635ZM787.576 339.644C787.558 339.461 787.502 339.273 787.409 339.08C787.32 338.883 787.176 338.706 786.979 338.548C786.783 338.391 786.525 338.262 786.206 338.162C785.887 338.058 785.49 338.006 785.014 338.006C784.566 338.006 784.179 338.061 783.854 338.172C783.528 338.283 783.254 338.421 783.032 338.586C782.813 338.751 782.643 338.928 782.521 339.118C782.4 339.307 782.321 339.483 782.285 339.644H787.576ZM796.266 344H793.946L790.213 336.62H792.437L795.122 342.174L797.802 336.62H800.026L796.266 344ZM809.361 343.635C808.756 343.835 808.151 343.979 807.545 344.064C806.944 344.154 806.328 344.199 805.698 344.199C804.892 344.199 804.174 344.113 803.544 343.941C802.917 343.765 802.389 343.513 801.959 343.184C801.53 342.854 801.202 342.451 800.977 341.975C800.751 341.499 800.638 340.96 800.638 340.358C800.638 339.8 800.751 339.282 800.977 338.806C801.206 338.326 801.528 337.911 801.943 337.56C802.362 337.206 802.867 336.93 803.458 336.733C804.049 336.532 804.708 336.432 805.435 336.432C806.104 336.432 806.716 336.523 807.271 336.706C807.83 336.885 808.308 337.152 808.706 337.506C809.107 337.861 809.416 338.298 809.635 338.817C809.857 339.336 809.968 339.934 809.968 340.611V341.105H802.695C802.76 341.338 802.865 341.551 803.012 341.744C803.163 341.938 803.365 342.102 803.619 342.238C803.873 342.374 804.185 342.48 804.554 342.555C804.926 342.63 805.37 342.668 805.886 342.668C806.251 342.668 806.609 342.646 806.96 342.604C807.311 342.557 807.639 342.498 807.943 342.426C808.247 342.351 808.521 342.269 808.765 342.179C809.012 342.09 809.21 342 809.361 341.911V343.635ZM807.986 339.644C807.968 339.461 807.912 339.273 807.819 339.08C807.73 338.883 807.587 338.706 807.39 338.548C807.193 338.391 806.935 338.262 806.616 338.162C806.298 338.058 805.9 338.006 805.424 338.006C804.976 338.006 804.59 338.061 804.264 338.172C803.938 338.283 803.664 338.421 803.442 338.586C803.223 338.751 803.053 338.928 802.932 339.118C802.81 339.307 802.731 339.483 802.695 339.644H807.986ZM818.567 338.291C818.513 338.273 818.434 338.249 818.331 338.221C818.23 338.188 818.112 338.158 817.976 338.129C817.84 338.097 817.69 338.07 817.525 338.049C817.364 338.027 817.197 338.017 817.025 338.017C816.667 338.017 816.333 338.061 816.021 338.151C815.713 338.237 815.425 338.353 815.156 338.5C814.888 338.643 814.637 338.808 814.404 338.994C814.175 339.177 813.964 339.365 813.771 339.558V344H811.778V336.62H813.771V337.818C814.01 337.639 814.256 337.467 814.506 337.302C814.761 337.134 815.024 336.985 815.296 336.856C815.572 336.728 815.862 336.625 816.166 336.55C816.47 336.472 816.793 336.432 817.133 336.432C817.262 336.432 817.392 336.439 817.525 336.454C817.661 336.464 817.792 336.479 817.917 336.497C818.046 336.514 818.166 336.534 818.277 336.556C818.388 336.577 818.485 336.599 818.567 336.62V338.291Z" fill="white"/>
<g clip-path="url(#clip1_621_32)">
<path d="M920.738 240H918.02V229.416H914.528V227.148H924.23V229.416H920.738V240ZM928.78 229.992C930.136 229.992 931.21 230.382 932.002 231.162C932.794 231.93 933.19 233.028 933.19 234.456V235.752H926.854C926.878 236.508 927.1 237.102 927.52 237.534C927.952 237.966 928.546 238.182 929.302 238.182C929.938 238.182 930.514 238.122 931.03 238.002C931.546 237.87 932.08 237.672 932.632 237.408V239.478C932.152 239.718 931.642 239.892 931.102 240C930.574 240.12 929.932 240.18 929.176 240.18C928.192 240.18 927.322 240 926.566 239.64C925.81 239.268 925.216 238.71 924.784 237.966C924.352 237.222 924.136 236.286 924.136 235.158C924.136 234.006 924.328 233.052 924.712 232.296C925.108 231.528 925.654 230.952 926.35 230.568C927.046 230.184 927.856 229.992 928.78 229.992ZM928.798 231.9C928.282 231.9 927.85 232.068 927.502 232.404C927.166 232.74 926.968 233.262 926.908 233.97H930.67C930.658 233.37 930.502 232.878 930.202 232.494C929.902 232.098 929.434 231.9 928.798 231.9ZM944.167 240H941.485V232.188H939.019C938.863 234.108 938.653 235.656 938.389 236.832C938.137 237.996 937.783 238.848 937.327 239.388C936.871 239.916 936.259 240.18 935.491 240.18C934.867 240.18 934.357 240.084 933.961 239.892V237.75C934.237 237.87 934.525 237.93 934.825 237.93C935.041 237.93 935.239 237.822 935.419 237.606C935.599 237.39 935.767 237 935.923 236.436C936.091 235.872 936.241 235.086 936.373 234.078C936.505 233.058 936.625 231.756 936.733 230.172H944.167V240ZM946.644 240V236.836H949.975V240H946.644ZM946.644 234.419V231.255H949.975V234.419H946.644ZM965.197 235.263V238.726H962.622V235.263H959.168V232.696H962.622V229.233H965.197V232.696H968.651V235.263H965.197ZM975.885 240H972.246L978.548 230.552H970.339V227.924H982.397V230.156L975.885 240ZM993.911 233.988C993.911 234.533 993.961 235.037 994.061 235.5C994.16 235.957 994.312 236.396 994.518 236.818C994.723 237.24 994.98 237.65 995.291 238.049C995.607 238.447 995.982 238.857 996.416 239.279L994.597 241.239C994.058 240.812 993.565 240.352 993.12 239.859C992.681 239.367 992.3 238.828 991.978 238.242C991.661 237.656 991.415 237.015 991.239 236.317C991.063 235.614 990.976 234.838 990.976 233.988C990.976 233.139 991.063 232.365 991.239 231.668C991.415 230.965 991.661 230.32 991.978 229.734C992.3 229.148 992.681 228.612 993.12 228.126C993.565 227.634 994.058 227.171 994.597 226.737L996.416 228.697C995.982 229.119 995.607 229.529 995.291 229.928C994.98 230.326 994.723 230.736 994.518 231.158C994.312 231.58 994.16 232.022 994.061 232.485C993.961 232.942 993.911 233.443 993.911 233.988ZM1004.37 237.873C1005.19 237.873 1005.89 237.8 1006.48 237.653C1007.07 237.507 1007.56 237.305 1007.95 237.047C1008.33 236.783 1008.62 236.479 1008.82 236.133C1009.01 235.781 1009.12 235.403 1009.14 234.999C1008.84 235.146 1008.52 235.286 1008.18 235.421C1007.84 235.55 1007.48 235.667 1007.09 235.772C1006.71 235.872 1006.3 235.951 1005.86 236.01C1005.42 236.068 1004.94 236.098 1004.42 236.098C1003.64 236.098 1002.92 236.021 1002.25 235.869C1001.58 235.711 1001 235.471 1000.51 235.148C1000.02 234.82 999.633 234.401 999.352 233.892C999.07 233.382 998.93 232.772 998.93 232.063C998.93 231.272 999.094 230.599 999.422 230.042C999.75 229.479 1000.2 229.02 1000.78 228.662C1001.35 228.299 1002.03 228.035 1002.81 227.871C1003.58 227.701 1004.43 227.616 1005.34 227.616C1006.38 227.616 1007.33 227.745 1008.19 228.003C1009.06 228.261 1009.8 228.647 1010.43 229.163C1011.05 229.679 1011.53 230.326 1011.87 231.105C1012.21 231.879 1012.38 232.787 1012.38 233.83C1012.38 234.721 1012.22 235.562 1011.92 236.353C1011.62 237.138 1011.14 237.826 1010.5 238.418C1009.86 239.004 1009.04 239.47 1008.04 239.815C1007.05 240.155 1005.87 240.325 1004.49 240.325C1004.1 240.325 1003.7 240.311 1003.28 240.281C1002.86 240.252 1002.46 240.211 1002.06 240.158C1001.67 240.111 1001.29 240.056 1000.93 239.991C1000.58 239.921 1000.26 239.851 999.993 239.78V237.082C1000.19 237.158 1000.42 237.243 1000.7 237.337C1000.98 237.431 1001.3 237.519 1001.66 237.601C1002.03 237.677 1002.44 237.741 1002.88 237.794C1003.34 237.847 1003.83 237.873 1004.37 237.873ZM1009.08 232.336C1009.02 232.09 1008.88 231.838 1008.68 231.58C1008.48 231.322 1008.21 231.088 1007.89 230.877C1007.56 230.66 1007.18 230.484 1006.74 230.35C1006.3 230.209 1005.82 230.139 1005.28 230.139C1004.85 230.139 1004.45 230.174 1004.07 230.244C1003.7 230.309 1003.37 230.411 1003.09 230.552C1002.81 230.692 1002.59 230.871 1002.43 231.088C1002.27 231.299 1002.19 231.551 1002.19 231.844C1002.19 232.16 1002.25 232.43 1002.38 232.652C1002.51 232.875 1002.7 233.057 1002.95 233.197C1003.19 233.332 1003.49 233.432 1003.85 233.496C1004.21 233.561 1004.63 233.593 1005.09 233.593C1005.47 233.593 1005.85 233.558 1006.22 233.487C1006.61 233.417 1006.97 233.326 1007.31 233.215C1007.66 233.098 1007.98 232.963 1008.28 232.811C1008.59 232.658 1008.85 232.5 1009.08 232.336ZM1022.31 230.068C1021.54 230.068 1020.86 230.142 1020.3 230.288C1019.73 230.435 1019.26 230.64 1018.88 230.903C1018.51 231.161 1018.22 231.466 1018.03 231.817C1017.84 232.163 1017.74 232.538 1017.71 232.942C1018.02 232.796 1018.34 232.658 1018.67 232.529C1019.01 232.395 1019.37 232.277 1019.76 232.178C1020.15 232.072 1020.56 231.99 1021 231.932C1021.44 231.873 1021.92 231.844 1022.43 231.844C1023.21 231.844 1023.93 231.92 1024.6 232.072C1025.27 232.225 1025.85 232.465 1026.34 232.793C1026.83 233.121 1027.22 233.54 1027.5 234.05C1027.78 234.56 1027.92 235.169 1027.92 235.878C1027.92 236.663 1027.76 237.337 1027.43 237.899C1027.1 238.462 1026.65 238.925 1026.08 239.288C1025.5 239.646 1024.83 239.906 1024.05 240.07C1023.27 240.24 1022.43 240.325 1021.52 240.325C1020.47 240.325 1019.51 240.196 1018.65 239.938C1017.79 239.681 1017.05 239.294 1016.43 238.778C1015.81 238.263 1015.33 237.615 1014.99 236.836C1014.65 236.057 1014.48 235.148 1014.48 234.111C1014.48 233.221 1014.63 232.383 1014.93 231.598C1015.23 230.807 1015.7 230.118 1016.32 229.532C1016.96 228.94 1017.76 228.475 1018.72 228.135C1019.7 227.789 1020.85 227.616 1022.18 227.616C1022.57 227.616 1022.97 227.631 1023.39 227.66C1023.81 227.689 1024.21 227.73 1024.61 227.783C1025.01 227.83 1025.38 227.886 1025.74 227.95C1026.09 228.015 1026.41 228.082 1026.68 228.152V230.859C1026.48 230.783 1026.25 230.698 1025.96 230.604C1025.69 230.511 1025.37 230.426 1025 230.35C1024.63 230.268 1024.23 230.2 1023.78 230.147C1023.33 230.095 1022.84 230.068 1022.31 230.068ZM1017.77 235.605C1017.84 235.852 1017.97 236.104 1018.17 236.361C1018.37 236.619 1018.64 236.856 1018.96 237.073C1019.29 237.284 1019.67 237.46 1020.1 237.601C1020.54 237.735 1021.03 237.803 1021.57 237.803C1022 237.803 1022.4 237.771 1022.77 237.706C1023.16 237.636 1023.48 237.53 1023.76 237.39C1024.04 237.249 1024.26 237.073 1024.42 236.862C1024.58 236.646 1024.66 236.391 1024.66 236.098C1024.66 235.781 1024.6 235.512 1024.47 235.289C1024.34 235.066 1024.15 234.888 1023.91 234.753C1023.66 234.612 1023.36 234.51 1022.99 234.445C1022.64 234.381 1022.23 234.349 1021.76 234.349C1021.38 234.349 1021 234.384 1020.62 234.454C1020.25 234.524 1019.89 234.618 1019.54 234.735C1019.19 234.847 1018.87 234.979 1018.56 235.131C1018.27 235.283 1018 235.441 1017.77 235.605ZM1044.11 233.971C1044.11 234.932 1043.93 235.805 1043.56 236.59C1043.2 237.369 1042.7 238.037 1042.06 238.594C1041.42 239.145 1040.67 239.572 1039.8 239.877C1038.93 240.176 1038 240.325 1037 240.325C1036.34 240.325 1035.7 240.258 1035.09 240.123C1034.48 239.988 1033.91 239.792 1033.37 239.534C1032.85 239.276 1032.37 238.963 1031.93 238.594C1031.5 238.219 1031.14 237.797 1030.83 237.328C1030.53 236.859 1030.29 236.344 1030.12 235.781C1029.96 235.219 1029.88 234.615 1029.88 233.971C1029.88 233.332 1029.96 232.731 1030.12 232.169C1030.29 231.601 1030.53 231.082 1030.83 230.613C1031.14 230.145 1031.5 229.726 1031.93 229.356C1032.37 228.981 1032.85 228.665 1033.37 228.407C1033.91 228.149 1034.48 227.953 1035.09 227.818C1035.7 227.684 1036.34 227.616 1037 227.616C1038 227.616 1038.93 227.769 1039.8 228.073C1040.67 228.372 1041.42 228.8 1042.06 229.356C1042.7 229.907 1043.2 230.575 1043.56 231.36C1043.93 232.14 1044.11 233.01 1044.11 233.971ZM1040.85 233.971C1040.85 233.361 1040.75 232.822 1040.54 232.354C1040.33 231.885 1040.04 231.489 1039.68 231.167C1039.33 230.845 1038.93 230.602 1038.46 230.438C1038 230.273 1037.51 230.191 1037 230.191C1036.49 230.191 1036 230.273 1035.54 230.438C1035.07 230.602 1034.65 230.845 1034.3 231.167C1033.95 231.489 1033.66 231.885 1033.44 232.354C1033.23 232.822 1033.13 233.361 1033.13 233.971C1033.13 234.58 1033.23 235.119 1033.44 235.588C1033.66 236.057 1033.95 236.452 1034.3 236.774C1034.65 237.091 1035.07 237.334 1035.54 237.504C1036 237.668 1036.49 237.75 1037 237.75C1037.51 237.75 1038 237.668 1038.46 237.504C1038.93 237.334 1039.33 237.091 1039.68 236.774C1040.04 236.452 1040.33 236.057 1040.54 235.588C1040.75 235.119 1040.85 234.58 1040.85 233.971ZM1049.28 233.988C1049.28 233.443 1049.23 232.942 1049.13 232.485C1049.03 232.022 1048.88 231.58 1048.68 231.158C1048.47 230.736 1048.21 230.326 1047.89 229.928C1047.58 229.529 1047.21 229.119 1046.78 228.697L1047.88 227.511V227.493L1048.6 226.737C1049.13 227.142 1049.61 227.59 1050.04 228.082C1050.36 228.445 1050.65 228.832 1050.92 229.242C1051.18 229.652 1051.41 230.092 1051.59 230.561C1051.78 231.023 1051.93 231.521 1052.03 232.055C1052.14 232.588 1052.21 233.159 1052.22 233.769V233.988C1052.22 234.633 1052.17 235.233 1052.06 235.79C1051.96 236.347 1051.82 236.868 1051.63 237.354C1051.44 237.835 1051.21 238.286 1050.94 238.708C1050.67 239.124 1050.37 239.52 1050.04 239.895C1049.84 240.117 1049.63 240.328 1049.41 240.527C1049.2 240.732 1048.99 240.929 1048.76 241.116C1048.73 241.134 1048.71 241.151 1048.68 241.169C1048.65 241.187 1048.63 241.21 1048.6 241.239L1047.88 240.483V240.466L1046.78 239.279C1047.21 238.857 1047.58 238.447 1047.89 238.049C1048.21 237.65 1048.47 237.24 1048.68 236.818C1048.88 236.396 1049.03 235.957 1049.13 235.5C1049.23 235.037 1049.28 234.533 1049.28 233.988ZM1061.5 235.412V232.529H1068.71V235.412H1061.5ZM1086.52 233.558C1087.12 233.692 1087.64 233.856 1088.07 234.05C1088.5 234.237 1088.84 234.457 1089.11 234.709C1089.38 234.955 1089.58 235.233 1089.7 235.544C1089.83 235.849 1089.89 236.183 1089.89 236.546C1089.89 237.179 1089.71 237.732 1089.37 238.207C1089.03 238.682 1088.55 239.077 1087.95 239.394C1087.34 239.704 1086.63 239.936 1085.8 240.088C1084.97 240.246 1084.08 240.325 1083.12 240.325C1082.48 240.325 1081.88 240.296 1081.34 240.237C1080.81 240.185 1080.31 240.114 1079.85 240.026C1079.4 239.938 1078.98 239.842 1078.6 239.736C1078.22 239.625 1077.87 239.514 1077.54 239.402V236.511C1077.9 236.704 1078.31 236.877 1078.76 237.029C1079.22 237.182 1079.69 237.313 1080.17 237.425C1080.65 237.53 1081.14 237.612 1081.63 237.671C1082.13 237.724 1082.59 237.75 1083.03 237.75C1083.83 237.75 1084.46 237.703 1084.94 237.609C1085.41 237.51 1085.77 237.387 1086.02 237.24C1086.27 237.088 1086.42 236.927 1086.5 236.757C1086.57 236.587 1086.61 236.426 1086.61 236.273C1086.61 236.016 1086.52 235.793 1086.35 235.605C1086.19 235.418 1085.9 235.263 1085.48 235.14C1085.06 235.017 1084.49 234.926 1083.78 234.867C1083.06 234.803 1082.16 234.768 1081.07 234.762V232.371C1082.06 232.371 1082.88 232.351 1083.53 232.31C1084.19 232.269 1084.71 232.204 1085.11 232.116C1085.5 232.028 1085.77 231.914 1085.93 231.773C1086.1 231.633 1086.18 231.46 1086.18 231.255C1086.18 231.19 1086.17 231.12 1086.14 231.044C1086.13 230.968 1086.08 230.889 1086.01 230.807C1085.94 230.725 1085.84 230.646 1085.7 230.569C1085.57 230.493 1085.38 230.426 1085.15 230.367C1084.92 230.309 1084.63 230.262 1084.28 230.227C1083.93 230.191 1083.52 230.174 1083.03 230.174C1082.58 230.174 1082.11 230.197 1081.63 230.244C1081.17 230.291 1080.71 230.361 1080.25 230.455C1079.8 230.549 1079.37 230.663 1078.95 230.798C1078.52 230.933 1078.13 231.091 1077.78 231.272V228.39C1078.57 228.126 1079.43 227.933 1080.33 227.81C1081.24 227.681 1082.14 227.616 1083.03 227.616C1083.91 227.616 1084.73 227.675 1085.5 227.792C1086.28 227.909 1086.96 228.097 1087.54 228.354C1088.13 228.606 1088.59 228.938 1088.93 229.348C1089.27 229.752 1089.44 230.244 1089.44 230.824C1089.44 231.135 1089.38 231.431 1089.27 231.712C1089.17 231.987 1089 232.242 1088.76 232.477C1088.53 232.711 1088.23 232.919 1087.86 233.101C1087.49 233.282 1087.04 233.435 1086.52 233.558ZM1103.62 230.481H1095.59V232.336C1095.78 232.301 1095.99 232.271 1096.22 232.248C1096.44 232.219 1096.68 232.195 1096.93 232.178C1097.17 232.16 1097.42 232.146 1097.67 232.134C1097.93 232.122 1098.18 232.116 1098.42 232.116C1099.4 232.116 1100.27 232.204 1101.04 232.38C1101.81 232.556 1102.47 232.813 1103 233.153C1103.53 233.493 1103.94 233.912 1104.22 234.41C1104.5 234.908 1104.64 235.482 1104.64 236.133C1104.64 236.736 1104.51 237.296 1104.25 237.812C1103.99 238.321 1103.58 238.764 1103.01 239.139C1102.45 239.508 1101.71 239.798 1100.81 240.009C1099.91 240.22 1098.82 240.325 1097.53 240.325C1096.94 240.325 1096.38 240.302 1095.84 240.255C1095.3 240.214 1094.8 240.155 1094.33 240.079C1093.87 240.003 1093.45 239.918 1093.06 239.824C1092.68 239.73 1092.35 239.634 1092.07 239.534V236.687C1092.32 236.804 1092.62 236.927 1092.96 237.056C1093.3 237.179 1093.7 237.293 1094.15 237.398C1094.61 237.498 1095.12 237.583 1095.69 237.653C1096.26 237.718 1096.9 237.75 1097.61 237.75C1098.93 237.75 1099.88 237.612 1100.49 237.337C1101.09 237.056 1101.39 236.672 1101.39 236.186C1101.39 235.611 1101.06 235.189 1100.4 234.92C1099.74 234.645 1098.79 234.507 1097.55 234.507C1097.14 234.507 1096.73 234.521 1096.32 234.551C1095.92 234.58 1095.54 234.621 1095.18 234.674C1094.82 234.721 1094.49 234.779 1094.18 234.85C1093.87 234.914 1093.59 234.981 1093.34 235.052H1092.55V227.924H1103.62V230.481ZM1117.07 237.627V240H1113.84V237.627H1106.15V235.052L1113.06 227.924H1117.07V235.052H1119.81V237.627H1117.07ZM1113.84 230.763L1109.68 235.052H1113.84V230.763ZM1128.38 235.412V232.529H1135.59V235.412H1128.38ZM1153.41 233.558C1154.01 233.692 1154.53 233.856 1154.95 234.05C1155.38 234.237 1155.73 234.457 1156 234.709C1156.27 234.955 1156.46 235.233 1156.59 235.544C1156.71 235.849 1156.77 236.183 1156.77 236.546C1156.77 237.179 1156.6 237.732 1156.25 238.207C1155.91 238.682 1155.44 239.077 1154.83 239.394C1154.23 239.704 1153.51 239.936 1152.69 240.088C1151.86 240.246 1150.97 240.325 1150 240.325C1149.36 240.325 1148.77 240.296 1148.23 240.237C1147.69 240.185 1147.19 240.114 1146.74 240.026C1146.28 239.938 1145.87 239.842 1145.49 239.736C1145.11 239.625 1144.75 239.514 1144.42 239.402V236.511C1144.79 236.704 1145.19 236.877 1145.65 237.029C1146.1 237.182 1146.57 237.313 1147.05 237.425C1147.54 237.53 1148.03 237.612 1148.52 237.671C1149.01 237.724 1149.48 237.75 1149.92 237.75C1150.71 237.75 1151.35 237.703 1151.82 237.609C1152.3 237.51 1152.66 237.387 1152.91 237.24C1153.15 237.088 1153.31 236.927 1153.38 236.757C1153.46 236.587 1153.49 236.426 1153.49 236.273C1153.49 236.016 1153.41 235.793 1153.24 235.605C1153.08 235.418 1152.78 235.263 1152.36 235.14C1151.94 235.017 1151.38 234.926 1150.66 234.867C1149.95 234.803 1149.05 234.768 1147.96 234.762V232.371C1148.95 232.371 1149.77 232.351 1150.42 232.31C1151.07 232.269 1151.6 232.204 1151.99 232.116C1152.38 232.028 1152.66 231.914 1152.82 231.773C1152.98 231.633 1153.06 231.46 1153.06 231.255C1153.06 231.19 1153.05 231.12 1153.03 231.044C1153.01 230.968 1152.97 230.889 1152.9 230.807C1152.83 230.725 1152.72 230.646 1152.59 230.569C1152.45 230.493 1152.27 230.426 1152.04 230.367C1151.8 230.309 1151.51 230.262 1151.17 230.227C1150.82 230.191 1150.4 230.174 1149.92 230.174C1149.46 230.174 1148.99 230.197 1148.52 230.244C1148.05 230.291 1147.59 230.361 1147.14 230.455C1146.69 230.549 1146.25 230.663 1145.83 230.798C1145.41 230.933 1145.02 231.091 1144.66 231.272V228.39C1145.46 228.126 1146.31 227.933 1147.22 227.81C1148.13 227.681 1149.03 227.616 1149.92 227.616C1150.79 227.616 1151.61 227.675 1152.39 227.792C1153.17 227.909 1153.85 228.097 1154.43 228.354C1155.01 228.606 1155.47 228.938 1155.81 229.348C1156.15 229.752 1156.32 230.244 1156.32 230.824C1156.32 231.135 1156.27 231.431 1156.16 231.712C1156.05 231.987 1155.88 232.242 1155.65 232.477C1155.41 232.711 1155.11 232.919 1154.74 233.101C1154.37 233.282 1153.93 233.435 1153.41 233.558ZM1158.63 240V237.838C1160.2 237.117 1161.56 236.473 1162.71 235.904C1163.87 235.336 1164.83 234.82 1165.59 234.357C1166.35 233.895 1166.92 233.473 1167.28 233.092C1167.65 232.705 1167.84 232.333 1167.84 231.976C1167.84 231.876 1167.83 231.765 1167.8 231.642C1167.79 231.513 1167.74 231.384 1167.66 231.255C1167.59 231.12 1167.49 230.988 1167.35 230.859C1167.21 230.73 1167.01 230.619 1166.77 230.525C1166.52 230.426 1166.21 230.347 1165.85 230.288C1165.49 230.224 1165.05 230.191 1164.53 230.191C1164.06 230.191 1163.56 230.224 1163.05 230.288C1162.53 230.347 1162.02 230.432 1161.52 230.543C1161.01 230.654 1160.53 230.789 1160.06 230.947C1159.59 231.105 1159.16 231.284 1158.77 231.483V228.609C1159.58 228.328 1160.47 228.094 1161.46 227.906C1162.45 227.713 1163.49 227.616 1164.59 227.616C1165.61 227.616 1166.53 227.707 1167.34 227.889C1168.15 228.07 1168.83 228.334 1169.38 228.68C1169.95 229.02 1170.38 229.436 1170.67 229.928C1170.97 230.414 1171.12 230.965 1171.12 231.58C1171.12 231.92 1171.08 232.239 1171 232.538C1170.93 232.831 1170.8 233.118 1170.62 233.399C1170.43 233.681 1170.17 233.965 1169.85 234.252C1169.53 234.533 1169.13 234.832 1168.64 235.148C1168.15 235.465 1167.57 235.808 1166.89 236.177C1166.21 236.54 1165.42 236.944 1164.52 237.39H1171.37V240H1158.63ZM1180.45 235.412V232.529H1187.66V235.412H1180.45ZM1195.25 237.873C1196.07 237.873 1196.77 237.8 1197.36 237.653C1197.95 237.507 1198.44 237.305 1198.83 237.047C1199.21 236.783 1199.5 236.479 1199.7 236.133C1199.89 235.781 1200 235.403 1200.02 234.999C1199.72 235.146 1199.4 235.286 1199.06 235.421C1198.72 235.55 1198.36 235.667 1197.98 235.772C1197.59 235.872 1197.18 235.951 1196.74 236.01C1196.3 236.068 1195.82 236.098 1195.3 236.098C1194.52 236.098 1193.8 236.021 1193.13 235.869C1192.46 235.711 1191.88 235.471 1191.39 235.148C1190.9 234.82 1190.51 234.401 1190.23 233.892C1189.95 233.382 1189.81 232.772 1189.81 232.063C1189.81 231.272 1189.97 230.599 1190.3 230.042C1190.63 229.479 1191.08 229.02 1191.66 228.662C1192.23 228.299 1192.91 228.035 1193.69 227.871C1194.47 227.701 1195.31 227.616 1196.22 227.616C1197.26 227.616 1198.21 227.745 1199.07 228.003C1199.94 228.261 1200.69 228.647 1201.31 229.163C1201.93 229.679 1202.41 230.326 1202.75 231.105C1203.09 231.879 1203.26 232.787 1203.26 233.83C1203.26 234.721 1203.11 235.562 1202.8 236.353C1202.5 237.138 1202.02 237.826 1201.38 238.418C1200.74 239.004 1199.92 239.47 1198.92 239.815C1197.93 240.155 1196.75 240.325 1195.37 240.325C1194.98 240.325 1194.58 240.311 1194.16 240.281C1193.75 240.252 1193.34 240.211 1192.94 240.158C1192.55 240.111 1192.17 240.056 1191.81 239.991C1191.46 239.921 1191.14 239.851 1190.87 239.78V237.082C1191.07 237.158 1191.3 237.243 1191.58 237.337C1191.86 237.431 1192.18 237.519 1192.54 237.601C1192.91 237.677 1193.32 237.741 1193.77 237.794C1194.22 237.847 1194.71 237.873 1195.25 237.873ZM1199.96 232.336C1199.9 232.09 1199.76 231.838 1199.56 231.58C1199.36 231.322 1199.09 231.088 1198.77 230.877C1198.44 230.66 1198.06 230.484 1197.62 230.35C1197.18 230.209 1196.7 230.139 1196.17 230.139C1195.73 230.139 1195.33 230.174 1194.95 230.244C1194.58 230.309 1194.25 230.411 1193.97 230.552C1193.69 230.692 1193.47 230.871 1193.31 231.088C1193.15 231.299 1193.07 231.551 1193.07 231.844C1193.07 232.16 1193.14 232.43 1193.26 232.652C1193.39 232.875 1193.58 233.057 1193.83 233.197C1194.07 233.332 1194.38 233.432 1194.73 233.496C1195.1 233.561 1195.51 233.593 1195.97 233.593C1196.35 233.593 1196.73 233.558 1197.11 233.487C1197.49 233.417 1197.85 233.326 1198.2 233.215C1198.54 233.098 1198.86 232.963 1199.16 232.811C1199.47 232.658 1199.73 232.5 1199.96 232.336ZM1205.03 240V237.838C1206.6 237.117 1207.97 236.473 1209.12 235.904C1210.28 235.336 1211.24 234.82 1211.99 234.357C1212.76 233.895 1213.32 233.473 1213.69 233.092C1214.06 232.705 1214.24 232.333 1214.24 231.976C1214.24 231.876 1214.23 231.765 1214.21 231.642C1214.19 231.513 1214.14 231.384 1214.07 231.255C1214 231.12 1213.89 230.988 1213.75 230.859C1213.61 230.73 1213.42 230.619 1213.17 230.525C1212.93 230.426 1212.62 230.347 1212.26 230.288C1211.89 230.224 1211.46 230.191 1210.94 230.191C1210.46 230.191 1209.97 230.224 1209.45 230.288C1208.94 230.347 1208.43 230.432 1207.92 230.543C1207.42 230.654 1206.93 230.789 1206.47 230.947C1206 231.105 1205.57 231.284 1205.17 231.483V228.609C1205.98 228.328 1206.88 228.094 1207.86 227.906C1208.85 227.713 1209.9 227.616 1210.99 227.616C1212.02 227.616 1212.93 227.707 1213.74 227.889C1214.55 228.07 1215.23 228.334 1215.79 228.68C1216.35 229.02 1216.78 229.436 1217.07 229.928C1217.37 230.414 1217.52 230.965 1217.52 231.58C1217.52 231.92 1217.48 232.239 1217.41 232.538C1217.34 232.831 1217.21 233.118 1217.02 233.399C1216.83 233.681 1216.58 233.965 1216.26 234.252C1215.94 234.533 1215.54 234.832 1215.04 235.148C1214.56 235.465 1213.97 235.808 1213.29 236.177C1212.62 236.54 1211.82 236.944 1210.92 237.39H1217.78V240H1205.03Z" fill="white"/>
<path d="M881.502 174L880.566 170.94H875.886L874.95 174H872.016L876.552 161.094H879.882L884.436 174H881.502ZM878.982 165.666C878.922 165.462 878.844 165.204 878.748 164.892C878.652 164.58 878.556 164.262 878.46 163.938C878.364 163.614 878.286 163.332 878.226 163.092C878.166 163.332 878.082 163.632 877.974 163.992C877.878 164.34 877.782 164.676 877.686 165C877.602 165.312 877.536 165.534 877.488 165.666L876.57 168.654H879.918L878.982 165.666ZM894.685 164.172V172.038H896.125V177.528H893.713V174H887.107V177.528H884.695V172.038H885.523C885.955 171.378 886.321 170.628 886.621 169.788C886.921 168.936 887.161 168.03 887.341 167.07C887.521 166.11 887.653 165.144 887.737 164.172H894.685ZM889.987 166.188C889.843 167.28 889.645 168.318 889.393 169.302C889.141 170.274 888.787 171.186 888.331 172.038H892.003V166.188H889.987ZM903.272 163.992C904.376 163.992 905.27 164.424 905.954 165.288C906.638 166.14 906.98 167.4 906.98 169.068C906.98 170.736 906.626 172.008 905.918 172.884C905.21 173.748 904.304 174.18 903.2 174.18C902.492 174.18 901.928 174.054 901.508 173.802C901.088 173.538 900.746 173.244 900.482 172.92H900.338C900.434 173.424 900.482 173.904 900.482 174.36V178.32H897.8V164.172H899.978L900.356 165.45H900.482C900.746 165.054 901.1 164.712 901.544 164.424C901.988 164.136 902.564 163.992 903.272 163.992ZM902.408 166.134C901.712 166.134 901.22 166.35 900.932 166.782C900.656 167.214 900.506 167.874 900.482 168.762V169.05C900.482 169.998 900.62 170.73 900.896 171.246C901.184 171.75 901.7 172.002 902.444 172.002C903.056 172.002 903.506 171.75 903.794 171.246C904.094 170.73 904.244 169.992 904.244 169.032C904.244 167.1 903.632 166.134 902.408 166.134ZM913.241 163.992C914.597 163.992 915.671 164.382 916.463 165.162C917.255 165.93 917.651 167.028 917.651 168.456V169.752H911.315C911.339 170.508 911.561 171.102 911.981 171.534C912.413 171.966 913.007 172.182 913.763 172.182C914.399 172.182 914.975 172.122 915.491 172.002C916.007 171.87 916.541 171.672 917.093 171.408V173.478C916.613 173.718 916.103 173.892 915.563 174C915.035 174.12 914.393 174.18 913.637 174.18C912.653 174.18 911.783 174 911.027 173.64C910.271 173.268 909.677 172.71 909.245 171.966C908.813 171.222 908.597 170.286 908.597 169.158C908.597 168.006 908.789 167.052 909.173 166.296C909.569 165.528 910.115 164.952 910.811 164.568C911.507 164.184 912.317 163.992 913.241 163.992ZM913.259 165.9C912.743 165.9 912.311 166.068 911.963 166.404C911.627 166.74 911.429 167.262 911.369 167.97H915.131C915.119 167.37 914.963 166.878 914.663 166.494C914.363 166.098 913.895 165.9 913.259 165.9ZM923.822 174.18C922.358 174.18 921.224 173.778 920.42 172.974C919.628 172.158 919.232 170.88 919.232 169.14C919.232 167.94 919.436 166.962 919.844 166.206C920.252 165.45 920.816 164.892 921.536 164.532C922.268 164.172 923.108 163.992 924.056 163.992C924.728 163.992 925.31 164.058 925.802 164.19C926.306 164.322 926.744 164.478 927.116 164.658L926.324 166.728C925.904 166.56 925.508 166.422 925.136 166.314C924.776 166.206 924.416 166.152 924.056 166.152C922.664 166.152 921.968 167.142 921.968 169.122C921.968 170.106 922.148 170.832 922.508 171.3C922.88 171.768 923.396 172.002 924.056 172.002C924.62 172.002 925.118 171.93 925.55 171.786C925.982 171.63 926.402 171.42 926.81 171.156V173.442C926.402 173.706 925.97 173.892 925.514 174C925.07 174.12 924.506 174.18 923.822 174.18ZM928.749 174V170.836H932.08V174H928.749ZM928.749 168.419V165.255H932.08V168.419H928.749ZM949.676 161.148V163.398H944.276V174H941.558V161.148H949.676ZM950.924 174V170.836H954.255V174H950.924ZM969.002 163.236C967.958 163.236 967.16 163.626 966.608 164.406C966.056 165.186 965.78 166.254 965.78 167.61C965.78 168.978 966.032 170.04 966.536 170.796C967.052 171.54 967.874 171.912 969.002 171.912C969.53 171.912 970.052 171.852 970.568 171.732C971.096 171.612 971.666 171.444 972.278 171.228V173.514C971.714 173.742 971.156 173.91 970.604 174.018C970.052 174.126 969.434 174.18 968.75 174.18C967.43 174.18 966.338 173.91 965.474 173.37C964.622 172.818 963.992 172.05 963.584 171.066C963.176 170.07 962.972 168.912 962.972 167.592C962.972 166.296 963.206 165.15 963.674 164.154C964.142 163.158 964.82 162.378 965.708 161.814C966.608 161.25 967.706 160.968 969.002 160.968C969.638 160.968 970.274 161.052 970.91 161.22C971.558 161.376 972.176 161.592 972.764 161.868L971.882 164.082C971.402 163.854 970.916 163.656 970.424 163.488C969.944 163.32 969.47 163.236 969.002 163.236ZM978.825 163.974C980.145 163.974 981.153 164.262 981.849 164.838C982.557 165.402 982.911 166.272 982.911 167.448V174H981.039L980.517 172.668H980.445C980.025 173.196 979.581 173.58 979.113 173.82C978.645 174.06 978.003 174.18 977.187 174.18C976.311 174.18 975.585 173.928 975.009 173.424C974.433 172.908 974.145 172.122 974.145 171.066C974.145 170.022 974.511 169.254 975.243 168.762C975.975 168.258 977.073 167.982 978.537 167.934L980.247 167.88V167.448C980.247 166.932 980.109 166.554 979.833 166.314C979.569 166.074 979.197 165.954 978.717 165.954C978.237 165.954 977.769 166.026 977.313 166.17C976.857 166.302 976.401 166.47 975.945 166.674L975.063 164.856C975.591 164.58 976.173 164.364 976.809 164.208C977.457 164.052 978.129 163.974 978.825 163.974ZM979.203 169.482C978.339 169.506 977.739 169.662 977.403 169.95C977.067 170.238 976.899 170.616 976.899 171.084C976.899 171.492 977.019 171.786 977.259 171.966C977.499 172.134 977.811 172.218 978.195 172.218C978.771 172.218 979.257 172.05 979.653 171.714C980.049 171.366 980.247 170.88 980.247 170.256V169.446L979.203 169.482ZM991.128 163.992C992.232 163.992 993.126 164.424 993.81 165.288C994.494 166.14 994.836 167.4 994.836 169.068C994.836 170.736 994.482 172.008 993.774 172.884C993.066 173.748 992.16 174.18 991.056 174.18C990.348 174.18 989.784 174.054 989.364 173.802C988.944 173.538 988.602 173.244 988.338 172.92H988.194C988.29 173.424 988.338 173.904 988.338 174.36V178.32H985.656V164.172H987.834L988.212 165.45H988.338C988.602 165.054 988.956 164.712 989.4 164.424C989.844 164.136 990.42 163.992 991.128 163.992ZM990.264 166.134C989.568 166.134 989.076 166.35 988.788 166.782C988.512 167.214 988.362 167.874 988.338 168.762V169.05C988.338 169.998 988.476 170.73 988.752 171.246C989.04 171.75 989.556 172.002 990.3 172.002C990.912 172.002 991.362 171.75 991.65 171.246C991.95 170.73 992.1 169.992 992.1 169.032C992.1 167.1 991.488 166.134 990.264 166.134ZM1001.08 163.974C1002.4 163.974 1003.41 164.262 1004.1 164.838C1004.81 165.402 1005.16 166.272 1005.16 167.448V174H1003.29L1002.77 172.668H1002.7C1002.28 173.196 1001.83 173.58 1001.37 173.82C1000.9 174.06 1000.26 174.18 999.441 174.18C998.565 174.18 997.839 173.928 997.263 173.424C996.687 172.908 996.399 172.122 996.399 171.066C996.399 170.022 996.765 169.254 997.497 168.762C998.229 168.258 999.327 167.982 1000.79 167.934L1002.5 167.88V167.448C1002.5 166.932 1002.36 166.554 1002.09 166.314C1001.82 166.074 1001.45 165.954 1000.97 165.954C1000.49 165.954 1000.02 166.026 999.567 166.17C999.111 166.302 998.655 166.47 998.199 166.674L997.317 164.856C997.845 164.58 998.427 164.364 999.063 164.208C999.711 164.052 1000.38 163.974 1001.08 163.974ZM1001.46 169.482C1000.59 169.506 999.993 169.662 999.657 169.95C999.321 170.238 999.153 170.616 999.153 171.084C999.153 171.492 999.273 171.786 999.513 171.966C999.753 172.134 1000.06 172.218 1000.45 172.218C1001.02 172.218 1001.51 172.05 1001.91 171.714C1002.3 171.366 1002.5 170.88 1002.5 170.256V169.446L1001.46 169.482ZM1016.05 166.188H1012.82V174H1010.14V166.188H1006.92V164.172H1016.05V166.188ZM1026.61 169.068C1026.61 170.7 1026.18 171.96 1025.32 172.848C1024.46 173.736 1023.3 174.18 1021.82 174.18C1020.91 174.18 1020.1 173.982 1019.38 173.586C1018.67 173.19 1018.11 172.614 1017.7 171.858C1017.29 171.09 1017.09 170.16 1017.09 169.068C1017.09 167.436 1017.52 166.182 1018.37 165.306C1019.22 164.43 1020.39 163.992 1021.88 163.992C1022.8 163.992 1023.62 164.19 1024.33 164.586C1025.03 164.982 1025.59 165.558 1026 166.314C1026.41 167.058 1026.61 167.976 1026.61 169.068ZM1019.83 169.068C1019.83 170.04 1019.98 170.778 1020.29 171.282C1020.62 171.774 1021.14 172.02 1021.86 172.02C1022.57 172.02 1023.08 171.774 1023.39 171.282C1023.71 170.778 1023.88 170.04 1023.88 169.068C1023.88 168.096 1023.71 167.37 1023.39 166.89C1023.08 166.398 1022.56 166.152 1021.84 166.152C1021.13 166.152 1020.62 166.398 1020.29 166.89C1019.98 167.37 1019.83 168.096 1019.83 169.068ZM1037.54 166.746C1037.54 167.274 1037.37 167.724 1037.04 168.096C1036.71 168.468 1036.23 168.708 1035.58 168.816V168.888C1036.26 168.972 1036.81 169.206 1037.22 169.59C1037.64 169.974 1037.85 170.466 1037.85 171.066C1037.85 171.63 1037.7 172.134 1037.4 172.578C1037.11 173.022 1036.65 173.37 1036.01 173.622C1035.37 173.874 1034.54 174 1033.51 174H1028.83V164.172H1033.51C1034.28 164.172 1034.96 164.256 1035.56 164.424C1036.17 164.58 1036.65 164.844 1037 165.216C1037.36 165.588 1037.54 166.098 1037.54 166.746ZM1034.82 166.962C1034.82 166.362 1034.35 166.062 1033.4 166.062H1031.51V168.006H1033.09C1033.66 168.006 1034.08 167.928 1034.37 167.772C1034.67 167.604 1034.82 167.334 1034.82 166.962ZM1035.07 170.922C1035.07 170.538 1034.92 170.262 1034.62 170.094C1034.32 169.914 1033.87 169.824 1033.27 169.824H1031.51V172.146H1033.33C1033.83 172.146 1034.25 172.056 1034.57 171.876C1034.91 171.684 1035.07 171.366 1035.07 170.922ZM1045.51 164.172H1048.45L1050.3 169.698C1050.4 169.962 1050.47 170.238 1050.52 170.526C1050.56 170.802 1050.6 171.096 1050.62 171.408H1050.68C1050.71 171.096 1050.76 170.802 1050.82 170.526C1050.89 170.238 1050.97 169.962 1051.06 169.698L1052.87 164.172H1055.75L1051.6 175.26C1051.22 176.28 1050.68 177.042 1049.96 177.546C1049.25 178.062 1048.43 178.32 1047.49 178.32C1047.19 178.32 1046.93 178.302 1046.7 178.266C1046.48 178.242 1046.29 178.212 1046.12 178.176V176.052C1046.26 176.076 1046.41 176.1 1046.59 176.124C1046.78 176.148 1046.98 176.16 1047.19 176.16C1047.75 176.16 1048.19 175.986 1048.52 175.638C1048.85 175.302 1049.1 174.894 1049.26 174.414L1049.42 173.928L1045.51 164.172ZM1065.61 174H1062.93V166.188H1060.47C1060.31 168.108 1060.1 169.656 1059.84 170.832C1059.58 171.996 1059.23 172.848 1058.77 173.388C1058.32 173.916 1057.71 174.18 1056.94 174.18C1056.31 174.18 1055.8 174.084 1055.41 173.892V171.75C1055.68 171.87 1055.97 171.93 1056.27 171.93C1056.49 171.93 1056.69 171.822 1056.87 171.606C1057.05 171.39 1057.21 171 1057.37 170.436C1057.54 169.872 1057.69 169.086 1057.82 168.078C1057.95 167.058 1058.07 165.756 1058.18 164.172H1065.61V174ZM1067.91 174V170.836H1071.24V174H1067.91ZM1085.97 174L1082.87 163.92H1082.8C1082.81 164.16 1082.83 164.52 1082.85 165C1082.88 165.48 1082.9 165.996 1082.92 166.548C1082.95 167.088 1082.96 167.58 1082.96 168.024V174H1080.53V161.148H1084.24L1087.28 170.976H1087.33L1090.56 161.148H1094.26V174H1091.73V167.916C1091.73 167.508 1091.73 167.04 1091.74 166.512C1091.77 165.984 1091.79 165.486 1091.8 165.018C1091.82 164.538 1091.84 164.178 1091.85 163.938H1091.78L1088.47 174H1085.97ZM1099.89 168.06C1099.89 168.264 1099.87 168.516 1099.85 168.816C1099.84 169.116 1099.82 169.422 1099.8 169.734C1099.78 170.046 1099.77 170.322 1099.74 170.562C1099.72 170.802 1099.7 170.97 1099.69 171.066L1104.22 164.172H1107.45V174H1104.85V170.076C1104.85 169.752 1104.87 169.398 1104.89 169.014C1104.91 168.618 1104.94 168.252 1104.96 167.916C1105 167.568 1105.02 167.304 1105.03 167.124L1100.52 174H1097.29V164.172H1099.89V168.06ZM1119.05 174H1116.37V166.188H1113.9C1113.75 168.108 1113.54 169.656 1113.27 170.832C1113.02 171.996 1112.67 172.848 1112.21 173.388C1111.76 173.916 1111.14 174.18 1110.38 174.18C1109.75 174.18 1109.24 174.084 1108.85 173.892V171.75C1109.12 171.87 1109.41 171.93 1109.71 171.93C1109.93 171.93 1110.12 171.822 1110.3 171.606C1110.48 171.39 1110.65 171 1110.81 170.436C1110.98 169.872 1111.13 169.086 1111.26 168.078C1111.39 167.058 1111.51 165.756 1111.62 164.172H1119.05V174ZM1130.65 174H1127.97V166.188H1125.51C1125.35 168.108 1125.14 169.656 1124.88 170.832C1124.62 171.996 1124.27 172.848 1123.81 173.388C1123.36 173.916 1122.75 174.18 1121.98 174.18C1121.35 174.18 1120.84 174.084 1120.45 173.892V171.75C1120.72 171.87 1121.01 171.93 1121.31 171.93C1121.53 171.93 1121.73 171.822 1121.91 171.606C1122.09 171.39 1122.25 171 1122.41 170.436C1122.58 169.872 1122.73 169.086 1122.86 168.078C1122.99 167.058 1123.11 165.756 1123.22 164.172H1130.65V174ZM1137.5 163.992C1138.86 163.992 1139.93 164.382 1140.72 165.162C1141.52 165.93 1141.91 167.028 1141.91 168.456V169.752H1135.58C1135.6 170.508 1135.82 171.102 1136.24 171.534C1136.67 171.966 1137.27 172.182 1138.02 172.182C1138.66 172.182 1139.24 172.122 1139.75 172.002C1140.27 171.87 1140.8 171.672 1141.35 171.408V173.478C1140.87 173.718 1140.36 173.892 1139.82 174C1139.3 174.12 1138.65 174.18 1137.9 174.18C1136.91 174.18 1136.04 174 1135.29 173.64C1134.53 173.268 1133.94 172.71 1133.51 171.966C1133.07 171.222 1132.86 170.286 1132.86 169.158C1132.86 168.006 1133.05 167.052 1133.43 166.296C1133.83 165.528 1134.38 164.952 1135.07 164.568C1135.77 164.184 1136.58 163.992 1137.5 163.992ZM1137.52 165.9C1137 165.9 1136.57 166.068 1136.22 166.404C1135.89 166.74 1135.69 167.262 1135.63 167.97H1139.39C1139.38 167.37 1139.22 166.878 1138.92 166.494C1138.62 166.098 1138.16 165.9 1137.52 165.9ZM1149.56 163.992C1150.66 163.992 1151.56 164.424 1152.24 165.288C1152.93 166.14 1153.27 167.4 1153.27 169.068C1153.27 170.736 1152.91 172.008 1152.21 172.884C1151.5 173.748 1150.59 174.18 1149.49 174.18C1148.78 174.18 1148.22 174.054 1147.8 173.802C1147.38 173.538 1147.03 173.244 1146.77 172.92H1146.63C1146.72 173.424 1146.77 173.904 1146.77 174.36V178.32H1144.09V164.172H1146.27L1146.64 165.45H1146.77C1147.03 165.054 1147.39 164.712 1147.83 164.424C1148.28 164.136 1148.85 163.992 1149.56 163.992ZM1148.7 166.134C1148 166.134 1147.51 166.35 1147.22 166.782C1146.94 167.214 1146.79 167.874 1146.77 168.762V169.05C1146.77 169.998 1146.91 170.73 1147.18 171.246C1147.47 171.75 1147.99 172.002 1148.73 172.002C1149.34 172.002 1149.79 171.75 1150.08 171.246C1150.38 170.73 1150.53 169.992 1150.53 169.032C1150.53 167.1 1149.92 166.134 1148.7 166.134ZM1164.41 169.068C1164.41 170.7 1163.97 171.96 1163.11 172.848C1162.26 173.736 1161.09 174.18 1159.62 174.18C1158.71 174.18 1157.89 173.982 1157.17 173.586C1156.46 173.19 1155.9 172.614 1155.5 171.858C1155.09 171.09 1154.88 170.16 1154.88 169.068C1154.88 167.436 1155.31 166.182 1156.16 165.306C1157.01 164.43 1158.18 163.992 1159.67 163.992C1160.6 163.992 1161.41 164.19 1162.12 164.586C1162.83 164.982 1163.39 165.558 1163.79 166.314C1164.2 167.058 1164.41 167.976 1164.41 169.068ZM1157.62 169.068C1157.62 170.04 1157.78 170.778 1158.09 171.282C1158.41 171.774 1158.93 172.02 1159.65 172.02C1160.36 172.02 1160.87 171.774 1161.18 171.282C1161.51 170.778 1161.67 170.04 1161.67 169.068C1161.67 168.096 1161.51 167.37 1161.18 166.89C1160.87 166.398 1160.36 166.152 1159.64 166.152C1158.93 166.152 1158.41 166.398 1158.09 166.89C1157.78 167.37 1157.62 168.096 1157.62 169.068ZM1175.33 166.746C1175.33 167.274 1175.17 167.724 1174.83 168.096C1174.51 168.468 1174.02 168.708 1173.37 168.816V168.888C1174.06 168.972 1174.6 169.206 1175.01 169.59C1175.43 169.974 1175.64 170.466 1175.64 171.066C1175.64 171.63 1175.49 172.134 1175.19 172.578C1174.9 173.022 1174.44 173.37 1173.8 173.622C1173.17 173.874 1172.33 174 1171.3 174H1166.62V164.172H1171.3C1172.07 164.172 1172.75 164.256 1173.35 164.424C1173.97 164.58 1174.45 164.844 1174.79 165.216C1175.15 165.588 1175.33 166.098 1175.33 166.746ZM1172.62 166.962C1172.62 166.362 1172.14 166.062 1171.19 166.062H1169.3V168.006H1170.89C1171.45 168.006 1171.88 167.928 1172.17 167.772C1172.47 167.604 1172.62 167.334 1172.62 166.962ZM1172.87 170.922C1172.87 170.538 1172.72 170.262 1172.42 170.094C1172.12 169.914 1171.67 169.824 1171.07 169.824H1169.3V172.146H1171.12C1171.63 172.146 1172.04 172.056 1172.36 171.876C1172.7 171.684 1172.87 171.366 1172.87 170.922ZM1181.94 174.18C1180.48 174.18 1179.34 173.778 1178.54 172.974C1177.75 172.158 1177.35 170.88 1177.35 169.14C1177.35 167.94 1177.55 166.962 1177.96 166.206C1178.37 165.45 1178.93 164.892 1179.65 164.532C1180.39 164.172 1181.23 163.992 1182.17 163.992C1182.85 163.992 1183.43 164.058 1183.92 164.19C1184.42 164.322 1184.86 164.478 1185.23 164.658L1184.44 166.728C1184.02 166.56 1183.63 166.422 1183.25 166.314C1182.89 166.206 1182.53 166.152 1182.17 166.152C1180.78 166.152 1180.09 167.142 1180.09 169.122C1180.09 170.106 1180.27 170.832 1180.63 171.3C1181 171.768 1181.51 172.002 1182.17 172.002C1182.74 172.002 1183.24 171.93 1183.67 171.786C1184.1 171.63 1184.52 171.42 1184.93 171.156V173.442C1184.52 173.706 1184.09 173.892 1183.63 174C1183.19 174.12 1182.62 174.18 1181.94 174.18ZM1193.63 164.172H1196.59L1192.7 168.888L1196.93 174H1193.89L1189.87 169.014V174H1187.19V164.172H1189.87V168.942L1193.63 164.172ZM1202.37 163.974C1203.69 163.974 1204.69 164.262 1205.39 164.838C1206.1 165.402 1206.45 166.272 1206.45 167.448V174H1204.58L1204.06 172.668H1203.99C1203.57 173.196 1203.12 173.58 1202.65 173.82C1202.19 174.06 1201.54 174.18 1200.73 174.18C1199.85 174.18 1199.13 173.928 1198.55 173.424C1197.97 172.908 1197.69 172.122 1197.69 171.066C1197.69 170.022 1198.05 169.254 1198.78 168.762C1199.52 168.258 1200.61 167.982 1202.08 167.934L1203.79 167.88V167.448C1203.79 166.932 1203.65 166.554 1203.37 166.314C1203.11 166.074 1202.74 165.954 1202.26 165.954C1201.78 165.954 1201.31 166.026 1200.85 166.17C1200.4 166.302 1199.94 166.47 1199.49 166.674L1198.6 164.856C1199.13 164.58 1199.71 164.364 1200.35 164.208C1201 164.052 1201.67 163.974 1202.37 163.974ZM1202.74 169.482C1201.88 169.506 1201.28 169.662 1200.94 169.95C1200.61 170.238 1200.44 170.616 1200.44 171.084C1200.44 171.492 1200.56 171.786 1200.8 171.966C1201.04 172.134 1201.35 172.218 1201.74 172.218C1202.31 172.218 1202.8 172.05 1203.19 171.714C1203.59 171.366 1203.79 170.88 1203.79 170.256V169.446L1202.74 169.482ZM1210.69 174H1207.79L1210.44 170.112C1209.93 169.908 1209.48 169.578 1209.09 169.122C1208.7 168.654 1208.51 168.018 1208.51 167.214C1208.51 166.23 1208.88 165.48 1209.63 164.964C1210.37 164.436 1211.33 164.172 1212.49 164.172H1217.06V174H1214.38V170.346H1212.9L1210.69 174ZM1211.14 167.232C1211.14 167.64 1211.3 167.964 1211.63 168.204C1211.95 168.432 1212.37 168.546 1212.89 168.546H1214.38V166.062H1212.54C1212.06 166.062 1211.71 166.182 1211.48 166.422C1211.25 166.65 1211.14 166.92 1211.14 167.232ZM1228.65 174V164.332L1225.41 165.343V162.926L1228.65 161.924H1231.89V174H1228.65ZM1246.48 164.481H1238.45V166.336C1238.64 166.301 1238.84 166.271 1239.07 166.248C1239.3 166.219 1239.54 166.195 1239.79 166.178C1240.03 166.16 1240.28 166.146 1240.53 166.134C1240.78 166.122 1241.03 166.116 1241.28 166.116C1242.26 166.116 1243.13 166.204 1243.9 166.38C1244.67 166.556 1245.33 166.813 1245.86 167.153C1246.39 167.493 1246.8 167.912 1247.08 168.41C1247.36 168.908 1247.5 169.482 1247.5 170.133C1247.5 170.736 1247.37 171.296 1247.11 171.812C1246.85 172.321 1246.44 172.764 1245.87 173.139C1245.3 173.508 1244.57 173.798 1243.67 174.009C1242.77 174.22 1241.67 174.325 1240.39 174.325C1239.8 174.325 1239.23 174.302 1238.7 174.255C1238.16 174.214 1237.66 174.155 1237.19 174.079C1236.73 174.003 1236.3 173.918 1235.92 173.824C1235.54 173.73 1235.21 173.634 1234.92 173.534V170.687C1235.18 170.804 1235.47 170.927 1235.81 171.056C1236.16 171.179 1236.56 171.293 1237.01 171.398C1237.46 171.498 1237.98 171.583 1238.55 171.653C1239.12 171.718 1239.76 171.75 1240.47 171.75C1241.78 171.75 1242.74 171.612 1243.34 171.337C1243.95 171.056 1244.25 170.672 1244.25 170.186C1244.25 169.611 1243.92 169.189 1243.26 168.92C1242.6 168.645 1241.65 168.507 1240.41 168.507C1239.99 168.507 1239.58 168.521 1239.18 168.551C1238.78 168.58 1238.4 168.621 1238.04 168.674C1237.68 168.721 1237.34 168.779 1237.03 168.85C1236.72 168.914 1236.45 168.981 1236.2 169.052H1235.41V161.924H1246.48V164.481ZM1258.04 174L1257.11 170.94H1252.43L1251.49 174H1248.56L1253.09 161.094H1256.42L1260.98 174H1258.04ZM1255.52 165.666C1255.46 165.462 1255.38 165.204 1255.29 164.892C1255.19 164.58 1255.1 164.262 1255 163.938C1254.9 163.614 1254.83 163.332 1254.77 163.092C1254.71 163.332 1254.62 163.632 1254.51 163.992C1254.42 164.34 1254.32 164.676 1254.23 165C1254.14 165.312 1254.08 165.534 1254.03 165.666L1253.11 168.654H1256.46L1255.52 165.666Z" fill="white"/>
</g>
<g clip-path="url(#clip2_621_32)">
<path d="M412.466 279.427C387.91 346.894 295.075 248.32 141.537 319.16C-12 390 0.500008 127 0.500008 54.5C25.056 -12.9671 105.389 29.3169 230.463 74.84C355.536 120.363 437.022 211.96 412.466 279.427Z" fill="white"/>
</g>
<path d="M0 0H1280C642.5 78.5 326 -54 0 60V0Z" fill="white"/>
<path d="M1279.74 -0.676695C772.738 74.3231 443.237 -26.1765 107.238 26.3235" stroke="url(#paint0_linear_621_32)" stroke-width="10"/>
</g>
<defs>
<linearGradient id="paint0_linear_621_32" x1="1285.24" y1="64.2829" x2="14.7445" y2="74.6409" gradientUnits="userSpaceOnUse">
<stop offset="0.0184065" stop-color="white"/>
<stop offset="0.168312" stop-color="#FF7B01"/>
<stop offset="0.501719" stop-color="#FFC701" stop-opacity="0.7"/>
<stop offset="0.778999" stop-color="#2CCFDA"/>
<stop offset="0.882271" stop-color="white"/>
</linearGradient>
<clipPath id="clip0_621_32">
<rect width="1280" height="360" fill="white"/>
</clipPath>
<clipPath id="clip1_621_32">
<rect width="426.6" height="150" fill="white" transform="translate(853 160)"/>
</clipPath>
<clipPath id="clip2_621_32">
<rect width="426.6" height="360" fill="white"/>
</clipPath>
</defs>
</svg>
