<svg width="210" height="19" viewBox="0 0 210 19" fill="none" xmlns="http://www.w3.org/2000/svg">
<path d="M0.720586 14V1.148H10.8906V14H8.17259V3.416H3.43859V14H0.720586ZM19.3887 3.992C20.4927 3.992 21.3867 4.424 22.0707 5.288C22.7547 6.14 23.0967 7.4 23.0967 9.068C23.0967 10.736 22.7427 12.008 22.0347 12.884C21.3267 13.748 20.4207 14.18 19.3167 14.18C18.6087 14.18 18.0447 14.054 17.6247 13.802C17.2047 13.538 16.8627 13.244 16.5987 12.92H16.4547C16.5507 13.424 16.5987 13.904 16.5987 14.36V18.32H13.9167V4.172H16.0947L16.4727 5.45H16.5987C16.8627 5.054 17.2167 4.712 17.6607 4.424C18.1047 4.136 18.6807 3.992 19.3887 3.992ZM18.5247 6.134C17.8287 6.134 17.3367 6.35 17.0487 6.782C16.7727 7.214 16.6227 7.874 16.5987 8.762V9.05C16.5987 9.998 16.7367 10.73 17.0127 11.246C17.3007 11.75 17.8167 12.002 18.5607 12.002C19.1727 12.002 19.6227 11.75 19.9107 11.246C20.2107 10.73 20.3607 9.992 20.3607 9.032C20.3607 7.1 19.7487 6.134 18.5247 6.134ZM27.8993 8.06C27.8993 8.264 27.8873 8.516 27.8633 8.816C27.8513 9.116 27.8333 9.422 27.8093 9.734C27.7973 10.046 27.7793 10.322 27.7553 10.562C27.7313 10.802 27.7133 10.97 27.7013 11.066L32.2373 4.172H35.4593V14H32.8673V10.076C32.8673 9.752 32.8793 9.398 32.9033 9.014C32.9273 8.618 32.9513 8.252 32.9753 7.916C33.0113 7.568 33.0353 7.304 33.0473 7.124L28.5293 14H25.3073V4.172H27.8993V8.06ZM42.2584 14.18C40.7944 14.18 39.6604 13.778 38.8564 12.974C38.0644 12.158 37.6684 10.88 37.6684 9.14C37.6684 7.94 37.8724 6.962 38.2804 6.206C38.6884 5.45 39.2524 4.892 39.9724 4.532C40.7044 4.172 41.5444 3.992 42.4924 3.992C43.1644 3.992 43.7464 4.058 44.2384 4.19C44.7424 4.322 45.1804 4.478 45.5524 4.658L44.7604 6.728C44.3404 6.56 43.9444 6.422 43.5724 6.314C43.2124 6.206 42.8524 6.152 42.4924 6.152C41.1004 6.152 40.4044 7.142 40.4044 9.122C40.4044 10.106 40.5844 10.832 40.9444 11.3C41.3164 11.768 41.8324 12.002 42.4924 12.002C43.0564 12.002 43.5544 11.93 43.9864 11.786C44.4184 11.63 44.8384 11.42 45.2464 11.156V13.442C44.8384 13.706 44.4064 13.892 43.9504 14C43.5064 14.12 42.9424 14.18 42.2584 14.18ZM56.4365 9.068C56.4365 10.7 56.0045 11.96 55.1405 12.848C54.2885 13.736 53.1245 14.18 51.6485 14.18C50.7365 14.18 49.9205 13.982 49.2005 13.586C48.4925 13.19 47.9345 12.614 47.5265 11.858C47.1185 11.09 46.9145 10.16 46.9145 9.068C46.9145 7.436 47.3405 6.182 48.1925 5.306C49.0445 4.43 50.2145 3.992 51.7025 3.992C52.6265 3.992 53.4425 4.19 54.1505 4.586C54.8585 4.982 55.4165 5.558 55.8245 6.314C56.2325 7.058 56.4365 7.976 56.4365 9.068ZM49.6505 9.068C49.6505 10.04 49.8065 10.778 50.1185 11.282C50.4425 11.774 50.9645 12.02 51.6845 12.02C52.3925 12.02 52.9025 11.774 53.2145 11.282C53.5385 10.778 53.7005 10.04 53.7005 9.068C53.7005 8.096 53.5385 7.37 53.2145 6.89C52.9025 6.398 52.3865 6.152 51.6665 6.152C50.9585 6.152 50.4425 6.398 50.1185 6.89C49.8065 7.37 49.6505 8.096 49.6505 9.068ZM62.703 3.992C64.059 3.992 65.133 4.382 65.925 5.162C66.717 5.93 67.113 7.028 67.113 8.456V9.752H60.777C60.801 10.508 61.023 11.102 61.443 11.534C61.875 11.966 62.469 12.182 63.225 12.182C63.861 12.182 64.437 12.122 64.953 12.002C65.469 11.87 66.003 11.672 66.555 11.408V13.478C66.075 13.718 65.565 13.892 65.025 14C64.497 14.12 63.855 14.18 63.099 14.18C62.115 14.18 61.245 14 60.489 13.64C59.733 13.268 59.139 12.71 58.707 11.966C58.275 11.222 58.059 10.286 58.059 9.158C58.059 8.006 58.251 7.052 58.635 6.296C59.031 5.528 59.577 4.952 60.273 4.568C60.969 4.184 61.779 3.992 62.703 3.992ZM62.721 5.9C62.205 5.9 61.773 6.068 61.425 6.404C61.089 6.74 60.891 7.262 60.831 7.97H64.593C64.581 7.37 64.425 6.878 64.125 6.494C63.825 6.098 63.357 5.9 62.721 5.9ZM78.1258 4.172V12.038H79.5658V17.528H77.1538V14H70.5478V17.528H68.1358V12.038H68.9638C69.3958 11.378 69.7618 10.628 70.0618 9.788C70.3618 8.936 70.6018 8.03 70.7818 7.07C70.9618 6.11 71.0938 5.144 71.1778 4.172H78.1258ZM73.4278 6.188C73.2838 7.28 73.0858 8.318 72.8338 9.302C72.5818 10.274 72.2278 11.186 71.7718 12.038H75.4438V6.188H73.4278ZM83.8329 8.06C83.8329 8.264 83.8209 8.516 83.7969 8.816C83.7849 9.116 83.7669 9.422 83.7429 9.734C83.7309 10.046 83.7129 10.322 83.6889 10.562C83.6649 10.802 83.6469 10.97 83.6349 11.066L88.1709 4.172H91.3929V14H88.8009V10.076C88.8009 9.752 88.8129 9.398 88.8369 9.014C88.8609 8.618 88.8849 8.252 88.9089 7.916C88.9449 7.568 88.9689 7.304 88.9809 7.124L84.4629 14H81.2409V4.172H83.8329V8.06ZM96.878 4.172V7.952H100.622V4.172H103.304V14H100.622V9.95H96.878V14H94.196V4.172H96.878ZM107.608 14H104.71L107.356 10.112C106.852 9.908 106.402 9.578 106.006 9.122C105.622 8.654 105.43 8.018 105.43 7.214C105.43 6.23 105.802 5.48 106.546 4.964C107.29 4.436 108.244 4.172 109.408 4.172H113.98V14H111.298V10.346H109.822L107.608 14ZM108.058 7.232C108.058 7.64 108.22 7.964 108.544 8.204C108.868 8.432 109.288 8.546 109.804 8.546H111.298V6.062H109.462C108.982 6.062 108.628 6.182 108.4 6.422C108.172 6.65 108.058 6.92 108.058 7.232ZM126.198 -0.0580003C126.138 0.566 125.964 1.118 125.676 1.598C125.388 2.066 124.938 2.432 124.326 2.696C123.714 2.96 122.892 3.092 121.86 3.092C120.804 3.092 119.976 2.966 119.376 2.714C118.788 2.45 118.368 2.084 118.116 1.616C117.864 1.148 117.714 0.589999 117.666 -0.0580003H120.06C120.12 0.602 120.288 1.04 120.564 1.256C120.84 1.472 121.29 1.58 121.914 1.58C122.43 1.58 122.85 1.466 123.174 1.238C123.51 0.997999 123.708 0.566 123.768 -0.0580003H126.198ZM119.376 8.06C119.376 8.264 119.364 8.516 119.34 8.816C119.328 9.116 119.31 9.422 119.286 9.734C119.274 10.046 119.256 10.322 119.232 10.562C119.208 10.802 119.19 10.97 119.178 11.066L123.714 4.172H126.936V14H124.344V10.076C124.344 9.752 124.356 9.398 124.38 9.014C124.404 8.618 124.428 8.252 124.452 7.916C124.488 7.568 124.512 7.304 124.524 7.124L120.006 14H116.784V4.172H119.376V8.06ZM133.735 14.18C132.271 14.18 131.137 13.778 130.333 12.974C129.541 12.158 129.145 10.88 129.145 9.14C129.145 7.94 129.349 6.962 129.757 6.206C130.165 5.45 130.729 4.892 131.449 4.532C132.181 4.172 133.021 3.992 133.969 3.992C134.641 3.992 135.223 4.058 135.715 4.19C136.219 4.322 136.657 4.478 137.029 4.658L136.237 6.728C135.817 6.56 135.421 6.422 135.049 6.314C134.689 6.206 134.329 6.152 133.969 6.152C132.577 6.152 131.881 7.142 131.881 9.122C131.881 10.106 132.061 10.832 132.421 11.3C132.793 11.768 133.309 12.002 133.969 12.002C134.533 12.002 135.031 11.93 135.463 11.786C135.895 11.63 136.315 11.42 136.723 11.156V13.442C136.315 13.706 135.883 13.892 135.427 14C134.983 14.12 134.419 14.18 133.735 14.18ZM140.479 14H137.581L140.227 10.112C139.723 9.908 139.273 9.578 138.877 9.122C138.493 8.654 138.301 8.018 138.301 7.214C138.301 6.23 138.673 5.48 139.417 4.964C140.161 4.436 141.115 4.172 142.279 4.172H146.851V14H144.169V10.346H142.693L140.479 14ZM140.929 7.232C140.929 7.64 141.091 7.964 141.415 8.204C141.739 8.432 142.159 8.546 142.675 8.546H144.169V6.062H142.333C141.853 6.062 141.499 6.182 141.271 6.422C141.043 6.65 140.929 6.92 140.929 7.232ZM162.867 4.172H165.819L161.931 8.888L166.161 14H163.119L159.105 9.014V14H156.423V4.172H159.105V8.942L162.867 4.172ZM177.017 4.172V7.952H180.761V4.172H183.443V14H180.761V9.95H177.017V14H174.335V4.172H177.017ZM190.285 3.974C191.605 3.974 192.613 4.262 193.309 4.838C194.017 5.402 194.371 6.272 194.371 7.448V14H192.499L191.977 12.668H191.905C191.485 13.196 191.041 13.58 190.573 13.82C190.105 14.06 189.463 14.18 188.647 14.18C187.771 14.18 187.045 13.928 186.469 13.424C185.893 12.908 185.605 12.122 185.605 11.066C185.605 10.022 185.971 9.254 186.703 8.762C187.435 8.258 188.533 7.982 189.997 7.934L191.707 7.88V7.448C191.707 6.932 191.569 6.554 191.293 6.314C191.029 6.074 190.657 5.954 190.177 5.954C189.697 5.954 189.229 6.026 188.773 6.17C188.317 6.302 187.861 6.47 187.405 6.674L186.523 4.856C187.051 4.58 187.633 4.364 188.269 4.208C188.917 4.052 189.589 3.974 190.285 3.974ZM190.663 9.482C189.799 9.506 189.199 9.662 188.863 9.95C188.527 10.238 188.359 10.616 188.359 11.084C188.359 11.492 188.479 11.786 188.719 11.966C188.959 12.134 189.271 12.218 189.655 12.218C190.231 12.218 190.717 12.05 191.113 11.714C191.509 11.366 191.707 10.88 191.707 10.256V9.446L190.663 9.482ZM209.5 4.172V14H206.998V9.176C206.998 8.696 207.004 8.228 207.016 7.772C207.04 7.316 207.07 6.896 207.106 6.512H207.052L204.334 14H202.318L199.564 6.494H199.492C199.54 6.89 199.57 7.316 199.582 7.772C199.606 8.216 199.618 8.708 199.618 9.248V14H197.116V4.172H200.914L203.362 10.832L205.846 4.172H209.5Z" fill="white"/>
</svg>
