<svg width="640" height="760" viewBox="0 0 640 760" fill="none" xmlns="http://www.w3.org/2000/svg">
<g clip-path="url(#clip0_578_22)">
<rect width="640" height="760" fill="white"/>
<g filter="url(#filter0_d_578_22)">
<path d="M276.886 180.49C276.495 192.532 284.109 199.34 287.965 201.24L287.734 202.906C277.684 199.495 262.723 204.112 256.499 206.848L251.527 205.332C240.515 198.501 236.403 199.418 228.581 198.337C222.324 197.471 221.514 193.721 221.891 191.954C223.013 182.887 225.909 162.344 228.516 152.716C231.124 143.088 235.883 137.879 237.937 136.479L257.647 120.773C261.826 118.225 257.325 117.345 254.551 117.223C253.104 118.085 249.604 120.145 247.185 121.492C244.767 122.839 244.431 121.231 244.566 120.259L247.391 99.84C247.898 96.1728 245.615 95.39 244.41 95.457C243.342 91.6569 240.651 92.8632 239.439 93.9414C237.804 89.6214 234.511 94.0314 233.068 96.7765L232.318 102.194C230.939 105.248 230.724 103.155 230.789 101.727L231.307 97.977C230.377 93.1767 228.37 95.1996 227.483 96.8111L225.602 107.529C223.565 111.686 219.794 120.698 221 123.498C222.207 126.298 221.601 131.643 221.146 133.966C200.486 163.453 193.894 186.894 193.181 194.928C195.238 207.715 229.605 229.339 246.532 238.553C251.774 246.752 257.737 251.668 260.063 253.101C262.368 257.567 268.541 268.454 274.793 276.266C281.046 284.079 282.822 292.177 282.928 295.249L286.222 317.534C283.379 335.776 288.647 341.291 291.637 341.768C290.731 346.009 285.96 354.949 283.688 358.888C278.147 362.063 277.46 367.413 277.809 369.691L277.233 373.858C272.962 377.072 270.73 382.443 270.149 384.727C266.247 385.275 266.056 393.179 266.449 397.062C266.777 402.374 265.757 413.007 259.056 413.049C252.354 413.091 252.368 422.013 253.213 426.468L252.118 434.386C249.863 430.514 241.889 423.624 228.024 427.041C210.693 431.312 197.606 439.483 194.583 441.167C192.164 442.514 190.515 440.795 189.993 439.768C188.099 435.021 183.051 430.413 180.763 428.702C172.23 421.237 165.5 429.55 163.201 434.64L161.299 448.392C151.977 453.541 147.767 462.652 146.827 466.564C145.555 470.953 144.063 481.356 148.266 487.848C152.47 494.341 156.901 492.652 158.592 490.996C159.785 490.057 162.626 487.188 164.45 483.228C166.273 479.267 174.637 474.897 178.591 473.207C183.901 471.699 187.143 469.01 188.1 467.854C189.328 461.28 198.891 461.879 203.519 463C219.306 466.423 229.17 466.766 232.128 466.51C234.149 465.736 235.481 467.243 235.895 468.093L241.38 474.542C243.138 476.236 247.478 479.441 250.768 478.707C254.058 477.973 259.114 477.922 261.23 477.988C266.829 479 269.801 473.652 270.587 470.852C280.198 468.222 286.087 459.652 287.83 455.696C294.393 456.655 295.961 451.66 295.925 449.044C296.294 446.377 298.195 447.998 299.1 449.143C298.517 451.05 304.986 455.57 308.293 457.591C310.753 462.858 305.413 464.965 302.436 465.36C289.003 463.35 278.316 477.406 274.652 484.685C271.36 488.314 264.19 496.349 261.847 499.456C259.504 502.564 256.421 500.263 255.172 498.724C249.485 491.432 246.967 489.853 246.419 489.976C229.637 484.512 228.095 500.459 229.422 509.115C231.605 516.382 229.496 522.021 228.169 523.933C223.369 531.735 215.471 550.028 222.272 560.788C229.074 571.547 233.52 567.836 234.893 564.635C244.546 543.258 254.7 537.667 258.57 537.544L259.146 533.377C262.047 533.537 267.275 532.815 264.983 528.641C262.69 524.468 264.873 520.791 266.251 519.474C270.661 515.259 296.761 504.454 309.26 499.578L312.146 501.761L317.118 503.277C323.193 503.537 336.145 502.302 339.347 495.288C342.55 488.273 339.656 482.497 337.808 480.487C340.671 478.232 342.641 470.523 343.268 466.951C345.687 465.603 347.402 462.999 347.958 461.866L349.169 453.115C352.199 451.954 353.61 446.941 353.937 444.58C353.924 440.059 356.21 430.072 357.354 425.644C364.004 389.105 364.903 358.602 364.521 347.918L364.81 345.835L366.339 346.301L367.204 340.05C364.883 333.784 363.594 323.894 363.24 319.733C364.565 305.544 362.08 282.03 360.671 272.046C360.972 270.834 361.161 266.202 359.515 257.361C357.868 248.521 360.52 241.454 362.052 239.026C362.576 237.159 364.148 233.671 366.243 234.658C368.339 235.644 375.75 232.2 379.194 230.354C383.385 232.327 386.732 227.73 387.881 225.185C388.607 225.696 392.301 227.227 401.266 229.266C410.231 231.304 418.976 230.9 422.227 230.444C426.174 229.765 435.311 227.484 440.287 223.789C445.262 220.094 453.302 218.058 456.701 217.501L468.939 221.232L468.941 221.23C470.136 220.29 473.255 217.834 476.688 217.08C480.557 216.23 484.992 218.797 486.248 219.995L493.032 228.577C494.586 230.788 497.297 233.326 497.376 225.993C497.459 218.234 488.113 211.755 485.547 210.661C482.981 209.567 479.888 202.796 477.385 203.395C474.882 203.995 465.582 208.049 446.381 205.669C427.18 203.29 400.361 209.881 393.86 207.899L382.769 204.518C379.513 200.398 375.803 201.091 374.356 201.953L365.177 199.155C362.642 196.355 354.69 190.833 343.169 191.142C331.647 191.452 326.021 197.93 324.648 201.131C323.303 199.331 319.676 199.615 318.031 199.982C318.873 199.66 320.79 198.478 321.725 196.331C322.66 194.184 322.922 189.603 322.936 187.58C323.2 181.06 319.98 174.374 318.337 171.847L318.741 168.929C318.85 165.836 314.658 162.908 312.549 161.83C310.523 159.186 305.765 153.248 302.936 150.648C300.107 148.049 297.678 148.322 296.817 148.783C289.441 151.398 284.673 157.82 283.211 160.704C281.265 162.282 277.276 168.449 276.886 180.49Z" fill="url(#paint0_linear_578_22)" shape-rendering="crispEdges"/>
</g>
<path d="M519.092 42.7218L521.941 40.3317C515.862 40.3317 510.226 44.4745 508.168 46.546C513.108 42.913 517.509 42.4828 519.092 42.7218Z" fill="#2CCFDA"/>
<path d="M502.232 76.6612C505.003 80.8837 514.105 89.3765 528.352 89.5677C522.337 90.8425 508.691 90.0457 502.232 76.6612Z" fill="#FF2F01" fill-opacity="0.91"/>
<path d="M502.47 74.9881C500.76 71.3552 502.391 66.9414 503.42 65.1887C510.448 78.5733 526.927 81.6007 534.288 81.4414C534.858 83.9271 531.676 86.4606 530.014 87.4167C516.147 88.9463 505.873 79.7683 502.47 74.9881Z" fill="#FF7B01" fill-opacity="0.91"/>
<path d="M537.613 69.4909C522.796 69.1085 514.184 59.9305 511.73 55.3893C506.601 56.9189 504.369 62.0816 503.894 64.4717C512.633 78.6211 528.906 80.4057 535.951 79.5293C538.99 77.8085 538.325 72.12 537.613 69.4909Z" fill="#FFC701" fill-opacity="0.7"/>
<path d="M532.389 89.0897C540.937 80.2941 540.542 71.4029 539.275 68.0568C540.605 64.8062 544.579 63.5156 546.399 63.2766C548.679 67.1007 548.536 72.837 547.586 74.9881C542.647 84.5485 535.397 88.3727 532.389 89.0897Z" fill="#2FDA2C"/>
<path d="M544.024 51.5651C534.336 53.4772 529.698 61.4442 528.59 65.1887C528.59 65.9535 534.605 66.7821 537.613 67.1008C539.132 63.6591 545.844 61.0459 549.01 60.1695C548.061 52.7124 545.29 51.3261 544.024 51.5651Z" fill="#FF7B01" fill-opacity="0.91"/>
<path d="M534.051 42.4827C524.363 46.3069 518.775 54.7519 517.192 58.4964C512.443 54.6722 512.364 52.7602 512.918 52.2821C514.58 48.7766 519.234 41.4789 524.553 40.3316C529.872 39.1844 533.101 41.2877 534.051 42.4827Z" fill="#FF7B01" fill-opacity="0.91"/>
<path d="M500.095 70.4469C501.805 60.6953 507.932 55.2299 510.781 53.7162C510.781 50.6569 514.106 46.5459 515.768 44.8728C509.119 46.4025 506.982 48.167 506.269 48.697C500.808 52.7602 499.62 64.4717 500.095 70.4469Z" fill="#2CCFDA"/>
<path d="M536.9 43.9168C525.693 46.4025 520.199 54.9909 518.854 58.9744C520.374 62.7986 524.869 64.2327 526.927 64.4717C529.302 58.4964 534.526 53.4772 539.275 52.0431C543.074 50.8959 543.549 49.8124 543.311 49.414C541.412 45.781 538.246 44.2354 536.9 43.9168Z" fill="#FFC701" fill-opacity="0.7"/>
<path d="M549.486 62.5596C548.916 61.9859 548.615 62.6392 548.535 63.0376C548.535 63.2766 549.248 68.7738 549.248 71.642C550.579 68.5826 549.803 64.392 549.486 62.5596Z" fill="#2FDA2C"/>
<path d="M641.5 170C633.5 177 619.058 185.794 610 186C593.5 186.375 583.904 182.95 572 190.5C563.537 195.867 563.821 209 563.821 209C563.423 216.823 563.821 224.011 563.821 244" stroke="url(#paint1_linear_578_22)" stroke-width="6"/>
<path d="M547.269 561.667C550.03 561.667 552.428 562.03 554.464 562.755C556.499 563.479 558.259 564.497 559.743 565.809C561.192 567.086 562.383 568.638 563.314 570.467C564.211 572.262 564.936 574.246 565.488 576.42C566.006 578.593 566.368 580.923 566.575 583.407C566.782 585.891 566.886 588.462 566.886 591.119V632.163L495.77 632.157V592.045C495.77 590.009 495.857 587.973 496.029 585.937C496.202 583.901 496.529 581.952 497.013 580.089C497.461 578.191 498.099 576.448 498.928 574.861C499.756 573.24 500.843 571.842 502.188 570.669C503.534 569.462 505.156 568.53 507.054 567.875C508.951 567.185 511.194 566.84 513.782 566.84C516.094 566.84 518.095 567.134 519.786 567.72C521.477 568.273 522.926 569.135 524.134 570.309C525.341 571.447 526.342 572.914 527.136 574.708C527.895 576.503 528.499 578.608 528.947 581.023C529.189 577.572 529.775 574.622 530.707 572.173C531.638 569.723 532.881 567.722 534.433 566.169C535.986 564.616 537.849 563.478 540.023 562.753C542.163 562.029 544.578 561.667 547.269 561.667ZM513.886 572.896C512.885 572.896 511.884 572.965 510.884 573.103C509.883 573.24 508.934 573.551 508.037 574.034C507.105 574.517 506.243 575.224 505.449 576.156C504.655 577.053 503.983 578.295 503.43 579.882C502.844 581.469 502.395 583.436 502.085 585.782C501.74 588.094 501.567 590.889 501.567 594.167V625.688L526.411 625.69V594.169C526.411 589.511 526.083 585.784 525.428 582.989C524.737 580.194 523.823 578.055 522.684 576.571C521.546 575.053 520.217 574.069 518.699 573.621C517.181 573.138 515.576 572.896 513.886 572.896ZM547.166 568.447C544.474 568.447 542.18 568.913 540.282 569.844C538.384 570.776 536.832 572.208 535.624 574.14C534.416 576.072 533.536 578.556 532.984 581.593C532.398 584.629 532.104 588.235 532.104 592.41V625.69L561.037 625.693V591.532C561.037 587.219 560.795 583.596 560.312 580.663C559.795 577.696 558.984 575.315 557.88 573.52C556.741 571.692 555.292 570.398 553.532 569.638C551.772 568.845 549.65 568.448 547.166 568.447ZM566.886 459.983L559.018 459.983C560.364 462.467 561.606 465.297 562.745 468.471C563.884 471.611 564.867 474.941 565.695 478.461C566.523 481.946 567.162 485.534 567.61 489.226C568.059 492.919 568.283 496.542 568.283 500.096C568.283 504.719 567.869 508.877 567.041 512.569C566.213 516.227 564.988 519.332 563.366 521.885C561.71 524.439 559.674 526.405 557.259 527.785C554.809 529.165 551.979 529.855 548.77 529.855C545.596 529.855 542.801 529.061 540.386 527.473C537.936 525.851 535.814 523.556 534.019 520.589C532.191 517.621 530.655 514.05 529.413 509.875C528.136 505.665 527.067 500.972 526.204 495.796C525.307 490.62 524.582 485.03 524.03 479.027C523.444 472.988 522.96 466.639 522.581 459.98L517.146 459.979C514.938 459.979 512.988 460.393 511.298 461.221C509.607 462.049 508.14 463.205 506.898 464.688C505.622 466.172 504.569 467.914 503.741 469.915C502.878 471.917 502.188 474.09 501.671 476.437C501.153 478.749 500.791 481.198 500.584 483.786C500.342 486.34 500.221 488.91 500.221 491.498C500.221 494.983 500.394 498.158 500.739 501.022C501.084 503.886 501.567 506.56 502.188 509.044C502.775 511.529 503.465 513.91 504.259 516.187C505.052 518.464 505.898 520.759 506.795 523.071L499.238 523.07C497.961 518.274 496.857 513.167 495.926 507.75C494.959 502.298 494.476 496.518 494.476 490.411C494.476 485.235 494.925 480.404 495.822 475.919C496.685 471.433 498.082 467.534 500.014 464.222C501.947 460.909 504.448 458.305 507.519 456.407C510.556 454.509 514.265 453.561 518.647 453.561L566.886 453.565V459.983ZM528.326 459.98C528.947 471.263 529.827 480.908 530.966 488.913C532.104 496.884 533.502 503.405 535.158 508.478C536.814 513.55 538.747 517.277 540.955 519.658C543.163 522.004 545.665 523.178 548.46 523.178C550.737 523.178 552.756 522.609 554.515 521.47C556.275 520.297 557.759 518.624 558.967 516.45C560.14 514.277 561.037 511.637 561.658 508.532C562.245 505.426 562.538 501.941 562.538 498.077C562.538 495.799 562.417 493.453 562.176 491.038C561.9 488.588 561.537 486.155 561.089 483.74C560.606 481.324 560.054 478.943 559.432 476.597C558.777 474.25 558.069 472.042 557.31 469.972C556.551 467.901 555.74 466.021 554.878 464.33C554.015 462.605 553.135 461.155 552.238 459.982L528.326 459.98ZM542.301 404.619C545.51 404.619 548.27 404.361 550.582 403.843C552.894 403.326 554.791 402.239 556.275 400.583C557.759 398.927 558.863 396.546 559.588 393.441C560.278 390.301 560.623 386.143 560.623 380.967V348.826L566.886 348.826V382.262C566.886 387.955 566.437 392.665 565.54 396.391C564.608 400.083 563.194 403.033 561.296 405.242C559.363 407.415 556.931 408.933 553.998 409.796C551.065 410.658 547.58 411.089 543.543 411.089L495.77 411.085V404.615L542.301 404.619ZM542.301 310.283C545.51 310.283 548.27 310.025 550.582 309.507C552.894 308.99 554.791 307.903 556.275 306.247C557.759 304.591 558.863 302.21 559.588 299.105C560.278 295.965 560.623 291.807 560.623 286.631L560.623 254.49L566.886 254.49L566.886 287.926C566.886 293.619 566.437 298.329 565.54 302.056C564.608 305.748 563.194 308.698 561.296 310.906C559.363 313.079 556.931 314.597 553.998 315.46C551.065 316.322 547.58 316.753 543.543 316.753L495.77 316.749V310.279L542.301 310.283Z" fill="url(#paint2_linear_578_22)"/>
<path d="M83.5526 744H73.8739L38.2555 672.885H45.5016L78.8874 739.549L112.062 672.885H119.257L83.5526 744ZM220.601 708.494C220.611 714.878 219.464 720.398 217.159 725.057C214.855 729.68 211.686 733.51 207.654 736.547C203.622 739.549 198.863 741.774 193.379 743.224C187.895 744.673 181.979 745.397 175.63 745.397C169.246 745.397 163.293 744.673 157.77 743.224C152.247 741.774 147.447 739.549 143.371 736.547C139.294 733.51 136.097 729.68 133.777 725.057C131.458 720.398 130.294 714.878 130.283 708.494C130.277 704.25 130.805 700.403 131.87 696.952C132.934 693.467 134.43 690.362 136.358 687.636C138.286 684.875 140.611 682.494 143.334 680.493C146.091 678.492 149.142 676.836 152.487 675.524C155.867 674.179 159.488 673.195 163.352 672.574C167.215 671.919 171.269 671.591 175.513 671.591C181.862 671.591 187.781 672.315 193.27 673.765C198.758 675.214 203.523 677.457 207.565 680.493C211.607 683.495 214.788 687.325 217.107 691.983C219.426 696.607 220.591 702.111 220.601 708.494ZM213.924 708.494C213.916 703.456 213.081 699.005 211.419 695.141C209.791 691.276 207.37 688.033 204.157 685.41C200.944 682.753 196.938 680.752 192.14 679.406C187.376 678.026 181.837 677.336 175.522 677.336C169.208 677.336 163.636 678.026 158.808 679.406C154.014 680.786 149.997 682.805 146.758 685.462C143.518 688.084 141.074 691.345 139.424 695.244C137.773 699.109 136.952 703.525 136.96 708.494C136.968 713.532 137.803 717.983 139.466 721.848C141.128 725.712 143.583 728.973 146.831 731.63C150.078 734.252 154.101 736.253 158.9 737.634C163.733 738.979 169.306 739.652 175.621 739.652C181.935 739.652 187.472 738.979 192.232 737.634C197.026 736.253 201.025 734.252 204.23 731.63C207.435 728.973 209.845 725.712 211.461 721.848C213.111 717.983 213.932 713.532 213.924 708.494ZM248.203 719.415C248.208 722.624 248.471 725.384 248.992 727.696C249.514 730.008 250.604 731.906 252.262 733.39C253.921 734.873 256.303 735.977 259.41 736.702C262.551 737.392 266.709 737.737 271.885 737.737H304.027L304.037 744H270.601C264.908 744 260.197 743.551 256.469 742.654C252.776 741.723 249.823 740.308 247.612 738.41C245.435 736.478 243.913 734.045 243.046 731.112C242.178 728.179 241.742 724.694 241.735 720.657L241.66 672.885H248.129L248.203 719.415ZM325.579 719.415C325.584 722.624 325.847 725.384 326.368 727.696C326.889 730.008 327.979 731.906 329.638 733.39C331.297 734.873 333.679 735.977 336.786 736.702C339.927 737.392 344.085 737.737 349.261 737.737H381.403L381.413 744H347.977C342.284 744 337.573 743.551 333.845 742.654C330.151 741.723 327.199 740.308 324.988 738.41C322.811 736.478 321.289 734.045 320.421 731.112C319.554 728.179 319.117 724.694 319.111 720.657L319.035 672.885H325.505L325.579 719.415ZM468.202 740.273C465.305 741.17 462.615 741.947 460.132 742.602C457.649 743.224 455.199 743.724 452.785 744.103C450.37 744.517 447.903 744.811 445.385 744.983C442.901 745.19 440.158 745.294 437.156 745.294C430.186 745.294 423.887 744.448 418.26 742.758C412.633 741.067 407.833 738.652 403.86 735.512C399.921 732.337 396.879 728.507 394.732 724.021C392.586 719.536 391.508 714.498 391.5 708.908C391.491 703.491 392.501 698.522 394.53 694.002C396.593 689.482 399.468 685.6 403.155 682.356C406.842 679.113 411.254 676.594 416.393 674.8C421.531 673.006 427.206 672.108 433.417 672.108C439.869 672.108 445.616 672.971 450.656 674.696C455.697 676.422 459.945 678.889 463.401 682.098C466.856 685.307 469.485 689.206 471.286 693.795C473.088 698.35 473.993 703.491 474.002 709.219L474.005 710.823H398.179C398.566 715.24 399.676 719.225 401.511 722.779C403.345 726.333 405.938 729.352 409.289 731.837C412.674 734.321 416.818 736.236 421.72 737.582C426.656 738.893 432.402 739.549 438.958 739.549C441.753 739.549 444.582 739.359 447.446 738.979C450.309 738.6 453.051 738.1 455.673 737.478C458.294 736.823 460.691 736.098 462.864 735.305C465.036 734.476 466.812 733.631 468.191 732.768L468.202 740.273ZM467.629 705.182C467.382 701.559 466.566 698.108 465.18 694.83C463.795 691.518 461.72 688.602 458.956 686.083C456.226 683.564 452.738 681.563 448.491 680.079C444.279 678.595 439.223 677.853 433.323 677.853C427.767 677.853 422.903 678.595 418.73 680.079C414.558 681.563 411.024 683.564 408.129 686.083C405.235 688.567 402.962 691.466 401.311 694.778C399.66 698.056 398.613 701.524 398.17 705.182H467.629ZM567.695 718.018C567.703 722.676 566.622 726.713 564.454 730.129C562.285 733.51 559.288 736.322 555.461 738.565C551.669 740.808 547.169 742.482 541.961 743.586C536.786 744.655 531.18 745.19 525.142 745.19C518.586 745.19 512.564 744.776 507.076 743.948C501.589 743.086 496.791 741.895 492.682 740.377L492.67 732.872C494.88 733.804 497.159 734.666 499.506 735.46C501.854 736.253 504.357 736.961 507.015 737.582C509.672 738.169 512.503 738.634 515.505 738.979C518.542 739.29 521.82 739.445 525.34 739.445C530.308 739.445 534.966 738.979 539.312 738.048C543.658 737.082 547.434 735.701 550.641 733.907C553.881 732.078 556.431 729.836 558.29 727.179C560.184 724.522 561.128 721.468 561.122 718.018L561.101 704.56C559.448 706.803 557.416 708.96 555.004 711.03C552.626 713.066 549.955 714.878 546.99 716.465C544.059 718.018 540.87 719.277 537.421 720.243C533.972 721.175 530.332 721.641 526.502 721.641C522.154 721.641 518.289 721.244 514.906 720.45C511.558 719.622 508.623 718.501 506.102 717.086C503.616 715.671 501.508 713.998 499.78 712.065C498.051 710.099 496.651 707.976 495.577 705.699C494.539 703.387 493.776 700.972 493.289 698.453C492.836 695.934 492.608 693.381 492.604 690.793L492.575 672.885H499.149L499.175 689.395C499.181 693.364 499.652 696.969 500.589 700.213C501.56 703.456 503.135 706.234 505.312 708.546C507.49 710.858 510.339 712.652 513.861 713.929C517.417 715.171 521.8 715.792 527.01 715.792C531.047 715.792 534.756 715.257 538.136 714.187C541.515 713.083 544.601 711.617 547.393 709.788C550.185 707.925 552.718 705.785 554.992 703.37C557.265 700.955 559.297 698.419 561.087 695.762L561.051 672.885H567.624L567.695 718.018Z" fill="url(#paint3_linear_578_22)"/>
<path d="M83.8184 744H74.1397L38.5213 672.885H45.7674L79.1531 739.549L112.328 672.885H119.522L83.8184 744ZM220.867 708.494C220.877 714.878 219.73 720.398 217.425 725.057C215.12 729.68 211.952 733.51 207.92 736.547C203.887 739.549 199.129 741.774 193.645 743.224C188.161 744.673 182.245 745.397 175.896 745.397C169.512 745.397 163.559 744.673 158.036 743.224C152.513 741.774 147.713 739.549 143.637 736.547C139.56 733.51 136.362 729.68 134.043 725.057C131.724 720.398 130.559 714.878 130.549 708.494C130.543 704.25 131.071 700.403 132.135 696.952C133.2 693.467 134.696 690.362 136.624 687.636C138.552 684.875 140.877 682.494 143.6 680.493C146.357 678.492 149.408 676.836 152.753 675.524C156.132 674.179 159.754 673.195 163.617 672.574C167.481 671.919 171.535 671.591 175.779 671.591C182.128 671.591 188.047 672.315 193.535 673.765C199.024 675.214 203.789 677.457 207.831 680.493C211.873 683.495 215.053 687.325 217.373 691.983C219.692 696.607 220.857 702.111 220.867 708.494ZM214.19 708.494C214.182 703.456 213.347 699.005 211.684 695.141C210.056 691.276 207.636 688.033 204.423 685.41C201.21 682.753 197.204 680.752 192.406 679.406C187.642 678.026 182.102 677.336 175.788 677.336C169.474 677.336 163.902 678.026 159.074 679.406C154.279 680.786 150.263 682.805 147.024 685.462C143.784 688.084 141.339 691.345 139.689 695.244C138.039 699.109 137.218 703.525 137.226 708.494C137.234 713.532 138.069 717.983 139.731 721.848C141.394 725.712 143.849 728.973 147.097 731.63C150.344 734.252 154.367 736.253 159.166 737.634C163.998 738.979 169.572 739.652 175.887 739.652C182.201 739.652 187.738 738.979 192.498 737.634C197.292 736.253 201.291 734.252 204.496 731.63C207.701 728.973 210.111 725.712 211.727 721.848C213.377 717.983 214.198 713.532 214.19 708.494ZM248.469 719.415C248.474 722.624 248.737 725.384 249.258 727.696C249.779 730.008 250.869 731.906 252.528 733.39C254.187 734.873 256.569 735.977 259.676 736.702C262.817 737.392 266.975 737.737 272.151 737.737H304.293L304.303 744H270.867C265.174 744 260.463 743.551 256.735 742.654C253.041 741.723 250.089 740.308 247.878 738.41C245.701 736.478 244.179 734.045 243.311 731.112C242.444 728.179 242.007 724.694 242.001 720.657L241.925 672.885H248.395L248.469 719.415ZM325.845 719.415C325.85 722.624 326.113 725.384 326.634 727.696C327.155 730.008 328.245 731.906 329.904 733.39C331.562 734.873 333.945 735.977 337.052 736.702C340.193 737.392 344.351 737.737 349.527 737.737H381.668L381.678 744H348.243C342.549 744 337.839 743.551 334.111 742.654C330.417 741.723 327.465 740.308 325.254 738.41C323.077 736.478 321.555 734.045 320.687 731.112C319.82 728.179 319.383 724.694 319.377 720.657L319.301 672.885H325.771L325.845 719.415ZM468.468 740.273C465.571 741.17 462.881 741.947 460.398 742.602C457.914 743.224 455.465 743.724 453.051 744.103C450.636 744.517 448.169 744.811 445.651 744.983C443.166 745.19 440.423 745.294 437.422 745.294C430.451 745.294 424.153 744.448 418.526 742.758C412.899 741.067 408.099 738.652 404.126 735.512C400.187 732.337 397.145 728.507 394.998 724.021C392.852 719.536 391.774 714.498 391.765 708.908C391.757 703.491 392.767 698.522 394.795 694.002C396.859 689.482 399.734 685.6 403.421 682.356C407.108 679.113 411.52 676.594 416.659 674.8C421.797 673.006 427.472 672.108 433.683 672.108C440.135 672.108 445.882 672.971 450.922 674.696C455.963 676.422 460.211 678.889 463.666 682.098C467.122 685.307 469.75 689.206 471.552 693.795C473.353 698.35 474.259 703.491 474.268 709.219L474.27 710.823H398.445C398.832 715.24 399.942 719.225 401.777 722.779C403.611 726.333 406.204 729.352 409.555 731.837C412.94 734.321 417.084 736.236 421.986 737.582C426.922 738.893 432.668 739.549 439.224 739.549C442.019 739.549 444.848 739.359 447.711 738.979C450.575 738.6 453.317 738.1 455.938 737.478C458.56 736.823 460.957 736.098 463.129 735.305C465.302 734.476 467.078 733.631 468.456 732.768L468.468 740.273ZM467.895 705.182C467.648 701.559 466.832 698.108 465.446 694.83C464.061 691.518 461.986 688.602 459.221 686.083C456.492 683.564 453.003 681.563 448.757 680.079C444.545 678.595 439.489 677.853 433.588 677.853C428.033 677.853 423.169 678.595 418.996 680.079C414.823 681.563 411.29 683.564 408.395 686.083C405.501 688.567 403.228 691.466 401.577 694.778C399.926 698.056 398.879 701.524 398.436 705.182H467.895ZM567.961 718.018C567.969 722.676 566.888 726.713 564.72 730.129C562.551 733.51 559.554 736.322 555.727 738.565C551.935 740.808 547.435 742.482 542.226 743.586C537.052 744.655 531.446 745.19 525.408 745.19C518.852 745.19 512.83 744.776 507.342 743.948C501.854 743.086 497.056 741.895 492.948 740.377L492.936 732.872C495.146 733.804 497.424 734.666 499.772 735.46C502.12 736.253 504.622 736.961 507.28 737.582C509.938 738.169 512.768 738.634 515.771 738.979C518.808 739.29 522.086 739.445 525.606 739.445C530.574 739.445 535.232 738.979 539.578 738.048C543.924 737.082 547.7 735.701 550.906 733.907C554.147 732.078 556.697 729.836 558.556 727.179C560.449 724.522 561.393 721.468 561.388 718.018L561.367 704.56C559.714 706.803 557.682 708.96 555.27 711.03C552.892 713.066 550.221 714.878 547.256 716.465C544.325 718.018 541.135 719.277 537.686 720.243C534.237 721.175 530.598 721.641 526.768 721.641C522.42 721.641 518.555 721.244 515.172 720.45C511.824 719.622 508.889 718.501 506.368 717.086C503.881 715.671 501.774 713.998 500.046 712.065C498.317 710.099 496.916 707.976 495.843 705.699C494.804 703.387 494.041 700.972 493.554 698.453C493.102 695.934 492.873 693.381 492.869 690.793L492.841 672.885H499.414L499.44 689.395C499.447 693.364 499.918 696.969 500.855 700.213C501.826 703.456 503.401 706.234 505.578 708.546C507.756 710.858 510.605 712.652 514.127 713.929C517.683 715.171 522.066 715.792 527.276 715.792C531.313 715.792 535.022 715.257 538.402 714.187C541.781 713.083 544.867 711.617 547.659 709.788C550.451 707.925 552.984 705.785 555.257 703.37C557.531 700.955 559.563 698.419 561.353 695.762L561.317 672.885H567.89L567.961 718.018Z" fill="url(#paint4_linear_578_22)"/>
<path d="M113 677C115.394 681.776 116 639.5 210.5 610C305 580.501 275 581 340.504 513.939" stroke="url(#paint5_linear_578_22)" stroke-width="7"/>
<path d="M120.622 126.851C120.645 126.852 120.668 126.853 120.69 126.854C121.276 121.028 117.623 117.562 118.681 113.268C120.994 103.875 138.272 97.1664 145.305 101.192C145.656 103.474 147.756 104.606 149.025 105.06C150.073 105.433 150.555 105.345 149.025 105.06C147.898 104.849 145.679 104.531 141.789 104.211C134.42 103.605 123.764 104.233 123.704 109.243C118.681 126.819 127.107 121.22 127.004 124.841C126.881 129.151 126.199 131.918 123.704 131.382C121.369 130.881 121.28 128.666 120.622 126.851C102.747 126.036 96.2038 139.742 82.7258 148.382C81.8868 149.291 80.9977 149.872 80 150C80.9413 149.486 81.8483 148.945 82.7258 148.382C88.6674 141.948 92.0878 119.109 113.657 124.841C118.656 123.528 119.943 124.975 120.622 126.851Z" fill="black"/>
<path d="M118.681 113.268C120.994 103.875 138.272 97.1664 145.305 101.192C146.158 106.743 157.361 105.491 141.789 104.211C134.42 103.605 123.764 104.233 123.704 109.243M118.681 113.268C117.623 117.562 121.276 121.028 120.69 126.854C101.598 125.946 95.418 141.578 80 150C88.0634 148.967 89.0423 118.3 113.657 124.841C123.494 122.257 118.956 130.363 123.704 131.382C126.199 131.918 126.881 129.151 127.004 124.841C127.107 121.22 118.681 126.819 123.704 109.243M118.681 113.268L123.704 109.243" stroke="black"/>
<path d="M129.016 76.1104C129.032 76.111 129.048 76.1117 129.064 76.1123C129.483 72.6171 126.874 70.5371 127.629 67.9609C129.281 62.3248 141.623 58.2999 146.647 60.7151C146.897 62.0843 148.397 62.7637 149.304 63.0357C150.052 63.2601 150.396 63.2073 149.304 63.0357C148.499 62.9093 146.914 62.7185 144.135 62.5265C138.871 62.163 131.26 62.5396 131.217 65.5456C127.629 76.0914 133.648 72.7322 133.574 74.9047C133.487 77.4903 133 79.151 131.217 78.8295C129.549 78.5286 129.486 77.1993 129.016 76.1104C116.248 75.6218 111.574 83.8452 101.947 89.0293C101.348 89.5744 100.713 89.9233 100 90C100.672 89.6915 101.32 89.3668 101.947 89.0293C106.191 85.1687 108.634 71.4655 124.041 74.9047C127.612 74.1168 128.531 74.9853 129.016 76.1104Z" fill="black"/>
<path d="M127.629 67.9609C129.281 62.3248 141.623 58.2999 146.647 60.7151C147.255 64.0456 155.258 63.2949 144.135 62.5265C138.871 62.163 131.26 62.5396 131.217 65.5456M127.629 67.9609C126.874 70.5371 129.483 72.6171 129.064 76.1123C115.427 75.5678 111.013 84.9469 100 90C105.76 89.3801 106.459 70.9799 124.041 74.9047C131.067 73.3543 127.826 78.2177 131.217 78.8295C133 79.151 133.487 77.4903 133.574 74.9047C133.648 72.7322 127.629 76.0914 131.217 65.5456M127.629 67.9609L131.217 65.5456" stroke="black"/>
<path d="M63.2128 50.7403C63.2257 50.7407 63.2386 50.7411 63.2515 50.7415C63.5865 48.4114 61.4991 47.0247 62.1033 45.3072C63.4251 41.5498 73.2984 38.8666 77.3172 40.4767C77.5175 41.3895 78.7175 41.8425 79.4431 42.0238C80.0415 42.1734 80.3171 42.1382 79.4431 42.0238C78.7991 41.9396 77.5309 41.8123 75.3078 41.6844C71.097 41.442 65.0081 41.6931 64.9738 43.6971C62.1033 50.7276 66.9183 48.4881 66.8595 49.9365C66.7894 51.6602 66.3997 52.7673 64.9738 52.553C63.6394 52.3524 63.5886 51.4662 63.2128 50.7403C52.9985 50.4145 49.2593 55.8968 41.5576 59.3529C41.0782 59.7163 40.5701 59.9489 40 60C40.5379 59.7943 41.0561 59.5779 41.5576 59.3529C44.9528 56.7791 46.9073 47.6437 59.2327 49.9365C62.0894 49.4112 62.8245 49.9902 63.2128 50.7403Z" fill="black"/>
<path d="M62.1033 45.3072C63.4251 41.5498 73.2984 38.8666 77.3172 40.4767C77.8044 42.697 84.2066 42.1966 75.3078 41.6844C71.097 41.442 65.0081 41.6931 64.9738 43.6971M62.1033 45.3072C61.4991 47.0247 63.5865 48.4114 63.2515 50.7415C52.3418 50.3785 48.8103 56.6313 40 60C44.6076 59.5867 45.167 47.3199 59.2327 49.9365C64.854 48.9029 62.2606 52.1452 64.9738 52.553C66.3997 52.7673 66.7894 51.6602 66.8595 49.9365C66.9183 48.4881 62.1033 50.7276 64.9738 43.6971M62.1033 45.3072L64.9738 43.6971" stroke="black"/>
</g>
<defs>
<filter id="filter0_d_578_22" x="129.494" y="92.1298" width="367.883" height="491.817" filterUnits="userSpaceOnUse" color-interpolation-filters="sRGB">
<feFlood flood-opacity="0" result="BackgroundImageFix"/>
<feColorMatrix in="SourceAlpha" type="matrix" values="0 0 0 0 0 0 0 0 0 0 0 0 0 0 0 0 0 0 127 0" result="hardAlpha"/>
<feOffset dx="-15" dy="15"/>
<feGaussianBlur stdDeviation="0.5"/>
<feComposite in2="hardAlpha" operator="out"/>
<feColorMatrix type="matrix" values="0 0 0 0 0.172549 0 0 0 0 0.811765 0 0 0 0 0.854902 0 0 0 0.25 0"/>
<feBlend mode="normal" in2="BackgroundImageFix" result="effect1_dropShadow_578_22"/>
<feBlend mode="normal" in="SourceGraphic" in2="effect1_dropShadow_578_22" result="shape"/>
</filter>
<linearGradient id="paint0_linear_578_22" x1="297.5" y1="201.5" x2="128.455" y2="499.516" gradientUnits="userSpaceOnUse">
<stop offset="0.0260417" stop-color="#2CCFDA"/>
<stop offset="0.25" stop-color="#2CCFDA"/>
<stop offset="0.612149" stop-color="#FFC701" stop-opacity="0.7"/>
<stop offset="0.958333" stop-color="#FF7B01" stop-opacity="0.91"/>
</linearGradient>
<linearGradient id="paint1_linear_578_22" x1="624.449" y1="179.986" x2="560.81" y2="243.775" gradientUnits="userSpaceOnUse">
<stop stop-color="white"/>
<stop offset="0.107238" stop-color="#2FDA2C"/>
<stop offset="0.489583" stop-color="#FF7B01" stop-opacity="0.91"/>
<stop offset="0.703125" stop-color="#FF2F01" stop-opacity="0.7"/>
<stop offset="1" stop-opacity="0.7"/>
</linearGradient>
<linearGradient id="paint2_linear_578_22" x1="537.417" y1="648.785" x2="537.45" y2="254.405" gradientUnits="userSpaceOnUse">
<stop offset="0.0208333"/>
<stop offset="0.140625" stop-color="#2FDA2C"/>
<stop offset="0.444591" stop-color="#FF7B01" stop-opacity="0.91"/>
<stop offset="0.838542" stop-color="#FF2F01" stop-opacity="0.7"/>
<stop offset="1" stop-opacity="0.7"/>
</linearGradient>
<linearGradient id="paint3_linear_578_22" x1="35.0864" y1="714.592" x2="572.427" y2="713.743" gradientUnits="userSpaceOnUse">
<stop offset="0.102217" stop-color="#FF2F01" stop-opacity="0.7"/>
<stop offset="0.430687" stop-color="#FF7B01" stop-opacity="0.91"/>
<stop offset="0.701804" stop-color="#2FDA2C"/>
</linearGradient>
<linearGradient id="paint4_linear_578_22" x1="0.0785046" y1="709.63" x2="606.959" y2="708.67" gradientUnits="userSpaceOnUse">
<stop offset="0.102217" stop-opacity="0.7"/>
<stop offset="0.430687" stop-color="#FF7B01" stop-opacity="0.91"/>
<stop offset="0.770833" stop-color="#2FDA2C"/>
<stop offset="0.994792"/>
</linearGradient>
<linearGradient id="paint5_linear_578_22" x1="124.643" y1="582.946" x2="328.833" y2="608.222" gradientUnits="userSpaceOnUse">
<stop stop-color="#4D2118"/>
<stop offset="0.151042" stop-color="#FF7B01" stop-opacity="0.91"/>
<stop offset="0.708333" stop-color="#4D2118" stop-opacity="0"/>
</linearGradient>
<clipPath id="clip0_578_22">
<rect width="640" height="760" fill="white"/>
</clipPath>
</defs>
</svg>
