<svg width="640" height="760" viewBox="0 0 640 760" fill="none" xmlns="http://www.w3.org/2000/svg">
<g clip-path="url(#clip0_579_23)">
<rect width="640" height="760" fill="white"/>
<g clip-path="url(#clip1_579_23)">
<path d="M607.251 661.007C307 735.5 191.5 620 65 761" stroke="url(#paint0_linear_579_23)" stroke-width="5"/>
<path d="M197.354 554V508.304H226.218V516.304H207.018V525.84H210.858C215.167 525.84 218.687 526.437 221.418 527.632C224.191 528.827 226.239 530.469 227.562 532.56C228.884 534.651 229.546 537.04 229.546 539.728C229.546 544.251 228.031 547.771 225.002 550.288C222.015 552.763 217.236 554 210.666 554H197.354ZM210.282 546.064C213.226 546.064 215.53 545.595 217.194 544.656C218.9 543.717 219.754 542.075 219.754 539.728C219.754 537.296 218.836 535.696 217.002 534.928C215.167 534.16 212.671 533.776 209.514 533.776H207.018V546.064H210.282ZM269.142 536.464C269.142 542.267 267.606 546.747 264.534 549.904C261.505 553.061 257.366 554.64 252.118 554.64C248.876 554.64 245.974 553.936 243.414 552.528C240.897 551.12 238.913 549.072 237.462 546.384C236.012 543.653 235.286 540.347 235.286 536.464C235.286 530.661 236.801 526.203 239.83 523.088C242.86 519.973 247.02 518.416 252.31 518.416C255.596 518.416 258.497 519.12 261.014 520.528C263.532 521.936 265.516 523.984 266.966 526.672C268.417 529.317 269.142 532.581 269.142 536.464ZM245.014 536.464C245.014 539.92 245.569 542.544 246.678 544.336C247.83 546.085 249.686 546.96 252.246 546.96C254.764 546.96 256.577 546.085 257.686 544.336C258.838 542.544 259.414 539.92 259.414 536.464C259.414 533.008 258.838 530.427 257.686 528.72C256.577 526.971 254.742 526.096 252.182 526.096C249.665 526.096 247.83 526.971 246.678 528.72C245.569 530.427 245.014 533.008 245.014 536.464ZM308.319 554H298.783V526.224H290.015C289.461 533.051 288.714 538.555 287.775 542.736C286.879 546.875 285.621 549.904 283.999 551.824C282.378 553.701 280.202 554.64 277.471 554.64C275.253 554.64 273.439 554.299 272.031 553.616V546C273.013 546.427 274.037 546.64 275.103 546.64C275.871 546.64 276.575 546.256 277.215 545.488C277.855 544.72 278.453 543.333 279.007 541.328C279.605 539.323 280.138 536.528 280.607 532.944C281.077 529.317 281.503 524.688 281.887 519.056H308.319V554ZM334.529 532.56C339.905 532.56 343.873 533.413 346.433 535.12C349.036 536.827 350.337 539.408 350.337 542.864C350.337 546.235 349.143 548.944 346.753 550.992C344.364 552.997 340.417 554 334.913 554H318.273V519.056H327.809V532.56H334.529ZM340.801 542.992C340.801 540.432 338.647 539.152 334.337 539.152H327.809V547.408H334.465C336.343 547.408 337.857 547.067 339.009 546.384C340.204 545.701 340.801 544.571 340.801 542.992ZM409.618 519.056V554H357.586V519.056H367.122V546.832H378.834V519.056H388.37V546.832H400.082V519.056H409.618ZM433.986 518.416C438.807 518.416 442.626 519.803 445.442 522.576C448.258 525.307 449.666 529.211 449.666 534.288V538.896H427.138C427.223 541.584 428.012 543.696 429.506 545.232C431.042 546.768 433.154 547.536 435.842 547.536C438.103 547.536 440.151 547.323 441.986 546.896C443.82 546.427 445.719 545.723 447.682 544.784V552.144C445.975 552.997 444.162 553.616 442.242 554C440.364 554.427 438.082 554.64 435.394 554.64C431.895 554.64 428.802 554 426.114 552.72C423.426 551.397 421.314 549.413 419.778 546.768C418.242 544.123 417.474 540.795 417.474 536.784C417.474 532.688 418.156 529.296 419.522 526.608C420.93 523.877 422.871 521.829 425.346 520.464C427.82 519.099 430.7 518.416 433.986 518.416ZM434.05 525.2C432.215 525.2 430.679 525.797 429.442 526.992C428.247 528.187 427.543 530.043 427.33 532.56H440.706C440.663 530.427 440.108 528.677 439.042 527.312C437.975 525.904 436.311 525.2 434.05 525.2ZM51.9698 598.856C51.9698 601.885 53.3778 603.4 56.1938 603.4C58.0284 603.4 59.7351 603.208 61.3138 602.824C62.8924 602.397 64.4711 601.843 66.0498 601.16V586.056H75.5858V621H66.0498V607.112C64.5564 607.923 62.8498 608.669 60.9298 609.352C59.0098 609.992 56.8338 610.312 54.4018 610.312C50.7751 610.312 47.8738 609.373 45.6978 607.496C43.5218 605.619 42.4338 602.803 42.4338 599.048V586.056H51.9698V598.856ZM99.9858 585.416C104.807 585.416 108.626 586.803 111.442 589.576C114.258 592.307 115.666 596.211 115.666 601.288V605.896H93.1378C93.2231 608.584 94.0124 610.696 95.5058 612.232C97.0418 613.768 99.1538 614.536 101.842 614.536C104.103 614.536 106.151 614.323 107.986 613.896C109.82 613.427 111.719 612.723 113.682 611.784V619.144C111.975 619.997 110.162 620.616 108.242 621C106.364 621.427 104.082 621.64 101.394 621.64C97.8951 621.64 94.8018 621 92.1138 619.72C89.4258 618.397 87.3138 616.413 85.7778 613.768C84.2418 611.123 83.4738 607.795 83.4738 603.784C83.4738 599.688 84.1564 596.296 85.5218 593.608C86.9298 590.877 88.8711 588.829 91.3458 587.464C93.8204 586.099 96.7004 585.416 99.9858 585.416ZM100.05 592.2C98.2151 592.2 96.6791 592.797 95.4418 593.992C94.2471 595.187 93.5431 597.043 93.3298 599.56H106.706C106.663 597.427 106.108 595.677 105.042 594.312C103.975 592.904 102.311 592.2 100.05 592.2ZM167.43 586.056V621H158.534V603.848C158.534 602.141 158.556 600.477 158.598 598.856C158.684 597.235 158.79 595.741 158.918 594.376H158.726L149.062 621H141.894L132.102 594.312H131.846C132.017 595.72 132.124 597.235 132.166 598.856C132.252 600.435 132.294 602.184 132.294 604.104V621H123.398V586.056H136.902L145.606 609.736L154.438 586.056H167.43ZM233.205 586.056V621H223.669V593.224H210.997V621H201.461V586.056H233.205ZM262.667 585.416C266.592 585.416 269.771 586.952 272.203 590.024C274.635 593.053 275.851 597.533 275.851 603.464C275.851 609.395 274.592 613.917 272.075 617.032C269.557 620.104 266.336 621.64 262.411 621.64C259.893 621.64 257.888 621.192 256.395 620.296C254.901 619.357 253.685 618.312 252.747 617.16H252.235C252.576 618.952 252.747 620.659 252.747 622.28V636.36H243.211V586.056H250.955L252.299 590.6H252.747C253.685 589.192 254.944 587.976 256.523 586.952C258.101 585.928 260.149 585.416 262.667 585.416ZM259.595 593.032C257.12 593.032 255.371 593.8 254.347 595.336C253.365 596.872 252.832 599.219 252.747 602.376V603.4C252.747 606.771 253.237 609.373 254.219 611.208C255.243 613 257.077 613.896 259.723 613.896C261.899 613.896 263.499 613 264.523 611.208C265.589 609.373 266.123 606.749 266.123 603.336C266.123 596.467 263.947 593.032 259.595 593.032ZM315.455 603.464C315.455 609.267 313.919 613.747 310.847 616.904C307.817 620.061 303.679 621.64 298.431 621.64C295.188 621.64 292.287 620.936 289.727 619.528C287.209 618.12 285.225 616.072 283.775 613.384C282.324 610.653 281.599 607.347 281.599 603.464C281.599 597.661 283.113 593.203 286.143 590.088C289.172 586.973 293.332 585.416 298.623 585.416C301.908 585.416 304.809 586.12 307.327 587.528C309.844 588.936 311.828 590.984 313.279 593.672C314.729 596.317 315.455 599.581 315.455 603.464ZM291.327 603.464C291.327 606.92 291.881 609.544 292.991 611.336C294.143 613.085 295.999 613.96 298.559 613.96C301.076 613.96 302.889 613.085 303.999 611.336C305.151 609.544 305.727 606.92 305.727 603.464C305.727 600.008 305.151 597.427 303.999 595.72C302.889 593.971 301.055 593.096 298.495 593.096C295.977 593.096 294.143 593.971 292.991 595.72C291.881 597.427 291.327 600.008 291.327 603.464ZM337.544 621.64C332.338 621.64 328.306 620.211 325.448 617.352C322.632 614.451 321.224 609.907 321.224 603.72C321.224 599.453 321.949 595.976 323.4 593.288C324.85 590.6 326.856 588.616 329.416 587.336C332.018 586.056 335.005 585.416 338.376 585.416C340.765 585.416 342.834 585.651 344.584 586.12C346.376 586.589 347.933 587.144 349.256 587.784L346.44 595.144C344.946 594.547 343.538 594.056 342.216 593.672C340.936 593.288 339.656 593.096 338.376 593.096C333.426 593.096 330.952 596.616 330.952 603.656C330.952 607.155 331.592 609.736 332.872 611.4C334.194 613.064 336.029 613.896 338.376 613.896C340.381 613.896 342.152 613.64 343.688 613.128C345.224 612.573 346.717 611.827 348.168 610.888V619.016C346.717 619.955 345.181 620.616 343.56 621C341.981 621.427 339.976 621.64 337.544 621.64ZM385.139 593.224H373.683V621H364.147V593.224H352.691V586.056H385.139V593.224ZM422.705 603.464C422.705 609.267 421.169 613.747 418.097 616.904C415.067 620.061 410.929 621.64 405.681 621.64C402.438 621.64 399.537 620.936 396.977 619.528C394.459 618.12 392.475 616.072 391.025 613.384C389.574 610.653 388.849 607.347 388.849 603.464C388.849 597.661 390.363 593.203 393.393 590.088C396.422 586.973 400.582 585.416 405.873 585.416C409.158 585.416 412.059 586.12 414.577 587.528C417.094 588.936 419.078 590.984 420.529 593.672C421.979 596.317 422.705 599.581 422.705 603.464ZM398.577 603.464C398.577 606.92 399.131 609.544 400.241 611.336C401.393 613.085 403.249 613.96 405.809 613.96C408.326 613.96 410.139 613.085 411.249 611.336C412.401 609.544 412.977 606.92 412.977 603.464C412.977 600.008 412.401 597.427 411.249 595.72C410.139 593.971 408.305 593.096 405.745 593.096C403.227 593.096 401.393 593.971 400.241 595.72C399.131 597.427 398.577 600.008 398.577 603.464ZM463.864 599.88C463.864 600.605 463.822 601.501 463.736 602.568C463.694 603.635 463.63 604.723 463.544 605.832C463.502 606.941 463.438 607.923 463.352 608.776C463.267 609.629 463.203 610.227 463.16 610.568L479.288 586.056H490.744V621H481.528V607.048C481.528 605.896 481.571 604.637 481.656 603.272C481.742 601.864 481.827 600.563 481.912 599.368C482.04 598.131 482.126 597.192 482.168 596.552L466.104 621H454.648V586.056H463.864V599.88ZM524.839 586.056V593.224H510.247V621H500.711V586.056H524.839ZM550.729 585.416C554.655 585.416 557.833 586.952 560.265 590.024C562.697 593.053 563.913 597.533 563.913 603.464C563.913 609.395 562.655 613.917 560.137 617.032C557.62 620.104 554.399 621.64 550.473 621.64C547.956 621.64 545.951 621.192 544.457 620.296C542.964 619.357 541.748 618.312 540.809 617.16H540.297C540.639 618.952 540.809 620.659 540.809 622.28V636.36H531.273V586.056H539.017L540.361 590.6H540.809C541.748 589.192 543.007 587.976 544.585 586.952C546.164 585.928 548.212 585.416 550.729 585.416ZM547.657 593.032C545.183 593.032 543.433 593.8 542.409 595.336C541.428 596.872 540.895 599.219 540.809 602.376V603.4C540.809 606.771 541.3 609.373 542.281 611.208C543.305 613 545.14 613.896 547.785 613.896C549.961 613.896 551.561 613 552.585 611.208C553.652 609.373 554.185 606.749 554.185 603.336C554.185 596.467 552.009 593.032 547.657 593.032ZM586.109 585.352C590.803 585.352 594.387 586.376 596.861 588.424C599.379 590.429 600.637 593.523 600.637 597.704V621H593.981L592.125 616.264H591.869C590.376 618.141 588.797 619.507 587.133 620.36C585.469 621.213 583.187 621.64 580.285 621.64C577.171 621.64 574.589 620.744 572.541 618.952C570.493 617.117 569.469 614.323 569.469 610.568C569.469 606.856 570.771 604.125 573.373 602.376C575.976 600.584 579.88 599.603 585.085 599.432L591.165 599.24V597.704C591.165 595.869 590.675 594.525 589.693 593.672C588.755 592.819 587.432 592.392 585.725 592.392C584.019 592.392 582.355 592.648 580.733 593.16C579.112 593.629 577.491 594.227 575.869 594.952L572.733 588.488C574.611 587.507 576.68 586.739 578.941 586.184C581.245 585.629 583.635 585.352 586.109 585.352ZM587.453 604.936C584.381 605.021 582.248 605.576 581.053 606.6C579.859 607.624 579.261 608.968 579.261 610.632C579.261 612.083 579.688 613.128 580.541 613.768C581.395 614.365 582.504 614.664 583.869 614.664C585.917 614.664 587.645 614.067 589.053 612.872C590.461 611.635 591.165 609.907 591.165 607.688V604.808L587.453 604.936Z" fill="url(#paint1_linear_579_23)"/>
</g>
<g clip-path="url(#clip2_579_23)">
<rect width="640" height="380" fill="white"/>
<path d="M113.041 334.977C116.197 334.977 119.127 335.25 121.83 335.797C124.548 336.328 127.041 337.016 129.306 337.859V345.734C128.416 345.234 127.408 344.75 126.283 344.281C125.173 343.812 123.962 343.398 122.65 343.039C121.337 342.68 119.931 342.391 118.431 342.172C116.931 341.953 115.353 341.844 113.697 341.844C111.634 341.844 109.837 341.992 108.306 342.289C106.775 342.586 105.462 342.984 104.369 343.484C103.275 343.984 102.377 344.57 101.673 345.242C100.97 345.898 100.416 346.602 100.009 347.352C99.6031 348.102 99.3219 348.867 99.1656 349.648C99.0094 350.43 98.9312 351.188 98.9312 351.922C98.9312 352.562 98.9937 353.258 99.1187 354.008C99.2594 354.758 99.5094 355.508 99.8687 356.258C100.244 357.008 100.759 357.727 101.416 358.414C102.072 359.102 102.923 359.711 103.97 360.242C105.033 360.773 106.306 361.203 107.791 361.531C109.275 361.844 111.041 362 113.087 362C114.119 362 115.017 361.969 115.783 361.906C116.548 361.844 117.244 361.758 117.869 361.648C118.509 361.539 119.103 361.406 119.65 361.25C120.212 361.094 120.791 360.93 121.384 360.758V356.867H111.634V349.812H130.08V366.266C128.923 366.656 127.627 367.016 126.189 367.344C124.767 367.656 123.291 367.922 121.759 368.141C120.244 368.375 118.72 368.555 117.189 368.68C115.658 368.805 114.212 368.867 112.853 368.867C110.744 368.867 108.72 368.727 106.783 368.445C104.845 368.164 103.033 367.734 101.345 367.156C99.6734 366.562 98.1422 365.812 96.7516 364.906C95.3766 364 94.1969 362.922 93.2125 361.672C92.2437 360.422 91.4859 358.992 90.9391 357.383C90.4078 355.758 90.1422 353.938 90.1422 351.922C90.1422 349.922 90.4234 348.109 90.9859 346.484C91.5484 344.859 92.3297 343.422 93.3297 342.172C94.3453 340.922 95.5562 339.844 96.9625 338.938C98.3844 338.031 99.9391 337.289 101.627 336.711C103.33 336.117 105.142 335.68 107.064 335.398C109.002 335.117 110.994 334.977 113.041 334.977ZM185.927 351.922C185.927 354.688 185.419 357.133 184.403 359.258C183.387 361.367 181.934 363.133 180.044 364.555C178.153 365.977 175.856 367.055 173.153 367.789C170.466 368.508 167.442 368.867 164.083 368.867C160.723 368.867 157.684 368.508 154.966 367.789C152.262 367.055 149.958 365.977 148.052 364.555C146.145 363.133 144.677 361.367 143.645 359.258C142.614 357.133 142.098 354.688 142.098 351.922C142.098 349.156 142.614 346.719 143.645 344.609C144.677 342.484 146.145 340.711 148.052 339.289C149.958 337.867 152.262 336.797 154.966 336.078C157.684 335.344 160.723 334.977 164.083 334.977C167.442 334.977 170.466 335.344 173.153 336.078C175.856 336.797 178.153 337.867 180.044 339.289C181.934 340.711 183.387 342.484 184.403 344.609C185.419 346.719 185.927 349.156 185.927 351.922ZM177.137 351.922C177.137 350.719 176.942 349.523 176.552 348.336C176.177 347.133 175.497 346.055 174.512 345.102C173.544 344.148 172.216 343.375 170.528 342.781C168.841 342.188 166.692 341.891 164.083 341.891C162.333 341.891 160.794 342.031 159.466 342.312C158.137 342.578 156.989 342.953 156.02 343.438C155.052 343.922 154.239 344.492 153.583 345.148C152.927 345.789 152.403 346.484 152.012 347.234C151.622 347.969 151.341 348.742 151.169 349.555C151.012 350.352 150.934 351.141 150.934 351.922C150.934 352.719 151.012 353.523 151.169 354.336C151.341 355.148 151.622 355.93 152.012 356.68C152.403 357.414 152.927 358.102 153.583 358.742C154.239 359.383 155.052 359.945 156.02 360.43C156.989 360.898 158.137 361.273 159.466 361.555C160.794 361.82 162.333 361.953 164.083 361.953C166.692 361.953 168.841 361.656 170.528 361.062C172.216 360.469 173.544 359.695 174.512 358.742C175.497 357.789 176.177 356.719 176.552 355.531C176.942 354.328 177.137 353.125 177.137 351.922ZM240.32 351.922C240.32 354.688 239.812 357.133 238.797 359.258C237.781 361.367 236.328 363.133 234.438 364.555C232.547 365.977 230.25 367.055 227.547 367.789C224.859 368.508 221.836 368.867 218.477 368.867C215.117 368.867 212.078 368.508 209.359 367.789C206.656 367.055 204.352 365.977 202.445 364.555C200.539 363.133 199.07 361.367 198.039 359.258C197.008 357.133 196.492 354.688 196.492 351.922C196.492 349.156 197.008 346.719 198.039 344.609C199.07 342.484 200.539 340.711 202.445 339.289C204.352 337.867 206.656 336.797 209.359 336.078C212.078 335.344 215.117 334.977 218.477 334.977C221.836 334.977 224.859 335.344 227.547 336.078C230.25 336.797 232.547 337.867 234.438 339.289C236.328 340.711 237.781 342.484 238.797 344.609C239.812 346.719 240.32 349.156 240.32 351.922ZM231.531 351.922C231.531 350.719 231.336 349.523 230.945 348.336C230.57 347.133 229.891 346.055 228.906 345.102C227.938 344.148 226.609 343.375 224.922 342.781C223.234 342.188 221.086 341.891 218.477 341.891C216.727 341.891 215.188 342.031 213.859 342.312C212.531 342.578 211.383 342.953 210.414 343.438C209.445 343.922 208.633 344.492 207.977 345.148C207.32 345.789 206.797 346.484 206.406 347.234C206.016 347.969 205.734 348.742 205.562 349.555C205.406 350.352 205.328 351.141 205.328 351.922C205.328 352.719 205.406 353.523 205.562 354.336C205.734 355.148 206.016 355.93 206.406 356.68C206.797 357.414 207.32 358.102 207.977 358.742C208.633 359.383 209.445 359.945 210.414 360.43C211.383 360.898 212.531 361.273 213.859 361.555C215.188 361.82 216.727 361.953 218.477 361.953C221.086 361.953 223.234 361.656 224.922 361.062C226.609 360.469 227.938 359.695 228.906 358.742C229.891 357.789 230.57 356.719 230.945 355.531C231.336 354.328 231.531 353.125 231.531 351.922ZM292.487 351.875C292.487 353.938 292.261 355.773 291.808 357.383C291.355 358.977 290.714 360.367 289.886 361.555C289.073 362.742 288.089 363.75 286.933 364.578C285.792 365.406 284.519 366.07 283.112 366.57C281.706 367.07 280.191 367.438 278.566 367.672C276.941 367.891 275.245 368 273.48 368H253.042V335.797H273.433C275.198 335.797 276.894 335.914 278.519 336.148C280.144 336.367 281.659 336.727 283.066 337.227C284.487 337.727 285.777 338.391 286.933 339.219C288.089 340.031 289.073 341.039 289.886 342.242C290.714 343.43 291.355 344.82 291.808 346.414C292.261 348.008 292.487 349.828 292.487 351.875ZM283.722 351.875C283.722 350.328 283.519 348.984 283.112 347.844C282.722 346.703 282.081 345.766 281.191 345.031C280.316 344.281 279.167 343.727 277.745 343.367C276.323 342.992 274.589 342.805 272.542 342.805H261.737V360.992H272.542C274.589 360.992 276.323 360.812 277.745 360.453C279.167 360.078 280.316 359.516 281.191 358.766C282.081 358 282.722 357.047 283.112 355.906C283.519 354.766 283.722 353.422 283.722 351.875ZM357.752 344.867C357.142 344.57 356.337 344.234 355.337 343.859C354.337 343.484 353.205 343.133 351.939 342.805C350.673 342.461 349.298 342.18 347.814 341.961C346.33 341.727 344.806 341.609 343.244 341.609C341.994 341.609 340.923 341.648 340.033 341.727C339.158 341.805 338.416 341.906 337.806 342.031C337.212 342.156 336.736 342.305 336.377 342.477C336.033 342.633 335.767 342.797 335.58 342.969C335.392 343.141 335.267 343.312 335.205 343.484C335.158 343.656 335.134 343.812 335.134 343.953C335.134 344.422 335.369 344.836 335.837 345.195C336.306 345.539 336.947 345.852 337.759 346.133C338.572 346.398 339.517 346.656 340.595 346.906C341.673 347.141 342.814 347.391 344.017 347.656C345.236 347.906 346.486 348.188 347.767 348.5C349.064 348.797 350.314 349.148 351.517 349.555C352.736 349.961 353.884 350.438 354.962 350.984C356.041 351.516 356.986 352.141 357.798 352.859C358.611 353.578 359.252 354.406 359.72 355.344C360.189 356.281 360.423 357.352 360.423 358.555C360.423 360.102 360.15 361.43 359.603 362.539C359.056 363.648 358.322 364.586 357.4 365.352C356.494 366.117 355.439 366.734 354.236 367.203C353.033 367.656 351.767 368.008 350.439 368.258C349.127 368.508 347.791 368.672 346.431 368.75C345.087 368.828 343.806 368.867 342.587 368.867C339.4 368.867 336.447 368.602 333.728 368.07C331.025 367.555 328.634 366.906 326.556 366.125V358.438C328.697 359.625 331.134 360.555 333.869 361.227C336.619 361.898 339.556 362.234 342.681 362.234C344.525 362.234 346.025 362.141 347.181 361.953C348.353 361.75 349.267 361.5 349.923 361.203C350.58 360.891 351.025 360.555 351.259 360.195C351.494 359.836 351.611 359.492 351.611 359.164C351.611 358.648 351.377 358.203 350.908 357.828C350.439 357.438 349.798 357.102 348.986 356.82C348.173 356.523 347.228 356.258 346.15 356.023C345.072 355.773 343.923 355.531 342.705 355.297C341.502 355.047 340.259 354.781 338.978 354.5C337.697 354.219 336.447 353.891 335.228 353.516C334.025 353.125 332.884 352.68 331.806 352.18C330.728 351.664 329.783 351.062 328.97 350.375C328.158 349.672 327.517 348.867 327.048 347.961C326.58 347.039 326.345 345.977 326.345 344.773C326.345 343.352 326.595 342.125 327.095 341.094C327.595 340.062 328.267 339.188 329.111 338.469C329.97 337.734 330.955 337.141 332.064 336.688C333.189 336.234 334.369 335.883 335.603 335.633C336.837 335.383 338.087 335.211 339.353 335.117C340.619 335.023 341.822 334.977 342.962 334.977C344.212 334.977 345.494 335.039 346.806 335.164C348.134 335.289 349.439 335.469 350.72 335.703C352.002 335.922 353.236 336.18 354.423 336.477C355.627 336.773 356.736 337.086 357.752 337.414V344.867ZM409.38 366.406C406.739 367.281 404.098 367.906 401.458 368.281C398.833 368.672 396.145 368.867 393.395 368.867C389.88 368.867 386.747 368.492 383.997 367.742C381.262 366.977 378.958 365.875 377.083 364.438C375.208 363 373.778 361.242 372.794 359.164C371.809 357.086 371.317 354.734 371.317 352.109C371.317 349.672 371.809 347.414 372.794 345.336C373.794 343.242 375.2 341.43 377.012 339.898C378.841 338.352 381.044 337.148 383.622 336.289C386.2 335.414 389.075 334.977 392.247 334.977C395.169 334.977 397.841 335.375 400.262 336.172C402.7 336.953 404.786 338.117 406.52 339.664C408.27 341.211 409.622 343.117 410.575 345.383C411.544 347.648 412.028 350.258 412.028 353.211V355.367H380.294C380.575 356.383 381.036 357.312 381.677 358.156C382.333 359 383.216 359.719 384.325 360.312C385.434 360.906 386.794 361.367 388.403 361.695C390.028 362.023 391.966 362.188 394.216 362.188C395.809 362.188 397.372 362.094 398.903 361.906C400.434 361.703 401.864 361.445 403.192 361.133C404.52 360.805 405.716 360.445 406.778 360.055C407.856 359.664 408.723 359.273 409.38 358.883V366.406ZM403.38 348.992C403.302 348.195 403.059 347.375 402.653 346.531C402.262 345.672 401.637 344.898 400.778 344.211C399.919 343.523 398.794 342.961 397.403 342.523C396.012 342.07 394.278 341.844 392.2 341.844C390.247 341.844 388.559 342.086 387.137 342.57C385.716 343.055 384.52 343.656 383.552 344.375C382.598 345.094 381.856 345.867 381.325 346.695C380.794 347.523 380.45 348.289 380.294 348.992H403.38ZM454.352 343.086C454.117 343.008 453.773 342.906 453.32 342.781C452.883 342.641 452.367 342.508 451.773 342.383C451.18 342.242 450.523 342.125 449.805 342.031C449.102 341.938 448.375 341.891 447.625 341.891C446.062 341.891 444.602 342.086 443.242 342.477C441.898 342.852 440.641 343.359 439.469 344C438.297 344.625 437.203 345.344 436.188 346.156C435.188 346.953 434.266 347.773 433.422 348.617V368H424.727V335.797H433.422V341.023C434.469 340.242 435.539 339.492 436.633 338.773C437.742 338.039 438.891 337.391 440.078 336.828C441.281 336.266 442.547 335.82 443.875 335.492C445.203 335.148 446.609 334.977 448.094 334.977C448.656 334.977 449.227 335.008 449.805 335.07C450.398 335.117 450.969 335.18 451.516 335.258C452.078 335.336 452.602 335.422 453.086 335.516C453.57 335.609 453.992 335.703 454.352 335.797V343.086ZM486.292 368H476.167L459.878 335.797H469.581L481.3 360.031L492.995 335.797H502.698L486.292 368ZM548.233 366.406C545.592 367.281 542.952 367.906 540.311 368.281C537.686 368.672 534.998 368.867 532.248 368.867C528.733 368.867 525.6 368.492 522.85 367.742C520.116 366.977 517.811 365.875 515.936 364.438C514.061 363 512.631 361.242 511.647 359.164C510.663 357.086 510.17 354.734 510.17 352.109C510.17 349.672 510.663 347.414 511.647 345.336C512.647 343.242 514.053 341.43 515.866 339.898C517.694 338.352 519.897 337.148 522.475 336.289C525.053 335.414 527.928 334.977 531.1 334.977C534.022 334.977 536.694 335.375 539.116 336.172C541.553 336.953 543.639 338.117 545.373 339.664C547.123 341.211 548.475 343.117 549.428 345.383C550.397 347.648 550.881 350.258 550.881 353.211V355.367H519.147C519.428 356.383 519.889 357.312 520.53 358.156C521.186 359 522.069 359.719 523.178 360.312C524.288 360.906 525.647 361.367 527.256 361.695C528.881 362.023 530.819 362.188 533.069 362.188C534.663 362.188 536.225 362.094 537.756 361.906C539.288 361.703 540.717 361.445 542.045 361.133C543.373 360.805 544.569 360.445 545.631 360.055C546.709 359.664 547.577 359.273 548.233 358.883V366.406ZM542.233 348.992C542.155 348.195 541.913 347.375 541.506 346.531C541.116 345.672 540.491 344.898 539.631 344.211C538.772 343.523 537.647 342.961 536.256 342.523C534.866 342.07 533.131 341.844 531.053 341.844C529.1 341.844 527.413 342.086 525.991 342.57C524.569 343.055 523.373 343.656 522.405 344.375C521.452 345.094 520.709 345.867 520.178 346.695C519.647 347.523 519.303 348.289 519.147 348.992H542.233Z" fill="black"/>
<line y1="-2.5" x2="55" y2="-2.5" transform="matrix(-0.707107 0.707107 0.707107 0.707107 316 64.6107)" stroke="#FF7731" stroke-width="5"/>
<line y1="-2.5" x2="65" y2="-2.5" transform="matrix(-0.707107 0.707107 0.707107 0.707107 366 62.6107)" stroke="#FF7C28" stroke-width="5"/>
<line y1="-2.5" x2="75" y2="-2.5" transform="matrix(-0.707107 0.707107 0.707107 0.707107 416 60.6107)" stroke="#FF8120" stroke-width="5"/>
<line y1="-2.5" x2="85" y2="-2.5" transform="matrix(-0.707107 0.707107 0.707107 0.707107 466 59.6107)" stroke="#FB8818" stroke-width="5"/>
<line y1="-2.5" x2="100" y2="-2.5" transform="matrix(-0.707107 0.707107 0.707107 0.707107 516 58.6107)" stroke="#D8961B" stroke-width="5"/>
<line x1="257.768" y1="65.7668" x2="293.123" y2="101.122" stroke="#D8961B" stroke-width="5"/>
<line x1="457.768" y1="58.7668" x2="549.692" y2="150.691" stroke="#FF7731" stroke-width="5"/>
<line x1="407.768" y1="59.7668" x2="485.549" y2="137.549" stroke="#FF7C28" stroke-width="5"/>
<line x1="357.768" y1="60.7668" x2="421.407" y2="124.406" stroke="#FF8120" stroke-width="5"/>
<line x1="307.768" y1="62.7668" x2="357.265" y2="112.264" stroke="#FB8818" stroke-width="5"/>
<path d="M40.8021 155.53C119.407 89.4588 183.264 66.5288 348.823 62.4842C459.288 58.1325 630.459 61.6276 636.323 30.4842" stroke="url(#paint2_linear_579_23)" stroke-width="6"/>
<path d="M39 157.3C127.884 105.882 186.254 84.8448 350 109.611C459.543 124.507 610.817 177.263 622 147.611" stroke="url(#paint3_linear_579_23)" stroke-width="6"/>
</g>
</g>
<defs>
<linearGradient id="paint0_linear_579_23" x1="594.592" y1="688.897" x2="66.805" y2="782.711" gradientUnits="userSpaceOnUse">
<stop stop-color="white"/>
<stop offset="0.09375" stop-color="#FF7B01"/>
<stop offset="0.507197" stop-color="#FFC701" stop-opacity="0.7"/>
<stop offset="0.90625" stop-color="#2CCFDA"/>
<stop offset="0.979167" stop-color="white"/>
</linearGradient>
<linearGradient id="paint1_linear_579_23" x1="120.5" y1="554" x2="524.37" y2="612.893" gradientUnits="userSpaceOnUse">
<stop offset="0.124894" stop-color="#FF7B01" stop-opacity="0.91"/>
<stop offset="0.493212" stop-color="#FFC701" stop-opacity="0.7"/>
<stop offset="0.598958" stop-color="#C2C940" stop-opacity="0.787385"/>
<stop offset="0.856249" stop-color="#2CCFDA"/>
</linearGradient>
<linearGradient id="paint2_linear_579_23" x1="41.3246" y1="158.493" x2="632.209" y2="54.3038" gradientUnits="userSpaceOnUse">
<stop stop-color="white"/>
<stop offset="0.0323899" stop-color="#2FDA2C"/>
<stop offset="0.489583" stop-color="#FF7B01" stop-opacity="0.91"/>
<stop offset="0.922553" stop-color="#FF2F01" stop-opacity="0.7"/>
<stop offset="1" stop-color="white"/>
</linearGradient>
<linearGradient id="paint3_linear_579_23" x1="39" y1="160.319" x2="639" y2="160.319" gradientUnits="userSpaceOnUse">
<stop stop-color="white"/>
<stop offset="0.0323899" stop-color="#2FDA2C"/>
<stop offset="0.489583" stop-color="#FF7B01" stop-opacity="0.91"/>
<stop offset="0.922553" stop-color="#FF2F01" stop-opacity="0.7"/>
<stop offset="1" stop-color="white"/>
</linearGradient>
<clipPath id="clip0_579_23">
<rect width="640" height="760" fill="white"/>
</clipPath>
<clipPath id="clip1_579_23">
<rect width="640" height="380" fill="white" transform="translate(0 380)"/>
</clipPath>
<clipPath id="clip2_579_23">
<rect width="640" height="380" fill="white"/>
</clipPath>
</defs>
</svg>
