<svg width="1280" height="180" viewBox="0 0 1280 180" fill="none" xmlns="http://www.w3.org/2000/svg">
<g clip-path="url(#clip0_619_28)">
<path d="M1250.5 61.4999C676 1.50038 820 192 500.738 135.487" stroke="url(#paint0_linear_619_28)" stroke-width="5"/>
<path d="M586.84 61.224C586.84 66.552 585.928 71.208 584.104 75.192C582.328 79.128 579.688 82.2 576.184 84.408C572.68 86.616 568.336 87.72 563.152 87.72C557.824 87.72 553.384 86.616 549.832 84.408C546.328 82.2 543.712 79.104 541.984 75.12C540.256 71.136 539.392 66.48 539.392 61.152C539.392 55.872 540.256 51.264 541.984 47.328C543.712 43.392 546.328 40.32 549.832 38.112C553.384 35.904 557.848 34.8 563.224 34.8C568.36 34.8 572.68 35.904 576.184 38.112C579.688 40.272 582.328 43.344 584.104 47.328C585.928 51.264 586.84 55.896 586.84 61.224ZM546.232 61.224C546.232 67.704 547.6 72.816 550.336 76.56C553.072 80.256 557.344 82.104 563.152 82.104C569.008 82.104 573.28 80.256 575.968 76.56C578.656 72.816 580 67.704 580 61.224C580 54.744 578.656 49.68 575.968 46.032C573.28 42.336 569.032 40.488 563.224 40.488C557.416 40.488 553.12 42.336 550.336 46.032C547.6 49.68 546.232 54.744 546.232 61.224ZM630.776 48.408V64.464H651.728V48.408H658.064V87H651.728V69.792H630.776V87H624.44V48.408H630.776ZM684.9 47.76C689.604 47.76 693.084 48.792 695.34 50.856C697.596 52.92 698.724 56.208 698.724 60.72V87H694.116L692.892 81.528H692.604C690.924 83.64 689.148 85.2 687.276 86.208C685.452 87.216 682.908 87.72 679.644 87.72C676.14 87.72 673.236 86.808 670.932 84.984C668.628 83.112 667.476 80.208 667.476 76.272C667.476 72.432 668.988 69.48 672.012 67.416C675.036 65.304 679.692 64.152 685.98 63.96L692.532 63.744V61.44C692.532 58.224 691.836 55.992 690.444 54.744C689.052 53.496 687.084 52.872 684.54 52.872C682.524 52.872 680.604 53.184 678.78 53.808C676.956 54.384 675.252 55.056 673.668 55.824L671.724 51.072C673.404 50.16 675.396 49.392 677.7 48.768C680.004 48.096 682.404 47.76 684.9 47.76ZM686.772 68.352C681.972 68.544 678.636 69.312 676.764 70.656C674.94 72 674.028 73.896 674.028 76.344C674.028 78.504 674.676 80.088 675.972 81.096C677.316 82.104 679.02 82.608 681.084 82.608C684.348 82.608 687.06 81.72 689.22 79.944C691.38 78.12 692.46 75.336 692.46 71.592V68.136L686.772 68.352ZM726.123 87.72C722.715 87.72 719.667 87.024 716.979 85.632C714.339 84.24 712.251 82.08 710.715 79.152C709.227 76.224 708.483 72.48 708.483 67.92C708.483 63.168 709.275 59.304 710.859 56.328C712.443 53.352 714.579 51.168 717.267 49.776C720.003 48.384 723.099 47.688 726.555 47.688C728.523 47.688 730.419 47.904 732.243 48.336C734.067 48.72 735.555 49.2 736.707 49.776L734.763 55.032C733.611 54.6 732.267 54.192 730.731 53.808C729.195 53.424 727.755 53.232 726.411 53.232C718.827 53.232 715.035 58.104 715.035 67.848C715.035 72.504 715.947 76.08 717.771 78.576C719.643 81.024 722.403 82.248 726.051 82.248C728.163 82.248 730.011 82.032 731.595 81.6C733.227 81.168 734.715 80.64 736.059 80.016V85.632C734.763 86.304 733.323 86.808 731.739 87.144C730.203 87.528 728.331 87.72 726.123 87.72Z" fill="black"/>
</g>
<defs>
<linearGradient id="paint0_linear_619_28" x1="1257.86" y1="58.9216" x2="455.594" y2="182.112" gradientUnits="userSpaceOnUse">
<stop stop-color="white"/>
<stop offset="0.09375" stop-color="#FF7B01"/>
<stop offset="0.507197" stop-color="#FFC701" stop-opacity="0.7"/>
<stop offset="0.805356" stop-color="#2CCFDA"/>
<stop offset="0.882271" stop-color="white"/>
</linearGradient>
<clipPath id="clip0_619_28">
<rect width="1280" height="180" fill="white"/>
</clipPath>
</defs>
</svg>
