<svg width="650" height="25" viewBox="0 0 650 25" fill="none" xmlns="http://www.w3.org/2000/svg">
<path d="M539.146 16V10.6855C539.146 10.2402 539.086 9.875 538.965 9.58984C538.848 9.30078 538.678 9.07227 538.455 8.9043C538.236 8.73633 537.969 8.61914 537.652 8.55273C537.336 8.48633 536.98 8.45312 536.586 8.45312C536.129 8.45312 535.68 8.50977 535.238 8.62305C534.801 8.73242 534.387 8.87305 533.996 9.04492C533.605 9.21289 533.246 9.40039 532.918 9.60742C532.59 9.81445 532.312 10.0137 532.086 10.2051V16H531.354V7.94922H532.086V9.36133C532.359 9.18945 532.66 9.00977 532.988 8.82227C533.32 8.63086 533.676 8.45703 534.055 8.30078C534.438 8.14062 534.846 8.00977 535.279 7.9082C535.713 7.80664 536.17 7.75586 536.65 7.75586C537.193 7.75586 537.666 7.82227 538.068 7.95508C538.475 8.08398 538.811 8.26953 539.076 8.51172C539.346 8.75 539.547 9.04102 539.68 9.38477C539.812 9.72461 539.879 10.1055 539.879 10.5273V16H539.146ZM550.672 15.5781C550.344 15.6797 550.039 15.7676 549.758 15.8418C549.477 15.9121 549.199 15.9688 548.926 16.0117C548.652 16.0586 548.373 16.0918 548.088 16.1113C547.807 16.1348 547.496 16.1465 547.156 16.1465C546.367 16.1465 545.654 16.0508 545.018 15.8594C544.381 15.668 543.838 15.3945 543.389 15.0391C542.943 14.6797 542.6 14.2461 542.357 13.7383C542.115 13.2305 541.994 12.6602 541.994 12.0273C541.994 11.4141 542.109 10.8516 542.34 10.3398C542.574 9.82812 542.9 9.38867 543.318 9.02148C543.736 8.6543 544.236 8.36914 544.818 8.16602C545.4 7.96289 546.043 7.86133 546.746 7.86133C547.477 7.86133 548.127 7.95898 548.697 8.1543C549.268 8.34961 549.748 8.62891 550.139 8.99219C550.529 9.35547 550.826 9.79688 551.029 10.3164C551.232 10.832 551.334 11.4141 551.334 12.0625V12.2441H542.75C542.793 12.7441 542.918 13.1953 543.125 13.5977C543.332 14 543.625 14.3418 544.004 14.623C544.387 14.9043 544.855 15.1211 545.41 15.2734C545.969 15.4219 546.619 15.4961 547.361 15.4961C547.678 15.4961 547.998 15.4746 548.322 15.4316C548.646 15.3887 548.957 15.332 549.254 15.2617C549.551 15.1875 549.822 15.1055 550.068 15.0156C550.314 14.9219 550.516 14.8262 550.672 14.7285V15.5781ZM550.613 11.6055C550.586 11.1953 550.494 10.8047 550.338 10.4336C550.182 10.0586 549.947 9.72852 549.635 9.44336C549.326 9.1582 548.932 8.93164 548.451 8.76367C547.975 8.5957 547.402 8.51172 546.734 8.51172C546.105 8.51172 545.555 8.5957 545.082 8.76367C544.609 8.93164 544.209 9.1582 543.881 9.44336C543.553 9.72461 543.295 10.0527 543.107 10.4277C542.92 10.7988 542.801 11.1914 542.75 11.6055H550.613ZM557.059 12.3613L553.59 16H552.664L556.602 11.8691L552.857 7.94922H553.783L557.059 11.3945L560.346 7.94922H561.271L557.527 11.8691L561.459 16H560.539L557.059 12.3613ZM566.609 8.61719V16H565.883V8.61719H562.221V7.94922H570.271V8.61719H566.609Z" fill="black"/>
<rect x="450.5" y="0.5" width="199" height="24" stroke="black"/>
<path d="M390.48 16V15.5078C391.492 14.9414 392.408 14.4219 393.229 13.9492C394.053 13.4727 394.754 13.0273 395.332 12.6133C395.91 12.1953 396.354 11.7988 396.662 11.4238C396.971 11.0449 397.117 10.6699 397.102 10.2988C397.09 10.0215 397.012 9.76953 396.867 9.54297C396.727 9.3125 396.521 9.11719 396.252 8.95703C395.982 8.79297 395.65 8.66602 395.256 8.57617C394.861 8.48633 394.406 8.44141 393.891 8.44141C393.57 8.44141 393.264 8.45898 392.971 8.49414C392.682 8.5293 392.4 8.58398 392.127 8.6582C391.857 8.72852 391.594 8.81836 391.336 8.92773C391.078 9.03711 390.824 9.16602 390.574 9.31445V8.51172C390.844 8.40234 391.105 8.30469 391.359 8.21875C391.613 8.12891 391.871 8.05273 392.133 7.99023C392.395 7.92773 392.666 7.88086 392.947 7.84961C393.229 7.81836 393.529 7.80273 393.85 7.80273C394.424 7.80273 394.955 7.85938 395.443 7.97266C395.932 8.08594 396.354 8.25195 396.709 8.4707C397.064 8.68555 397.342 8.95117 397.541 9.26758C397.744 9.58398 397.846 9.94727 397.846 10.3574C397.846 10.7285 397.719 11.0996 397.465 11.4707C397.211 11.8418 396.84 12.2266 396.352 12.625C395.867 13.0234 395.27 13.4434 394.559 13.8848C393.848 14.3262 393.035 14.8066 392.121 15.3262H398.016V16H390.48ZM399.34 16V14.7285H400.359V16H399.34ZM406.371 8.44141C405.859 8.44141 405.408 8.48633 405.018 8.57617C404.627 8.66602 404.289 8.79297 404.004 8.95703C403.719 9.11719 403.48 9.31055 403.289 9.53711C403.098 9.75977 402.943 10.0078 402.826 10.2812C402.713 10.5508 402.631 10.8398 402.58 11.1484C402.529 11.4531 402.504 11.7695 402.504 12.0977C402.664 11.9883 402.855 11.8633 403.078 11.7227C403.301 11.5781 403.561 11.4434 403.857 11.3184C404.154 11.1895 404.486 11.082 404.854 10.9961C405.225 10.9062 405.637 10.8613 406.09 10.8613C406.609 10.8613 407.092 10.916 407.537 11.0254C407.986 11.1348 408.375 11.2988 408.703 11.5176C409.031 11.7363 409.287 12.0117 409.471 12.3438C409.658 12.6719 409.752 13.0586 409.752 13.5039C409.752 13.8711 409.668 14.2168 409.5 14.541C409.332 14.8613 409.086 15.1426 408.762 15.3848C408.441 15.623 408.045 15.8125 407.572 15.9531C407.104 16.0898 406.566 16.1582 405.961 16.1582C405.355 16.1582 404.795 16.0781 404.279 15.918C403.764 15.7539 403.318 15.5098 402.943 15.1855C402.568 14.8574 402.275 14.4473 402.064 13.9551C401.854 13.4629 401.748 12.8848 401.748 12.2207C401.748 11.5684 401.84 10.9727 402.023 10.4336C402.211 9.89062 402.496 9.42383 402.879 9.0332C403.262 8.64258 403.746 8.33984 404.332 8.125C404.918 7.91016 405.609 7.80273 406.406 7.80273C406.621 7.80273 406.84 7.81445 407.062 7.83789C407.285 7.86133 407.504 7.89258 407.719 7.93164C407.934 7.9668 408.143 8.00977 408.346 8.06055C408.553 8.11133 408.746 8.16602 408.926 8.22461V9.00391C408.797 8.94531 408.645 8.88477 408.469 8.82227C408.297 8.75586 408.104 8.69531 407.889 8.64062C407.674 8.58203 407.439 8.53516 407.186 8.5C406.932 8.46094 406.66 8.44141 406.371 8.44141ZM405.867 11.5C405.457 11.5 405.082 11.5508 404.742 11.6523C404.402 11.75 404.094 11.8711 403.816 12.0156C403.543 12.1602 403.299 12.3125 403.084 12.4727C402.873 12.6289 402.691 12.7656 402.539 12.8828C402.586 13.2109 402.674 13.5332 402.803 13.8496C402.936 14.1621 403.131 14.4434 403.389 14.6934C403.65 14.9395 403.986 15.1387 404.396 15.291C404.811 15.4434 405.32 15.5195 405.926 15.5195C406.43 15.5195 406.873 15.4727 407.256 15.3789C407.643 15.2812 407.967 15.1445 408.229 14.9688C408.49 14.793 408.688 14.582 408.82 14.3359C408.953 14.0859 409.02 13.8086 409.02 13.5039C409.02 13.1953 408.957 12.918 408.832 12.6719C408.711 12.4219 408.521 12.2109 408.264 12.0391C408.006 11.8672 407.678 11.7344 407.279 11.6406C406.885 11.5469 406.414 11.5 405.867 11.5Z" fill="black"/>
<rect x="350.5" y="0.5" width="99" height="24" stroke="black"/>
<path d="M266.164 16V7.432H272.596V16H271.528V8.38H267.244V16H266.164ZM277.281 9.448C277.833 9.448 278.305 9.568 278.697 9.808C279.097 10.048 279.401 10.388 279.609 10.828C279.825 11.26 279.933 11.768 279.933 12.352V12.988H275.529C275.545 13.716 275.729 14.272 276.081 14.656C276.441 15.032 276.941 15.22 277.581 15.22C277.989 15.22 278.349 15.184 278.661 15.112C278.981 15.032 279.309 14.92 279.645 14.776V15.7C279.317 15.844 278.993 15.948 278.673 16.012C278.353 16.084 277.973 16.12 277.533 16.12C276.925 16.12 276.385 15.996 275.913 15.748C275.449 15.5 275.085 15.132 274.821 14.644C274.565 14.148 274.437 13.544 274.437 12.832C274.437 12.128 274.553 11.524 274.785 11.02C275.025 10.516 275.357 10.128 275.781 9.856C276.213 9.584 276.713 9.448 277.281 9.448ZM277.269 10.312C276.765 10.312 276.365 10.476 276.069 10.804C275.781 11.124 275.609 11.572 275.553 12.148H278.829C278.821 11.604 278.693 11.164 278.445 10.828C278.197 10.484 277.805 10.312 277.269 10.312ZM286.011 10.456H283.911V16H282.867V10.456H280.791V9.568H286.011V10.456ZM290.338 9.448C291.13 9.448 291.766 9.724 292.246 10.276C292.734 10.828 292.978 11.66 292.978 12.772C292.978 13.868 292.734 14.7 292.246 15.268C291.766 15.836 291.126 16.12 290.326 16.12C289.83 16.12 289.418 16.028 289.09 15.844C288.77 15.652 288.518 15.432 288.334 15.184H288.262C288.278 15.32 288.294 15.492 288.31 15.7C288.326 15.908 288.334 16.088 288.334 16.24V18.88H287.278V9.568H288.142L288.286 10.444H288.334C288.526 10.164 288.778 9.928 289.09 9.736C289.402 9.544 289.818 9.448 290.338 9.448ZM290.146 10.336C289.49 10.336 289.026 10.52 288.754 10.888C288.49 11.256 288.35 11.816 288.334 12.568V12.772C288.334 13.564 288.462 14.176 288.718 14.608C288.982 15.032 289.466 15.244 290.17 15.244C290.562 15.244 290.882 15.136 291.13 14.92C291.386 14.704 291.574 14.412 291.694 14.044C291.822 13.668 291.886 13.24 291.886 12.76C291.886 12.024 291.742 11.436 291.454 10.996C291.174 10.556 290.738 10.336 290.146 10.336ZM300.253 12.772C300.253 13.836 299.981 14.66 299.437 15.244C298.901 15.828 298.173 16.12 297.253 16.12C296.685 16.12 296.177 15.992 295.729 15.736C295.289 15.472 294.941 15.092 294.685 14.596C294.429 14.092 294.301 13.484 294.301 12.772C294.301 11.708 294.569 10.888 295.105 10.312C295.641 9.736 296.369 9.448 297.289 9.448C297.873 9.448 298.385 9.58 298.825 9.844C299.273 10.1 299.621 10.476 299.869 10.972C300.125 11.46 300.253 12.06 300.253 12.772ZM295.393 12.772C295.393 13.532 295.541 14.136 295.837 14.584C296.141 15.024 296.621 15.244 297.277 15.244C297.925 15.244 298.401 15.024 298.705 14.584C299.009 14.136 299.161 13.532 299.161 12.772C299.161 12.012 299.009 11.416 298.705 10.984C298.401 10.552 297.921 10.336 297.265 10.336C296.609 10.336 296.133 10.552 295.837 10.984C295.541 11.416 295.393 12.012 295.393 12.772ZM307.098 11.188C307.098 11.588 306.978 11.9 306.738 12.124C306.498 12.348 306.19 12.5 305.814 12.58V12.628C306.214 12.684 306.562 12.828 306.858 13.06C307.154 13.284 307.302 13.636 307.302 14.116C307.302 14.66 307.098 15.112 306.69 15.472C306.29 15.824 305.626 16 304.698 16H301.926V9.568H304.686C305.142 9.568 305.55 9.62 305.91 9.724C306.278 9.82 306.566 9.988 306.774 10.228C306.99 10.46 307.098 10.78 307.098 11.188ZM306.03 11.32C306.03 11.016 305.918 10.796 305.694 10.66C305.478 10.516 305.122 10.444 304.626 10.444H302.982V12.208H304.434C305.498 12.208 306.03 11.912 306.03 11.32ZM306.21 14.116C306.21 13.748 306.07 13.484 305.79 13.324C305.51 13.164 305.098 13.084 304.554 13.084H302.982V15.148H304.578C305.106 15.148 305.51 15.072 305.79 14.92C306.07 14.76 306.21 14.492 306.21 14.116ZM313.496 16V7.432H319.928V16H318.86V8.38H314.576V16H313.496ZM321.707 16V14.7285H322.727V16H321.707ZM324.5 16V7.432H330.932V16H329.864V8.38H325.58V16H324.5ZM332.711 16V14.7285H333.73V16H332.711Z" fill="black"/>
<rect x="250.5" y="0.5" width="99" height="24" stroke="black"/>
<path d="M186.48 16V15.5078C187.492 14.9414 188.408 14.4219 189.229 13.9492C190.053 13.4727 190.754 13.0273 191.332 12.6133C191.91 12.1953 192.354 11.7988 192.662 11.4238C192.971 11.0449 193.117 10.6699 193.102 10.2988C193.09 10.0215 193.012 9.76953 192.867 9.54297C192.727 9.3125 192.521 9.11719 192.252 8.95703C191.982 8.79297 191.65 8.66602 191.256 8.57617C190.861 8.48633 190.406 8.44141 189.891 8.44141C189.57 8.44141 189.264 8.45898 188.971 8.49414C188.682 8.5293 188.4 8.58398 188.127 8.6582C187.857 8.72852 187.594 8.81836 187.336 8.92773C187.078 9.03711 186.824 9.16602 186.574 9.31445V8.51172C186.844 8.40234 187.105 8.30469 187.359 8.21875C187.613 8.12891 187.871 8.05273 188.133 7.99023C188.395 7.92773 188.666 7.88086 188.947 7.84961C189.229 7.81836 189.529 7.80273 189.85 7.80273C190.424 7.80273 190.955 7.85938 191.443 7.97266C191.932 8.08594 192.354 8.25195 192.709 8.4707C193.064 8.68555 193.342 8.95117 193.541 9.26758C193.744 9.58398 193.846 9.94727 193.846 10.3574C193.846 10.7285 193.719 11.0996 193.465 11.4707C193.211 11.8418 192.84 12.2266 192.352 12.625C191.867 13.0234 191.27 13.4434 190.559 13.8848C189.848 14.3262 189.035 14.8066 188.121 15.3262H194.016V16H186.48ZM195.34 16V14.7285H196.359V16H195.34ZM199.822 16H198.961L203.643 8.61719H196.969V7.94922H204.65V8.35352L199.822 16ZM207.861 16H207L211.682 8.61719H205.008V7.94922H212.689V8.35352L207.861 16Z" fill="black"/>
<rect x="150.5" y="0.5" width="99" height="24" stroke="black"/>
<path d="M69.984 16H68.76L66.492 12.28L64.188 16H63.048L65.892 11.536L63.228 7.432H64.428L66.528 10.792L68.64 7.432H69.78L67.128 11.512L69.984 16ZM76.6432 12.772C76.6432 13.836 76.3713 14.66 75.8273 15.244C75.2913 15.828 74.5633 16.12 73.6433 16.12C73.0753 16.12 72.5673 15.992 72.1193 15.736C71.6793 15.472 71.3313 15.092 71.0753 14.596C70.8193 14.092 70.6913 13.484 70.6913 12.772C70.6913 11.708 70.9593 10.888 71.4953 10.312C72.0313 9.736 72.7593 9.448 73.6793 9.448C74.2633 9.448 74.7753 9.58 75.2153 9.844C75.6633 10.1 76.0113 10.476 76.2593 10.972C76.5153 11.46 76.6432 12.06 76.6432 12.772ZM71.7833 12.772C71.7833 13.532 71.9313 14.136 72.2273 14.584C72.5313 15.024 73.0113 15.244 73.6673 15.244C74.3153 15.244 74.7913 15.024 75.0953 14.584C75.3993 14.136 75.5513 13.532 75.5513 12.772C75.5513 12.012 75.3993 11.416 75.0953 10.984C74.7913 10.552 74.3113 10.336 73.6553 10.336C72.9993 10.336 72.5233 10.552 72.2273 10.984C71.9313 11.416 71.7833 12.012 71.7833 12.772ZM85.2169 9.568V16H84.2689V11.896C84.2689 11.728 84.2729 11.552 84.2809 11.368C84.2969 11.184 84.3129 11.004 84.3289 10.828H84.2929L82.1929 16H81.3049L79.2649 10.828H79.2289C79.2529 11.188 79.2649 11.556 79.2649 11.932V16H78.3169V9.568H79.7209L81.7489 14.74L83.8129 9.568H85.2169ZM87.666 16H86.442L88.278 13.3C88.03 13.236 87.79 13.136 87.558 13C87.326 12.856 87.138 12.66 86.994 12.412C86.85 12.156 86.778 11.84 86.778 11.464C86.778 10.848 86.986 10.38 87.402 10.06C87.818 9.732 88.37 9.568 89.058 9.568H91.938V16H90.882V13.444H89.322L87.666 16ZM87.798 11.476C87.798 11.844 87.934 12.12 88.206 12.304C88.486 12.48 88.874 12.568 89.37 12.568H90.882V10.444H89.166C88.678 10.444 88.326 10.54 88.11 10.732C87.902 10.924 87.798 11.172 87.798 11.476ZM97.7771 9.568H98.9291L96.1811 12.664L99.1571 16H97.9331L95.0291 12.736V16H93.9731V9.568H95.0291V12.688L97.7771 9.568ZM105.682 12.772C105.682 13.836 105.41 14.66 104.866 15.244C104.33 15.828 103.602 16.12 102.682 16.12C102.114 16.12 101.606 15.992 101.158 15.736C100.718 15.472 100.37 15.092 100.114 14.596C99.8583 14.092 99.7303 13.484 99.7303 12.772C99.7303 11.708 99.9983 10.888 100.534 10.312C101.07 9.736 101.798 9.448 102.718 9.448C103.302 9.448 103.814 9.58 104.254 9.844C104.702 10.1 105.05 10.476 105.298 10.972C105.554 11.46 105.682 12.06 105.682 12.772ZM100.822 12.772C100.822 13.532 100.97 14.136 101.266 14.584C101.57 15.024 102.05 15.244 102.706 15.244C103.354 15.244 103.83 15.024 104.134 14.584C104.438 14.136 104.59 13.532 104.59 12.772C104.59 12.012 104.438 11.416 104.134 10.984C103.83 10.552 103.35 10.336 102.694 10.336C102.038 10.336 101.562 10.552 101.266 10.984C100.97 11.416 100.822 12.012 100.822 12.772ZM112.528 11.188C112.528 11.588 112.408 11.9 112.168 12.124C111.928 12.348 111.62 12.5 111.244 12.58V12.628C111.644 12.684 111.992 12.828 112.288 13.06C112.584 13.284 112.732 13.636 112.732 14.116C112.732 14.66 112.528 15.112 112.12 15.472C111.72 15.824 111.056 16 110.128 16H107.356V9.568H110.116C110.572 9.568 110.98 9.62 111.34 9.724C111.708 9.82 111.996 9.988 112.204 10.228C112.42 10.46 112.528 10.78 112.528 11.188ZM111.46 11.32C111.46 11.016 111.348 10.796 111.124 10.66C110.908 10.516 110.552 10.444 110.056 10.444H108.412V12.208H109.864C110.928 12.208 111.46 11.912 111.46 11.32ZM111.64 14.116C111.64 13.748 111.5 13.484 111.22 13.324C110.94 13.164 110.528 13.084 109.984 13.084H108.412V15.148H110.008C110.536 15.148 110.94 15.072 111.22 14.92C111.5 14.76 111.64 14.492 111.64 14.116ZM121.374 7.432C122.446 7.432 123.254 7.592 123.798 7.912C124.35 8.224 124.626 8.772 124.626 9.556C124.626 10.06 124.486 10.48 124.206 10.816C123.926 11.144 123.522 11.356 122.994 11.452V11.512C123.354 11.568 123.678 11.672 123.966 11.824C124.262 11.976 124.494 12.192 124.662 12.472C124.83 12.752 124.914 13.116 124.914 13.564C124.914 14.34 124.646 14.94 124.11 15.364C123.582 15.788 122.858 16 121.938 16H118.926V7.432H121.374ZM121.59 11.08C122.326 11.08 122.83 10.964 123.102 10.732C123.374 10.492 123.51 10.14 123.51 9.676C123.51 9.204 123.342 8.868 123.006 8.668C122.678 8.46 122.15 8.356 121.422 8.356H120.006V11.08H121.59ZM120.006 11.98V15.088H121.734C122.494 15.088 123.022 14.94 123.318 14.644C123.614 14.348 123.762 13.96 123.762 13.48C123.762 13.032 123.606 12.672 123.294 12.4C122.99 12.12 122.442 11.98 121.65 11.98H120.006ZM126.164 16V14.7285H127.184V16H126.164ZM131.405 7.432C132.477 7.432 133.285 7.592 133.829 7.912C134.381 8.224 134.657 8.772 134.657 9.556C134.657 10.06 134.517 10.48 134.237 10.816C133.957 11.144 133.553 11.356 133.025 11.452V11.512C133.385 11.568 133.709 11.672 133.997 11.824C134.293 11.976 134.525 12.192 134.693 12.472C134.861 12.752 134.945 13.116 134.945 13.564C134.945 14.34 134.677 14.94 134.141 15.364C133.613 15.788 132.889 16 131.969 16H128.957V7.432H131.405ZM131.621 11.08C132.357 11.08 132.861 10.964 133.133 10.732C133.405 10.492 133.541 10.14 133.541 9.676C133.541 9.204 133.373 8.868 133.037 8.668C132.709 8.46 132.181 8.356 131.453 8.356H130.037V11.08H131.621ZM130.037 11.98V15.088H131.765C132.525 15.088 133.053 14.94 133.349 14.644C133.645 14.348 133.793 13.96 133.793 13.48C133.793 13.032 133.637 12.672 133.325 12.4C133.021 12.12 132.473 11.98 131.681 11.98H130.037ZM136.195 16V14.7285H137.215V16H136.195Z" fill="black"/>
<rect x="50.5" y="0.5" width="99" height="24" stroke="black"/>
<path d="M23.4805 16V15.5078C24.4922 14.9414 25.4082 14.4219 26.2285 13.9492C27.0527 13.4727 27.7539 13.0273 28.332 12.6133C28.9102 12.1953 29.3535 11.7988 29.6621 11.4238C29.9707 11.0449 30.1172 10.6699 30.1016 10.2988C30.0898 10.0215 30.0117 9.76953 29.8672 9.54297C29.7266 9.3125 29.5215 9.11719 29.252 8.95703C28.9824 8.79297 28.6504 8.66602 28.2559 8.57617C27.8613 8.48633 27.4062 8.44141 26.8906 8.44141C26.5703 8.44141 26.2637 8.45898 25.9707 8.49414C25.6816 8.5293 25.4004 8.58398 25.127 8.6582C24.8574 8.72852 24.5938 8.81836 24.3359 8.92773C24.0781 9.03711 23.8242 9.16602 23.5742 9.31445V8.51172C23.8438 8.40234 24.1055 8.30469 24.3594 8.21875C24.6133 8.12891 24.8711 8.05273 25.1328 7.99023C25.3945 7.92773 25.666 7.88086 25.9473 7.84961C26.2285 7.81836 26.5293 7.80273 26.8496 7.80273C27.4238 7.80273 27.9551 7.85938 28.4434 7.97266C28.9316 8.08594 29.3535 8.25195 29.709 8.4707C30.0645 8.68555 30.3418 8.95117 30.541 9.26758C30.7441 9.58398 30.8457 9.94727 30.8457 10.3574C30.8457 10.7285 30.7188 11.0996 30.4648 11.4707C30.2109 11.8418 29.8398 12.2266 29.3516 12.625C28.8672 13.0234 28.2695 13.4434 27.5586 13.8848C26.8477 14.3262 26.0352 14.8066 25.1211 15.3262H31.0156V16H23.4805Z" fill="black"/>
<rect x="0.5" y="0.5" width="49" height="24" stroke="black"/>
</svg>
