<svg width="650" height="25" viewBox="0 0 650 25" fill="none" xmlns="http://www.w3.org/2000/svg">
<path d="M539.146 16V10.6855C539.146 10.2402 539.086 9.875 538.965 9.58984C538.848 9.30078 538.678 9.07227 538.455 8.9043C538.236 8.73633 537.969 8.61914 537.652 8.55273C537.336 8.48633 536.98 8.45312 536.586 8.45312C536.129 8.45312 535.68 8.50977 535.238 8.62305C534.801 8.73242 534.387 8.87305 533.996 9.04492C533.605 9.21289 533.246 9.40039 532.918 9.60742C532.59 9.81445 532.312 10.0137 532.086 10.2051V16H531.354V7.94922H532.086V9.36133C532.359 9.18945 532.66 9.00977 532.988 8.82227C533.32 8.63086 533.676 8.45703 534.055 8.30078C534.438 8.14062 534.846 8.00977 535.279 7.9082C535.713 7.80664 536.17 7.75586 536.65 7.75586C537.193 7.75586 537.666 7.82227 538.068 7.95508C538.475 8.08398 538.811 8.26953 539.076 8.51172C539.346 8.75 539.547 9.04102 539.68 9.38477C539.812 9.72461 539.879 10.1055 539.879 10.5273V16H539.146ZM550.672 15.5781C550.344 15.6797 550.039 15.7676 549.758 15.8418C549.477 15.9121 549.199 15.9688 548.926 16.0117C548.652 16.0586 548.373 16.0918 548.088 16.1113C547.807 16.1348 547.496 16.1465 547.156 16.1465C546.367 16.1465 545.654 16.0508 545.018 15.8594C544.381 15.668 543.838 15.3945 543.389 15.0391C542.943 14.6797 542.6 14.2461 542.357 13.7383C542.115 13.2305 541.994 12.6602 541.994 12.0273C541.994 11.4141 542.109 10.8516 542.34 10.3398C542.574 9.82812 542.9 9.38867 543.318 9.02148C543.736 8.6543 544.236 8.36914 544.818 8.16602C545.4 7.96289 546.043 7.86133 546.746 7.86133C547.477 7.86133 548.127 7.95898 548.697 8.1543C549.268 8.34961 549.748 8.62891 550.139 8.99219C550.529 9.35547 550.826 9.79688 551.029 10.3164C551.232 10.832 551.334 11.4141 551.334 12.0625V12.2441H542.75C542.793 12.7441 542.918 13.1953 543.125 13.5977C543.332 14 543.625 14.3418 544.004 14.623C544.387 14.9043 544.855 15.1211 545.41 15.2734C545.969 15.4219 546.619 15.4961 547.361 15.4961C547.678 15.4961 547.998 15.4746 548.322 15.4316C548.646 15.3887 548.957 15.332 549.254 15.2617C549.551 15.1875 549.822 15.1055 550.068 15.0156C550.314 14.9219 550.516 14.8262 550.672 14.7285V15.5781ZM550.613 11.6055C550.586 11.1953 550.494 10.8047 550.338 10.4336C550.182 10.0586 549.947 9.72852 549.635 9.44336C549.326 9.1582 548.932 8.93164 548.451 8.76367C547.975 8.5957 547.402 8.51172 546.734 8.51172C546.105 8.51172 545.555 8.5957 545.082 8.76367C544.609 8.93164 544.209 9.1582 543.881 9.44336C543.553 9.72461 543.295 10.0527 543.107 10.4277C542.92 10.7988 542.801 11.1914 542.75 11.6055H550.613ZM557.059 12.3613L553.59 16H552.664L556.602 11.8691L552.857 7.94922H553.783L557.059 11.3945L560.346 7.94922H561.271L557.527 11.8691L561.459 16H560.539L557.059 12.3613ZM566.609 8.61719V16H565.883V8.61719H562.221V7.94922H570.271V8.61719H566.609Z" fill="black"/>
<rect x="450.5" y="0.5" width="199" height="24" stroke="black"/>
<path d="M396.803 13.9375V16H396.082V13.9375H390.357V13.2871L395.566 7.94922H396.803V13.2637H398.865V13.9375H396.803ZM396.082 8.38281L391.318 13.2637H396.082V8.38281ZM399.832 16V14.7285H400.852V16H399.832ZM410.725 11.9805C410.725 12.4297 410.668 12.8457 410.555 13.2285C410.445 13.6074 410.293 13.9512 410.098 14.2598C409.902 14.5684 409.67 14.8418 409.4 15.0801C409.131 15.3145 408.838 15.5117 408.521 15.6719C408.209 15.832 407.877 15.9531 407.525 16.0352C407.178 16.1172 406.824 16.1582 406.465 16.1582C406.105 16.1582 405.75 16.1172 405.398 16.0352C405.051 15.9531 404.719 15.832 404.402 15.6719C404.086 15.5117 403.793 15.3145 403.523 15.0801C403.254 14.8418 403.02 14.5684 402.82 14.2598C402.625 13.9512 402.471 13.6074 402.357 13.2285C402.248 12.8457 402.193 12.4297 402.193 11.9805C402.193 11.5312 402.248 11.1172 402.357 10.7383C402.471 10.3555 402.625 10.0098 402.82 9.70117C403.02 9.39258 403.254 9.12109 403.523 8.88672C403.793 8.64844 404.086 8.44922 404.402 8.28906C404.719 8.12891 405.051 8.00781 405.398 7.92578C405.75 7.84375 406.105 7.80273 406.465 7.80273C406.824 7.80273 407.178 7.84375 407.525 7.92578C407.877 8.00781 408.209 8.12891 408.521 8.28906C408.838 8.44922 409.131 8.64844 409.4 8.88672C409.67 9.12109 409.902 9.39258 410.098 9.70117C410.293 10.0098 410.445 10.3555 410.555 10.7383C410.668 11.1172 410.725 11.5312 410.725 11.9805ZM409.992 11.9805C409.992 11.582 409.943 11.2168 409.846 10.8848C409.752 10.5527 409.621 10.2559 409.453 9.99414C409.289 9.73242 409.094 9.50391 408.867 9.30859C408.641 9.11328 408.396 8.95312 408.135 8.82812C407.877 8.69922 407.605 8.60352 407.32 8.54102C407.035 8.47461 406.75 8.44141 406.465 8.44141C406.035 8.44141 405.609 8.51367 405.188 8.6582C404.766 8.79883 404.387 9.01562 404.051 9.30859C403.715 9.60156 403.443 9.9707 403.236 10.416C403.029 10.8574 402.926 11.3789 402.926 11.9805C402.926 12.582 403.029 13.1055 403.236 13.5508C403.443 13.9922 403.715 14.3594 404.051 14.6523C404.387 14.9453 404.766 15.1641 405.188 15.3086C405.609 15.4492 406.035 15.5195 406.465 15.5195C406.75 15.5195 407.035 15.4883 407.32 15.4258C407.605 15.3594 407.879 15.2617 408.141 15.1328C408.402 15.0039 408.646 14.8418 408.873 14.6465C409.1 14.4512 409.295 14.2227 409.459 13.9609C409.627 13.6953 409.758 13.3984 409.852 13.0703C409.945 12.7422 409.992 12.3789 409.992 11.9805Z" fill="black"/>
<rect x="350.5" y="0.5" width="99" height="24" stroke="black"/>
<path d="M262.164 16V7.432H267.252V8.38H263.244V11.056H264.516C265.372 11.056 266.036 11.164 266.508 11.38C266.98 11.588 267.308 11.876 267.492 12.244C267.676 12.604 267.768 13.02 267.768 13.492C267.768 14.276 267.532 14.892 267.06 15.34C266.588 15.78 265.792 16 264.672 16H262.164ZM264.564 15.076C265.332 15.076 265.872 14.948 266.184 14.692C266.496 14.428 266.652 14.028 266.652 13.492C266.652 12.94 266.48 12.552 266.136 12.328C265.792 12.104 265.208 11.992 264.384 11.992H263.244V15.076H264.564ZM271.839 9.46C272.623 9.46 273.203 9.632 273.579 9.976C273.955 10.32 274.143 10.868 274.143 11.62V16H273.375L273.171 15.088H273.123C272.843 15.44 272.547 15.7 272.235 15.868C271.931 16.036 271.507 16.12 270.963 16.12C270.379 16.12 269.895 15.968 269.511 15.664C269.127 15.352 268.935 14.868 268.935 14.212C268.935 13.572 269.187 13.08 269.691 12.736C270.195 12.384 270.971 12.192 272.019 12.16L273.111 12.124V11.74C273.111 11.204 272.995 10.832 272.763 10.624C272.531 10.416 272.203 10.312 271.779 10.312C271.443 10.312 271.123 10.364 270.819 10.468C270.515 10.564 270.231 10.676 269.967 10.804L269.643 10.012C269.923 9.86 270.255 9.732 270.639 9.628C271.023 9.516 271.423 9.46 271.839 9.46ZM272.151 12.892C271.351 12.924 270.795 13.052 270.483 13.276C270.179 13.5 270.027 13.816 270.027 14.224C270.027 14.584 270.135 14.848 270.351 15.016C270.575 15.184 270.859 15.268 271.203 15.268C271.747 15.268 272.199 15.12 272.559 14.824C272.919 14.52 273.099 14.056 273.099 13.432V12.856L272.151 12.892ZM277.653 12.712L275.433 9.568H276.633L278.289 11.992L279.933 9.568H281.121L278.901 12.712L281.241 16H280.041L278.289 13.432L276.513 16H275.325L277.653 12.712ZM283.477 13.492C283.477 13.588 283.473 13.732 283.465 13.924C283.457 14.116 283.445 14.308 283.429 14.5C283.421 14.692 283.413 14.844 283.405 14.956L286.849 9.568H288.145V16H287.161V12.208C287.161 12.08 287.161 11.912 287.161 11.704C287.169 11.496 287.177 11.292 287.185 11.092C287.193 10.884 287.201 10.728 287.209 10.624L283.789 16H282.481V9.568H283.477V13.492ZM294.632 10.456H292.532V16H291.488V10.456H289.412V9.568H294.632V10.456ZM301.374 12.772C301.374 13.836 301.102 14.66 300.558 15.244C300.022 15.828 299.294 16.12 298.374 16.12C297.806 16.12 297.298 15.992 296.85 15.736C296.41 15.472 296.062 15.092 295.806 14.596C295.55 14.092 295.422 13.484 295.422 12.772C295.422 11.708 295.69 10.888 296.226 10.312C296.762 9.736 297.49 9.448 298.41 9.448C298.994 9.448 299.506 9.58 299.946 9.844C300.394 10.1 300.742 10.476 300.99 10.972C301.246 11.46 301.374 12.06 301.374 12.772ZM296.514 12.772C296.514 13.532 296.662 14.136 296.958 14.584C297.262 15.024 297.742 15.244 298.398 15.244C299.046 15.244 299.522 15.024 299.826 14.584C300.13 14.136 300.282 13.532 300.282 12.772C300.282 12.012 300.13 11.416 299.826 10.984C299.522 10.552 299.042 10.336 298.386 10.336C297.73 10.336 297.254 10.552 296.958 10.984C296.662 11.416 296.514 12.012 296.514 12.772ZM308.219 11.188C308.219 11.588 308.099 11.9 307.859 12.124C307.619 12.348 307.311 12.5 306.935 12.58V12.628C307.335 12.684 307.683 12.828 307.979 13.06C308.275 13.284 308.423 13.636 308.423 14.116C308.423 14.66 308.219 15.112 307.811 15.472C307.411 15.824 306.747 16 305.819 16H303.047V9.568H305.807C306.263 9.568 306.671 9.62 307.031 9.724C307.399 9.82 307.687 9.988 307.895 10.228C308.111 10.46 308.219 10.78 308.219 11.188ZM307.151 11.32C307.151 11.016 307.039 10.796 306.815 10.66C306.599 10.516 306.243 10.444 305.747 10.444H304.103V12.208H305.555C306.619 12.208 307.151 11.912 307.151 11.32ZM307.331 14.116C307.331 13.748 307.191 13.484 306.911 13.324C306.631 13.164 306.219 13.084 305.675 13.084H304.103V15.148H305.699C306.227 15.148 306.631 15.072 306.911 14.92C307.191 14.76 307.331 14.492 307.331 14.116ZM312.397 9.46C313.181 9.46 313.761 9.632 314.137 9.976C314.513 10.32 314.701 10.868 314.701 11.62V16H313.933L313.729 15.088H313.681C313.401 15.44 313.105 15.7 312.793 15.868C312.489 16.036 312.065 16.12 311.521 16.12C310.937 16.12 310.453 15.968 310.069 15.664C309.685 15.352 309.493 14.868 309.493 14.212C309.493 13.572 309.745 13.08 310.249 12.736C310.753 12.384 311.529 12.192 312.577 12.16L313.669 12.124V11.74C313.669 11.204 313.553 10.832 313.321 10.624C313.089 10.416 312.761 10.312 312.337 10.312C312.001 10.312 311.681 10.364 311.377 10.468C311.073 10.564 310.789 10.676 310.525 10.804L310.201 10.012C310.481 9.86 310.813 9.732 311.197 9.628C311.581 9.516 311.981 9.46 312.397 9.46ZM312.709 12.892C311.909 12.924 311.353 13.052 311.041 13.276C310.737 13.5 310.585 13.816 310.585 14.224C310.585 14.584 310.693 14.848 310.909 15.016C311.133 15.184 311.417 15.268 311.761 15.268C312.305 15.268 312.757 15.12 313.117 14.824C313.477 14.52 313.657 14.056 313.657 13.432V12.856L312.709 12.892ZM326.72 16L325.688 13.348H322.292L321.272 16H320.18L323.528 7.396H324.5L327.836 16H326.72ZM324.404 9.796C324.38 9.732 324.34 9.616 324.284 9.448C324.228 9.28 324.172 9.108 324.116 8.932C324.068 8.748 324.028 8.608 323.996 8.512C323.94 8.76 323.876 9.004 323.804 9.244C323.732 9.476 323.672 9.66 323.624 9.796L322.652 12.388H325.364L324.404 9.796ZM328.441 16V14.7285H329.461V16H328.441ZM334.906 8.26C333.986 8.26 333.262 8.568 332.734 9.184C332.206 9.8 331.942 10.644 331.942 11.716C331.942 12.78 332.186 13.624 332.674 14.248C333.17 14.864 333.91 15.172 334.894 15.172C335.27 15.172 335.626 15.14 335.962 15.076C336.298 15.012 336.626 14.932 336.946 14.836V15.772C336.626 15.892 336.294 15.98 335.95 16.036C335.614 16.092 335.21 16.12 334.738 16.12C333.866 16.12 333.138 15.94 332.554 15.58C331.97 15.22 331.53 14.708 331.234 14.044C330.946 13.38 330.802 12.6 330.802 11.704C330.802 10.84 330.958 10.08 331.27 9.424C331.59 8.76 332.058 8.244 332.674 7.876C333.29 7.5 334.038 7.312 334.918 7.312C335.822 7.312 336.61 7.48 337.282 7.816L336.85 8.728C336.586 8.608 336.29 8.5 335.962 8.404C335.642 8.308 335.29 8.26 334.906 8.26ZM338.25 16V14.7285H339.27V16H338.25Z" fill="black"/>
<rect x="250.5" y="0.5" width="99" height="24" stroke="black"/>
<path d="M191.15 11.7051C191.611 11.7637 192.012 11.8555 192.352 11.9805C192.695 12.1055 192.979 12.2539 193.201 12.4258C193.428 12.5977 193.596 12.793 193.705 13.0117C193.814 13.2266 193.869 13.4551 193.869 13.6973C193.869 14.1191 193.762 14.4863 193.547 14.7988C193.336 15.1074 193.047 15.3633 192.68 15.5664C192.316 15.7656 191.889 15.9141 191.396 16.0117C190.908 16.1094 190.389 16.1582 189.838 16.1582C189.443 16.1582 189.088 16.1426 188.771 16.1113C188.455 16.084 188.164 16.043 187.898 15.9883C187.633 15.9336 187.385 15.8691 187.154 15.7949C186.924 15.7168 186.699 15.6328 186.48 15.543V14.6934C186.969 14.9824 187.473 15.1934 187.992 15.3262C188.512 15.4551 189.068 15.5195 189.662 15.5195C190.26 15.5195 190.775 15.4766 191.209 15.3906C191.646 15.3008 192.006 15.1777 192.287 15.0215C192.572 14.8613 192.783 14.6699 192.92 14.4473C193.061 14.2246 193.131 13.9785 193.131 13.709C193.131 13.127 192.777 12.7031 192.07 12.4375C191.367 12.1719 190.287 12.0352 188.83 12.0273V11.3945C190.158 11.3945 191.158 11.2793 191.83 11.0488C192.502 10.8145 192.838 10.4414 192.838 9.92969C192.838 9.45312 192.568 9.08398 192.029 8.82227C191.494 8.56055 190.705 8.42969 189.662 8.42969C189.357 8.42969 189.072 8.44531 188.807 8.47656C188.545 8.50781 188.293 8.55469 188.051 8.61719C187.809 8.67969 187.572 8.75586 187.342 8.8457C187.111 8.93555 186.877 9.04102 186.639 9.16211V8.31836C186.9 8.23242 187.156 8.1582 187.406 8.0957C187.656 8.0293 187.908 7.97461 188.162 7.93164C188.416 7.88867 188.676 7.85742 188.941 7.83789C189.207 7.81445 189.486 7.80273 189.779 7.80273C190.107 7.80273 190.428 7.81836 190.74 7.84961C191.057 7.88086 191.355 7.93164 191.637 8.00195C191.918 8.06836 192.176 8.15625 192.41 8.26562C192.648 8.37109 192.854 8.50195 193.025 8.6582C193.197 8.81055 193.33 8.98828 193.424 9.19141C193.521 9.39453 193.57 9.625 193.57 9.88281C193.57 10.0898 193.52 10.291 193.418 10.4863C193.32 10.6816 193.17 10.8613 192.967 11.0254C192.768 11.1895 192.516 11.332 192.211 11.4531C191.91 11.5703 191.557 11.6543 191.15 11.7051ZM195.316 16V14.7285H196.336V16H195.316ZM199.799 16H198.938L203.619 8.61719H196.945V7.94922H204.627V8.35352L199.799 16ZM207.838 16H206.977L211.658 8.61719H204.984V7.94922H212.666V8.35352L207.838 16Z" fill="black"/>
<rect x="150.5" y="0.5" width="99" height="24" stroke="black"/>
<path d="M69.54 16L68.508 13.348H65.112L64.092 16H63L66.348 7.396H67.32L70.656 16H69.54ZM67.224 9.796C67.2 9.732 67.16 9.616 67.104 9.448C67.048 9.28 66.992 9.108 66.936 8.932C66.888 8.748 66.848 8.608 66.816 8.512C66.76 8.76 66.696 9.004 66.624 9.244C66.552 9.476 66.492 9.66 66.444 9.796L65.472 12.388H68.184L67.224 9.796ZM75.4881 9.568H76.6401L73.8921 12.664L76.8681 16H75.6441L72.7401 12.736V16H71.6841V9.568H72.7401V12.688L75.4881 9.568ZM84.9356 9.568V16H83.9876V11.896C83.9876 11.728 83.9916 11.552 83.9996 11.368C84.0156 11.184 84.0316 11.004 84.0476 10.828H84.0116L81.9116 16H81.0236L78.9836 10.828H78.9476C78.9716 11.188 78.9836 11.556 78.9836 11.932V16H78.0356V9.568H79.4396L81.4676 14.74L83.5316 9.568H84.9356ZM89.4248 9.46C90.2088 9.46 90.7888 9.632 91.1648 9.976C91.5408 10.32 91.7288 10.868 91.7288 11.62V16H90.9608L90.7568 15.088H90.7088C90.4288 15.44 90.1328 15.7 89.8208 15.868C89.5168 16.036 89.0928 16.12 88.5488 16.12C87.9648 16.12 87.4808 15.968 87.0968 15.664C86.7128 15.352 86.5208 14.868 86.5208 14.212C86.5208 13.572 86.7728 13.08 87.2768 12.736C87.7808 12.384 88.5568 12.192 89.6048 12.16L90.6968 12.124V11.74C90.6968 11.204 90.5808 10.832 90.3488 10.624C90.1168 10.416 89.7888 10.312 89.3648 10.312C89.0288 10.312 88.7088 10.364 88.4048 10.468C88.1008 10.564 87.8168 10.676 87.5527 10.804L87.2288 10.012C87.5088 9.86 87.8408 9.732 88.2248 9.628C88.6088 9.516 89.0088 9.46 89.4248 9.46ZM89.7368 12.892C88.9368 12.924 88.3808 13.052 88.0688 13.276C87.7648 13.5 87.6128 13.816 87.6128 14.224C87.6128 14.584 87.7208 14.848 87.9368 15.016C88.1608 15.184 88.4448 15.268 88.7888 15.268C89.3328 15.268 89.7848 15.12 90.1448 14.824C90.5048 14.52 90.6848 14.056 90.6848 13.432V12.856L89.7368 12.892ZM94.7713 9.568V12.244H98.2633V9.568H99.3193V16H98.2633V13.132H94.7713V16H93.7153V9.568H94.7713ZM106.948 12.772C106.948 13.836 106.676 14.66 106.132 15.244C105.596 15.828 104.868 16.12 103.948 16.12C103.38 16.12 102.872 15.992 102.424 15.736C101.984 15.472 101.636 15.092 101.38 14.596C101.124 14.092 100.996 13.484 100.996 12.772C100.996 11.708 101.264 10.888 101.8 10.312C102.336 9.736 103.064 9.448 103.984 9.448C104.568 9.448 105.08 9.58 105.52 9.844C105.968 10.1 106.316 10.476 106.564 10.972C106.82 11.46 106.948 12.06 106.948 12.772ZM102.088 12.772C102.088 13.532 102.236 14.136 102.532 14.584C102.836 15.024 103.316 15.244 103.972 15.244C104.62 15.244 105.096 15.024 105.4 14.584C105.704 14.136 105.856 13.532 105.856 12.772C105.856 12.012 105.704 11.416 105.4 10.984C105.096 10.552 104.616 10.336 103.96 10.336C103.304 10.336 102.828 10.552 102.532 10.984C102.236 11.416 102.088 12.012 102.088 12.772ZM113.794 11.188C113.794 11.588 113.674 11.9 113.434 12.124C113.194 12.348 112.886 12.5 112.51 12.58V12.628C112.91 12.684 113.258 12.828 113.554 13.06C113.85 13.284 113.998 13.636 113.998 14.116C113.998 14.66 113.794 15.112 113.386 15.472C112.986 15.824 112.322 16 111.394 16H108.622V9.568H111.382C111.838 9.568 112.246 9.62 112.606 9.724C112.974 9.82 113.262 9.988 113.47 10.228C113.686 10.46 113.794 10.78 113.794 11.188ZM112.726 11.32C112.726 11.016 112.614 10.796 112.39 10.66C112.174 10.516 111.818 10.444 111.322 10.444H109.678V12.208H111.13C112.194 12.208 112.726 11.912 112.726 11.32ZM112.906 14.116C112.906 13.748 112.766 13.484 112.486 13.324C112.206 13.164 111.794 13.084 111.25 13.084H109.678V15.148H111.274C111.802 15.148 112.206 15.072 112.486 14.92C112.766 14.76 112.906 14.492 112.906 14.116ZM120.203 7.432H121.211V12.136C121.211 12.4 121.207 12.696 121.199 13.024C121.191 13.352 121.179 13.652 121.163 13.924C121.155 14.196 121.143 14.396 121.127 14.524H121.175L125.891 7.432H127.091V16H126.083V11.344C126.083 11.048 126.087 10.732 126.095 10.396C126.111 10.06 126.127 9.752 126.143 9.472C126.159 9.192 126.171 8.992 126.179 8.872H126.131L121.403 16H120.203V7.432ZM128.836 16V14.7285H129.855V16H128.836ZM131.641 7.432H132.649V12.136C132.649 12.4 132.645 12.696 132.637 13.024C132.629 13.352 132.617 13.652 132.601 13.924C132.593 14.196 132.581 14.396 132.565 14.524H132.613L137.329 7.432H138.529V16H137.521V11.344C137.521 11.048 137.525 10.732 137.533 10.396C137.549 10.06 137.565 9.752 137.581 9.472C137.597 9.192 137.609 8.992 137.617 8.872H137.569L132.841 16H131.641V7.432ZM140.273 16V14.7285H141.293V16H140.273Z" fill="black"/>
<rect x="50.5" y="0.5" width="99" height="24" stroke="black"/>
<path d="M24.9219 16V8.59375L23 9.19727V8.54688L24.9219 7.94922H25.6426V16H24.9219Z" fill="black"/>
<rect x="0.5" y="0.5" width="49" height="24" stroke="black"/>
</svg>
