<svg width="900" height="50" viewBox="0 0 900 50" fill="none" xmlns="http://www.w3.org/2000/svg">
<rect width="900" height="50" fill="white"/>
<path d="M235.645 21.3613C235.391 21.2376 235.055 21.0977 234.639 20.9414C234.222 20.7852 233.75 20.6387 233.223 20.502C232.695 20.3587 232.122 20.2415 231.504 20.1504C230.885 20.0527 230.251 20.0039 229.6 20.0039C229.079 20.0039 228.633 20.0202 228.262 20.0527C227.897 20.0853 227.588 20.1276 227.334 20.1797C227.087 20.2318 226.888 20.2936 226.738 20.3652C226.595 20.4303 226.484 20.4987 226.406 20.5703C226.328 20.6419 226.276 20.7135 226.25 20.7852C226.23 20.8568 226.221 20.9219 226.221 20.9805C226.221 21.1758 226.318 21.3483 226.514 21.498C226.709 21.6413 226.976 21.7715 227.314 21.8887C227.653 21.9993 228.047 22.1068 228.496 22.2109C228.945 22.3086 229.421 22.4128 229.922 22.5234C230.43 22.6276 230.951 22.7448 231.484 22.875C232.025 22.9987 232.546 23.1452 233.047 23.3145C233.555 23.4837 234.033 23.6823 234.482 23.9102C234.932 24.1315 235.326 24.3919 235.664 24.6914C236.003 24.9909 236.27 25.3359 236.465 25.7266C236.66 26.1172 236.758 26.5632 236.758 27.0645C236.758 27.709 236.644 28.2624 236.416 28.7246C236.188 29.1868 235.882 29.5775 235.498 29.8965C235.12 30.2155 234.681 30.4727 234.18 30.668C233.678 30.8568 233.151 31.0033 232.598 31.1074C232.051 31.2116 231.494 31.2799 230.928 31.3125C230.368 31.3451 229.834 31.3613 229.326 31.3613C227.998 31.3613 226.768 31.2507 225.635 31.0293C224.508 30.8145 223.512 30.5443 222.646 30.2188V27.0156C223.538 27.5104 224.554 27.8978 225.693 28.1777C226.839 28.4577 228.063 28.5977 229.365 28.5977C230.133 28.5977 230.758 28.5586 231.24 28.4805C231.729 28.3958 232.109 28.2917 232.383 28.168C232.656 28.0378 232.842 27.8978 232.939 27.748C233.037 27.5983 233.086 27.4551 233.086 27.3184C233.086 27.1035 232.988 26.918 232.793 26.7617C232.598 26.599 232.331 26.459 231.992 26.3418C231.654 26.2181 231.26 26.1074 230.811 26.0098C230.361 25.9056 229.883 25.8047 229.375 25.707C228.874 25.6029 228.356 25.4922 227.822 25.375C227.288 25.2578 226.768 25.1211 226.26 24.9648C225.758 24.8021 225.283 24.6165 224.834 24.4082C224.385 24.1934 223.991 23.9427 223.652 23.6562C223.314 23.3633 223.047 23.028 222.852 22.6504C222.656 22.2663 222.559 21.8236 222.559 21.3223C222.559 20.7298 222.663 20.2188 222.871 19.7891C223.079 19.3594 223.359 18.9948 223.711 18.6953C224.069 18.3893 224.479 18.1419 224.941 17.9531C225.41 17.7643 225.902 17.6178 226.416 17.5137C226.93 17.4095 227.451 17.3379 227.979 17.2988C228.506 17.2598 229.007 17.2402 229.482 17.2402C230.003 17.2402 230.537 17.2663 231.084 17.3184C231.637 17.3704 232.181 17.4453 232.715 17.543C233.249 17.6341 233.763 17.7415 234.258 17.8652C234.759 17.9889 235.221 18.1191 235.645 18.2559V21.3613ZM240.195 31V17.582H253.779V20.4434H243.916V22.6602H253.271V25.5215H243.916V28.1387H253.916V31H240.195ZM257.422 31V17.582H261.045V28.0605H270.84V31H257.422ZM273.75 31V17.582H287.334V20.4434H277.471V22.6602H286.826V25.5215H277.471V28.1387H287.471V31H273.75ZM305.762 30.082C305.293 30.2773 304.821 30.4531 304.346 30.6094C303.87 30.7656 303.379 30.8991 302.871 31.0098C302.363 31.127 301.826 31.2148 301.26 31.2734C300.7 31.332 300.098 31.3613 299.453 31.3613C298.086 31.3613 296.826 31.2148 295.674 30.9219C294.528 30.6289 293.538 30.1895 292.705 29.6035C291.878 29.0111 291.234 28.2754 290.771 27.3965C290.309 26.5111 290.078 25.4792 290.078 24.3008C290.078 23.1224 290.309 22.0938 290.771 21.2148C291.234 20.3294 291.878 19.5938 292.705 19.0078C293.538 18.4154 294.528 17.9727 295.674 17.6797C296.826 17.3867 298.086 17.2402 299.453 17.2402C300.098 17.2402 300.7 17.2695 301.26 17.3281C301.826 17.3867 302.363 17.4746 302.871 17.5918C303.379 17.7025 303.87 17.8359 304.346 17.9922C304.821 18.1484 305.293 18.3242 305.762 18.5195V21.7812C305.391 21.5794 305 21.3809 304.59 21.1855C304.18 20.9837 303.727 20.8047 303.232 20.6484C302.738 20.4857 302.194 20.3555 301.602 20.2578C301.009 20.1536 300.342 20.1016 299.6 20.1016C298.46 20.1016 297.513 20.2188 296.758 20.4531C296.009 20.6875 295.41 21 294.961 21.3906C294.512 21.7812 294.196 22.2305 294.014 22.7383C293.831 23.2396 293.74 23.7604 293.74 24.3008C293.74 24.6589 293.779 25.0137 293.857 25.3652C293.936 25.7103 294.066 26.0391 294.248 26.3516C294.43 26.6576 294.668 26.9408 294.961 27.2012C295.254 27.4616 295.618 27.6862 296.055 27.875C296.491 28.0638 296.999 28.2135 297.578 28.3242C298.164 28.4284 298.838 28.4805 299.6 28.4805C300.342 28.4805 301.009 28.4349 301.602 28.3438C302.194 28.2461 302.738 28.1191 303.232 27.9629C303.727 27.8066 304.18 27.6309 304.59 27.4355C305 27.2337 305.391 27.0286 305.762 26.8203V30.082ZM316.66 20.502V31H313.037V20.502H307.344V17.582H322.363V20.502H316.66ZM323.867 31V27.4844H327.568V31H323.867ZM323.867 24.7988V21.2832H327.568V24.7988H323.867Z" fill="#FF7731"/>
<path d="M355.459 31V21.5762L350.479 31H347.002L342.021 21.5762V31H338.398V17.582H343.32L348.74 27.7383L354.16 17.582H359.062V31H355.459ZM363.262 31V17.582H366.885V31H363.262ZM379.971 24.1152L386.338 31H381.992L377.793 26.4785L373.613 31H369.277L375.635 24.1152L369.59 17.582H373.936L377.793 21.7812L381.67 17.582H386.016L379.971 24.1152ZM404.873 17.2402C406.188 17.2402 407.409 17.3542 408.535 17.582C409.668 17.8034 410.706 18.0898 411.65 18.4414V21.7227C411.279 21.5143 410.859 21.3125 410.391 21.1172C409.928 20.9219 409.424 20.7493 408.877 20.5996C408.33 20.4499 407.744 20.3294 407.119 20.2383C406.494 20.1471 405.837 20.1016 405.146 20.1016C404.287 20.1016 403.538 20.1634 402.9 20.2871C402.262 20.4108 401.715 20.5768 401.26 20.7852C400.804 20.9935 400.43 21.2376 400.137 21.5176C399.844 21.791 399.613 22.084 399.443 22.3965C399.274 22.709 399.157 23.028 399.092 23.3535C399.027 23.679 398.994 23.9948 398.994 24.3008C398.994 24.5677 399.02 24.8574 399.072 25.1699C399.131 25.4824 399.235 25.7949 399.385 26.1074C399.541 26.4199 399.756 26.7194 400.029 27.0059C400.303 27.2923 400.658 27.5462 401.094 27.7676C401.536 27.9889 402.067 28.168 402.686 28.3047C403.304 28.4349 404.04 28.5 404.893 28.5C405.322 28.5 405.697 28.487 406.016 28.4609C406.335 28.4349 406.624 28.3991 406.885 28.3535C407.152 28.3079 407.399 28.2526 407.627 28.1875C407.861 28.1224 408.102 28.054 408.35 27.9824V26.3613H404.287V23.4219H411.973V30.2773C411.491 30.4401 410.951 30.5898 410.352 30.7266C409.759 30.8568 409.144 30.9674 408.506 31.0586C407.874 31.1562 407.24 31.2311 406.602 31.2832C405.964 31.3353 405.361 31.3613 404.795 31.3613C403.916 31.3613 403.073 31.3027 402.266 31.1855C401.458 31.0684 400.703 30.8893 400 30.6484C399.303 30.401 398.665 30.0885 398.086 29.7109C397.513 29.3333 397.021 28.8841 396.611 28.3633C396.208 27.8424 395.892 27.2467 395.664 26.5762C395.443 25.8991 395.332 25.1406 395.332 24.3008C395.332 23.4674 395.449 22.7122 395.684 22.0352C395.918 21.3581 396.243 20.7591 396.66 20.2383C397.083 19.7174 397.588 19.2682 398.174 18.8906C398.766 18.513 399.414 18.2038 400.117 17.9629C400.827 17.7155 401.582 17.5332 402.383 17.416C403.19 17.2988 404.02 17.2402 404.873 17.2402ZM433.242 24.3008C433.242 25.4531 433.031 26.472 432.607 27.3574C432.184 28.2363 431.579 28.972 430.791 29.5645C430.003 30.1569 429.046 30.6061 427.92 30.9121C426.8 31.2116 425.54 31.3613 424.141 31.3613C422.741 31.3613 421.475 31.2116 420.342 30.9121C419.215 30.6061 418.255 30.1569 417.461 29.5645C416.667 28.972 416.055 28.2363 415.625 27.3574C415.195 26.472 414.98 25.4531 414.98 24.3008C414.98 23.1484 415.195 22.1328 415.625 21.2539C416.055 20.3685 416.667 19.6296 417.461 19.0371C418.255 18.4447 419.215 17.9987 420.342 17.6992C421.475 17.3932 422.741 17.2402 424.141 17.2402C425.54 17.2402 426.8 17.3932 427.92 17.6992C429.046 17.9987 430.003 18.4447 430.791 19.0371C431.579 19.6296 432.184 20.3685 432.607 21.2539C433.031 22.1328 433.242 23.1484 433.242 24.3008ZM429.58 24.3008C429.58 23.7995 429.499 23.3014 429.336 22.8066C429.18 22.3053 428.896 21.8561 428.486 21.459C428.083 21.0618 427.529 20.7396 426.826 20.4922C426.123 20.2448 425.228 20.1211 424.141 20.1211C423.411 20.1211 422.77 20.1797 422.217 20.2969C421.663 20.4076 421.185 20.5638 420.781 20.7656C420.378 20.9674 420.039 21.2051 419.766 21.4785C419.492 21.7454 419.274 22.0352 419.111 22.3477C418.949 22.6536 418.831 22.9759 418.76 23.3145C418.695 23.6465 418.662 23.9753 418.662 24.3008C418.662 24.6328 418.695 24.9681 418.76 25.3066C418.831 25.6452 418.949 25.9707 419.111 26.2832C419.274 26.5892 419.492 26.8757 419.766 27.1426C420.039 27.4095 420.378 27.6439 420.781 27.8457C421.185 28.041 421.663 28.1973 422.217 28.3145C422.77 28.4251 423.411 28.4805 424.141 28.4805C425.228 28.4805 426.123 28.3568 426.826 28.1094C427.529 27.862 428.083 27.5397 428.486 27.1426C428.896 26.7454 429.18 26.2995 429.336 25.8047C429.499 25.3034 429.58 24.8021 429.58 24.3008ZM453.906 24.3008C453.906 25.4531 453.695 26.472 453.271 27.3574C452.848 28.2363 452.243 28.972 451.455 29.5645C450.667 30.1569 449.71 30.6061 448.584 30.9121C447.464 31.2116 446.204 31.3613 444.805 31.3613C443.405 31.3613 442.139 31.2116 441.006 30.9121C439.88 30.6061 438.919 30.1569 438.125 29.5645C437.331 28.972 436.719 28.2363 436.289 27.3574C435.859 26.472 435.645 25.4531 435.645 24.3008C435.645 23.1484 435.859 22.1328 436.289 21.2539C436.719 20.3685 437.331 19.6296 438.125 19.0371C438.919 18.4447 439.88 17.9987 441.006 17.6992C442.139 17.3932 443.405 17.2402 444.805 17.2402C446.204 17.2402 447.464 17.3932 448.584 17.6992C449.71 17.9987 450.667 18.4447 451.455 19.0371C452.243 19.6296 452.848 20.3685 453.271 21.2539C453.695 22.1328 453.906 23.1484 453.906 24.3008ZM450.244 24.3008C450.244 23.7995 450.163 23.3014 450 22.8066C449.844 22.3053 449.561 21.8561 449.15 21.459C448.747 21.0618 448.193 20.7396 447.49 20.4922C446.787 20.2448 445.892 20.1211 444.805 20.1211C444.076 20.1211 443.434 20.1797 442.881 20.2969C442.327 20.4076 441.849 20.5638 441.445 20.7656C441.042 20.9674 440.703 21.2051 440.43 21.4785C440.156 21.7454 439.938 22.0352 439.775 22.3477C439.613 22.6536 439.495 22.9759 439.424 23.3145C439.359 23.6465 439.326 23.9753 439.326 24.3008C439.326 24.6328 439.359 24.9681 439.424 25.3066C439.495 25.6452 439.613 25.9707 439.775 26.2832C439.938 26.5892 440.156 26.8757 440.43 27.1426C440.703 27.4095 441.042 27.6439 441.445 27.8457C441.849 28.041 442.327 28.1973 442.881 28.3145C443.434 28.4251 444.076 28.4805 444.805 28.4805C445.892 28.4805 446.787 28.3568 447.49 28.1094C448.193 27.862 448.747 27.5397 449.15 27.1426C449.561 26.7454 449.844 26.2995 450 25.8047C450.163 25.3034 450.244 24.8021 450.244 24.3008ZM473.643 24.2812C473.643 25.1406 473.548 25.9056 473.359 26.5762C473.171 27.2402 472.904 27.8197 472.559 28.3145C472.22 28.8092 471.81 29.2292 471.328 29.5742C470.853 29.9193 470.322 30.196 469.736 30.4043C469.15 30.6126 468.519 30.7656 467.842 30.8633C467.165 30.9544 466.458 31 465.723 31H457.207V17.582H465.703C466.439 17.582 467.145 17.6309 467.822 17.7285C468.499 17.8197 469.131 17.9694 469.717 18.1777C470.309 18.3861 470.846 18.6628 471.328 19.0078C471.81 19.3464 472.22 19.7663 472.559 20.2676C472.904 20.7624 473.171 21.3418 473.359 22.0059C473.548 22.6699 473.643 23.4284 473.643 24.2812ZM469.99 24.2812C469.99 23.6367 469.906 23.0768 469.736 22.6016C469.574 22.1263 469.307 21.7357 468.936 21.4297C468.571 21.1172 468.092 20.8861 467.5 20.7363C466.908 20.5801 466.185 20.502 465.332 20.502H460.83V28.0801H465.332C466.185 28.0801 466.908 28.0052 467.5 27.8555C468.092 27.6992 468.571 27.4648 468.936 27.1523C469.307 26.8333 469.574 26.4362 469.736 25.9609C469.906 25.4857 469.99 24.9258 469.99 24.2812ZM492.256 27.2988C492.256 27.8197 492.188 28.2721 492.051 28.6562C491.914 29.0404 491.722 29.3724 491.475 29.6523C491.234 29.9258 490.941 30.1504 490.596 30.3262C490.257 30.4954 489.88 30.6322 489.463 30.7363C489.053 30.834 488.613 30.9023 488.145 30.9414C487.676 30.9805 487.191 31 486.689 31H476.953V17.582H486.514C486.898 17.582 487.282 17.5983 487.666 17.6309C488.057 17.6634 488.428 17.7253 488.779 17.8164C489.131 17.901 489.456 18.0215 489.756 18.1777C490.062 18.334 490.326 18.5391 490.547 18.793C490.775 19.0469 490.951 19.3529 491.074 19.7109C491.204 20.069 491.27 20.4922 491.27 20.9805C491.27 21.8529 491.055 22.5462 490.625 23.0605C490.195 23.5684 489.518 23.9069 488.594 24.0762C489.245 24.1217 489.801 24.2227 490.264 24.3789C490.732 24.5286 491.113 24.737 491.406 25.0039C491.699 25.2643 491.914 25.5866 492.051 25.9707C492.188 26.3483 492.256 26.791 492.256 27.2988ZM487.734 21.5566C487.734 21.3874 487.708 21.2279 487.656 21.0781C487.604 20.9219 487.51 20.7852 487.373 20.668C487.236 20.5508 487.051 20.4564 486.816 20.3848C486.582 20.3132 486.283 20.2773 485.918 20.2773H480.576V22.7969H485.918C486.283 22.7969 486.582 22.7643 486.816 22.6992C487.051 22.6341 487.236 22.5462 487.373 22.4355C487.51 22.3249 487.604 22.1947 487.656 22.0449C487.708 21.8887 487.734 21.7259 487.734 21.5566ZM488.574 26.8789C488.574 26.5729 488.522 26.3288 488.418 26.1465C488.314 25.9577 488.151 25.8145 487.93 25.7168C487.708 25.6126 487.422 25.5443 487.07 25.5117C486.719 25.4792 486.299 25.4629 485.811 25.4629H480.576V28.3047H485.811C486.299 28.3047 486.719 28.2884 487.07 28.2559C487.422 28.2233 487.708 28.1549 487.93 28.0508C488.151 27.9466 488.314 27.8034 488.418 27.6211C488.522 27.4323 488.574 27.1849 488.574 26.8789ZM506.348 28.4609H498.867L497.607 31H493.564L500.586 17.582H504.629L511.65 31H507.607L506.348 28.4609ZM500.166 25.8438H505.068L502.627 20.9023L500.166 25.8438ZM521.191 25.5215V31H517.578V25.5215L511.074 17.582H515.137L519.395 22.9824L523.633 17.582H527.695L521.191 25.5215ZM550.391 31L541.338 21.7812V31H537.715V17.582H541.65L550.713 26.8398V17.582H554.316V31H550.391ZM558.516 31V17.582H572.1V20.4434H562.236V22.6602H571.592V25.5215H562.236V28.1387H572.236V31H558.516ZM588.779 17.582L592.207 26.8984L595.918 17.582H599.678L594.287 31H590.264L586.758 21.9766L583.262 31H579.238L573.838 17.582H577.607L581.24 26.7031L584.746 17.582H588.779ZM617.93 25.5215V31H614.316V25.5215L607.812 17.582H611.875L616.133 22.9824L620.371 17.582H624.434L617.93 25.5215ZM626.934 31V17.582H640.518V20.4434H630.654V22.6602H640.01V25.5215H630.654V28.1387H640.654V31H626.934ZM654.941 28.4609H647.461L646.201 31H642.158L649.18 17.582H653.223L660.244 31H656.201L654.941 28.4609ZM648.76 25.8438H653.662L651.221 20.9023L648.76 25.8438ZM666.064 31H662.441V17.582H671.523C672.5 17.582 673.327 17.6829 674.004 17.8848C674.688 18.0866 675.241 18.373 675.664 18.7441C676.094 19.1152 676.403 19.5645 676.592 20.0918C676.787 20.6126 676.885 21.1953 676.885 21.8398C676.885 22.4062 676.803 22.901 676.641 23.3242C676.484 23.7474 676.27 24.112 675.996 24.418C675.729 24.7174 675.417 24.9714 675.059 25.1797C674.701 25.388 674.323 25.5605 673.926 25.6973L678.32 31H674.082L670.02 26.0586H666.064V31ZM673.223 21.8203C673.223 21.5599 673.187 21.3385 673.115 21.1562C673.05 20.974 672.933 20.8275 672.764 20.7168C672.594 20.5996 672.367 20.515 672.08 20.4629C671.8 20.4108 671.449 20.3848 671.025 20.3848H666.064V23.2559H671.025C671.449 23.2559 671.8 23.2298 672.08 23.1777C672.367 23.1257 672.594 23.0443 672.764 22.9336C672.933 22.8164 673.05 22.6667 673.115 22.4844C673.187 22.3021 673.223 22.0807 673.223 21.8203Z" fill="#2CCFDA"/>
</svg>
