<svg width="500" height="90" viewBox="0 0 500 90" fill="none" xmlns="http://www.w3.org/2000/svg">
<g filter="url(#filter0_d_478_278)">
<path d="M0 35C0 15.67 15.67 0 35 0H445C464.33 0 480 15.67 480 35V35C480 54.33 464.33 70 445 70H35C15.67 70 0 54.33 0 35V35Z" fill="#2CCFDA" fill-opacity="0.25" shape-rendering="crispEdges"/>
<path d="M35 0.5H445C464.054 0.5 479.5 15.9462 479.5 35C479.5 54.0538 464.054 69.5 445 69.5H35C15.9462 69.5 0.5 54.0538 0.5 35C0.5 15.9462 15.9462 0.5 35 0.5Z" stroke="#1B6D73" stroke-opacity="0.25" shape-rendering="crispEdges"/>
</g>
<path d="M192.634 18.296C196.066 18.296 198.658 18.776 200.41 19.736C202.162 20.696 203.038 22.388 203.038 24.812C203.038 26.276 202.69 27.512 201.994 28.52C201.322 29.528 200.35 30.14 199.078 30.356V30.536C199.942 30.704 200.722 31.004 201.418 31.436C202.114 31.868 202.666 32.492 203.074 33.308C203.482 34.124 203.686 35.204 203.686 36.548C203.686 38.876 202.846 40.7 201.166 42.02C199.486 43.34 197.182 44 194.254 44H184.642V18.296H192.634ZM193.246 28.484C194.83 28.484 195.922 28.232 196.522 27.728C197.146 27.224 197.458 26.492 197.458 25.532C197.458 24.548 197.098 23.84 196.378 23.408C195.658 22.976 194.518 22.76 192.958 22.76H190.078V28.484H193.246ZM190.078 32.804V39.5H193.642C195.274 39.5 196.414 39.188 197.062 38.564C197.71 37.916 198.034 37.064 198.034 36.008C198.034 35.048 197.698 34.28 197.026 33.704C196.378 33.104 195.19 32.804 193.462 32.804H190.078ZM226.254 34.136C226.254 37.4 225.39 39.92 223.662 41.696C221.958 43.472 219.63 44.36 216.678 44.36C214.854 44.36 213.222 43.964 211.782 43.172C210.366 42.38 209.25 41.228 208.434 39.716C207.618 38.18 207.21 36.32 207.21 34.136C207.21 30.872 208.062 28.364 209.766 26.612C211.47 24.86 213.81 23.984 216.786 23.984C218.634 23.984 220.266 24.38 221.682 25.172C223.098 25.964 224.214 27.116 225.03 28.628C225.846 30.116 226.254 31.952 226.254 34.136ZM212.682 34.136C212.682 36.08 212.994 37.556 213.618 38.564C214.266 39.548 215.31 40.04 216.75 40.04C218.166 40.04 219.186 39.548 219.81 38.564C220.458 37.556 220.782 36.08 220.782 34.136C220.782 32.192 220.458 30.74 219.81 29.78C219.186 28.796 218.154 28.304 216.714 28.304C215.298 28.304 214.266 28.796 213.618 29.78C212.994 30.74 212.682 32.192 212.682 34.136ZM249.515 15.884C249.395 17.132 249.047 18.236 248.471 19.196C247.895 20.132 246.995 20.864 245.771 21.392C244.547 21.92 242.903 22.184 240.839 22.184C238.727 22.184 237.071 21.932 235.871 21.428C234.695 20.9 233.855 20.168 233.351 19.232C232.847 18.296 232.547 17.18 232.451 15.884H237.239C237.359 17.204 237.695 18.08 238.247 18.512C238.799 18.944 239.699 19.16 240.947 19.16C241.979 19.16 242.819 18.932 243.467 18.476C244.139 17.996 244.535 17.132 244.655 15.884H249.515ZM235.871 32.12C235.871 32.528 235.847 33.032 235.799 33.632C235.775 34.232 235.739 34.844 235.691 35.468C235.667 36.092 235.631 36.644 235.583 37.124C235.535 37.604 235.499 37.94 235.475 38.132L244.547 24.344H250.991V44H245.807V36.152C245.807 35.504 245.831 34.796 245.879 34.028C245.927 33.236 245.975 32.504 246.023 31.832C246.095 31.136 246.143 30.608 246.167 30.248L237.131 44H230.687V24.344H235.871V32.12ZM272.869 28.376H266.425V44H261.061V28.376H254.617V24.344H272.869V28.376ZM281.68 32.12C281.68 32.528 281.656 33.032 281.608 33.632C281.584 34.232 281.548 34.844 281.5 35.468C281.476 36.092 281.44 36.644 281.392 37.124C281.344 37.604 281.308 37.94 281.284 38.132L290.356 24.344H296.8V44H291.616V36.152C291.616 35.504 291.64 34.796 291.688 34.028C291.736 33.236 291.784 32.504 291.832 31.832C291.904 31.136 291.952 30.608 291.976 30.248L282.939 44H276.496V24.344H281.68V32.12Z" fill="white"/>
<defs>
<filter id="filter0_d_478_278" x="0" y="0" width="500" height="90" filterUnits="userSpaceOnUse" color-interpolation-filters="sRGB">
<feFlood flood-opacity="0" result="BackgroundImageFix"/>
<feColorMatrix in="SourceAlpha" type="matrix" values="0 0 0 0 0 0 0 0 0 0 0 0 0 0 0 0 0 0 127 0" result="hardAlpha"/>
<feOffset dx="10" dy="10"/>
<feGaussianBlur stdDeviation="5"/>
<feComposite in2="hardAlpha" operator="out"/>
<feColorMatrix type="matrix" values="0 0 0 0 0 0 0 0 0 0 0 0 0 0 0 0 0 0 0.25 0"/>
<feBlend mode="normal" in2="BackgroundImageFix" result="effect1_dropShadow_478_278"/>
<feBlend mode="normal" in="SourceGraphic" in2="effect1_dropShadow_478_278" result="shape"/>
</filter>
</defs>
</svg>
