<svg width="1280" height="540" viewBox="0 0 1280 540" fill="none" xmlns="http://www.w3.org/2000/svg">
<path d="M320 185C320 157.386 342.386 135 370 135H910C937.614 135 960 157.386 960 185V355C960 382.614 937.614 405 910 405H370C342.386 405 320 382.614 320 355V185Z" fill="#FF7731"/>
<path d="M730.575 365.154C730.575 366.018 730.269 366.714 729.657 367.242C729.045 367.77 728.265 368.1 727.317 368.232V368.286C728.493 368.406 729.393 368.736 730.017 369.276C730.653 369.804 730.971 370.494 730.971 371.346C730.971 372.474 730.509 373.398 729.585 374.118C728.673 374.826 727.329 375.18 725.553 375.18C724.581 375.18 723.717 375.12 722.961 375C722.217 374.88 721.569 374.706 721.017 374.478V372.192C721.389 372.372 721.809 372.528 722.277 372.66C722.745 372.78 723.219 372.876 723.699 372.948C724.179 373.008 724.623 373.038 725.031 373.038C726.171 373.038 726.993 372.876 727.497 372.552C728.013 372.216 728.271 371.748 728.271 371.148C728.271 370.536 727.899 370.092 727.155 369.816C726.411 369.528 725.409 369.384 724.149 369.384H722.943V367.26H724.023C725.043 367.26 725.835 367.194 726.399 367.062C726.963 366.93 727.359 366.738 727.587 366.486C727.815 366.234 727.929 365.934 727.929 365.586C727.929 365.142 727.731 364.794 727.335 364.542C726.951 364.278 726.369 364.146 725.589 364.146C724.929 364.146 724.305 364.242 723.717 364.434C723.141 364.626 722.601 364.878 722.097 365.19L720.909 363.372C721.569 362.94 722.301 362.598 723.105 362.346C723.909 362.094 724.863 361.968 725.967 361.968C727.419 361.968 728.547 362.268 729.351 362.868C730.167 363.468 730.575 364.23 730.575 365.154ZM737.189 364.974C738.509 364.974 739.517 365.262 740.213 365.838C740.921 366.402 741.275 367.272 741.275 368.448V375H739.403L738.881 373.668H738.809C738.389 374.196 737.945 374.58 737.477 374.82C737.009 375.06 736.367 375.18 735.551 375.18C734.675 375.18 733.949 374.928 733.373 374.424C732.797 373.908 732.509 373.122 732.509 372.066C732.509 371.022 732.875 370.254 733.607 369.762C734.339 369.258 735.437 368.982 736.901 368.934L738.611 368.88V368.448C738.611 367.932 738.473 367.554 738.197 367.314C737.933 367.074 737.561 366.954 737.081 366.954C736.601 366.954 736.133 367.026 735.677 367.17C735.221 367.302 734.765 367.47 734.309 367.674L733.427 365.856C733.955 365.58 734.537 365.364 735.173 365.208C735.821 365.052 736.493 364.974 737.189 364.974ZM737.567 370.482C736.703 370.506 736.103 370.662 735.767 370.95C735.431 371.238 735.263 371.616 735.263 372.084C735.263 372.492 735.383 372.786 735.623 372.966C735.863 373.134 736.175 373.218 736.559 373.218C737.135 373.218 737.621 373.05 738.017 372.714C738.413 372.366 738.611 371.88 738.611 371.256V370.446L737.567 370.482ZM743.426 369.114C743.426 366.942 743.834 365.256 744.65 364.056C745.478 362.856 746.84 362.088 748.736 361.752C749.372 361.644 750.014 361.554 750.662 361.482C751.322 361.398 752 361.314 752.696 361.23L753.002 363.57C752.594 363.618 752.144 363.672 751.652 363.732C751.172 363.792 750.692 363.852 750.212 363.912C749.744 363.96 749.324 364.014 748.952 364.074C748.352 364.17 747.854 364.32 747.458 364.524C747.062 364.716 746.756 365.028 746.54 365.46C746.336 365.892 746.21 366.516 746.162 367.332H746.288C746.432 367.104 746.63 366.876 746.882 366.648C747.146 366.42 747.47 366.228 747.854 366.072C748.238 365.916 748.676 365.838 749.168 365.838C750.344 365.838 751.274 366.198 751.958 366.918C752.654 367.638 753.002 368.712 753.002 370.14C753.002 371.256 752.798 372.186 752.39 372.93C751.982 373.674 751.418 374.238 750.698 374.622C749.978 374.994 749.144 375.18 748.196 375.18C746.744 375.18 745.586 374.658 744.722 373.614C743.858 372.57 743.426 371.07 743.426 369.114ZM748.358 373.002C748.922 373.002 749.378 372.81 749.726 372.426C750.086 372.042 750.266 371.358 750.266 370.374C750.266 369.594 750.134 368.976 749.87 368.52C749.618 368.052 749.174 367.818 748.538 367.818C748.154 367.818 747.794 367.914 747.458 368.106C747.134 368.286 746.858 368.496 746.63 368.736C746.402 368.964 746.246 369.162 746.162 369.33C746.162 369.942 746.228 370.53 746.36 371.094C746.492 371.658 746.714 372.12 747.026 372.48C747.35 372.828 747.794 373.002 748.358 373.002ZM755.217 375V365.172H757.899V368.97H759.195C760.695 368.97 761.805 369.21 762.525 369.69C763.245 370.17 763.605 370.896 763.605 371.868C763.605 372.816 763.269 373.578 762.597 374.154C761.925 374.718 760.821 375 759.285 375H755.217ZM765.027 375V365.172H767.709V375H765.027ZM759.141 373.146C759.669 373.146 760.095 373.05 760.419 372.858C760.755 372.666 760.923 372.348 760.923 371.904C760.923 371.184 760.317 370.824 759.105 370.824H757.899V373.146H759.141ZM779.312 375H776.63V367.188H774.164C774.008 369.108 773.798 370.656 773.534 371.832C773.282 372.996 772.928 373.848 772.472 374.388C772.016 374.916 771.404 375.18 770.636 375.18C770.012 375.18 769.502 375.084 769.106 374.892V372.75C769.382 372.87 769.67 372.93 769.97 372.93C770.186 372.93 770.384 372.822 770.564 372.606C770.744 372.39 770.912 372 771.068 371.436C771.236 370.872 771.386 370.086 771.518 369.078C771.65 368.058 771.77 366.756 771.878 365.172H779.312V375ZM784.704 369.06C784.704 369.264 784.692 369.516 784.668 369.816C784.656 370.116 784.638 370.422 784.614 370.734C784.602 371.046 784.584 371.322 784.56 371.562C784.536 371.802 784.518 371.97 784.506 372.066L789.042 365.172H792.264V375H789.672V371.076C789.672 370.752 789.684 370.398 789.708 370.014C789.732 369.618 789.756 369.252 789.78 368.916C789.816 368.568 789.84 368.304 789.852 368.124L785.334 375H782.112V365.172H784.704V369.06ZM810.763 365.172V375H808.081V367.188H804.517V375H801.835V365.172H810.763ZM817.609 364.974C818.929 364.974 819.937 365.262 820.633 365.838C821.341 366.402 821.695 367.272 821.695 368.448V375H819.823L819.301 373.668H819.229C818.809 374.196 818.365 374.58 817.897 374.82C817.429 375.06 816.787 375.18 815.971 375.18C815.095 375.18 814.369 374.928 813.793 374.424C813.217 373.908 812.929 373.122 812.929 372.066C812.929 371.022 813.295 370.254 814.027 369.762C814.759 369.258 815.857 368.982 817.321 368.934L819.031 368.88V368.448C819.031 367.932 818.893 367.554 818.617 367.314C818.353 367.074 817.981 366.954 817.501 366.954C817.021 366.954 816.553 367.026 816.097 367.17C815.641 367.302 815.185 367.47 814.729 367.674L813.847 365.856C814.375 365.58 814.957 365.364 815.593 365.208C816.241 365.052 816.913 364.974 817.609 364.974ZM817.987 370.482C817.123 370.506 816.523 370.662 816.187 370.95C815.851 371.238 815.683 371.616 815.683 372.084C815.683 372.492 815.803 372.786 816.043 372.966C816.283 373.134 816.595 373.218 816.979 373.218C817.555 373.218 818.041 373.05 818.437 372.714C818.833 372.366 819.031 371.88 819.031 371.256V370.446L817.987 370.482ZM829.912 364.992C831.016 364.992 831.91 365.424 832.594 366.288C833.278 367.14 833.62 368.4 833.62 370.068C833.62 371.736 833.266 373.008 832.558 373.884C831.85 374.748 830.944 375.18 829.84 375.18C829.132 375.18 828.568 375.054 828.148 374.802C827.728 374.538 827.386 374.244 827.122 373.92H826.978C827.074 374.424 827.122 374.904 827.122 375.36V379.32H824.44V365.172H826.618L826.996 366.45H827.122C827.386 366.054 827.74 365.712 828.184 365.424C828.628 365.136 829.204 364.992 829.912 364.992ZM829.048 367.134C828.352 367.134 827.86 367.35 827.572 367.782C827.296 368.214 827.146 368.874 827.122 369.762V370.05C827.122 370.998 827.26 371.73 827.536 372.246C827.824 372.75 828.34 373.002 829.084 373.002C829.696 373.002 830.146 372.75 830.434 372.246C830.734 371.73 830.884 370.992 830.884 370.032C830.884 368.1 830.272 367.134 829.048 367.134ZM844.759 370.068C844.759 371.7 844.327 372.96 843.463 373.848C842.611 374.736 841.447 375.18 839.971 375.18C839.059 375.18 838.243 374.982 837.523 374.586C836.815 374.19 836.257 373.614 835.849 372.858C835.441 372.09 835.237 371.16 835.237 370.068C835.237 368.436 835.663 367.182 836.515 366.306C837.367 365.43 838.537 364.992 840.025 364.992C840.949 364.992 841.765 365.19 842.473 365.586C843.181 365.982 843.739 366.558 844.147 367.314C844.555 368.058 844.759 368.976 844.759 370.068ZM837.973 370.068C837.973 371.04 838.129 371.778 838.441 372.282C838.765 372.774 839.287 373.02 840.007 373.02C840.715 373.02 841.225 372.774 841.537 372.282C841.861 371.778 842.023 371.04 842.023 370.068C842.023 369.096 841.861 368.37 841.537 367.89C841.225 367.398 840.709 367.152 839.989 367.152C839.281 367.152 838.765 367.398 838.441 367.89C838.129 368.37 837.973 369.096 837.973 370.068ZM855.777 375H853.095V367.188H850.629C850.473 369.108 850.263 370.656 849.999 371.832C849.747 372.996 849.393 373.848 848.937 374.388C848.481 374.916 847.869 375.18 847.101 375.18C846.477 375.18 845.967 375.084 845.571 374.892V372.75C845.847 372.87 846.135 372.93 846.435 372.93C846.651 372.93 846.849 372.822 847.029 372.606C847.209 372.39 847.377 372 847.533 371.436C847.701 370.872 847.851 370.086 847.983 369.078C848.115 368.058 848.235 366.756 848.343 365.172H855.777V375ZM863.149 368.97C864.661 368.97 865.777 369.21 866.497 369.69C867.229 370.17 867.595 370.896 867.595 371.868C867.595 372.816 867.259 373.578 866.587 374.154C865.915 374.718 864.805 375 863.257 375H858.577V365.172H861.259V368.97H863.149ZM864.913 371.904C864.913 371.184 864.307 370.824 863.095 370.824H861.259V373.146H863.131C863.659 373.146 864.085 373.05 864.409 372.858C864.745 372.666 864.913 372.348 864.913 371.904ZM878.829 366.237C878.829 366.712 878.75 367.131 878.592 367.494C878.439 367.852 878.234 368.168 877.977 368.443C877.725 368.713 877.435 368.941 877.106 369.129C876.778 369.316 876.438 369.478 876.087 369.612C875.735 369.741 875.384 369.847 875.032 369.929C874.687 370.005 874.37 370.069 874.083 370.122V371.036H870.928V368.303C871.32 368.291 871.707 368.268 872.088 368.232C872.469 368.191 872.829 368.139 873.169 368.074C873.509 368.01 873.822 367.931 874.109 367.837C874.402 367.737 874.654 367.623 874.865 367.494C875.076 367.365 875.24 367.222 875.357 367.063C875.475 366.899 875.533 366.718 875.533 366.519C875.533 366.354 875.498 366.199 875.428 366.053C875.357 365.9 875.231 365.769 875.05 365.657C874.868 365.54 874.622 365.449 874.312 365.385C874.001 365.314 873.605 365.279 873.125 365.279C872.779 365.279 872.419 365.309 872.044 365.367C871.669 365.42 871.303 365.493 870.945 365.587C870.594 365.675 870.26 365.777 869.943 365.895C869.627 366.012 869.354 366.132 869.126 366.255V363.267C869.337 363.196 869.604 363.129 869.926 363.064C870.248 362.994 870.597 362.933 870.972 362.88C871.347 362.827 871.73 362.786 872.123 362.757C872.521 362.722 872.902 362.704 873.266 362.704C874.057 362.704 874.789 362.771 875.463 362.906C876.143 363.035 876.731 363.243 877.229 363.53C877.728 363.817 878.117 364.184 878.398 364.629C878.686 365.074 878.829 365.61 878.829 366.237ZM870.928 375V372.196H874.083V375H870.928Z" fill="black"/>
<path d="M425.746 362.148C427.402 362.148 428.608 362.508 429.364 363.228C430.132 363.936 430.516 364.914 430.516 366.162C430.516 366.906 430.36 367.608 430.048 368.268C429.736 368.916 429.214 369.438 428.482 369.834C427.762 370.23 426.778 370.428 425.53 370.428H424.36V375H421.642V362.148H425.746ZM425.602 364.38H424.36V368.196H425.26C426.028 368.196 426.634 368.046 427.078 367.746C427.534 367.434 427.762 366.936 427.762 366.252C427.762 365.004 427.042 364.38 425.602 364.38ZM436.779 364.992C438.135 364.992 439.209 365.382 440.001 366.162C440.793 366.93 441.189 368.028 441.189 369.456V370.752H434.853C434.877 371.508 435.099 372.102 435.519 372.534C435.951 372.966 436.545 373.182 437.301 373.182C437.937 373.182 438.513 373.122 439.029 373.002C439.545 372.87 440.079 372.672 440.631 372.408V374.478C440.151 374.718 439.641 374.892 439.101 375C438.573 375.12 437.931 375.18 437.175 375.18C436.191 375.18 435.321 375 434.565 374.64C433.809 374.268 433.215 373.71 432.783 372.966C432.351 372.222 432.135 371.286 432.135 370.158C432.135 369.006 432.327 368.052 432.711 367.296C433.107 366.528 433.653 365.952 434.349 365.568C435.045 365.184 435.855 364.992 436.779 364.992ZM436.797 366.9C436.281 366.9 435.849 367.068 435.501 367.404C435.165 367.74 434.967 368.262 434.907 368.97H438.669C438.657 368.37 438.501 367.878 438.201 367.494C437.901 367.098 437.433 366.9 436.797 366.9ZM450.15 365.172V367.188H446.046V375H443.364V365.172H450.15ZM454.552 369.06C454.552 369.264 454.54 369.516 454.516 369.816C454.504 370.116 454.486 370.422 454.462 370.734C454.45 371.046 454.432 371.322 454.408 371.562C454.384 371.802 454.366 371.97 454.354 372.066L458.89 365.172H462.112V375H459.52V371.076C459.52 370.752 459.532 370.398 459.556 370.014C459.58 369.618 459.604 369.252 459.628 368.916C459.664 368.568 459.688 368.304 459.7 368.124L455.182 375H451.96V365.172H454.552V369.06ZM468.911 375.18C467.447 375.18 466.313 374.778 465.509 373.974C464.717 373.158 464.321 371.88 464.321 370.14C464.321 368.94 464.525 367.962 464.933 367.206C465.341 366.45 465.905 365.892 466.625 365.532C467.357 365.172 468.197 364.992 469.145 364.992C469.817 364.992 470.399 365.058 470.891 365.19C471.395 365.322 471.833 365.478 472.205 365.658L471.413 367.728C470.993 367.56 470.597 367.422 470.225 367.314C469.865 367.206 469.505 367.152 469.145 367.152C467.753 367.152 467.057 368.142 467.057 370.122C467.057 371.106 467.237 371.832 467.597 372.3C467.969 372.768 468.485 373.002 469.145 373.002C469.709 373.002 470.207 372.93 470.639 372.786C471.071 372.63 471.491 372.42 471.899 372.156V374.442C471.491 374.706 471.059 374.892 470.603 375C470.159 375.12 469.595 375.18 468.911 375.18ZM482.297 367.188H479.075V375H476.393V367.188H473.171V365.172H482.297V367.188ZM489.582 364.992C490.686 364.992 491.58 365.424 492.264 366.288C492.948 367.14 493.29 368.4 493.29 370.068C493.29 371.736 492.936 373.008 492.228 373.884C491.52 374.748 490.614 375.18 489.51 375.18C488.802 375.18 488.238 375.054 487.818 374.802C487.398 374.538 487.056 374.244 486.792 373.92H486.648C486.744 374.424 486.792 374.904 486.792 375.36V379.32H484.11V365.172H486.288L486.666 366.45H486.792C487.056 366.054 487.41 365.712 487.854 365.424C488.298 365.136 488.874 364.992 489.582 364.992ZM488.718 367.134C488.022 367.134 487.53 367.35 487.242 367.782C486.966 368.214 486.816 368.874 486.792 369.762V370.05C486.792 370.998 486.93 371.73 487.206 372.246C487.494 372.75 488.01 373.002 488.754 373.002C489.366 373.002 489.816 372.75 490.104 372.246C490.404 371.73 490.554 370.992 490.554 370.032C490.554 368.1 489.942 367.134 488.718 367.134ZM499.533 364.974C500.853 364.974 501.861 365.262 502.557 365.838C503.265 366.402 503.619 367.272 503.619 368.448V375H501.747L501.225 373.668H501.153C500.733 374.196 500.289 374.58 499.821 374.82C499.353 375.06 498.711 375.18 497.895 375.18C497.019 375.18 496.293 374.928 495.717 374.424C495.141 373.908 494.853 373.122 494.853 372.066C494.853 371.022 495.219 370.254 495.951 369.762C496.683 369.258 497.781 368.982 499.245 368.934L500.955 368.88V368.448C500.955 367.932 500.817 367.554 500.541 367.314C500.277 367.074 499.905 366.954 499.425 366.954C498.945 366.954 498.477 367.026 498.021 367.17C497.565 367.302 497.109 367.47 496.653 367.674L495.771 365.856C496.299 365.58 496.881 365.364 497.517 365.208C498.165 365.052 498.837 364.974 499.533 364.974ZM499.911 370.482C499.047 370.506 498.447 370.662 498.111 370.95C497.775 371.238 497.607 371.616 497.607 372.084C497.607 372.492 497.727 372.786 497.967 372.966C498.207 373.134 498.519 373.218 498.903 373.218C499.479 373.218 499.965 373.05 500.361 372.714C500.757 372.366 500.955 371.88 500.955 371.256V370.446L499.911 370.482ZM517.092 378.528H514.68V375H506.364V365.172H509.046V372.984H512.97V365.172H515.652V373.038H517.092V378.528ZM521.349 369.06C521.349 369.264 521.337 369.516 521.313 369.816C521.301 370.116 521.283 370.422 521.259 370.734C521.247 371.046 521.229 371.322 521.205 371.562C521.181 371.802 521.163 371.97 521.151 372.066L525.687 365.172H528.909V375H526.317V371.076C526.317 370.752 526.329 370.398 526.353 370.014C526.377 369.618 526.401 369.252 526.425 368.916C526.461 368.568 526.485 368.304 526.497 368.124L521.979 375H518.757V365.172H521.349V369.06ZM533.206 375H530.308L532.954 371.112C532.45 370.908 532 370.578 531.604 370.122C531.22 369.654 531.028 369.018 531.028 368.214C531.028 367.23 531.4 366.48 532.144 365.964C532.888 365.436 533.842 365.172 535.006 365.172H539.578V375H536.896V371.346H535.42L533.206 375ZM533.656 368.232C533.656 368.64 533.818 368.964 534.142 369.204C534.466 369.432 534.886 369.546 535.402 369.546H536.896V367.062H535.06C534.58 367.062 534.226 367.182 533.998 367.422C533.77 367.65 533.656 367.92 533.656 368.232Z" fill="black"/>
<g filter="url(#filter0_d_629_38)">
<path d="M400 300C400 280.67 415.67 265 435 265H845C864.33 265 880 280.67 880 300C880 319.33 864.33 335 845 335H435C415.67 335 400 319.33 400 300Z" fill="#2CCFDA" fill-opacity="0.25" shape-rendering="crispEdges"/>
<path d="M400.5 300C400.5 280.946 415.946 265.5 435 265.5H845C864.054 265.5 879.5 280.946 879.5 300C879.5 319.054 864.054 334.5 845 334.5H435C415.946 334.5 400.5 319.054 400.5 300Z" stroke="#1B6D73" stroke-opacity="0.25" shape-rendering="crispEdges"/>
</g>
<path d="M592.634 283.296C596.066 283.296 598.658 283.776 600.41 284.736C602.162 285.696 603.038 287.388 603.038 289.812C603.038 291.276 602.69 292.512 601.994 293.52C601.322 294.528 600.35 295.14 599.078 295.356V295.536C599.942 295.704 600.722 296.004 601.418 296.436C602.114 296.868 602.666 297.492 603.074 298.308C603.482 299.124 603.686 300.204 603.686 301.548C603.686 303.876 602.846 305.7 601.166 307.02C599.486 308.34 597.182 309 594.254 309H584.642V283.296H592.634ZM593.246 293.484C594.83 293.484 595.922 293.232 596.522 292.728C597.146 292.224 597.458 291.492 597.458 290.532C597.458 289.548 597.098 288.84 596.378 288.408C595.658 287.976 594.518 287.76 592.958 287.76H590.078V293.484H593.246ZM590.078 297.804V304.5H593.642C595.274 304.5 596.414 304.188 597.062 303.564C597.71 302.916 598.034 302.064 598.034 301.008C598.034 300.048 597.698 299.28 597.026 298.704C596.378 298.104 595.19 297.804 593.462 297.804H590.078ZM626.254 299.136C626.254 302.4 625.39 304.92 623.662 306.696C621.958 308.472 619.63 309.36 616.678 309.36C614.854 309.36 613.222 308.964 611.782 308.172C610.366 307.38 609.25 306.228 608.434 304.716C607.618 303.18 607.21 301.32 607.21 299.136C607.21 295.872 608.062 293.364 609.766 291.612C611.47 289.86 613.81 288.984 616.786 288.984C618.634 288.984 620.266 289.38 621.682 290.172C623.098 290.964 624.214 292.116 625.03 293.628C625.846 295.116 626.254 296.952 626.254 299.136ZM612.682 299.136C612.682 301.08 612.994 302.556 613.618 303.564C614.266 304.548 615.31 305.04 616.75 305.04C618.166 305.04 619.186 304.548 619.81 303.564C620.458 302.556 620.782 301.08 620.782 299.136C620.782 297.192 620.458 295.74 619.81 294.78C619.186 293.796 618.154 293.304 616.714 293.304C615.298 293.304 614.266 293.796 613.618 294.78C612.994 295.74 612.682 297.192 612.682 299.136ZM649.515 280.884C649.395 282.132 649.047 283.236 648.471 284.196C647.895 285.132 646.995 285.864 645.771 286.392C644.547 286.92 642.903 287.184 640.839 287.184C638.727 287.184 637.071 286.932 635.871 286.428C634.695 285.9 633.855 285.168 633.351 284.232C632.847 283.296 632.547 282.18 632.451 280.884H637.239C637.359 282.204 637.695 283.08 638.247 283.512C638.799 283.944 639.699 284.16 640.947 284.16C641.979 284.16 642.819 283.932 643.467 283.476C644.139 282.996 644.535 282.132 644.655 280.884H649.515ZM635.871 297.12C635.871 297.528 635.847 298.032 635.799 298.632C635.775 299.232 635.739 299.844 635.691 300.468C635.667 301.092 635.631 301.644 635.583 302.124C635.535 302.604 635.499 302.94 635.475 303.132L644.547 289.344H650.991V309H645.807V301.152C645.807 300.504 645.831 299.796 645.879 299.028C645.927 298.236 645.975 297.504 646.023 296.832C646.095 296.136 646.143 295.608 646.167 295.248L637.131 309H630.687V289.344H635.871V297.12ZM672.869 293.376H666.425V309H661.061V293.376H654.617V289.344H672.869V293.376ZM681.68 297.12C681.68 297.528 681.656 298.032 681.608 298.632C681.584 299.232 681.548 299.844 681.5 300.468C681.476 301.092 681.44 301.644 681.392 302.124C681.344 302.604 681.308 302.94 681.284 303.132L690.356 289.344H696.8V309H691.616V301.152C691.616 300.504 691.64 299.796 691.688 299.028C691.736 298.236 691.784 297.504 691.832 296.832C691.904 296.136 691.952 295.608 691.976 295.248L682.939 309H676.496V289.344H681.68V297.12Z" fill="white"/>
<g clip-path="url(#clip0_629_38)">
<path d="M400 225C400 202.909 417.909 185 440 185H840C862.091 185 880 202.909 880 225H400Z" fill="white"/>
<path d="M568.65 197.148C570.366 197.148 571.662 197.388 572.538 197.868C573.414 198.348 573.852 199.194 573.852 200.406C573.852 201.138 573.678 201.756 573.33 202.26C572.994 202.764 572.508 203.07 571.872 203.178V203.268C572.304 203.352 572.694 203.502 573.042 203.718C573.39 203.934 573.666 204.246 573.87 204.654C574.074 205.062 574.176 205.602 574.176 206.274C574.176 207.438 573.756 208.35 572.916 209.01C572.076 209.67 570.924 210 569.46 210H564.654V197.148H568.65ZM568.956 202.242C569.748 202.242 570.294 202.116 570.594 201.864C570.906 201.612 571.062 201.246 571.062 200.766C571.062 200.274 570.882 199.92 570.522 199.704C570.162 199.488 569.592 199.38 568.812 199.38H567.372V202.242H568.956ZM567.372 204.402V207.75H569.154C569.97 207.75 570.54 207.594 570.864 207.282C571.188 206.958 571.35 206.532 571.35 206.004C571.35 205.524 571.182 205.14 570.846 204.852C570.522 204.552 569.928 204.402 569.064 204.402H567.372ZM585.244 202.746C585.244 203.274 585.076 203.724 584.74 204.096C584.416 204.468 583.93 204.708 583.282 204.816V204.888C583.966 204.972 584.512 205.206 584.92 205.59C585.34 205.974 585.55 206.466 585.55 207.066C585.55 207.63 585.4 208.134 585.1 208.578C584.812 209.022 584.35 209.37 583.714 209.622C583.078 209.874 582.244 210 581.212 210H576.532V200.172H581.212C581.98 200.172 582.664 200.256 583.264 200.424C583.876 200.58 584.356 200.844 584.704 201.216C585.064 201.588 585.244 202.098 585.244 202.746ZM582.526 202.962C582.526 202.362 582.052 202.062 581.104 202.062H579.214V204.006H580.798C581.362 204.006 581.788 203.928 582.076 203.772C582.376 203.604 582.526 203.334 582.526 202.962ZM582.778 206.922C582.778 206.538 582.628 206.262 582.328 206.094C582.028 205.914 581.578 205.824 580.978 205.824H579.214V208.146H581.032C581.536 208.146 581.95 208.056 582.274 207.876C582.61 207.684 582.778 207.366 582.778 206.922ZM591.902 199.992C593.258 199.992 594.332 200.382 595.124 201.162C595.916 201.93 596.312 203.028 596.312 204.456V205.752H589.976C590 206.508 590.222 207.102 590.642 207.534C591.074 207.966 591.668 208.182 592.424 208.182C593.06 208.182 593.636 208.122 594.152 208.002C594.668 207.87 595.202 207.672 595.754 207.408V209.478C595.274 209.718 594.764 209.892 594.224 210C593.696 210.12 593.054 210.18 592.298 210.18C591.314 210.18 590.444 210 589.688 209.64C588.932 209.268 588.338 208.71 587.906 207.966C587.474 207.222 587.258 206.286 587.258 205.158C587.258 204.006 587.45 203.052 587.834 202.296C588.23 201.528 588.776 200.952 589.472 200.568C590.168 200.184 590.978 199.992 591.902 199.992ZM591.92 201.9C591.404 201.9 590.972 202.068 590.624 202.404C590.288 202.74 590.09 203.262 590.03 203.97H593.792C593.78 203.37 593.624 202.878 593.324 202.494C593.024 202.098 592.556 201.9 591.92 201.9ZM607.325 200.172V208.038H608.765V213.528H606.353V210H599.747V213.528H597.335V208.038H598.163C598.595 207.378 598.961 206.628 599.261 205.788C599.561 204.936 599.801 204.03 599.981 203.07C600.161 202.11 600.293 201.144 600.377 200.172H607.325ZM602.627 202.188C602.483 203.28 602.285 204.318 602.033 205.302C601.781 206.274 601.427 207.186 600.971 208.038H604.643V202.188H602.627ZM613.032 204.06C613.032 204.264 613.02 204.516 612.996 204.816C612.984 205.116 612.966 205.422 612.942 205.734C612.93 206.046 612.912 206.322 612.888 206.562C612.864 206.802 612.846 206.97 612.834 207.066L617.37 200.172H620.592V210H618V206.076C618 205.752 618.012 205.398 618.036 205.014C618.06 204.618 618.084 204.252 618.108 203.916C618.144 203.568 618.168 203.304 618.18 203.124L613.662 210H610.44V200.172H613.032V204.06ZM631.531 202.188H628.309V210H625.627V202.188H622.405V200.172H631.531V202.188ZM637.219 199.992C638.575 199.992 639.649 200.382 640.441 201.162C641.233 201.93 641.629 203.028 641.629 204.456V205.752H635.293C635.317 206.508 635.539 207.102 635.959 207.534C636.391 207.966 636.985 208.182 637.741 208.182C638.377 208.182 638.953 208.122 639.469 208.002C639.985 207.87 640.519 207.672 641.071 207.408V209.478C640.591 209.718 640.081 209.892 639.541 210C639.013 210.12 638.371 210.18 637.615 210.18C636.631 210.18 635.761 210 635.005 209.64C634.249 209.268 633.655 208.71 633.223 207.966C632.791 207.222 632.575 206.286 632.575 205.158C632.575 204.006 632.767 203.052 633.151 202.296C633.547 201.528 634.093 200.952 634.789 200.568C635.485 200.184 636.295 199.992 637.219 199.992ZM637.237 201.9C636.721 201.9 636.289 202.068 635.941 202.404C635.605 202.74 635.407 203.262 635.347 203.97H639.109C639.097 203.37 638.941 202.878 638.641 202.494C638.341 202.098 637.873 201.9 637.237 201.9ZM659.499 200.172V210H656.817V202.188H653.253V210H650.571V200.172H659.499ZM666.345 199.974C667.665 199.974 668.673 200.262 669.369 200.838C670.077 201.402 670.431 202.272 670.431 203.448V210H668.559L668.037 208.668H667.965C667.545 209.196 667.101 209.58 666.633 209.82C666.165 210.06 665.523 210.18 664.707 210.18C663.831 210.18 663.105 209.928 662.529 209.424C661.953 208.908 661.665 208.122 661.665 207.066C661.665 206.022 662.031 205.254 662.763 204.762C663.495 204.258 664.593 203.982 666.057 203.934L667.767 203.88V203.448C667.767 202.932 667.629 202.554 667.353 202.314C667.089 202.074 666.717 201.954 666.237 201.954C665.757 201.954 665.289 202.026 664.833 202.17C664.377 202.302 663.921 202.47 663.465 202.674L662.583 200.856C663.111 200.58 663.693 200.364 664.329 200.208C664.977 200.052 665.649 199.974 666.345 199.974ZM666.723 205.482C665.859 205.506 665.259 205.662 664.923 205.95C664.587 206.238 664.419 206.616 664.419 207.084C664.419 207.492 664.539 207.786 664.779 207.966C665.019 208.134 665.331 208.218 665.715 208.218C666.291 208.218 666.777 208.05 667.173 207.714C667.569 207.366 667.767 206.88 667.767 206.256V205.446L666.723 205.482ZM678.648 199.992C679.752 199.992 680.646 200.424 681.33 201.288C682.014 202.14 682.356 203.4 682.356 205.068C682.356 206.736 682.002 208.008 681.294 208.884C680.586 209.748 679.68 210.18 678.576 210.18C677.868 210.18 677.304 210.054 676.884 209.802C676.464 209.538 676.122 209.244 675.858 208.92H675.714C675.81 209.424 675.858 209.904 675.858 210.36V214.32H673.176V200.172H675.354L675.732 201.45H675.858C676.122 201.054 676.476 200.712 676.92 200.424C677.364 200.136 677.94 199.992 678.648 199.992ZM677.784 202.134C677.088 202.134 676.596 202.35 676.308 202.782C676.032 203.214 675.882 203.874 675.858 204.762V205.05C675.858 205.998 675.996 206.73 676.272 207.246C676.56 207.75 677.076 208.002 677.82 208.002C678.432 208.002 678.882 207.75 679.17 207.246C679.47 206.73 679.62 205.992 679.62 205.032C679.62 203.1 679.008 202.134 677.784 202.134ZM693.495 205.068C693.495 206.7 693.063 207.96 692.199 208.848C691.347 209.736 690.183 210.18 688.707 210.18C687.795 210.18 686.979 209.982 686.259 209.586C685.551 209.19 684.993 208.614 684.585 207.858C684.177 207.09 683.973 206.16 683.973 205.068C683.973 203.436 684.399 202.182 685.251 201.306C686.103 200.43 687.273 199.992 688.761 199.992C689.685 199.992 690.501 200.19 691.209 200.586C691.917 200.982 692.475 201.558 692.883 202.314C693.291 203.058 693.495 203.976 693.495 205.068ZM686.709 205.068C686.709 206.04 686.865 206.778 687.177 207.282C687.501 207.774 688.023 208.02 688.743 208.02C689.451 208.02 689.961 207.774 690.273 207.282C690.597 206.778 690.759 206.04 690.759 205.068C690.759 204.096 690.597 203.37 690.273 202.89C689.961 202.398 689.445 202.152 688.725 202.152C688.017 202.152 687.501 202.398 687.177 202.89C686.865 203.37 686.709 204.096 686.709 205.068ZM704.514 210H701.832V202.188H699.366C699.21 204.108 699 205.656 698.736 206.832C698.484 207.996 698.13 208.848 697.674 209.388C697.218 209.916 696.606 210.18 695.838 210.18C695.214 210.18 694.704 210.084 694.308 209.892V207.75C694.584 207.87 694.872 207.93 695.172 207.93C695.388 207.93 695.586 207.822 695.766 207.606C695.946 207.39 696.114 207 696.27 206.436C696.438 205.872 696.588 205.086 696.72 204.078C696.852 203.058 696.972 201.756 697.08 200.172H704.514V210ZM711.885 203.97C713.397 203.97 714.513 204.21 715.233 204.69C715.965 205.17 716.331 205.896 716.331 206.868C716.331 207.816 715.995 208.578 715.323 209.154C714.651 209.718 713.541 210 711.993 210H707.313V200.172H709.995V203.97H711.885ZM713.649 206.904C713.649 206.184 713.043 205.824 711.831 205.824H709.995V208.146H711.867C712.395 208.146 712.821 208.05 713.145 207.858C713.481 207.666 713.649 207.348 713.649 206.904Z" fill="black" fill-opacity="0.5"/>
<path d="M400 135H880C880 157.091 862.091 175 840 175H440C417.909 175 400 157.091 400 135Z" fill="white"/>
<path d="M444.065 147.148C445.781 147.148 447.077 147.388 447.953 147.868C448.829 148.348 449.267 149.194 449.267 150.406C449.267 151.138 449.093 151.756 448.745 152.26C448.409 152.764 447.923 153.07 447.287 153.178V153.268C447.719 153.352 448.109 153.502 448.457 153.718C448.805 153.934 449.081 154.246 449.285 154.654C449.489 155.062 449.591 155.602 449.591 156.274C449.591 157.438 449.171 158.35 448.331 159.01C447.491 159.67 446.339 160 444.875 160H440.069V147.148H444.065ZM444.371 152.242C445.163 152.242 445.709 152.116 446.009 151.864C446.321 151.612 446.477 151.246 446.477 150.766C446.477 150.274 446.297 149.92 445.937 149.704C445.577 149.488 445.007 149.38 444.227 149.38H442.787V152.242H444.371ZM442.787 154.402V157.75H444.569C445.385 157.75 445.955 157.594 446.279 157.282C446.603 156.958 446.765 156.532 446.765 156.004C446.765 155.524 446.597 155.14 446.261 154.852C445.937 154.552 445.343 154.402 444.479 154.402H442.787ZM460.659 152.746C460.659 153.274 460.491 153.724 460.155 154.096C459.831 154.468 459.345 154.708 458.697 154.816V154.888C459.381 154.972 459.927 155.206 460.335 155.59C460.755 155.974 460.965 156.466 460.965 157.066C460.965 157.63 460.815 158.134 460.515 158.578C460.227 159.022 459.765 159.37 459.129 159.622C458.493 159.874 457.659 160 456.627 160H451.947V150.172H456.627C457.395 150.172 458.079 150.256 458.679 150.424C459.291 150.58 459.771 150.844 460.119 151.216C460.479 151.588 460.659 152.098 460.659 152.746ZM457.941 152.962C457.941 152.362 457.467 152.062 456.519 152.062H454.629V154.006H456.213C456.777 154.006 457.203 153.928 457.491 153.772C457.791 153.604 457.941 153.334 457.941 152.962ZM458.193 156.922C458.193 156.538 458.043 156.262 457.743 156.094C457.443 155.914 456.993 155.824 456.393 155.824H454.629V158.146H456.447C456.951 158.146 457.365 158.056 457.689 157.876C458.025 157.684 458.193 157.366 458.193 156.922ZM467.317 149.992C468.673 149.992 469.747 150.382 470.539 151.162C471.331 151.93 471.727 153.028 471.727 154.456V155.752H465.391C465.415 156.508 465.637 157.102 466.057 157.534C466.489 157.966 467.083 158.182 467.839 158.182C468.475 158.182 469.051 158.122 469.567 158.002C470.083 157.87 470.617 157.672 471.169 157.408V159.478C470.689 159.718 470.179 159.892 469.639 160C469.111 160.12 468.469 160.18 467.713 160.18C466.729 160.18 465.859 160 465.103 159.64C464.347 159.268 463.753 158.71 463.321 157.966C462.889 157.222 462.673 156.286 462.673 155.158C462.673 154.006 462.865 153.052 463.249 152.296C463.645 151.528 464.191 150.952 464.887 150.568C465.583 150.184 466.393 149.992 467.317 149.992ZM467.335 151.9C466.819 151.9 466.387 152.068 466.039 152.404C465.703 152.74 465.505 153.262 465.445 153.97H469.207C469.195 153.37 469.039 152.878 468.739 152.494C468.439 152.098 467.971 151.9 467.335 151.9ZM482.74 150.172V158.038H484.18V163.528H481.768V160H475.162V163.528H472.75V158.038H473.578C474.01 157.378 474.376 156.628 474.676 155.788C474.976 154.936 475.216 154.03 475.396 153.07C475.576 152.11 475.708 151.144 475.792 150.172H482.74ZM478.042 152.188C477.898 153.28 477.7 154.318 477.448 155.302C477.196 156.274 476.842 157.186 476.386 158.038H480.058V152.188H478.042ZM488.447 154.06C488.447 154.264 488.435 154.516 488.411 154.816C488.399 155.116 488.381 155.422 488.357 155.734C488.345 156.046 488.327 156.322 488.303 156.562C488.279 156.802 488.261 156.97 488.249 157.066L492.785 150.172H496.007V160H493.415V156.076C493.415 155.752 493.427 155.398 493.451 155.014C493.475 154.618 493.499 154.252 493.523 153.916C493.559 153.568 493.583 153.304 493.595 153.124L489.077 160H485.855V150.172H488.447V154.06ZM506.946 152.188H503.724V160H501.042V152.188H497.82V150.172H506.946V152.188ZM512.634 149.992C513.99 149.992 515.064 150.382 515.856 151.162C516.648 151.93 517.044 153.028 517.044 154.456V155.752H510.708C510.732 156.508 510.954 157.102 511.374 157.534C511.806 157.966 512.4 158.182 513.156 158.182C513.792 158.182 514.368 158.122 514.884 158.002C515.4 157.87 515.934 157.672 516.486 157.408V159.478C516.006 159.718 515.496 159.892 514.956 160C514.428 160.12 513.786 160.18 513.03 160.18C512.046 160.18 511.176 160 510.42 159.64C509.664 159.268 509.07 158.71 508.638 157.966C508.206 157.222 507.99 156.286 507.99 155.158C507.99 154.006 508.182 153.052 508.566 152.296C508.962 151.528 509.508 150.952 510.204 150.568C510.9 150.184 511.71 149.992 512.634 149.992ZM512.652 151.9C512.136 151.9 511.704 152.068 511.356 152.404C511.02 152.74 510.822 153.262 510.762 153.97H514.524C514.512 153.37 514.356 152.878 514.056 152.494C513.756 152.098 513.288 151.9 512.652 151.9ZM529.982 160.18C528.518 160.18 527.384 159.778 526.58 158.974C525.788 158.158 525.392 156.88 525.392 155.14C525.392 153.94 525.596 152.962 526.004 152.206C526.412 151.45 526.976 150.892 527.696 150.532C528.428 150.172 529.268 149.992 530.216 149.992C530.888 149.992 531.47 150.058 531.962 150.19C532.466 150.322 532.904 150.478 533.276 150.658L532.484 152.728C532.064 152.56 531.668 152.422 531.296 152.314C530.936 152.206 530.576 152.152 530.216 152.152C528.824 152.152 528.128 153.142 528.128 155.122C528.128 156.106 528.308 156.832 528.668 157.3C529.04 157.768 529.556 158.002 530.216 158.002C530.78 158.002 531.278 157.93 531.71 157.786C532.142 157.63 532.562 157.42 532.97 157.156V159.442C532.562 159.706 532.13 159.892 531.674 160C531.23 160.12 530.666 160.18 529.982 160.18ZM543.944 152.746C543.944 153.274 543.776 153.724 543.44 154.096C543.116 154.468 542.63 154.708 541.982 154.816V154.888C542.666 154.972 543.212 155.206 543.62 155.59C544.04 155.974 544.25 156.466 544.25 157.066C544.25 157.63 544.1 158.134 543.8 158.578C543.512 159.022 543.05 159.37 542.414 159.622C541.778 159.874 540.944 160 539.912 160H535.232V150.172H539.912C540.68 150.172 541.364 150.256 541.964 150.424C542.576 150.58 543.056 150.844 543.404 151.216C543.764 151.588 543.944 152.098 543.944 152.746ZM541.226 152.962C541.226 152.362 540.752 152.062 539.804 152.062H537.914V154.006H539.498C540.062 154.006 540.488 153.928 540.776 153.772C541.076 153.604 541.226 153.334 541.226 152.962ZM541.478 156.922C541.478 156.538 541.328 156.262 541.028 156.094C540.728 155.914 540.278 155.824 539.678 155.824H537.914V158.146H539.732C540.236 158.146 540.65 158.056 540.974 157.876C541.31 157.684 541.478 157.366 541.478 156.922ZM555.48 155.068C555.48 156.7 555.048 157.96 554.184 158.848C553.332 159.736 552.168 160.18 550.692 160.18C549.78 160.18 548.964 159.982 548.244 159.586C547.536 159.19 546.978 158.614 546.57 157.858C546.162 157.09 545.958 156.16 545.958 155.068C545.958 153.436 546.384 152.182 547.236 151.306C548.088 150.43 549.258 149.992 550.746 149.992C551.67 149.992 552.486 150.19 553.194 150.586C553.902 150.982 554.46 151.558 554.868 152.314C555.276 153.058 555.48 153.976 555.48 155.068ZM548.694 155.068C548.694 156.04 548.85 156.778 549.162 157.282C549.486 157.774 550.008 158.02 550.728 158.02C551.436 158.02 551.946 157.774 552.258 157.282C552.582 156.778 552.744 156.04 552.744 155.068C552.744 154.096 552.582 153.37 552.258 152.89C551.946 152.398 551.43 152.152 550.71 152.152C550.002 152.152 549.486 152.398 549.162 152.89C548.85 153.37 548.694 154.096 548.694 155.068ZM567.111 145.942C567.051 146.566 566.877 147.118 566.589 147.598C566.301 148.066 565.851 148.432 565.239 148.696C564.627 148.96 563.805 149.092 562.773 149.092C561.717 149.092 560.889 148.966 560.289 148.714C559.701 148.45 559.281 148.084 559.029 147.616C558.777 147.148 558.627 146.59 558.579 145.942H560.973C561.033 146.602 561.201 147.04 561.477 147.256C561.753 147.472 562.203 147.58 562.827 147.58C563.343 147.58 563.763 147.466 564.087 147.238C564.423 146.998 564.621 146.566 564.681 145.942H567.111ZM560.289 154.06C560.289 154.264 560.277 154.516 560.253 154.816C560.241 155.116 560.223 155.422 560.199 155.734C560.187 156.046 560.169 156.322 560.145 156.562C560.121 156.802 560.103 156.97 560.091 157.066L564.627 150.172H567.849V160H565.257V156.076C565.257 155.752 565.269 155.398 565.293 155.014C565.317 154.618 565.341 154.252 565.365 153.916C565.401 153.568 565.425 153.304 565.437 153.124L560.919 160H557.697V150.172H560.289V154.06ZM586.222 160H583.54V152.188H581.074C580.918 154.108 580.708 155.656 580.444 156.832C580.192 157.996 579.838 158.848 579.382 159.388C578.926 159.916 578.314 160.18 577.546 160.18C576.922 160.18 576.412 160.084 576.016 159.892V157.75C576.292 157.87 576.58 157.93 576.88 157.93C577.096 157.93 577.294 157.822 577.474 157.606C577.654 157.39 577.822 157 577.978 156.436C578.146 155.872 578.296 155.086 578.428 154.078C578.56 153.058 578.68 151.756 578.788 150.172H586.222V160ZM597.949 155.068C597.949 156.7 597.517 157.96 596.653 158.848C595.801 159.736 594.637 160.18 593.161 160.18C592.249 160.18 591.433 159.982 590.713 159.586C590.005 159.19 589.447 158.614 589.039 157.858C588.631 157.09 588.427 156.16 588.427 155.068C588.427 153.436 588.853 152.182 589.705 151.306C590.557 150.43 591.727 149.992 593.215 149.992C594.139 149.992 594.955 150.19 595.663 150.586C596.371 150.982 596.929 151.558 597.337 152.314C597.745 153.058 597.949 153.976 597.949 155.068ZM591.163 155.068C591.163 156.04 591.319 156.778 591.631 157.282C591.955 157.774 592.477 158.02 593.197 158.02C593.905 158.02 594.415 157.774 594.727 157.282C595.051 156.778 595.213 156.04 595.213 155.068C595.213 154.096 595.051 153.37 594.727 152.89C594.415 152.398 593.899 152.152 593.179 152.152C592.471 152.152 591.955 152.398 591.631 152.89C591.319 153.37 591.163 154.096 591.163 155.068ZM606.952 150.172V152.188H602.848V160H600.166V150.172H606.952ZM611.353 154.06C611.353 154.264 611.341 154.516 611.317 154.816C611.305 155.116 611.287 155.422 611.263 155.734C611.251 156.046 611.233 156.322 611.209 156.562C611.185 156.802 611.167 156.97 611.155 157.066L615.691 150.172H618.913V160H616.321V156.076C616.321 155.752 616.333 155.398 616.357 155.014C616.381 154.618 616.405 154.252 616.429 153.916C616.465 153.568 616.489 153.304 616.501 153.124L611.983 160H608.761V150.172H611.353V154.06ZM624.399 150.172V153.952H628.143V150.172H630.825V160H628.143V155.95H624.399V160H621.717V150.172H624.399ZM642.994 154.06C642.994 154.264 642.982 154.516 642.958 154.816C642.946 155.116 642.928 155.422 642.904 155.734C642.892 156.046 642.874 156.322 642.85 156.562C642.826 156.802 642.808 156.97 642.796 157.066L647.332 150.172H650.554V160H647.962V156.076C647.962 155.752 647.974 155.398 647.998 155.014C648.022 154.618 648.046 154.252 648.07 153.916C648.106 153.568 648.13 153.304 648.142 153.124L643.624 160H640.402V150.172H642.994V154.06ZM662.159 160H659.477V152.188H657.011C656.855 154.108 656.645 155.656 656.381 156.832C656.129 157.996 655.775 158.848 655.319 159.388C654.863 159.916 654.251 160.18 653.483 160.18C652.859 160.18 652.349 160.084 651.953 159.892V157.75C652.229 157.87 652.517 157.93 652.817 157.93C653.033 157.93 653.231 157.822 653.411 157.606C653.591 157.39 653.759 157 653.915 156.436C654.083 155.872 654.233 155.086 654.365 154.078C654.497 153.058 654.617 151.756 654.725 150.172H662.159V160ZM667.551 154.06C667.551 154.264 667.539 154.516 667.515 154.816C667.503 155.116 667.485 155.422 667.461 155.734C667.449 156.046 667.431 156.322 667.407 156.562C667.383 156.802 667.365 156.97 667.353 157.066L671.889 150.172H675.111V160H672.519V156.076C672.519 155.752 672.531 155.398 672.555 155.014C672.579 154.618 672.603 154.252 672.627 153.916C672.663 153.568 672.687 153.304 672.699 153.124L668.181 160H664.959V150.172H667.551V154.06ZM687.363 150.172V153.952H691.107V150.172H693.789V160H691.107V155.95H687.363V160H684.681V150.172H687.363ZM705.527 155.068C705.527 156.7 705.095 157.96 704.231 158.848C703.379 159.736 702.215 160.18 700.739 160.18C699.827 160.18 699.011 159.982 698.291 159.586C697.583 159.19 697.025 158.614 696.617 157.858C696.209 157.09 696.005 156.16 696.005 155.068C696.005 153.436 696.431 152.182 697.283 151.306C698.135 150.43 699.305 149.992 700.793 149.992C701.717 149.992 702.533 150.19 703.241 150.586C703.949 150.982 704.507 151.558 704.915 152.314C705.323 153.058 705.527 153.976 705.527 155.068ZM698.741 155.068C698.741 156.04 698.897 156.778 699.209 157.282C699.533 157.774 700.055 158.02 700.775 158.02C701.483 158.02 701.993 157.774 702.305 157.282C702.629 156.778 702.791 156.04 702.791 155.068C702.791 154.096 702.629 153.37 702.305 152.89C701.993 152.398 701.477 152.152 700.757 152.152C700.049 152.152 699.533 152.398 699.209 152.89C698.897 153.37 698.741 154.096 698.741 155.068ZM720.128 150.172V160H717.626V155.176C717.626 154.696 717.632 154.228 717.644 153.772C717.668 153.316 717.698 152.896 717.734 152.512H717.68L714.962 160H712.946L710.192 152.494H710.12C710.168 152.89 710.198 153.316 710.21 153.772C710.234 154.216 710.246 154.708 710.246 155.248V160H707.744V150.172H711.542L713.99 156.832L716.474 150.172H720.128ZM726.981 149.992C728.337 149.992 729.411 150.382 730.203 151.162C730.995 151.93 731.391 153.028 731.391 154.456V155.752H725.055C725.079 156.508 725.301 157.102 725.721 157.534C726.153 157.966 726.747 158.182 727.503 158.182C728.139 158.182 728.715 158.122 729.231 158.002C729.747 157.87 730.281 157.672 730.833 157.408V159.478C730.353 159.718 729.843 159.892 729.303 160C728.775 160.12 728.133 160.18 727.377 160.18C726.393 160.18 725.523 160 724.767 159.64C724.011 159.268 723.417 158.71 722.985 157.966C722.553 157.222 722.337 156.286 722.337 155.158C722.337 154.006 722.529 153.052 722.913 152.296C723.309 151.528 723.855 150.952 724.551 150.568C725.247 150.184 726.057 149.992 726.981 149.992ZM726.999 151.9C726.483 151.9 726.051 152.068 725.703 152.404C725.367 152.74 725.169 153.262 725.109 153.97H728.871C728.859 153.37 728.703 152.878 728.403 152.494C728.103 152.098 727.635 151.9 726.999 151.9ZM739.038 149.992C740.142 149.992 741.036 150.424 741.72 151.288C742.404 152.14 742.746 153.4 742.746 155.068C742.746 156.736 742.392 158.008 741.684 158.884C740.976 159.748 740.07 160.18 738.966 160.18C738.258 160.18 737.694 160.054 737.274 159.802C736.854 159.538 736.512 159.244 736.248 158.92H736.104C736.2 159.424 736.248 159.904 736.248 160.36V164.32H733.566V150.172H735.744L736.122 151.45H736.248C736.512 151.054 736.866 150.712 737.31 150.424C737.754 150.136 738.33 149.992 739.038 149.992ZM738.174 152.134C737.478 152.134 736.986 152.35 736.698 152.782C736.422 153.214 736.272 153.874 736.248 154.762V155.05C736.248 155.998 736.386 156.73 736.662 157.246C736.95 157.75 737.466 158.002 738.21 158.002C738.822 158.002 739.272 157.75 739.56 157.246C739.86 156.73 740.01 155.992 740.01 155.032C740.01 153.1 739.398 152.134 738.174 152.134ZM759.86 152.188H756.638V160H753.956V152.188H750.734V150.172H759.86V152.188ZM765.548 149.992C766.904 149.992 767.978 150.382 768.77 151.162C769.562 151.93 769.958 153.028 769.958 154.456V155.752H763.622C763.646 156.508 763.868 157.102 764.288 157.534C764.72 157.966 765.314 158.182 766.07 158.182C766.706 158.182 767.282 158.122 767.798 158.002C768.314 157.87 768.848 157.672 769.4 157.408V159.478C768.92 159.718 768.41 159.892 767.87 160C767.342 160.12 766.7 160.18 765.944 160.18C764.96 160.18 764.09 160 763.334 159.64C762.578 159.268 761.984 158.71 761.552 157.966C761.12 157.222 760.904 156.286 760.904 155.158C760.904 154.006 761.096 153.052 761.48 152.296C761.876 151.528 762.422 150.952 763.118 150.568C763.814 150.184 764.624 149.992 765.548 149.992ZM765.566 151.9C765.05 151.9 764.618 152.068 764.27 152.404C763.934 152.74 763.736 153.262 763.676 153.97H767.438C767.426 153.37 767.27 152.878 766.97 152.494C766.67 152.098 766.202 151.9 765.566 151.9ZM780.935 160H778.253V152.188H775.787C775.631 154.108 775.421 155.656 775.157 156.832C774.905 157.996 774.551 158.848 774.095 159.388C773.639 159.916 773.027 160.18 772.259 160.18C771.635 160.18 771.125 160.084 770.729 159.892V157.75C771.005 157.87 771.293 157.93 771.593 157.93C771.809 157.93 772.007 157.822 772.187 157.606C772.367 157.39 772.535 157 772.691 156.436C772.859 155.872 773.009 155.086 773.141 154.078C773.273 153.058 773.393 151.756 773.501 150.172H780.935V160ZM787.784 149.992C789.14 149.992 790.214 150.382 791.006 151.162C791.798 151.93 792.194 153.028 792.194 154.456V155.752H785.858C785.882 156.508 786.104 157.102 786.524 157.534C786.956 157.966 787.55 158.182 788.306 158.182C788.942 158.182 789.518 158.122 790.034 158.002C790.55 157.87 791.084 157.672 791.636 157.408V159.478C791.156 159.718 790.646 159.892 790.106 160C789.578 160.12 788.936 160.18 788.18 160.18C787.196 160.18 786.326 160 785.57 159.64C784.814 159.268 784.22 158.71 783.788 157.966C783.356 157.222 783.14 156.286 783.14 155.158C783.14 154.006 783.332 153.052 783.716 152.296C784.112 151.528 784.658 150.952 785.354 150.568C786.05 150.184 786.86 149.992 787.784 149.992ZM787.802 151.9C787.286 151.9 786.854 152.068 786.506 152.404C786.17 152.74 785.972 153.262 785.912 153.97H789.674C789.662 153.37 789.506 152.878 789.206 152.494C788.906 152.098 788.438 151.9 787.802 151.9ZM801.551 150.118C803.255 150.262 804.557 150.784 805.457 151.684C806.357 152.572 806.807 153.706 806.807 155.086C806.807 156.466 806.369 157.606 805.493 158.506C804.617 159.406 803.303 159.928 801.551 160.072V164.32H799.067V160.072C797.375 159.916 796.067 159.388 795.143 158.488C794.231 157.588 793.775 156.454 793.775 155.086C793.775 153.682 794.201 152.536 795.053 151.648C795.917 150.748 797.255 150.238 799.067 150.118V146.32H801.551V150.118ZM799.067 152.134C798.287 152.242 797.669 152.566 797.213 153.106C796.757 153.646 796.529 154.306 796.529 155.086C796.529 155.89 796.751 156.562 797.195 157.102C797.639 157.63 798.263 157.942 799.067 158.038V152.134ZM801.551 158.038C802.355 157.942 802.973 157.63 803.405 157.102C803.837 156.562 804.053 155.89 804.053 155.086C804.053 154.306 803.831 153.652 803.387 153.124C802.943 152.584 802.331 152.266 801.551 152.17V158.038ZM817.957 155.068C817.957 156.7 817.525 157.96 816.661 158.848C815.809 159.736 814.645 160.18 813.169 160.18C812.257 160.18 811.441 159.982 810.721 159.586C810.013 159.19 809.455 158.614 809.047 157.858C808.639 157.09 808.435 156.16 808.435 155.068C808.435 153.436 808.861 152.182 809.713 151.306C810.565 150.43 811.735 149.992 813.223 149.992C814.147 149.992 814.963 150.19 815.671 150.586C816.379 150.982 816.937 151.558 817.345 152.314C817.753 153.058 817.957 153.976 817.957 155.068ZM811.171 155.068C811.171 156.04 811.327 156.778 811.639 157.282C811.963 157.774 812.485 158.02 813.205 158.02C813.913 158.02 814.423 157.774 814.735 157.282C815.059 156.778 815.221 156.04 815.221 155.068C815.221 154.096 815.059 153.37 814.735 152.89C814.423 152.398 813.907 152.152 813.187 152.152C812.479 152.152 811.963 152.398 811.639 152.89C811.327 153.37 811.171 154.096 811.171 155.068ZM822.856 150.172V153.952H826.6V150.172H829.282V160H826.6V155.95H822.856V160H820.174V150.172H822.856ZM836.124 149.974C837.444 149.974 838.452 150.262 839.148 150.838C839.856 151.402 840.21 152.272 840.21 153.448V160H838.338L837.816 158.668H837.744C837.324 159.196 836.88 159.58 836.412 159.82C835.944 160.06 835.302 160.18 834.486 160.18C833.61 160.18 832.884 159.928 832.308 159.424C831.732 158.908 831.444 158.122 831.444 157.066C831.444 156.022 831.81 155.254 832.542 154.762C833.274 154.258 834.372 153.982 835.836 153.934L837.546 153.88V153.448C837.546 152.932 837.408 152.554 837.132 152.314C836.868 152.074 836.496 151.954 836.016 151.954C835.536 151.954 835.068 152.026 834.612 152.17C834.156 152.302 833.7 152.47 833.244 152.674L832.362 150.856C832.89 150.58 833.472 150.364 834.108 150.208C834.756 150.052 835.428 149.974 836.124 149.974ZM836.502 155.482C835.638 155.506 835.038 155.662 834.702 155.95C834.366 156.238 834.198 156.616 834.198 157.084C834.198 157.492 834.318 157.786 834.558 157.966C834.798 158.134 835.11 158.218 835.494 158.218C836.07 158.218 836.556 158.05 836.952 157.714C837.348 157.366 837.546 156.88 837.546 156.256V155.446L836.502 155.482Z" fill="black" fill-opacity="0.5"/>
</g>
<defs>
<filter id="filter0_d_629_38" x="400" y="265" width="500" height="90" filterUnits="userSpaceOnUse" color-interpolation-filters="sRGB">
<feFlood flood-opacity="0" result="BackgroundImageFix"/>
<feColorMatrix in="SourceAlpha" type="matrix" values="0 0 0 0 0 0 0 0 0 0 0 0 0 0 0 0 0 0 127 0" result="hardAlpha"/>
<feOffset dx="10" dy="10"/>
<feGaussianBlur stdDeviation="5"/>
<feComposite in2="hardAlpha" operator="out"/>
<feColorMatrix type="matrix" values="0 0 0 0 0 0 0 0 0 0 0 0 0 0 0 0 0 0 0.25 0"/>
<feBlend mode="normal" in2="BackgroundImageFix" result="effect1_dropShadow_629_38"/>
<feBlend mode="normal" in="SourceGraphic" in2="effect1_dropShadow_629_38" result="shape"/>
</filter>
<clipPath id="clip0_629_38">
<rect width="480" height="90" fill="white" transform="translate(400 135)"/>
</clipPath>
</defs>
</svg>
