<svg width="1280" height="180" viewBox="0 0 1280 180" fill="none" xmlns="http://www.w3.org/2000/svg">
<g clip-path="url(#clip0_619_17)">
<g clip-path="url(#clip1_619_17)">
<line y1="-5" x2="85" y2="-5" transform="matrix(-0.5 0.866025 0.866025 0.5 644.269 52.1543)" stroke="#FF7731" stroke-width="10"/>
<line x1="640.062" y1="49.6536" x2="682.562" y2="123.266" stroke="#FF7731" stroke-width="10"/>
<circle cx="640" cy="90" r="10" transform="rotate(90 640 90)" fill="#FF7731"/>
</g>
<path d="M1273.31 41.4708C946.78 -7.50386 875.204 46.23 783.14 166.464" stroke="url(#paint0_linear_619_17)" stroke-width="5"/>
<path d="M970.592 48.592C977.312 48.592 982.208 49.912 985.28 52.552C988.352 55.192 989.888 58.912 989.888 63.712C989.888 66.544 989.24 69.208 987.944 71.704C986.696 74.152 984.56 76.144 981.536 77.68C978.56 79.216 974.504 79.984 969.368 79.984H963.464V100H956.984V48.592H970.592ZM970.016 54.136H963.464V74.44H968.648C973.544 74.44 977.192 73.648 979.592 72.064C981.992 70.48 983.192 67.792 983.192 64C983.192 60.688 982.136 58.216 980.024 56.584C977.912 54.952 974.576 54.136 970.016 54.136ZM1014.62 60.688C1017.93 60.688 1020.76 61.408 1023.11 62.848C1025.51 64.288 1027.34 66.328 1028.59 68.968C1029.88 71.56 1030.53 74.608 1030.53 78.112V81.928H1004.11C1004.2 86.296 1005.31 89.632 1007.42 91.936C1009.58 94.192 1012.58 95.32 1016.42 95.32C1018.87 95.32 1021.03 95.104 1022.9 94.672C1024.82 94.192 1026.79 93.52 1028.8 92.656V98.2C1026.83 99.064 1024.89 99.688 1022.97 100.072C1021.05 100.504 1018.77 100.72 1016.13 100.72C1012.48 100.72 1009.24 99.976 1006.41 98.488C1003.63 97 1001.44 94.792 999.858 91.864C998.322 88.888 997.554 85.264 997.554 80.992C997.554 76.768 998.25 73.144 999.642 70.12C1001.08 67.096 1003.07 64.768 1005.62 63.136C1008.21 61.504 1011.21 60.688 1014.62 60.688ZM1014.55 65.872C1011.52 65.872 1009.12 66.856 1007.35 68.824C1005.62 70.744 1004.59 73.432 1004.25 76.888H1023.91C1023.86 73.624 1023.09 70.984 1021.6 68.968C1020.11 66.904 1017.76 65.872 1014.55 65.872ZM1071.6 45.424C1071.27 49.024 1070.04 51.76 1067.93 53.632C1065.87 55.456 1062.55 56.368 1057.99 56.368C1053.29 56.368 1049.95 55.456 1047.99 53.632C1046.07 51.808 1044.99 49.072 1044.75 45.424H1050.65C1050.89 48.016 1051.56 49.768 1052.67 50.68C1053.82 51.544 1055.64 51.976 1058.14 51.976C1060.35 51.976 1062.07 51.52 1063.32 50.608C1064.62 49.648 1065.39 47.92 1065.63 45.424H1071.6ZM1046.33 84.952C1046.33 85.528 1046.31 86.392 1046.26 87.544C1046.21 88.696 1046.14 89.848 1046.04 91C1045.99 92.152 1045.95 93.064 1045.9 93.736L1066.56 61.408H1074.34V100H1068.43V77.248C1068.43 76.48 1068.43 75.472 1068.43 74.224C1068.48 72.976 1068.53 71.752 1068.58 70.552C1068.63 69.304 1068.67 68.368 1068.72 67.744L1048.2 100H1040.35V61.408H1046.33V84.952ZM1113.26 66.736H1100.66V100H1094.4V66.736H1081.94V61.408H1113.26V66.736ZM1126.84 84.952C1126.84 85.528 1126.81 86.392 1126.77 87.544C1126.72 88.696 1126.65 89.848 1126.55 91C1126.5 92.152 1126.45 93.064 1126.41 93.736L1147.07 61.408H1154.85V100H1148.94V77.248C1148.94 76.48 1148.94 75.472 1148.94 74.224C1148.99 72.976 1149.04 71.752 1149.09 70.552C1149.13 69.304 1149.18 68.368 1149.23 67.744L1128.71 100H1120.86V61.408H1126.84V84.952ZM1173.46 61.408V77.464H1194.42V61.408H1200.75V100H1194.42V82.792H1173.46V100H1167.13V61.408H1173.46ZM1236.52 61.408V66.736H1219.31V100H1212.97V61.408H1236.52Z" fill="black"/>
</g>
<defs>
<linearGradient id="paint0_linear_619_17" x1="1260.65" y1="69.3228" x2="732.86" y2="163.137" gradientUnits="userSpaceOnUse">
<stop stop-color="white"/>
<stop offset="0.09375" stop-color="#FF7B01"/>
<stop offset="0.507197" stop-color="#FFC701" stop-opacity="0.7"/>
<stop offset="0.805356" stop-color="#2CCFDA"/>
<stop offset="0.878239" stop-color="white"/>
</linearGradient>
<clipPath id="clip0_619_17">
<rect width="1280" height="180" fill="white"/>
</clipPath>
<clipPath id="clip1_619_17">
<rect width="80" height="80" fill="white" transform="translate(680 50) rotate(90)"/>
</clipPath>
</defs>
</svg>
