<svg width="1280" height="670" viewBox="0 0 1280 670" fill="none" xmlns="http://www.w3.org/2000/svg">
<g filter="url(#filter0_d_626_35)">
<path d="M907.276 458.165L915.824 450.995C897.587 450.995 880.679 463.424 874.505 469.638C889.323 458.739 902.526 457.448 907.276 458.165Z" fill="#2CCFDA"/>
<path d="M856.697 559.983C865.008 572.651 892.315 598.13 935.057 598.703C917.01 602.527 876.073 600.137 856.697 559.983Z" fill="#FF2F01" fill-opacity="0.91"/>
<path d="M857.41 554.964C852.281 544.065 857.173 530.824 860.26 525.566C881.346 565.72 930.783 574.802 952.866 574.324C954.576 581.781 945.03 589.382 940.044 592.25C898.442 596.839 867.621 569.305 857.41 554.964Z" fill="#FF7B01" fill-opacity="0.91"/>
<path d="M962.838 538.473C918.387 537.326 892.552 509.792 885.191 496.168C869.804 500.757 863.108 516.245 861.684 523.415C887.898 565.863 936.718 571.217 957.852 568.588C966.97 563.426 964.975 546.36 962.838 538.473Z" fill="#FFC701" fill-opacity="0.7"/>
<path d="M947.166 597.27C972.812 570.883 971.625 544.209 967.826 534.171C971.815 524.419 983.736 520.547 989.197 519.83C996.037 531.303 995.609 548.511 992.759 554.965C977.942 583.646 956.19 595.118 947.166 597.27Z" fill="#2FDA2C"/>
<path d="M982.073 484.696C953.009 490.432 939.094 514.333 935.77 525.566C935.77 527.861 953.816 530.347 962.839 531.303C967.398 520.977 987.534 513.138 997.032 510.509C994.183 488.137 985.872 483.979 982.073 484.696Z" fill="#FF7B01" fill-opacity="0.91"/>
<path d="M952.152 457.448C923.088 468.921 906.324 494.256 901.575 505.489C887.328 494.017 887.09 488.281 888.752 486.846C893.739 476.33 907.701 454.437 923.658 450.995C939.615 447.553 949.303 453.863 952.152 457.448Z" fill="#FF7B01" fill-opacity="0.91"/>
<path d="M850.286 541.341C855.415 512.086 873.795 495.69 882.344 491.149C882.344 481.971 892.317 469.638 897.304 464.619C877.357 469.208 870.945 474.501 868.808 476.091C852.423 488.281 848.861 523.415 850.286 541.341Z" fill="#2CCFDA"/>
<path d="M960.701 461.75C927.078 469.208 910.599 494.973 906.562 506.924C911.121 518.396 924.608 522.698 930.782 523.415C937.906 505.489 953.578 490.432 967.825 486.13C979.222 482.688 980.647 479.437 979.935 478.242C974.236 467.343 964.738 462.707 960.701 461.75Z" fill="#FFC701" fill-opacity="0.7"/>
<path d="M998.456 517.679C996.746 515.958 995.843 517.918 995.605 519.113C995.605 519.83 997.744 536.322 997.744 544.926C1001.74 535.748 999.407 523.176 998.456 517.679Z" fill="#2FDA2C"/>
</g>
<g filter="url(#filter1_d_626_35)">
<path d="M655.732 262.695C643.635 213.251 593.356 184.462 569.729 176.248C567.083 175.273 569.571 171.533 571.146 169.785C577.132 164.399 590.71 150.88 597.136 139.892C603.563 128.904 605.17 114.847 605.17 109.191C604.54 108.653 604.13 102.486 607.532 82.126C610.935 61.7666 606.115 44.558 603.28 38.4986C593.829 20.4013 565.318 7.52851 552.245 3.35428C542.794 -1.81638 522.159 0.122618 513.024 1.73845C498.847 5.91268 467.47 19.1086 455.373 38.4986C443.276 57.8886 445.607 89.9359 448.285 103.536L452.065 114.039C454.712 126.642 448.442 127.369 444.977 126.157C423.807 118.725 396.778 123.06 385.909 126.157C369.527 132.351 332.322 148.86 314.555 165.341C292.345 185.943 282.894 198.062 277.696 220.684C273.538 238.781 258.007 250.576 250.761 254.212H222.881C217.368 255.289 200.861 261.079 178.935 275.622C157.008 290.164 134.83 323.154 126.482 337.831C122.229 349.815 113.724 375.884 113.724 384.286C113.724 392.689 99.2321 385.364 91.9863 380.651C87.2609 374.053 74.5023 363.442 61.271 373.784C48.0398 384.125 49.1424 423.336 51.3477 441.649C50.5916 448.435 62.0587 454.441 67.8867 456.595H82.5356C85.5599 452.071 95.7668 459.557 100.492 463.866L113.724 473.157C112.463 473.696 113.818 477.035 129.318 486.084C144.817 495.133 163.498 484.737 170.901 478.409L210.123 463.866C218.156 459.692 236.302 448.839 244.618 438.821C252.935 428.803 249.659 447.843 246.981 458.615C241.783 470.33 238.003 499.091 264.465 520.42C290.928 541.749 314.24 526.884 322.588 516.785C323.722 510.321 340.387 501.165 348.578 497.395C367.48 484.145 377.876 467.906 380.711 461.442L390.635 438.821L394.415 424.278L413.317 445.284L477.11 508.302C481.206 510.321 488.829 515.977 486.561 522.44C484.293 528.903 484.356 539.406 484.671 543.85C486.561 545.196 490.72 552.252 492.232 569.703C493.744 587.154 496.642 593.402 497.902 594.345C506.219 598.546 508.613 589.093 508.771 583.842C507.668 578.186 506.125 567.118 508.771 568.087C511.417 569.057 517.749 583.842 520.584 591.113L524.365 594.345C536.084 594.345 536.178 585.188 534.761 580.61L528.145 549.909L554.135 577.782C567.366 584.892 568.154 571.858 566.894 564.452L556.025 549.909C566.232 547.647 566.264 538.733 565.004 534.559L558.388 511.937C562.924 493.194 576.975 507.359 583.433 516.785C586.111 520.69 594.301 526.884 605.642 520.42C616.984 513.957 605.012 507.224 597.609 504.666C595.089 502.512 588.725 495.779 583.433 486.084C578.14 476.389 558.23 476.928 548.937 478.409C538.73 481.64 528.303 470.06 524.365 463.866L471.912 383.075C495.729 375.642 518.694 349.815 527.2 337.831C530.98 316.502 549.567 302.014 558.388 297.436C563.428 295.82 573.509 297.355 573.509 316.422C573.509 335.488 580.125 344.564 583.433 346.718L611.313 445.284C630.593 461.766 634.783 505.205 634.468 524.864C625.395 531.327 623.757 540.214 624.072 543.85C624.229 545.196 626.056 551.202 632.105 564.452C638.154 577.702 650.377 569.972 655.732 564.452H677.469C689.566 570.269 704.562 571.723 710.547 571.723C709.413 575.924 725.511 579.398 733.702 580.61L747.878 585.458C763.378 588.366 775.758 596.364 780.011 600C801.181 597.091 801.433 589.093 798.913 585.458L774.341 571.723C721.038 556.857 697.631 525.672 692.591 511.937C704.688 449.243 687.55 397.213 677.469 379.035C675.264 360.857 667.829 312.14 655.732 262.695Z" fill="url(#paint0_linear_626_35)" shape-rendering="crispEdges"/>
</g>
<defs>
<filter id="filter0_d_626_35" x="830" y="450" width="209.999" height="220" filterUnits="userSpaceOnUse" color-interpolation-filters="sRGB">
<feFlood flood-opacity="0" result="BackgroundImageFix"/>
<feColorMatrix in="SourceAlpha" type="matrix" values="0 0 0 0 0 0 0 0 0 0 0 0 0 0 0 0 0 0 127 0" result="hardAlpha"/>
<feOffset dx="10" dy="40"/>
<feGaussianBlur stdDeviation="15"/>
<feComposite in2="hardAlpha" operator="out"/>
<feColorMatrix type="matrix" values="0 0 0 0 0 0 0 0 0 0 0 0 0 0 0 0 0 0 0.25 0"/>
<feBlend mode="normal" in2="BackgroundImageFix" result="effect1_dropShadow_626_35"/>
<feBlend mode="normal" in="SourceGraphic" in2="effect1_dropShadow_626_35" result="shape"/>
</filter>
<filter id="filter1_d_626_35" x="40" y="0" width="810" height="660" filterUnits="userSpaceOnUse" color-interpolation-filters="sRGB">
<feFlood flood-opacity="0" result="BackgroundImageFix"/>
<feColorMatrix in="SourceAlpha" type="matrix" values="0 0 0 0 0 0 0 0 0 0 0 0 0 0 0 0 0 0 127 0" result="hardAlpha"/>
<feOffset dx="20" dy="30"/>
<feGaussianBlur stdDeviation="15"/>
<feComposite in2="hardAlpha" operator="out"/>
<feColorMatrix type="matrix" values="0 0 0 0 0 0 0 0 0 0 0 0 0 0 0 0 0 0 0.35 0"/>
<feBlend mode="normal" in2="BackgroundImageFix" result="effect1_dropShadow_626_35"/>
<feBlend mode="normal" in="SourceGraphic" in2="effect1_dropShadow_626_35" result="shape"/>
</filter>
<linearGradient id="paint0_linear_626_35" x1="800" y1="43" x2="157.935" y2="512.658" gradientUnits="userSpaceOnUse">
<stop stop-color="#2CCFDA"/>
<stop offset="0.284838" stop-color="#2CCFDA"/>
<stop offset="0.610553" stop-color="#FFC701" stop-opacity="0.7"/>
<stop offset="0.947917" stop-color="#FF7B01" stop-opacity="0.91"/>
</linearGradient>
</defs>
</svg>
