<svg width="1280" height="200" viewBox="0 0 1280 200" fill="none" xmlns="http://www.w3.org/2000/svg">
<rect width="1280" height="200" fill="#FF7731"/>
<path d="M559.176 57.8828C559.176 62.0312 558.414 65.6992 556.891 68.8867C555.367 72.0508 553.188 74.6992 550.352 76.832C547.516 78.9648 544.07 80.582 540.016 81.6836C535.984 82.7617 531.449 83.3008 526.41 83.3008C521.371 83.3008 516.812 82.7617 512.734 81.6836C508.68 80.582 505.223 78.9648 502.363 76.832C499.504 74.6992 497.301 72.0508 495.754 68.8867C494.207 65.6992 493.434 62.0312 493.434 57.8828C493.434 53.7344 494.207 50.0781 495.754 46.9141C497.301 43.7266 499.504 41.0664 502.363 38.9336C505.223 36.8008 508.68 35.1953 512.734 34.1172C516.812 33.0156 521.371 32.4648 526.41 32.4648C531.449 32.4648 535.984 33.0156 540.016 34.1172C544.07 35.1953 547.516 36.8008 550.352 38.9336C553.188 41.0664 555.367 43.7266 556.891 46.9141C558.414 50.0781 559.176 53.7344 559.176 57.8828ZM545.992 57.8828C545.992 56.0781 545.699 54.2852 545.113 52.5039C544.551 50.6992 543.531 49.082 542.055 47.6523C540.602 46.2227 538.609 45.0625 536.078 44.1719C533.547 43.2812 530.324 42.8359 526.41 42.8359C523.785 42.8359 521.477 43.0469 519.484 43.4688C517.492 43.8672 515.77 44.4297 514.316 45.1562C512.863 45.8828 511.645 46.7383 510.66 47.7227C509.676 48.6836 508.891 49.7266 508.305 50.8516C507.719 51.9531 507.297 53.1133 507.039 54.332C506.805 55.5273 506.688 56.7109 506.688 57.8828C506.688 59.0781 506.805 60.2852 507.039 61.5039C507.297 62.7227 507.719 63.8945 508.305 65.0195C508.891 66.1211 509.676 67.1523 510.66 68.1133C511.645 69.0742 512.863 69.918 514.316 70.6445C515.77 71.3477 517.492 71.9102 519.484 72.332C521.477 72.7305 523.785 72.9297 526.41 72.9297C530.324 72.9297 533.547 72.4844 536.078 71.5938C538.609 70.7031 540.602 69.543 542.055 68.1133C543.531 66.6836 544.551 65.0781 545.113 63.2969C545.699 61.4922 545.992 59.6875 545.992 57.8828ZM633.566 57.8828C633.566 62.0312 632.805 65.6992 631.281 68.8867C629.758 72.0508 627.578 74.6992 624.742 76.832C621.906 78.9648 618.461 80.582 614.406 81.6836C610.375 82.7617 605.84 83.3008 600.801 83.3008C595.762 83.3008 591.203 82.7617 587.125 81.6836C583.07 80.582 579.613 78.9648 576.754 76.832C573.895 74.6992 571.691 72.0508 570.145 68.8867C568.598 65.6992 567.824 62.0312 567.824 57.8828C567.824 53.7344 568.598 50.0781 570.145 46.9141C571.691 43.7266 573.895 41.0664 576.754 38.9336C579.613 36.8008 583.07 35.1953 587.125 34.1172C591.203 33.0156 595.762 32.4648 600.801 32.4648C605.84 32.4648 610.375 33.0156 614.406 34.1172C618.461 35.1953 621.906 36.8008 624.742 38.9336C627.578 41.0664 629.758 43.7266 631.281 46.9141C632.805 50.0781 633.566 53.7344 633.566 57.8828ZM620.383 57.8828C620.383 56.0781 620.09 54.2852 619.504 52.5039C618.941 50.6992 617.922 49.082 616.445 47.6523C614.992 46.2227 613 45.0625 610.469 44.1719C607.938 43.2812 604.715 42.8359 600.801 42.8359C598.176 42.8359 595.867 43.0469 593.875 43.4688C591.883 43.8672 590.16 44.4297 588.707 45.1562C587.254 45.8828 586.035 46.7383 585.051 47.7227C584.066 48.6836 583.281 49.7266 582.695 50.8516C582.109 51.9531 581.688 53.1133 581.43 54.332C581.195 55.5273 581.078 56.7109 581.078 57.8828C581.078 59.0781 581.195 60.2852 581.43 61.5039C581.688 62.7227 582.109 63.8945 582.695 65.0195C583.281 66.1211 584.066 67.1523 585.051 68.1133C586.035 69.0742 587.254 69.918 588.707 70.6445C590.16 71.3477 591.883 71.9102 593.875 72.332C595.867 72.7305 598.176 72.9297 600.801 72.9297C604.715 72.9297 607.938 72.4844 610.469 71.5938C613 70.7031 614.992 69.543 616.445 68.1133C617.922 66.6836 618.941 65.0781 619.504 63.2969C620.09 61.4922 620.383 59.6875 620.383 57.8828ZM699.73 50.1836C699.73 52.5977 699.379 54.8242 698.676 56.8633C697.973 58.8789 696.836 60.625 695.266 62.1016C693.719 63.5547 691.703 64.6914 689.219 65.5117C686.734 66.332 683.711 66.7422 680.148 66.7422H658.492V82H645.449V33.6953H680.148C683.711 33.6953 686.734 34.1055 689.219 34.9258C691.703 35.7227 693.719 36.8594 695.266 38.3359C696.836 39.7891 697.973 41.5234 698.676 43.5391C699.379 45.5547 699.73 47.7695 699.73 50.1836ZM686.547 50.3945C686.547 49.2695 686.383 48.3086 686.055 47.5117C685.75 46.6914 685.234 46.0234 684.508 45.5078C683.781 44.9922 682.832 44.6172 681.66 44.3828C680.488 44.125 679.047 43.9961 677.336 43.9961H658.492V56.4414H677.336C679.047 56.4414 680.488 56.3477 681.66 56.1602C682.832 55.9492 683.781 55.6094 684.508 55.1406C685.234 54.6484 685.75 54.0156 686.055 53.2422C686.383 52.4688 686.547 51.5195 686.547 50.3945ZM755.066 47.3008C754.152 46.8555 752.945 46.3516 751.445 45.7891C749.945 45.2266 748.246 44.6992 746.348 44.207C744.449 43.6914 742.387 43.2695 740.16 42.9414C737.934 42.5898 735.648 42.4141 733.305 42.4141C731.43 42.4141 729.824 42.4727 728.488 42.5898C727.176 42.707 726.062 42.8594 725.148 43.0469C724.258 43.2344 723.543 43.457 723.004 43.7148C722.488 43.9492 722.09 44.1953 721.809 44.4531C721.527 44.7109 721.34 44.9688 721.246 45.2266C721.176 45.4844 721.141 45.7188 721.141 45.9297C721.141 46.6328 721.492 47.2539 722.195 47.793C722.898 48.3086 723.859 48.7773 725.078 49.1992C726.297 49.5977 727.715 49.9844 729.332 50.3594C730.949 50.7109 732.66 51.0859 734.465 51.4844C736.293 51.8594 738.168 52.2812 740.09 52.75C742.035 53.1953 743.91 53.7227 745.715 54.332C747.543 54.9414 749.266 55.6562 750.883 56.4766C752.5 57.2734 753.918 58.2109 755.137 59.2891C756.355 60.3672 757.316 61.6094 758.02 63.0156C758.723 64.4219 759.074 66.0273 759.074 67.832C759.074 70.1523 758.664 72.1445 757.844 73.8086C757.023 75.4727 755.922 76.8789 754.539 78.0273C753.18 79.1758 751.598 80.1016 749.793 80.8047C747.988 81.4844 746.09 82.0117 744.098 82.3867C742.129 82.7617 740.125 83.0078 738.086 83.125C736.07 83.2422 734.148 83.3008 732.32 83.3008C727.539 83.3008 723.109 82.9023 719.031 82.1055C714.977 81.332 711.391 80.3594 708.273 79.1875V67.6562C711.484 69.4375 715.141 70.832 719.242 71.8398C723.367 72.8477 727.773 73.3516 732.461 73.3516C735.227 73.3516 737.477 73.2109 739.211 72.9297C740.969 72.625 742.34 72.25 743.324 71.8047C744.309 71.3359 744.977 70.832 745.328 70.293C745.68 69.7539 745.855 69.2383 745.855 68.7461C745.855 67.9727 745.504 67.3047 744.801 66.7422C744.098 66.1562 743.137 65.6523 741.918 65.2305C740.699 64.7852 739.281 64.3867 737.664 64.0352C736.047 63.6602 734.324 63.2969 732.496 62.9453C730.691 62.5703 728.828 62.1719 726.906 61.75C724.984 61.3281 723.109 60.8359 721.281 60.2734C719.477 59.6875 717.766 59.0195 716.148 58.2695C714.531 57.4961 713.113 56.5938 711.895 55.5625C710.676 54.5078 709.715 53.3008 709.012 51.9414C708.309 50.5586 707.957 48.9648 707.957 47.1602C707.957 45.0273 708.332 43.1875 709.082 41.6406C709.832 40.0938 710.84 38.7812 712.105 37.7031C713.395 36.6016 714.871 35.7109 716.535 35.0312C718.223 34.3516 719.992 33.8242 721.844 33.4492C723.695 33.0742 725.57 32.8164 727.469 32.6758C729.367 32.5352 731.172 32.4648 732.883 32.4648C734.758 32.4648 736.68 32.5586 738.648 32.7461C740.641 32.9336 742.598 33.2031 744.52 33.5547C746.441 33.8828 748.293 34.2695 750.074 34.7148C751.879 35.1602 753.543 35.6289 755.066 36.1211V47.3008ZM781.75 65.4414H773.031L770.359 44.207V33.6953H784.422V44.207L781.75 65.4414ZM771.098 82V70.7852H783.684V82H771.098ZM266.043 157V108.695H306.297V112.809H270.824V129.438H304.504V133.516H270.824V152.887H306.824V157H266.043ZM356.184 112.422C355.504 112.211 354.555 111.988 353.336 111.754C352.141 111.496 350.594 111.367 348.695 111.367C346.07 111.367 343.598 111.695 341.277 112.352C338.98 112.984 336.836 113.852 334.844 114.953C332.875 116.055 331.047 117.344 329.359 118.82C327.672 120.273 326.148 121.82 324.789 123.461V157H320.395V108.695H324.789V118.539C326.359 116.922 328.059 115.434 329.887 114.074C331.738 112.715 333.684 111.555 335.723 110.594C337.762 109.609 339.895 108.848 342.121 108.309C344.371 107.746 346.691 107.465 349.082 107.465C349.902 107.465 350.641 107.488 351.297 107.535C351.953 107.559 352.551 107.605 353.09 107.676C353.652 107.723 354.18 107.781 354.672 107.852C355.164 107.922 355.668 108.004 356.184 108.098V112.422ZM400.129 112.422C399.449 112.211 398.5 111.988 397.281 111.754C396.086 111.496 394.539 111.367 392.641 111.367C390.016 111.367 387.543 111.695 385.223 112.352C382.926 112.984 380.781 113.852 378.789 114.953C376.82 116.055 374.992 117.344 373.305 118.82C371.617 120.273 370.094 121.82 368.734 123.461V157H364.34V108.695H368.734V118.539C370.305 116.922 372.004 115.434 373.832 114.074C375.684 112.715 377.629 111.555 379.668 110.594C381.707 109.609 383.84 108.848 386.066 108.309C388.316 107.746 390.637 107.465 393.027 107.465C393.848 107.465 394.586 107.488 395.242 107.535C395.898 107.559 396.496 107.605 397.035 107.676C397.598 107.723 398.125 107.781 398.617 107.852C399.109 107.922 399.613 108.004 400.129 108.098V112.422ZM466.258 132.883C466.258 137.219 465.473 140.969 463.902 144.133C462.332 147.273 460.176 149.875 457.434 151.938C454.691 153.977 451.457 155.488 447.73 156.473C444.004 157.457 439.984 157.949 435.672 157.949C431.336 157.949 427.293 157.457 423.543 156.473C419.793 155.488 416.535 153.977 413.77 151.938C411.004 149.875 408.836 147.273 407.266 144.133C405.695 140.969 404.91 137.219 404.91 132.883C404.91 130 405.273 127.387 406 125.043C406.727 122.676 407.746 120.566 409.059 118.715C410.371 116.84 411.953 115.223 413.805 113.863C415.68 112.504 417.754 111.379 420.027 110.488C422.324 109.574 424.785 108.906 427.41 108.484C430.035 108.039 432.789 107.816 435.672 107.816C439.984 107.816 444.004 108.309 447.73 109.293C451.457 110.277 454.691 111.801 457.434 113.863C460.176 115.902 462.332 118.504 463.902 121.668C465.473 124.809 466.258 128.547 466.258 132.883ZM461.723 132.883C461.723 129.461 461.16 126.438 460.035 123.812C458.934 121.188 457.293 118.984 455.113 117.203C452.934 115.398 450.215 114.039 446.957 113.125C443.723 112.188 439.961 111.719 435.672 111.719C431.383 111.719 427.598 112.188 424.316 113.125C421.059 114.062 418.328 115.434 416.125 117.238C413.922 119.02 412.258 121.234 411.133 123.883C410.008 126.508 409.445 129.508 409.445 132.883C409.445 136.305 410.008 139.328 411.133 141.953C412.258 144.578 413.922 146.793 416.125 148.598C418.328 150.379 421.059 151.738 424.316 152.676C427.598 153.59 431.383 154.047 435.672 154.047C439.961 154.047 443.723 153.59 446.957 152.676C450.215 151.738 452.934 150.379 455.113 148.598C457.293 146.793 458.934 144.578 460.035 141.953C461.16 139.328 461.723 136.305 461.723 132.883ZM514.949 112.422C514.27 112.211 513.32 111.988 512.102 111.754C510.906 111.496 509.359 111.367 507.461 111.367C504.836 111.367 502.363 111.695 500.043 112.352C497.746 112.984 495.602 113.852 493.609 114.953C491.641 116.055 489.812 117.344 488.125 118.82C486.438 120.273 484.914 121.82 483.555 123.461V157H479.16V108.695H483.555V118.539C485.125 116.922 486.824 115.434 488.652 114.074C490.504 112.715 492.449 111.555 494.488 110.594C496.527 109.609 498.66 108.848 500.887 108.309C503.137 107.746 505.457 107.465 507.848 107.465C508.668 107.465 509.406 107.488 510.062 107.535C510.719 107.559 511.316 107.605 511.855 107.676C512.418 107.723 512.945 107.781 513.438 107.852C513.93 107.922 514.434 108.004 514.949 108.098V112.422ZM599.711 153.168C598.023 153.871 596.348 154.516 594.684 155.102C593.043 155.688 591.332 156.191 589.551 156.613C587.77 157.035 585.895 157.363 583.926 157.598C581.957 157.832 579.812 157.949 577.492 157.949C574.633 157.949 571.879 157.715 569.23 157.246C566.605 156.777 564.156 156.074 561.883 155.137C559.609 154.199 557.547 153.039 555.695 151.656C553.844 150.25 552.25 148.621 550.914 146.77C549.602 144.918 548.582 142.832 547.855 140.512C547.152 138.191 546.801 135.648 546.801 132.883C546.801 130.117 547.152 127.574 547.855 125.254C548.582 122.934 549.602 120.848 550.914 118.996C552.25 117.145 553.844 115.527 555.695 114.145C557.547 112.738 559.609 111.566 561.883 110.629C564.156 109.691 566.605 108.988 569.23 108.52C571.855 108.051 574.609 107.816 577.492 107.816C579.812 107.816 581.957 107.934 583.926 108.168C585.895 108.402 587.77 108.73 589.551 109.152C591.332 109.574 593.043 110.078 594.684 110.664C596.348 111.227 598.023 111.859 599.711 112.562V117.836C598.375 116.992 596.945 116.195 595.422 115.445C593.898 114.695 592.246 114.039 590.465 113.477C588.707 112.914 586.82 112.469 584.805 112.141C582.789 111.812 580.633 111.648 578.336 111.648C573.695 111.648 569.676 112.152 566.277 113.16C562.879 114.168 560.066 115.598 557.84 117.449C555.637 119.277 553.996 121.504 552.918 124.129C551.863 126.73 551.336 129.648 551.336 132.883C551.336 136.117 551.863 139.035 552.918 141.637C553.996 144.238 555.637 146.465 557.84 148.316C560.066 150.145 562.879 151.562 566.277 152.57C569.676 153.555 573.695 154.047 578.336 154.047C580.633 154.047 582.801 153.883 584.84 153.555C586.902 153.227 588.824 152.781 590.605 152.219C592.41 151.656 594.062 151.012 595.562 150.285C597.086 149.535 598.469 148.75 599.711 147.93V153.168ZM670.727 132.883C670.727 137.219 669.941 140.969 668.371 144.133C666.801 147.273 664.645 149.875 661.902 151.938C659.16 153.977 655.926 155.488 652.199 156.473C648.473 157.457 644.453 157.949 640.141 157.949C635.805 157.949 631.762 157.457 628.012 156.473C624.262 155.488 621.004 153.977 618.238 151.938C615.473 149.875 613.305 147.273 611.734 144.133C610.164 140.969 609.379 137.219 609.379 132.883C609.379 130 609.742 127.387 610.469 125.043C611.195 122.676 612.215 120.566 613.527 118.715C614.84 116.84 616.422 115.223 618.273 113.863C620.148 112.504 622.223 111.379 624.496 110.488C626.793 109.574 629.254 108.906 631.879 108.484C634.504 108.039 637.258 107.816 640.141 107.816C644.453 107.816 648.473 108.309 652.199 109.293C655.926 110.277 659.16 111.801 661.902 113.863C664.645 115.902 666.801 118.504 668.371 121.668C669.941 124.809 670.727 128.547 670.727 132.883ZM666.191 132.883C666.191 129.461 665.629 126.438 664.504 123.812C663.402 121.188 661.762 118.984 659.582 117.203C657.402 115.398 654.684 114.039 651.426 113.125C648.191 112.188 644.43 111.719 640.141 111.719C635.852 111.719 632.066 112.188 628.785 113.125C625.527 114.062 622.797 115.434 620.594 117.238C618.391 119.02 616.727 121.234 615.602 123.883C614.477 126.508 613.914 129.508 613.914 132.883C613.914 136.305 614.477 139.328 615.602 141.953C616.727 144.578 618.391 146.793 620.594 148.598C622.797 150.379 625.527 151.738 628.785 152.676C632.066 153.59 635.852 154.047 640.141 154.047C644.43 154.047 648.191 153.59 651.426 152.676C654.684 151.738 657.402 150.379 659.582 148.598C661.762 146.793 663.402 144.578 664.504 141.953C665.629 139.328 666.191 136.305 666.191 132.883ZM736.363 132.812C736.363 135.906 736.035 138.66 735.379 141.074C734.746 143.465 733.844 145.551 732.672 147.332C731.5 149.113 730.07 150.625 728.383 151.867C726.719 153.109 724.855 154.105 722.793 154.855C720.754 155.605 718.527 156.156 716.113 156.508C713.723 156.836 711.203 157 708.555 157H683.629V108.695H708.484C712.445 108.695 716.125 109.082 719.523 109.855C722.922 110.629 725.863 111.953 728.348 113.828C730.855 115.68 732.812 118.152 734.219 121.246C735.648 124.34 736.363 128.195 736.363 132.812ZM731.828 132.812C731.828 130.188 731.57 127.867 731.055 125.852C730.539 123.836 729.801 122.09 728.84 120.613C727.879 119.113 726.707 117.859 725.324 116.852C723.941 115.844 722.383 115.035 720.648 114.426C718.914 113.793 717.027 113.348 714.988 113.09C712.949 112.832 710.781 112.703 708.484 112.703H688.023V152.957H708.484C711.93 152.957 715.082 152.652 717.941 152.043C720.801 151.41 723.25 150.332 725.289 148.809C727.352 147.262 728.957 145.199 730.105 142.621C731.254 140.02 731.828 136.75 731.828 132.812ZM797.852 154.469C795.883 155.078 794.055 155.605 792.367 156.051C790.68 156.473 789.016 156.812 787.375 157.07C785.734 157.352 784.059 157.551 782.348 157.668C780.66 157.809 778.797 157.879 776.758 157.879C772.023 157.879 767.746 157.305 763.926 156.156C760.105 155.008 756.848 153.367 754.152 151.234C751.48 149.078 749.418 146.477 747.965 143.43C746.512 140.383 745.785 136.961 745.785 133.164C745.785 129.484 746.477 126.109 747.859 123.039C749.266 119.969 751.223 117.332 753.73 115.129C756.238 112.926 759.238 111.215 762.73 109.996C766.223 108.777 770.078 108.168 774.297 108.168C778.68 108.168 782.582 108.754 786.004 109.926C789.426 111.098 792.309 112.773 794.652 114.953C796.996 117.133 798.777 119.781 799.996 122.898C801.215 125.992 801.824 129.484 801.824 133.375V134.465H750.32C750.578 137.465 751.328 140.172 752.57 142.586C753.812 145 755.57 147.051 757.844 148.738C760.141 150.426 762.953 151.727 766.281 152.641C769.633 153.531 773.535 153.977 777.988 153.977C779.887 153.977 781.809 153.848 783.754 153.59C785.699 153.332 787.562 152.992 789.344 152.57C791.125 152.125 792.754 151.633 794.23 151.094C795.707 150.531 796.914 149.957 797.852 149.371V154.469ZM797.5 130.633C797.336 128.172 796.785 125.828 795.848 123.602C794.91 121.352 793.504 119.371 791.629 117.66C789.777 115.949 787.41 114.59 784.527 113.582C781.668 112.574 778.234 112.07 774.227 112.07C770.453 112.07 767.148 112.574 764.312 113.582C761.477 114.59 759.074 115.949 757.105 117.66C755.137 119.348 753.59 121.316 752.465 123.566C751.34 125.793 750.625 128.148 750.32 130.633H797.5ZM812.336 157V149.371H818.453V157H812.336ZM812.336 131.02V123.391H818.453V131.02H812.336ZM892.105 144.625V157H887.781V144.625H853.434V140.723L884.688 108.695H892.105V140.582H904.48V144.625H892.105ZM887.781 111.297L859.199 140.582H887.781V111.297ZM962.277 132.883C962.277 135.578 961.938 138.074 961.258 140.371C960.602 142.645 959.688 144.707 958.516 146.559C957.344 148.41 955.949 150.051 954.332 151.48C952.715 152.887 950.957 154.07 949.059 155.031C947.184 155.992 945.191 156.719 943.082 157.211C940.996 157.703 938.875 157.949 936.719 157.949C934.562 157.949 932.43 157.703 930.32 157.211C928.234 156.719 926.242 155.992 924.344 155.031C922.445 154.07 920.688 152.887 919.07 151.48C917.453 150.051 916.047 148.41 914.852 146.559C913.68 144.707 912.754 142.645 912.074 140.371C911.418 138.074 911.09 135.578 911.09 132.883C911.09 130.188 911.418 127.703 912.074 125.43C912.754 123.133 913.68 121.059 914.852 119.207C916.047 117.355 917.453 115.727 919.07 114.32C920.688 112.891 922.445 111.695 924.344 110.734C926.242 109.773 928.234 109.047 930.32 108.555C932.43 108.062 934.562 107.816 936.719 107.816C938.875 107.816 940.996 108.062 943.082 108.555C945.191 109.047 947.184 109.773 949.059 110.734C950.957 111.695 952.715 112.891 954.332 114.32C955.949 115.727 957.344 117.355 958.516 119.207C959.688 121.059 960.602 123.133 961.258 125.43C961.938 127.703 962.277 130.188 962.277 132.883ZM957.883 132.883C957.883 130.492 957.59 128.301 957.004 126.309C956.441 124.316 955.656 122.535 954.648 120.965C953.664 119.395 952.492 118.023 951.133 116.852C949.773 115.68 948.309 114.719 946.738 113.969C945.191 113.195 943.562 112.621 941.852 112.246C940.141 111.848 938.43 111.648 936.719 111.648C934.141 111.648 931.586 112.082 929.055 112.949C926.523 113.793 924.25 115.094 922.234 116.852C920.219 118.609 918.59 120.824 917.348 123.496C916.105 126.145 915.484 129.273 915.484 132.883C915.484 136.492 916.105 139.633 917.348 142.305C918.59 144.953 920.219 147.156 922.234 148.914C924.25 150.672 926.523 151.984 929.055 152.852C931.586 153.695 934.141 154.117 936.719 154.117C938.43 154.117 940.141 153.93 941.852 153.555C943.562 153.156 945.203 152.57 946.773 151.797C948.344 151.023 949.809 150.051 951.168 148.879C952.527 147.707 953.699 146.336 954.684 144.766C955.691 143.172 956.477 141.391 957.039 139.422C957.602 137.453 957.883 135.273 957.883 132.883ZM1007.49 144.625V157H1003.16V144.625H968.816V140.723L1000.07 108.695H1007.49V140.582H1019.86V144.625H1007.49ZM1003.16 111.297L974.582 140.582H1003.16V111.297Z" fill="white"/>
</svg>
