<svg width="1280" height="180" viewBox="0 0 1280 180" fill="none" xmlns="http://www.w3.org/2000/svg">
<g clip-path="url(#clip0_619_23)">
<g clip-path="url(#clip1_619_23)">
<line y1="-5" x2="85" y2="-5" transform="matrix(0.258819 0.965926 0.965926 -0.258819 616.258 60.2202)" stroke="#FF7731" stroke-width="10"/>
<line x1="611.515" y1="61.4265" x2="693.619" y2="83.4261" stroke="#FF7731" stroke-width="10"/>
<circle cx="640" cy="90" r="10" transform="rotate(45 640 90)" fill="#FF7731"/>
</g>
<path d="M-0.17265 144.993C280.5 173 358.748 122.317 490 20.0001" stroke="url(#paint0_linear_619_23)" stroke-width="5"/>
<path d="M66.296 100H59.816V76.024H33.464V100H26.984V48.592H33.464V70.336H59.816V48.592H66.296V100ZM113.039 80.632C113.039 87.016 111.407 91.96 108.143 95.464C104.927 98.968 100.559 100.72 95.0392 100.72C91.6312 100.72 88.5832 99.952 85.8952 98.416C83.2552 96.832 81.1672 94.552 79.6312 91.576C78.0952 88.552 77.3272 84.904 77.3272 80.632C77.3272 74.248 78.9352 69.328 82.1512 65.872C85.3672 62.416 89.7352 60.688 95.2552 60.688C98.7592 60.688 101.831 61.48 104.471 63.064C107.159 64.6 109.247 66.856 110.735 69.832C112.271 72.76 113.039 76.36 113.039 80.632ZM83.8792 80.632C83.8792 85.192 84.7672 88.816 86.5432 91.504C88.3672 94.144 91.2472 95.464 95.1832 95.464C99.0712 95.464 101.927 94.144 103.751 91.504C105.575 88.816 106.487 85.192 106.487 80.632C106.487 76.072 105.575 72.496 103.751 69.904C101.927 67.312 99.0472 66.016 95.1112 66.016C91.1752 66.016 88.3192 67.312 86.5432 69.904C84.7672 72.496 83.8792 76.072 83.8792 80.632ZM154.113 71.128C154.113 73.528 153.393 75.4 151.953 76.744C150.513 78.088 148.665 79 146.409 79.48V79.768C148.809 80.104 150.897 80.968 152.673 82.36C154.449 83.704 155.337 85.816 155.337 88.696C155.337 91.96 154.113 94.672 151.665 96.832C149.265 98.944 145.281 100 139.713 100H123.081V61.408H139.641C142.377 61.408 144.825 61.72 146.985 62.344C149.193 62.92 150.921 63.928 152.169 65.368C153.465 66.76 154.113 68.68 154.113 71.128ZM147.705 71.92C147.705 70.096 147.033 68.776 145.689 67.96C144.393 67.096 142.257 66.664 139.281 66.664H129.417V77.248H138.129C144.513 77.248 147.705 75.472 147.705 71.92ZM148.785 88.696C148.785 86.488 147.945 84.904 146.265 83.944C144.585 82.984 142.113 82.504 138.849 82.504H129.417V94.888H138.993C142.161 94.888 144.585 94.432 146.265 93.52C147.945 92.56 148.785 90.952 148.785 88.696ZM198.117 80.632C198.117 87.016 196.485 91.96 193.221 95.464C190.005 98.968 185.637 100.72 180.117 100.72C176.709 100.72 173.661 99.952 170.973 98.416C168.333 96.832 166.245 94.552 164.709 91.576C163.173 88.552 162.405 84.904 162.405 80.632C162.405 74.248 164.013 69.328 167.229 65.872C170.445 62.416 174.813 60.688 180.333 60.688C183.837 60.688 186.909 61.48 189.549 63.064C192.237 64.6 194.325 66.856 195.813 69.832C197.349 72.76 198.117 76.36 198.117 80.632ZM168.957 80.632C168.957 85.192 169.845 88.816 171.621 91.504C173.445 94.144 176.325 95.464 180.261 95.464C184.149 95.464 187.005 94.144 188.829 91.504C190.653 88.816 191.565 85.192 191.565 80.632C191.565 76.072 190.653 72.496 188.829 69.904C187.005 67.312 184.125 66.016 180.189 66.016C176.253 66.016 173.397 67.312 171.621 69.904C169.845 72.496 168.957 76.072 168.957 80.632ZM223.639 100.72C220.231 100.72 217.183 100.024 214.495 98.632C211.855 97.24 209.767 95.08 208.231 92.152C206.743 89.224 205.999 85.48 205.999 80.92C205.999 76.168 206.791 72.304 208.375 69.328C209.959 66.352 212.095 64.168 214.783 62.776C217.519 61.384 220.615 60.688 224.071 60.688C226.039 60.688 227.935 60.904 229.759 61.336C231.583 61.72 233.071 62.2 234.223 62.776L232.279 68.032C231.127 67.6 229.783 67.192 228.247 66.808C226.711 66.424 225.271 66.232 223.927 66.232C216.343 66.232 212.551 71.104 212.551 80.848C212.551 85.504 213.463 89.08 215.287 91.576C217.159 94.024 219.919 95.248 223.567 95.248C225.679 95.248 227.527 95.032 229.111 94.6C230.743 94.168 232.231 93.64 233.575 93.016V98.632C232.279 99.304 230.839 99.808 229.255 100.144C227.719 100.528 225.847 100.72 223.639 100.72ZM269.393 66.736H256.793V100H250.529V66.736H238.073V61.408H269.393V66.736ZM282.971 84.952C282.971 85.528 282.947 86.392 282.899 87.544C282.851 88.696 282.779 89.848 282.683 91C282.635 92.152 282.587 93.064 282.539 93.736L303.203 61.408H310.979V100H305.075V77.248C305.075 76.48 305.075 75.472 305.075 74.224C305.123 72.976 305.171 71.752 305.219 70.552C305.267 69.304 305.315 68.368 305.363 67.744L284.843 100H276.995V61.408H282.971V84.952Z" fill="black"/>
</g>
<defs>
<linearGradient id="paint0_linear_619_23" x1="12.4955" y1="117.153" x2="540.282" y2="23.3385" gradientUnits="userSpaceOnUse">
<stop stop-color="white"/>
<stop offset="0.09375" stop-color="#FF7B01"/>
<stop offset="0.507197" stop-color="#FFC701" stop-opacity="0.7"/>
<stop offset="0.805356" stop-color="#2CCFDA"/>
<stop offset="0.878239" stop-color="white"/>
</linearGradient>
<clipPath id="clip0_619_23">
<rect width="1280" height="180" fill="white"/>
</clipPath>
<clipPath id="clip1_619_23">
<rect width="80" height="80" fill="white" transform="translate(640 33.4314) rotate(45)"/>
</clipPath>
</defs>
</svg>
