<svg width="320" height="180" viewBox="0 0 320 180" fill="none" xmlns="http://www.w3.org/2000/svg">
<path d="M204.932 65.8003C206.576 65.8003 208.102 65.9427 209.51 66.2275C210.926 66.5042 212.224 66.8623 213.404 67.3018V71.4033C212.94 71.1429 212.415 70.8906 211.829 70.6465C211.251 70.4023 210.621 70.1867 209.937 69.9995C209.253 69.8123 208.521 69.6618 207.74 69.5479C206.959 69.4339 206.137 69.377 205.274 69.377C204.2 69.377 203.264 69.4543 202.466 69.6089C201.669 69.7635 200.985 69.971 200.416 70.2314C199.846 70.4919 199.378 70.797 199.012 71.147C198.646 71.4888 198.357 71.855 198.145 72.2456C197.934 72.6362 197.787 73.035 197.706 73.4419C197.624 73.8488 197.584 74.2435 197.584 74.626C197.584 74.9596 197.616 75.3218 197.681 75.7124C197.754 76.103 197.885 76.4937 198.072 76.8843C198.267 77.2749 198.536 77.6493 198.878 78.0073C199.219 78.3654 199.663 78.6828 200.208 78.9595C200.761 79.2362 201.425 79.46 202.198 79.6309C202.971 79.7936 203.891 79.875 204.957 79.875C205.494 79.875 205.962 79.8587 206.36 79.8262C206.759 79.7936 207.121 79.7489 207.447 79.6919C207.781 79.6349 208.09 79.5658 208.375 79.4844C208.668 79.403 208.969 79.3175 209.278 79.228V77.2017H204.2V73.5273H213.807V82.0967C213.205 82.3001 212.529 82.4873 211.78 82.6582C211.04 82.821 210.271 82.9593 209.473 83.0732C208.684 83.1953 207.89 83.2889 207.093 83.354C206.295 83.4191 205.543 83.4517 204.835 83.4517C203.736 83.4517 202.682 83.3784 201.673 83.2319C200.664 83.0854 199.72 82.8617 198.841 82.5605C197.97 82.2513 197.173 81.8607 196.448 81.3887C195.732 80.9167 195.118 80.3551 194.605 79.7041C194.1 79.0531 193.706 78.3084 193.421 77.4702C193.144 76.6239 193.006 75.6758 193.006 74.626C193.006 73.5843 193.152 72.6403 193.445 71.7939C193.738 70.9476 194.145 70.1989 194.666 69.5479C195.195 68.8968 195.826 68.3353 196.558 67.8633C197.299 67.3913 198.108 67.0047 198.987 66.7036C199.874 66.3944 200.818 66.1665 201.819 66.02C202.829 65.8735 203.866 65.8003 204.932 65.8003ZM234.68 76.6357C234.68 77.7305 234.479 78.6984 234.077 79.5396C233.675 80.3745 233.1 81.0734 232.351 81.6362C231.603 82.1991 230.694 82.6258 229.624 82.9165C228.56 83.201 227.363 83.3433 226.033 83.3433C224.704 83.3433 223.501 83.201 222.424 82.9165C221.354 82.6258 220.442 82.1991 219.688 81.6362C218.933 81.0734 218.352 80.3745 217.943 79.5396C217.535 78.6984 217.331 77.7305 217.331 76.6357C217.331 75.541 217.535 74.5762 217.943 73.7412C218.352 72.9001 218.933 72.1981 219.688 71.6353C220.442 71.0724 221.354 70.6488 222.424 70.3643C223.501 70.0736 224.704 69.9282 226.033 69.9282C227.363 69.9282 228.56 70.0736 229.624 70.3643C230.694 70.6488 231.603 71.0724 232.351 71.6353C233.1 72.1981 233.675 72.9001 234.077 73.7412C234.479 74.5762 234.68 75.541 234.68 76.6357ZM231.201 76.6357C231.201 76.1595 231.123 75.6864 230.969 75.2163C230.82 74.7401 230.551 74.3133 230.162 73.936C229.778 73.5588 229.253 73.2526 228.585 73.0176C227.917 72.7826 227.066 72.665 226.033 72.665C225.341 72.665 224.731 72.7207 224.206 72.832C223.68 72.9372 223.225 73.0856 222.842 73.2773C222.458 73.4691 222.137 73.6948 221.877 73.9546C221.617 74.2082 221.41 74.4834 221.255 74.7803C221.101 75.071 220.989 75.3771 220.921 75.6987C220.86 76.0142 220.829 76.3265 220.829 76.6357C220.829 76.9512 220.86 77.2697 220.921 77.5913C220.989 77.9129 221.101 78.2222 221.255 78.519C221.41 78.8097 221.617 79.0819 221.877 79.3354C222.137 79.589 222.458 79.8117 222.842 80.0034C223.225 80.189 223.68 80.3374 224.206 80.4487C224.731 80.5539 225.341 80.6064 226.033 80.6064C227.066 80.6064 227.917 80.4889 228.585 80.2539C229.253 80.0189 229.778 79.7127 230.162 79.3354C230.551 78.9582 230.82 78.5345 230.969 78.0645C231.123 77.5882 231.201 77.112 231.201 76.6357ZM254.406 76.6357C254.406 77.7305 254.205 78.6984 253.803 79.5396C253.401 80.3745 252.825 81.0734 252.077 81.6362C251.329 82.1991 250.419 82.6258 249.349 82.9165C248.286 83.201 247.089 83.3433 245.759 83.3433C244.429 83.3433 243.226 83.201 242.15 82.9165C241.08 82.6258 240.168 82.1991 239.413 81.6362C238.659 81.0734 238.077 80.3745 237.669 79.5396C237.261 78.6984 237.057 77.7305 237.057 76.6357C237.057 75.541 237.261 74.5762 237.669 73.7412C238.077 72.9001 238.659 72.1981 239.413 71.6353C240.168 71.0724 241.08 70.6488 242.15 70.3643C243.226 70.0736 244.429 69.9282 245.759 69.9282C247.089 69.9282 248.286 70.0736 249.349 70.3643C250.419 70.6488 251.329 71.0724 252.077 71.6353C252.825 72.1981 253.401 72.9001 253.803 73.7412C254.205 74.5762 254.406 75.541 254.406 76.6357ZM250.927 76.6357C250.927 76.1595 250.849 75.6864 250.695 75.2163C250.546 74.7401 250.277 74.3133 249.888 73.936C249.504 73.5588 248.978 73.2526 248.31 73.0176C247.642 72.7826 246.792 72.665 245.759 72.665C245.066 72.665 244.457 72.7207 243.932 72.832C243.406 72.9372 242.951 73.0856 242.568 73.2773C242.184 73.4691 241.863 73.6948 241.603 73.9546C241.343 74.2082 241.136 74.4834 240.981 74.7803C240.827 75.071 240.715 75.3771 240.647 75.6987C240.585 76.0142 240.555 76.3265 240.555 76.6357C240.555 76.9512 240.585 77.2697 240.647 77.5913C240.715 77.9129 240.827 78.2222 240.981 78.519C241.136 78.8097 241.343 79.0819 241.603 79.3354C241.863 79.589 242.184 79.8117 242.568 80.0034C242.951 80.189 243.406 80.3374 243.932 80.4487C244.457 80.5539 245.066 80.6064 245.759 80.6064C246.792 80.6064 247.642 80.4889 248.31 80.2539C248.978 80.0189 249.504 79.7127 249.888 79.3354C250.277 78.9582 250.546 78.5345 250.695 78.0645C250.849 77.5882 250.927 77.112 250.927 76.6357ZM273.25 76.6172C273.25 77.4336 273.16 78.1603 272.981 78.7974C272.802 79.4282 272.548 79.9787 272.22 80.4487C271.899 80.9188 271.509 81.3177 271.051 81.6455C270.6 81.9733 270.096 82.2362 269.539 82.4341C268.983 82.632 268.383 82.7773 267.739 82.8701C267.096 82.9567 266.425 83 265.726 83H257.636V70.2529H265.708C266.407 70.2529 267.078 70.2993 267.721 70.3921C268.364 70.4787 268.964 70.6209 269.521 70.8188C270.083 71.0168 270.594 71.2796 271.051 71.6074C271.509 71.929 271.899 72.328 272.22 72.8042C272.548 73.2743 272.802 73.8247 272.981 74.4556C273.16 75.0864 273.25 75.807 273.25 76.6172ZM269.78 76.6172C269.78 76.0049 269.7 75.473 269.539 75.0215C269.385 74.57 269.131 74.1989 268.778 73.9082C268.432 73.6113 267.978 73.3918 267.415 73.2495C266.852 73.1011 266.165 73.0269 265.355 73.0269H261.078V80.2261H265.355C266.165 80.2261 266.852 80.1549 267.415 80.0127C267.978 79.8643 268.432 79.6416 268.778 79.3447C269.131 79.0417 269.385 78.6644 269.539 78.2129C269.7 77.7614 269.78 77.2295 269.78 76.6172ZM206.774 96.9517C206.457 96.797 206.038 96.6221 205.517 96.4268C204.996 96.2314 204.406 96.0483 203.747 95.8774C203.087 95.6984 202.371 95.5519 201.598 95.438C200.825 95.3159 200.032 95.2549 199.218 95.2549C198.567 95.2549 198.009 95.2752 197.545 95.3159C197.09 95.3566 196.703 95.4095 196.386 95.4746C196.077 95.5397 195.828 95.617 195.641 95.7065C195.462 95.7879 195.324 95.8734 195.226 95.9629C195.128 96.0524 195.063 96.1419 195.031 96.2314C195.006 96.321 194.994 96.4023 194.994 96.4756C194.994 96.7197 195.116 96.9354 195.36 97.1226C195.605 97.3016 195.938 97.4644 196.361 97.6108C196.785 97.7492 197.277 97.8835 197.838 98.0137C198.4 98.1357 198.994 98.266 199.621 98.4043C200.255 98.5345 200.906 98.681 201.574 98.8438C202.249 98.9984 202.9 99.1815 203.527 99.3931C204.162 99.6047 204.76 99.8529 205.321 100.138C205.883 100.414 206.375 100.74 206.798 101.114C207.222 101.489 207.555 101.92 207.799 102.408C208.044 102.896 208.166 103.454 208.166 104.081C208.166 104.886 208.023 105.578 207.738 106.156C207.454 106.734 207.071 107.222 206.591 107.621C206.119 108.019 205.57 108.341 204.943 108.585C204.316 108.821 203.657 109.004 202.965 109.134C202.282 109.264 201.586 109.35 200.878 109.391C200.178 109.431 199.511 109.452 198.876 109.452C197.216 109.452 195.678 109.313 194.262 109.037C192.854 108.768 191.609 108.43 190.526 108.023V104.02C191.641 104.638 192.911 105.122 194.335 105.472C195.767 105.822 197.297 105.997 198.925 105.997C199.885 105.997 200.666 105.948 201.269 105.851C201.879 105.745 202.355 105.615 202.697 105.46C203.039 105.297 203.271 105.122 203.393 104.935C203.515 104.748 203.576 104.569 203.576 104.398C203.576 104.129 203.454 103.897 203.21 103.702C202.965 103.499 202.632 103.324 202.209 103.177C201.785 103.023 201.293 102.884 200.732 102.762C200.17 102.632 199.572 102.506 198.937 102.384C198.31 102.254 197.663 102.115 196.996 101.969C196.329 101.822 195.678 101.651 195.043 101.456C194.416 101.253 193.822 101.021 193.261 100.76C192.699 100.492 192.207 100.178 191.784 99.8203C191.361 99.4541 191.027 99.035 190.783 98.563C190.539 98.0828 190.417 97.5295 190.417 96.9028C190.417 96.1623 190.547 95.5234 190.807 94.9863C191.068 94.4492 191.418 93.9935 191.857 93.6191C192.305 93.2367 192.817 92.9274 193.395 92.6914C193.981 92.4554 194.595 92.2723 195.238 92.1421C195.881 92.0119 196.532 91.9224 197.191 91.8735C197.851 91.8247 198.477 91.8003 199.071 91.8003C199.722 91.8003 200.39 91.8328 201.073 91.8979C201.765 91.9631 202.445 92.0566 203.112 92.1787C203.779 92.2926 204.422 92.4269 205.041 92.5815C205.667 92.7362 206.245 92.8989 206.774 93.0698V96.9517ZM211.958 109V96.2529H224.862V98.9712H215.492V101.077H224.38V103.795H215.492V106.282H224.992V109H211.958ZM231.86 109H228.418V96.2529H237.046C237.973 96.2529 238.759 96.3488 239.402 96.5405C240.052 96.7323 240.577 97.0044 240.979 97.3569C241.388 97.7095 241.681 98.1362 241.861 98.6372C242.046 99.132 242.139 99.6855 242.139 100.298C242.139 100.836 242.062 101.306 241.907 101.708C241.759 102.11 241.555 102.456 241.295 102.747C241.041 103.032 240.744 103.273 240.404 103.471C240.064 103.669 239.705 103.833 239.328 103.962L243.503 109H239.476L235.617 104.306H231.86V109ZM238.66 100.279C238.66 100.032 238.626 99.8216 238.558 99.6484C238.496 99.4753 238.385 99.3361 238.224 99.231C238.063 99.1196 237.847 99.0392 237.575 98.9897C237.309 98.9403 236.975 98.9155 236.573 98.9155H231.86V101.643H236.573C236.975 101.643 237.309 101.618 237.575 101.569C237.847 101.519 238.063 101.442 238.224 101.337C238.385 101.226 238.496 101.083 238.558 100.91C238.626 100.737 238.66 100.527 238.66 100.279ZM254.248 109H250.24L243.793 96.2529H247.633L252.272 105.846L256.902 96.2529H260.742L254.248 109ZM262.934 109V96.2529H275.839V98.9712H266.469V101.077H275.356V103.795H266.469V106.282H275.969V109H262.934Z" fill="black"/>
<path d="M176.331 127.779C176.331 128.092 176.29 128.363 176.208 128.594C176.126 128.824 176.011 129.023 175.862 129.191C175.718 129.355 175.542 129.49 175.335 129.596C175.132 129.697 174.905 129.779 174.655 129.842C174.409 129.9 174.145 129.941 173.864 129.965C173.583 129.988 173.292 130 172.991 130H167.149V121.949H172.886C173.116 121.949 173.347 121.959 173.577 121.979C173.811 121.998 174.034 122.035 174.245 122.09C174.456 122.141 174.651 122.213 174.831 122.307C175.015 122.4 175.173 122.523 175.306 122.676C175.442 122.828 175.548 123.012 175.622 123.227C175.7 123.441 175.739 123.695 175.739 123.988C175.739 124.512 175.61 124.928 175.352 125.236C175.095 125.541 174.688 125.744 174.134 125.846C174.524 125.873 174.858 125.934 175.136 126.027C175.417 126.117 175.645 126.242 175.821 126.402C175.997 126.559 176.126 126.752 176.208 126.982C176.29 127.209 176.331 127.475 176.331 127.779ZM173.618 124.334C173.618 124.232 173.602 124.137 173.571 124.047C173.54 123.953 173.483 123.871 173.401 123.801C173.319 123.73 173.208 123.674 173.067 123.631C172.927 123.588 172.747 123.566 172.528 123.566H169.323V125.078H172.528C172.747 125.078 172.927 125.059 173.067 125.02C173.208 124.98 173.319 124.928 173.401 124.861C173.483 124.795 173.54 124.717 173.571 124.627C173.602 124.533 173.618 124.436 173.618 124.334ZM174.122 127.527C174.122 127.344 174.091 127.197 174.028 127.088C173.966 126.975 173.868 126.889 173.735 126.83C173.602 126.768 173.431 126.727 173.22 126.707C173.009 126.688 172.757 126.678 172.464 126.678H169.323V128.383H172.464C172.757 128.383 173.009 128.373 173.22 128.354C173.431 128.334 173.602 128.293 173.735 128.23C173.868 128.168 173.966 128.082 174.028 127.973C174.091 127.859 174.122 127.711 174.122 127.527ZM187.774 129.602C187.114 129.82 186.454 129.977 185.793 130.07C185.137 130.168 184.465 130.217 183.778 130.217C182.899 130.217 182.116 130.123 181.428 129.936C180.745 129.744 180.168 129.469 179.7 129.109C179.231 128.75 178.873 128.311 178.627 127.791C178.381 127.271 178.258 126.684 178.258 126.027C178.258 125.418 178.381 124.854 178.627 124.334C178.877 123.811 179.229 123.357 179.682 122.975C180.139 122.588 180.69 122.287 181.334 122.072C181.979 121.854 182.698 121.744 183.491 121.744C184.221 121.744 184.889 121.844 185.495 122.043C186.104 122.238 186.625 122.529 187.059 122.916C187.496 123.303 187.834 123.779 188.073 124.346C188.315 124.912 188.436 125.564 188.436 126.303V126.842H180.502C180.573 127.096 180.688 127.328 180.848 127.539C181.012 127.75 181.233 127.93 181.51 128.078C181.788 128.227 182.127 128.342 182.53 128.424C182.936 128.506 183.42 128.547 183.983 128.547C184.381 128.547 184.772 128.523 185.155 128.477C185.538 128.426 185.895 128.361 186.227 128.283C186.559 128.201 186.858 128.111 187.123 128.014C187.393 127.916 187.61 127.818 187.774 127.721V129.602ZM186.274 125.248C186.254 125.049 186.194 124.844 186.092 124.633C185.995 124.418 185.838 124.225 185.623 124.053C185.409 123.881 185.127 123.74 184.78 123.631C184.432 123.518 183.998 123.461 183.479 123.461C182.991 123.461 182.569 123.521 182.213 123.643C181.858 123.764 181.559 123.914 181.317 124.094C181.079 124.273 180.893 124.467 180.76 124.674C180.627 124.881 180.541 125.072 180.502 125.248H186.274ZM197.717 130V129.209C197.439 129.361 197.141 129.496 196.82 129.613C196.504 129.73 196.174 129.83 195.83 129.912C195.486 129.994 195.131 130.055 194.764 130.094C194.4 130.137 194.033 130.158 193.662 130.158C193.228 130.158 192.809 130.117 192.402 130.035C192 129.953 191.643 129.82 191.33 129.637C191.018 129.453 190.766 129.213 190.574 128.916C190.387 128.619 190.293 128.256 190.293 127.826C190.293 127.283 190.441 126.832 190.738 126.473C191.035 126.109 191.488 125.812 192.098 125.582C192.707 125.352 193.476 125.174 194.406 125.049C195.34 124.924 196.443 124.826 197.717 124.756V124.586C197.717 124.453 197.682 124.322 197.611 124.193C197.541 124.061 197.412 123.945 197.225 123.848C197.041 123.746 196.787 123.664 196.463 123.602C196.143 123.539 195.732 123.508 195.232 123.508C194.838 123.508 194.447 123.529 194.06 123.572C193.678 123.611 193.307 123.666 192.947 123.736C192.592 123.807 192.254 123.889 191.934 123.982C191.613 124.076 191.322 124.174 191.06 124.275V122.342C191.334 122.271 191.641 122.203 191.98 122.137C192.32 122.07 192.674 122.014 193.041 121.967C193.408 121.916 193.779 121.877 194.154 121.85C194.529 121.818 194.889 121.803 195.232 121.803C195.908 121.803 196.531 121.859 197.101 121.973C197.672 122.082 198.162 122.254 198.572 122.488C198.986 122.723 199.309 123.02 199.539 123.379C199.773 123.738 199.891 124.166 199.891 124.662V130H197.717ZM197.717 126.326C196.881 126.357 196.17 126.402 195.584 126.461C195.002 126.52 194.518 126.588 194.131 126.666C193.744 126.744 193.439 126.828 193.217 126.918C192.998 127.008 192.834 127.1 192.725 127.193C192.615 127.287 192.547 127.381 192.519 127.475C192.496 127.568 192.484 127.654 192.484 127.732C192.484 127.826 192.51 127.918 192.56 128.008C192.611 128.094 192.699 128.17 192.824 128.236C192.953 128.303 193.123 128.355 193.334 128.395C193.545 128.434 193.81 128.453 194.131 128.453C194.486 128.453 194.834 128.426 195.174 128.371C195.514 128.316 195.836 128.242 196.141 128.148C196.445 128.051 196.73 127.938 196.996 127.809C197.266 127.676 197.506 127.535 197.717 127.387V126.326ZM211.726 129.449C211.445 129.566 211.162 129.672 210.876 129.766C210.591 129.859 210.296 129.939 209.992 130.006C209.687 130.076 209.365 130.129 209.025 130.164C208.689 130.199 208.328 130.217 207.941 130.217C207.121 130.217 206.365 130.129 205.673 129.953C204.986 129.777 204.392 129.514 203.892 129.162C203.396 128.807 203.009 128.365 202.732 127.838C202.455 127.307 202.316 126.688 202.316 125.98C202.316 125.273 202.455 124.656 202.732 124.129C203.009 123.598 203.396 123.156 203.892 122.805C204.392 122.449 204.986 122.184 205.673 122.008C206.365 121.832 207.121 121.744 207.941 121.744C208.328 121.744 208.689 121.762 209.025 121.797C209.365 121.832 209.687 121.885 209.992 121.955C210.296 122.021 210.591 122.102 210.876 122.195C211.162 122.289 211.445 122.395 211.726 122.512V124.469C211.503 124.348 211.269 124.229 211.023 124.111C210.777 123.99 210.505 123.883 210.208 123.789C209.912 123.691 209.585 123.613 209.23 123.555C208.874 123.492 208.474 123.461 208.029 123.461C207.345 123.461 206.777 123.531 206.324 123.672C205.874 123.812 205.515 124 205.246 124.234C204.976 124.469 204.787 124.738 204.677 125.043C204.568 125.344 204.513 125.656 204.513 125.98C204.513 126.195 204.537 126.408 204.583 126.619C204.63 126.826 204.708 127.023 204.818 127.211C204.927 127.395 205.07 127.564 205.246 127.721C205.421 127.877 205.64 128.012 205.902 128.125C206.164 128.238 206.468 128.328 206.816 128.395C207.167 128.457 207.572 128.488 208.029 128.488C208.474 128.488 208.874 128.461 209.23 128.406C209.585 128.348 209.912 128.271 210.208 128.178C210.505 128.084 210.777 127.979 211.023 127.861C211.269 127.74 211.503 127.617 211.726 127.492V129.449ZM221.938 130V126.643H216.407V130H214.233V121.949H216.407V124.879H221.938V121.949H224.112V130H221.938ZM237.506 130H234.975L230.902 121.949H233.328L236.258 128.008L239.182 121.949H241.607L237.506 130ZM253.712 125.98C253.712 126.672 253.585 127.283 253.332 127.814C253.078 128.342 252.714 128.783 252.242 129.139C251.769 129.494 251.195 129.764 250.519 129.947C249.847 130.127 249.091 130.217 248.251 130.217C247.412 130.217 246.652 130.127 245.972 129.947C245.296 129.764 244.72 129.494 244.244 129.139C243.767 128.783 243.4 128.342 243.142 127.814C242.884 127.283 242.755 126.672 242.755 125.98C242.755 125.289 242.884 124.68 243.142 124.152C243.4 123.621 243.767 123.178 244.244 122.822C244.72 122.467 245.296 122.199 245.972 122.02C246.652 121.836 247.412 121.744 248.251 121.744C249.091 121.744 249.847 121.836 250.519 122.02C251.195 122.199 251.769 122.467 252.242 122.822C252.714 123.178 253.078 123.621 253.332 124.152C253.585 124.68 253.712 125.289 253.712 125.98ZM251.515 125.98C251.515 125.68 251.466 125.381 251.369 125.084C251.275 124.783 251.105 124.514 250.859 124.275C250.617 124.037 250.285 123.844 249.863 123.695C249.441 123.547 248.904 123.473 248.251 123.473C247.814 123.473 247.429 123.508 247.097 123.578C246.765 123.645 246.478 123.738 246.236 123.859C245.994 123.98 245.791 124.123 245.626 124.287C245.462 124.447 245.332 124.621 245.234 124.809C245.136 124.992 245.066 125.186 245.023 125.389C244.984 125.588 244.964 125.785 244.964 125.98C244.964 126.18 244.984 126.381 245.023 126.584C245.066 126.787 245.136 126.982 245.234 127.17C245.332 127.354 245.462 127.525 245.626 127.686C245.791 127.846 245.994 127.986 246.236 128.107C246.478 128.225 246.765 128.318 247.097 128.389C247.429 128.455 247.814 128.488 248.251 128.488C248.904 128.488 249.441 128.414 249.863 128.266C250.285 128.117 250.617 127.924 250.859 127.686C251.105 127.447 251.275 127.18 251.369 126.883C251.466 126.582 251.515 126.281 251.515 125.98ZM258.347 126.555C258.347 126.891 258.378 127.166 258.44 127.381C258.503 127.592 258.605 127.76 258.745 127.885C258.886 128.01 259.067 128.096 259.29 128.143C259.517 128.189 259.794 128.213 260.122 128.213H264.247V130H259.677C259.044 130 258.505 129.949 258.06 129.848C257.618 129.742 257.257 129.582 256.976 129.367C256.694 129.148 256.489 128.873 256.36 128.541C256.235 128.209 256.173 127.814 256.173 127.357V121.949H258.347V126.555ZM268.647 126.555C268.647 126.891 268.678 127.166 268.741 127.381C268.803 127.592 268.905 127.76 269.045 127.885C269.186 128.01 269.368 128.096 269.59 128.143C269.817 128.189 270.094 128.213 270.422 128.213H274.547V130H269.977C269.344 130 268.805 129.949 268.36 129.848C267.919 129.742 267.557 129.582 267.276 129.367C266.995 129.148 266.79 128.873 266.661 128.541C266.536 128.209 266.473 127.814 266.473 127.357V121.949H268.647V126.555ZM285.691 129.602C285.031 129.82 284.371 129.977 283.711 130.07C283.055 130.168 282.383 130.217 281.695 130.217C280.816 130.217 280.033 130.123 279.346 129.936C278.662 129.744 278.086 129.469 277.617 129.109C277.149 128.75 276.791 128.311 276.545 127.791C276.299 127.271 276.176 126.684 276.176 126.027C276.176 125.418 276.299 124.854 276.545 124.334C276.795 123.811 277.147 123.357 277.6 122.975C278.057 122.588 278.608 122.287 279.252 122.072C279.897 121.854 280.615 121.744 281.408 121.744C282.139 121.744 282.807 121.844 283.412 122.043C284.022 122.238 284.543 122.529 284.977 122.916C285.414 123.303 285.752 123.779 285.99 124.346C286.233 124.912 286.354 125.564 286.354 126.303V126.842H278.42C278.49 127.096 278.606 127.328 278.766 127.539C278.93 127.75 279.15 127.93 279.428 128.078C279.705 128.227 280.045 128.342 280.447 128.424C280.854 128.506 281.338 128.547 281.9 128.547C282.299 128.547 282.69 128.523 283.072 128.477C283.455 128.426 283.813 128.361 284.145 128.283C284.477 128.201 284.775 128.111 285.041 128.014C285.311 127.916 285.527 127.818 285.691 127.721V129.602ZM284.191 125.248C284.172 125.049 284.111 124.844 284.01 124.633C283.912 124.418 283.756 124.225 283.541 124.053C283.326 123.881 283.045 123.74 282.697 123.631C282.35 123.518 281.916 123.461 281.397 123.461C280.908 123.461 280.486 123.521 280.131 123.643C279.775 123.764 279.477 123.914 279.234 124.094C278.996 124.273 278.811 124.467 278.678 124.674C278.545 124.881 278.459 125.072 278.42 125.248H284.191ZM298.371 126.906C298.371 127.43 298.242 127.896 297.984 128.307C297.726 128.717 297.359 129.064 296.882 129.35C296.41 129.631 295.836 129.846 295.16 129.994C294.488 130.143 293.734 130.217 292.898 130.217C292.531 130.217 292.144 130.201 291.738 130.17C291.336 130.143 290.941 130.102 290.554 130.047C290.171 129.996 289.812 129.938 289.476 129.871C289.14 129.801 288.857 129.725 288.627 129.643V127.732C288.877 127.838 289.154 127.938 289.459 128.031C289.767 128.125 290.101 128.209 290.461 128.283C290.82 128.354 291.205 128.41 291.615 128.453C292.029 128.492 292.466 128.512 292.927 128.512C293.361 128.512 293.742 128.486 294.07 128.436C294.402 128.385 294.689 128.316 294.931 128.23C295.173 128.145 295.375 128.047 295.535 127.938C295.695 127.824 295.824 127.709 295.921 127.592C296.019 127.471 296.087 127.352 296.127 127.234C296.17 127.117 296.191 127.008 296.191 126.906V126.197C295.793 126.49 295.318 126.732 294.767 126.924C294.216 127.111 293.589 127.205 292.886 127.205C292.07 127.205 291.388 127.127 290.841 126.971C290.298 126.811 289.863 126.582 289.535 126.285C289.207 125.984 288.972 125.619 288.832 125.189C288.695 124.76 288.627 124.275 288.627 123.736V121.949H290.812V123.52C290.812 123.836 290.853 124.117 290.935 124.363C291.021 124.609 291.154 124.816 291.334 124.984C291.517 125.148 291.754 125.273 292.043 125.359C292.332 125.445 292.681 125.488 293.091 125.488C293.439 125.488 293.767 125.445 294.076 125.359C294.388 125.273 294.675 125.16 294.937 125.02C295.199 124.879 295.435 124.719 295.646 124.539C295.857 124.359 296.039 124.176 296.191 123.988V121.949H298.371V126.906ZM225.612 141.449C225.331 141.566 225.047 141.672 224.762 141.766C224.477 141.859 224.182 141.939 223.877 142.006C223.573 142.076 223.25 142.129 222.911 142.164C222.575 142.199 222.213 142.217 221.827 142.217C221.006 142.217 220.25 142.129 219.559 141.953C218.872 141.777 218.278 141.514 217.778 141.162C217.282 140.807 216.895 140.365 216.618 139.838C216.34 139.307 216.202 138.688 216.202 137.98C216.202 137.273 216.34 136.656 216.618 136.129C216.895 135.598 217.282 135.156 217.778 134.805C218.278 134.449 218.872 134.184 219.559 134.008C220.25 133.832 221.006 133.744 221.827 133.744C222.213 133.744 222.575 133.762 222.911 133.797C223.25 133.832 223.573 133.885 223.877 133.955C224.182 134.021 224.477 134.102 224.762 134.195C225.047 134.289 225.331 134.395 225.612 134.512V136.469C225.389 136.348 225.155 136.229 224.909 136.111C224.663 135.99 224.391 135.883 224.094 135.789C223.797 135.691 223.471 135.613 223.116 135.555C222.76 135.492 222.36 135.461 221.915 135.461C221.231 135.461 220.663 135.531 220.209 135.672C219.76 135.812 219.401 136 219.131 136.234C218.862 136.469 218.672 136.738 218.563 137.043C218.454 137.344 218.399 137.656 218.399 137.98C218.399 138.195 218.422 138.408 218.469 138.619C218.516 138.826 218.594 139.023 218.704 139.211C218.813 139.395 218.956 139.564 219.131 139.721C219.307 139.877 219.526 140.012 219.788 140.125C220.049 140.238 220.354 140.328 220.702 140.395C221.053 140.457 221.458 140.488 221.915 140.488C222.36 140.488 222.76 140.461 223.116 140.406C223.471 140.348 223.797 140.271 224.094 140.178C224.391 140.084 224.663 139.979 224.909 139.861C225.155 139.74 225.389 139.617 225.612 139.492V141.449ZM230.258 133.949V138.484C230.258 138.785 230.283 139.059 230.334 139.305C230.385 139.547 230.479 139.756 230.615 139.932C230.752 140.104 230.943 140.238 231.189 140.336C231.436 140.43 231.756 140.477 232.15 140.477C232.447 140.477 232.758 140.436 233.082 140.354C233.41 140.271 233.734 140.162 234.055 140.025C234.375 139.889 234.68 139.732 234.969 139.557C235.262 139.377 235.523 139.191 235.754 139V133.949H237.922V142H235.754V140.898C235.48 141.055 235.189 141.213 234.881 141.373C234.572 141.529 234.244 141.672 233.896 141.801C233.549 141.926 233.18 142.027 232.789 142.105C232.398 142.188 231.986 142.229 231.553 142.229C231.01 142.229 230.523 142.162 230.094 142.029C229.664 141.9 229.301 141.717 229.004 141.479C228.707 141.236 228.479 140.945 228.318 140.605C228.162 140.262 228.084 139.879 228.084 139.457V133.949H230.258ZM249.974 136.697C249.974 137.1 249.916 137.471 249.798 137.811C249.681 138.146 249.492 138.438 249.23 138.684C248.972 138.926 248.636 139.115 248.222 139.252C247.808 139.389 247.304 139.457 246.71 139.457H243.101V142H240.927V133.949H246.71C247.304 133.949 247.808 134.018 248.222 134.154C248.636 134.287 248.972 134.477 249.23 134.723C249.492 134.965 249.681 135.254 249.798 135.59C249.916 135.926 249.974 136.295 249.974 136.697ZM247.777 136.732C247.777 136.545 247.75 136.385 247.695 136.252C247.644 136.115 247.558 136.004 247.437 135.918C247.316 135.832 247.158 135.77 246.962 135.73C246.767 135.688 246.527 135.666 246.242 135.666H243.101V137.74H246.242C246.527 137.74 246.767 137.725 246.962 137.693C247.158 137.658 247.316 137.602 247.437 137.523C247.558 137.441 247.644 137.336 247.695 137.207C247.75 137.078 247.777 136.92 247.777 136.732Z" fill="url(#paint0_linear_417_2)"/>
<path d="M150 88.5C208.579 88.5 241.421 88.5 300 88.5" stroke="url(#paint1_linear_417_2)" stroke-opacity="0.91" stroke-width="3"/>
<path d="M141.207 65.6308C152.171 53.2657 135.925 33.8249 126.432 25.6502C145.961 33.5639 150.272 49.144 149.987 55.9448C145.533 74.575 139.708 77.996 131.571 77.7899C123.434 77.5838 121.649 68.4474 121.506 61.097C120.15 50.3118 108.23 27.8759 71.3974 24.4137C34.5652 20.9514 13.6508 49.7622 7.79762 64.6004C-9.16231 109.61 19.4326 141.47 35.85 151.775C76.2798 175.681 111.941 157.751 124.718 145.798C129.358 141.402 136.625 130.754 128.573 123.335C120.521 115.916 127.217 119.282 131.571 121.892C143.563 134.917 125.289 150.538 114.654 156.721C79.0208 175.021 43.5591 160.362 30.2824 150.744C23.8582 147.172 9.25377 133.763 2.22997 108.703C-4.79384 83.6428 6.44139 59.3796 12.937 50.3805C27.4986 27.4637 53.9806 21.0476 65.4014 20.7041C118.337 17.9014 129.715 51.8231 128.787 69.1343C130.671 70.9479 132.713 69.89 133.498 69.1343C139.151 27.4225 91.1697 16.1702 66.4721 15.7581C129.173 11.8012 142.421 47.3579 141.207 65.6308Z" fill="url(#paint2_linear_417_2)"/>
<path d="M13.218 116.176C40.5721 144.203 66.7995 142.184 76.494 137.671L85.1467 140.82C93.7606 138.692 98.6993 132.594 100.092 129.812L98.8653 126.295C107.754 120.406 112.92 120.445 114.393 121.2C118.78 120.165 120.924 116.194 121.448 114.337C126.994 115.128 128.597 110.141 128.705 107.548L119.331 90.1006C123.503 82.1447 121.514 78.4675 119.999 77.6234L112.002 67.0368C108.518 58.5756 101 55.9414 97.676 55.682C96.7683 48.1582 89.7861 46.8888 86.4084 47.1947C77.3789 37.9429 66.3995 41.2279 62.0385 44.0268C48.1295 39.6662 39.3052 41.1623 36.6317 42.4554C43.5548 41.4662 54.0523 44.2636 58.4357 45.7859C49.8459 45.8029 31.5974 46.8954 27.3218 51.1291C23.0463 55.3628 20.5503 75.7861 19.8368 85.4685C17.9141 80.7334 17.9321 70.6662 18.1814 66.2245C14.9036 72.2249 16.1526 90.9993 17.1868 99.6365C13.2723 108.388 12.9099 114.309 13.218 116.176Z" fill="url(#paint3_linear_417_2)"/>
<path d="M113.205 85.0196L115.108 79.7909L106.437 69.1783C104.619 67.4933 98.7024 63.3806 89.5747 60.4093C88.0051 60.1304 84.6005 58.4233 83.5391 53.8262C81.6784 50.5903 75.7813 45.2128 67.0783 49.5895C65.2866 52.0077 62.4292 58.7314 65.3332 66.28C65.7925 67.1051 65.866 68.4477 62.4854 67.2173C56.2603 66.9984 42.4633 68.1321 37.0763 74.4175C41.2725 73.5324 50.7072 72.4046 54.8763 74.9748C50.6165 75.6174 41.3942 77.8313 38.5838 81.5456C42.6929 80.4825 51.6051 78.8283 54.3818 80.7162C50.6855 81.2715 41.76 87.2194 35.6292 106.568L35.7815 101.141C33.6878 104.18 29.6852 111.379 30.4246 115.859C31.164 120.339 32.992 122.788 33.8136 123.452L41.4125 116.349L42.1264 118.144C44.0087 115.686 48.5741 111.324 51.7773 113.542C49.6169 115.095 45.2937 119.209 45.2847 123.241C46.6872 121.266 50.8749 116.898 56.4055 115.227C55.6787 111.38 54.6458 102.656 56.3293 98.5314C57.6325 104.342 62.8529 117.047 73.3085 121.379C72.5734 123.816 72.0286 129.028 75.7312 130.375L85.9938 134.111C87.7748 133.809 91.8323 132.595 93.8131 130.158C91.9115 129.539 87.7543 127.646 86.3382 125.025C84.9221 122.404 81.0862 122.967 79.3453 123.576C77.3732 123.151 74.7537 120.414 80.0524 112.868C80.6398 111.254 83.4446 108.181 89.9648 108.8L97.492 106.276C96.3392 102.347 94.3758 94.1763 95.7446 92.92C98.2482 95.7577 103.276 100.969 105.601 101.777L101.75 101.466C103.791 104.621 108.948 111.367 113.238 113.104C117.528 114.841 116.314 111.957 115.17 110.298C114.215 109.585 112.728 107.742 114.427 106.08C116.126 104.417 113.962 99.843 112.668 97.7637C114.684 98.2781 119.133 100.161 120.807 103.577C120.395 101.161 118.402 95.1575 113.726 90.473C108.618 89.2718 97.5615 86.3001 94.1972 84.0229C94.4489 83.749 95.5558 83.4208 97.9705 84.2997C97.9508 82.6843 96.1206 78.3629 88.9574 74.0012C89.5948 73.5022 91.8857 73.0932 95.9503 75.4499C95.347 73.7682 92.8787 69.9895 87.8319 68.3281C91.0553 67.8199 99.7374 68.8015 108.679 76.793C107.448 76.4181 105.129 76.0273 105.7 77.4633C107.873 79.4239 112.416 83.6799 113.205 85.0196Z" fill="white"/>
<path d="M79.4019 59.5577C76.5245 58.0718 70.7046 57.5326 70.4445 67.2631C69.444 57.9072 69.8349 43.2678 79.4019 59.5577Z" fill="#297075"/>
<path d="M52.6957 102.253C52.524 104.603 47.1308 104.394 47.4638 100.349C47.7969 96.3031 52.8674 99.9031 52.6957 102.253Z" fill="#FF831D"/>
<path d="M45.6403 109.116L48.6292 107.791C48.8505 108.018 49.2488 108.718 49.0714 109.706C48.8941 110.695 47.9978 110.778 47.5719 110.696C44.1267 110.144 44.8487 109.412 45.6403 109.116Z" fill="#FF792C"/>
<path d="M42.3014 102.637C42.808 104.751 41.8811 106.505 41.3544 107.117C38.8588 107.963 39.4096 104.947 39.9969 103.333C40.554 102.22 41.7948 100.522 42.3014 102.637Z" fill="#FF7F23"/>
<path d="M98.4156 110.742C98.5068 112.429 101.402 114.356 102.838 115.108C96.9106 120.118 96.3848 122.12 96.8629 122.495C100.639 123.353 108.358 117.118 108.774 115.977C109.189 114.836 98.3015 108.633 98.4156 110.742Z" fill="white"/>
<path d="M94.9516 119.607C95.0982 120.909 92.7503 124.589 91.558 126.267L89.0043 123.96C90.7866 120.129 93.7118 119.461 94.9516 119.607Z" fill="white"/>
<path d="M83.107 90.0748C82.6714 93.7761 85.7889 95.4372 87.4022 95.805C88.9184 95.1872 91.4076 93.3152 89.2348 90.7699C87.062 88.2246 84.2443 89.2459 83.107 90.0748Z" fill="#B8A31E"/>
<path d="M78.6892 92.1951C77.6831 91.8289 75.8279 90.5396 76.4564 88.3121C78.1905 88.1391 81.0648 88.6735 78.6892 92.1951Z" fill="#BEA01E"/>
<path d="M72.1589 91.3535C71.3305 91.1251 69.8267 90.373 70.4388 89.1922C71.2941 89.138 72.8355 89.4944 72.1589 91.3535Z" fill="#EC8E19"/>
<path d="M85.4239 79.9525C87.2012 81.3304 90.8004 82.9621 90.9787 78.4652C89.6743 77.0401 86.7372 75.3424 85.4239 79.9525Z" fill="#555B4B"/>
<path d="M101.081 79.5104C99.2128 81.6377 102.321 83.6169 104.108 84.3406C105.735 83.8798 105.987 82.1003 105.91 81.2682L101.081 79.5104Z" fill="white"/>
<ellipse rx="1.27549" ry="0.62308" transform="matrix(-0.7015 -0.71267 -0.733709 0.679464 86.8279 74.3992)" fill="#315C5F"/>
<defs>
<linearGradient id="paint0_linear_417_2" x1="131.75" y1="132.294" x2="320" y2="132.294" gradientUnits="userSpaceOnUse">
<stop offset="0.145833" stop-color="#2FDA2C"/>
<stop offset="0.505208" stop-color="#FF7B01" stop-opacity="0.91"/>
<stop offset="1" stop-color="#FF2F01" stop-opacity="0.7"/>
</linearGradient>
<linearGradient id="paint1_linear_417_2" x1="150" y1="90.0049" x2="300" y2="90.0049" gradientUnits="userSpaceOnUse">
<stop offset="0.114583" stop-color="white"/>
<stop offset="0.296875" stop-color="#FF7B01"/>
<stop offset="0.505208"/>
<stop offset="0.78125" stop-color="#FF8120"/>
<stop offset="1" stop-color="white"/>
</linearGradient>
<linearGradient id="paint2_linear_417_2" x1="139.066" y1="24.6198" x2="32.6641" y2="155.591" gradientUnits="userSpaceOnUse">
<stop offset="0.114583" stop-color="#2FDA2C"/>
<stop offset="0.526042" stop-color="#FF2F01" stop-opacity="0.91"/>
<stop offset="0.979167" stop-color="#FF2F01" stop-opacity="0.7"/>
</linearGradient>
<linearGradient id="paint3_linear_417_2" x1="88.5891" y1="45.7358" x2="54.0521" y2="140.625" gradientUnits="userSpaceOnUse">
<stop stop-color="#2CCFDA"/>
<stop offset="0.333333" stop-opacity="0.7"/>
<stop offset="0.682292" stop-color="#FF7B01" stop-opacity="0.91"/>
<stop offset="1" stop-color="#FF2F01" stop-opacity="0.7"/>
</linearGradient>
</defs>
</svg>
