<svg width="220" height="120" viewBox="0 0 220 120" fill="none" xmlns="http://www.w3.org/2000/svg">
<g filter="url(#filter0_d_625_33)">
<path d="M0 10C0 4.47716 4.47715 0 10 0H190C195.523 0 200 4.47715 200 10V90C200 95.5228 195.523 100 190 100H10C4.47716 100 0 95.5229 0 90V10Z" fill="#FF7731"/>
<path d="M17.24 41.72C19.1467 41.72 20.5867 41.9867 21.56 42.52C22.5333 43.0533 23.02 43.9933 23.02 45.34C23.02 46.1533 22.8267 46.84 22.44 47.4C22.0667 47.96 21.5267 48.3 20.82 48.42V48.52C21.3 48.6133 21.7333 48.78 22.12 49.02C22.5067 49.26 22.8133 49.6067 23.04 50.06C23.2667 50.5133 23.38 51.1133 23.38 51.86C23.38 53.1533 22.9133 54.1667 21.98 54.9C21.0467 55.6333 19.7667 56 18.14 56H12.8V41.72H17.24ZM17.58 47.38C18.46 47.38 19.0667 47.24 19.4 46.96C19.7467 46.68 19.92 46.2733 19.92 45.74C19.92 45.1933 19.72 44.8 19.32 44.56C18.92 44.32 18.2867 44.2 17.42 44.2H15.82V47.38H17.58ZM15.82 49.78V53.5H17.8C18.7067 53.5 19.34 53.3267 19.7 52.98C20.06 52.62 20.24 52.1467 20.24 51.56C20.24 51.0267 20.0533 50.6 19.68 50.28C19.32 49.9467 18.66 49.78 17.7 49.78H15.82ZM30.4975 44.88C32.0042 44.88 33.1975 45.3133 34.0775 46.18C34.9575 47.0333 35.3975 48.2533 35.3975 49.84V51.28H28.3575C28.3842 52.12 28.6308 52.78 29.0975 53.26C29.5775 53.74 30.2375 53.98 31.0775 53.98C31.7842 53.98 32.4242 53.9133 32.9975 53.78C33.5708 53.6333 34.1642 53.4133 34.7775 53.12V55.42C34.2442 55.6867 33.6775 55.88 33.0775 56C32.4908 56.1333 31.7775 56.2 30.9375 56.2C29.8442 56.2 28.8775 56 28.0375 55.6C27.1975 55.1867 26.5375 54.5667 26.0575 53.74C25.5775 52.9133 25.3375 51.8733 25.3375 50.62C25.3375 49.34 25.5508 48.28 25.9775 47.44C26.4175 46.5867 27.0242 45.9467 27.7975 45.52C28.5708 45.0933 29.4708 44.88 30.4975 44.88ZM30.5175 47C29.9442 47 29.4642 47.1867 29.0775 47.56C28.7042 47.9333 28.4842 48.5133 28.4175 49.3H32.5975C32.5842 48.6333 32.4108 48.0867 32.0775 47.66C31.7442 47.22 31.2242 47 30.5175 47ZM43.8939 44.88C45.1206 44.88 46.1139 45.36 46.8739 46.32C47.6339 47.2667 48.0139 48.6667 48.0139 50.52C48.0139 52.3733 47.6206 53.7867 46.8339 54.76C46.0472 55.72 45.0406 56.2 43.8139 56.2C43.0272 56.2 42.4006 56.06 41.9339 55.78C41.4672 55.4867 41.0872 55.16 40.7939 54.8H40.6339C40.7406 55.36 40.7939 55.8933 40.7939 56.4V60.8H37.8139V45.08H40.2339L40.6539 46.5H40.7939C41.0872 46.06 41.4806 45.68 41.9739 45.36C42.4672 45.04 43.1072 44.88 43.8939 44.88ZM42.9339 47.26C42.1606 47.26 41.6139 47.5 41.2939 47.98C40.9872 48.46 40.8206 49.1933 40.7939 50.18V50.5C40.7939 51.5533 40.9472 52.3667 41.2539 52.94C41.5739 53.5 42.1472 53.78 42.9739 53.78C43.6539 53.78 44.1539 53.5 44.4739 52.94C44.8072 52.3667 44.9739 51.5467 44.9739 50.48C44.9739 48.3333 44.2939 47.26 42.9339 47.26ZM53.4502 45.08V49.28H57.6102V45.08H60.5902V56H57.6102V51.5H53.4502V56H50.4702V45.08H53.4502ZM62.1523 45.08H65.4123L67.4723 51.22C67.579 51.5133 67.659 51.82 67.7123 52.14C67.7657 52.4467 67.8057 52.7733 67.8323 53.12H67.8923C67.9323 52.7733 67.9857 52.4467 68.0523 52.14C68.1323 51.82 68.219 51.5133 68.3123 51.22L70.3323 45.08H73.5323L68.9123 57.4C68.499 58.5333 67.8923 59.38 67.0923 59.94C66.3057 60.5133 65.3923 60.8 64.3523 60.8C64.019 60.8 63.7257 60.78 63.4723 60.74C63.2323 60.7133 63.019 60.68 62.8323 60.64V58.28C62.979 58.3067 63.1523 58.3333 63.3523 58.36C63.5657 58.3867 63.7857 58.4 64.0123 58.4C64.639 58.4 65.1323 58.2067 65.4923 57.82C65.8657 57.4467 66.139 56.9933 66.3123 56.46L66.4923 55.92L62.1523 45.08ZM84.1391 47.32H80.5591V56H77.5791V47.32H73.9991V45.08H84.1391V47.32ZM91.2338 49.3C92.9138 49.3 94.1538 49.5667 94.9538 50.1C95.7671 50.6333 96.1738 51.44 96.1738 52.52C96.1738 53.5733 95.8004 54.42 95.0538 55.06C94.3071 55.6867 93.0738 56 91.3538 56H86.1538V45.08H89.1338V49.3H91.2338ZM93.1938 52.56C93.1938 51.76 92.5204 51.36 91.1738 51.36H89.1338V53.94H91.2138C91.8004 53.94 92.2738 53.8333 92.6338 53.62C93.0071 53.4067 93.1938 53.0533 93.1938 52.56ZM102.879 56.2C101.252 56.2 99.9922 55.7533 99.0989 54.86C98.2189 53.9533 97.7789 52.5333 97.7789 50.6C97.7789 49.2667 98.0056 48.18 98.4589 47.34C98.9122 46.5 99.5389 45.88 100.339 45.48C101.152 45.08 102.086 44.88 103.139 44.88C103.886 44.88 104.532 44.9533 105.079 45.1C105.639 45.2467 106.126 45.42 106.539 45.62L105.659 47.92C105.192 47.7333 104.752 47.58 104.339 47.46C103.939 47.34 103.539 47.28 103.139 47.28C101.592 47.28 100.819 48.38 100.819 50.58C100.819 51.6733 101.019 52.48 101.419 53C101.832 53.52 102.406 53.78 103.139 53.78C103.766 53.78 104.319 53.7 104.799 53.54C105.279 53.3667 105.746 53.1333 106.199 52.84V55.38C105.746 55.6733 105.266 55.88 104.759 56C104.266 56.1333 103.639 56.2 102.879 56.2ZM110.372 56H107.152L110.092 51.68C109.532 51.4533 109.032 51.0867 108.592 50.58C108.166 50.06 107.952 49.3533 107.952 48.46C107.952 47.3667 108.366 46.5333 109.192 45.96C110.019 45.3733 111.079 45.08 112.372 45.08H117.452V56H114.472V51.94H112.832L110.372 56ZM110.872 48.48C110.872 48.9333 111.052 49.2933 111.412 49.56C111.772 49.8133 112.239 49.94 112.812 49.94H114.472V47.18H112.432C111.899 47.18 111.506 47.3133 111.252 47.58C110.999 47.8333 110.872 48.1333 110.872 48.48ZM131.067 45.08V49.28H135.227V45.08H138.207V56H135.227V51.5H131.067V56H128.087V45.08H131.067ZM145.81 44.86C147.276 44.86 148.396 45.18 149.17 45.82C149.956 46.4467 150.35 47.4133 150.35 48.72V56H148.27L147.69 54.52H147.61C147.143 55.1067 146.65 55.5333 146.13 55.8C145.61 56.0667 144.896 56.2 143.99 56.2C143.016 56.2 142.21 55.92 141.57 55.36C140.93 54.7867 140.61 53.9133 140.61 52.74C140.61 51.58 141.016 50.7267 141.83 50.18C142.643 49.62 143.863 49.3133 145.49 49.26L147.39 49.2V48.72C147.39 48.1467 147.236 47.7267 146.93 47.46C146.636 47.1933 146.223 47.06 145.69 47.06C145.156 47.06 144.636 47.14 144.13 47.3C143.623 47.4467 143.116 47.6333 142.61 47.86L141.63 45.84C142.216 45.5333 142.863 45.2933 143.57 45.12C144.29 44.9467 145.036 44.86 145.81 44.86ZM146.23 50.98C145.27 51.0067 144.603 51.18 144.23 51.5C143.856 51.82 143.67 52.24 143.67 52.76C143.67 53.2133 143.803 53.54 144.07 53.74C144.336 53.9267 144.683 54.02 145.11 54.02C145.75 54.02 146.29 53.8333 146.73 53.46C147.17 53.0733 147.39 52.5333 147.39 51.84V50.94L146.23 50.98ZM157.38 44.88C158.167 44.88 158.9 44.9867 159.58 45.2C160.273 45.4 160.827 45.7133 161.24 46.14C161.667 46.5667 161.88 47.1133 161.88 47.78C161.88 48.4333 161.68 48.9533 161.28 49.34C160.893 49.7267 160.367 50.0067 159.7 50.18V50.28C160.167 50.3867 160.587 50.54 160.96 50.74C161.333 50.9267 161.627 51.1867 161.84 51.52C162.067 51.84 162.18 52.2733 162.18 52.82C162.18 53.42 161.987 53.98 161.6 54.5C161.227 55.0067 160.64 55.42 159.84 55.74C159.053 56.0467 158.04 56.2 156.8 56.2C154.987 56.2 153.587 55.9733 152.6 55.52V53.06C153.053 53.2733 153.607 53.4667 154.26 53.64C154.927 53.8133 155.633 53.9 156.38 53.9C157.193 53.9 157.88 53.8067 158.44 53.62C159 53.4333 159.28 53.1067 159.28 52.64C159.28 51.7733 158.247 51.34 156.18 51.34H155.02V49.28H156.12C157.107 49.28 157.867 49.2 158.4 49.04C158.947 48.88 159.22 48.58 159.22 48.14C159.22 47.7933 159.047 47.5333 158.7 47.36C158.353 47.1733 157.787 47.08 157 47.08C156.48 47.08 155.913 47.14 155.3 47.26C154.687 47.38 154.107 47.5533 153.56 47.78L152.68 45.7C153.307 45.46 153.993 45.2667 154.74 45.12C155.487 44.96 156.367 44.88 157.38 44.88ZM168.974 44.86C170.44 44.86 171.56 45.18 172.334 45.82C173.12 46.4467 173.514 47.4133 173.514 48.72V56H171.434L170.854 54.52H170.774C170.307 55.1067 169.814 55.5333 169.294 55.8C168.774 56.0667 168.06 56.2 167.154 56.2C166.18 56.2 165.374 55.92 164.734 55.36C164.094 54.7867 163.774 53.9133 163.774 52.74C163.774 51.58 164.18 50.7267 164.994 50.18C165.807 49.62 167.027 49.3133 168.654 49.26L170.554 49.2V48.72C170.554 48.1467 170.4 47.7267 170.094 47.46C169.8 47.1933 169.387 47.06 168.854 47.06C168.32 47.06 167.8 47.14 167.294 47.3C166.787 47.4467 166.28 47.6333 165.774 47.86L164.794 45.84C165.38 45.5333 166.027 45.2933 166.734 45.12C167.454 44.9467 168.2 44.86 168.974 44.86ZM169.394 50.98C168.434 51.0067 167.767 51.18 167.394 51.5C167.02 51.82 166.834 52.24 166.834 52.76C166.834 53.2133 166.967 53.54 167.234 53.74C167.5 53.9267 167.847 54.02 168.274 54.02C168.914 54.02 169.454 53.8333 169.894 53.46C170.334 53.0733 170.554 52.5333 170.554 51.84V50.94L169.394 50.98ZM186.384 45.08V53.82H187.984V59.92H185.304V56H177.964V59.92H175.284V53.82H176.204C176.684 53.0867 177.091 52.2533 177.424 51.32C177.757 50.3733 178.024 49.3667 178.224 48.3C178.424 47.2333 178.571 46.16 178.664 45.08H186.384ZM181.164 47.32C181.004 48.5333 180.784 49.6867 180.504 50.78C180.224 51.86 179.831 52.8733 179.324 53.82H183.404V47.32H181.164Z" fill="black"/>
</g>
<defs>
<filter id="filter0_d_625_33" x="0" y="0" width="220" height="120" filterUnits="userSpaceOnUse" color-interpolation-filters="sRGB">
<feFlood flood-opacity="0" result="BackgroundImageFix"/>
<feColorMatrix in="SourceAlpha" type="matrix" values="0 0 0 0 0 0 0 0 0 0 0 0 0 0 0 0 0 0 127 0" result="hardAlpha"/>
<feOffset dx="10" dy="10"/>
<feGaussianBlur stdDeviation="5"/>
<feComposite in2="hardAlpha" operator="out"/>
<feColorMatrix type="matrix" values="0 0 0 0 0 0 0 0 0 0 0 0 0 0 0 0 0 0 0.25 0"/>
<feBlend mode="normal" in2="BackgroundImageFix" result="effect1_dropShadow_625_33"/>
<feBlend mode="normal" in="SourceGraphic" in2="effect1_dropShadow_625_33" result="shape"/>
</filter>
</defs>
</svg>
